<svg width="257" height="247" viewBox="0 0 257 247" fill="none" xmlns="http://www.w3.org/2000/svg">
<path d="M134.671 0.563366L134.675 0.563187C173.667 -1.08625 211.493 29.7816 234.412 69.4941C257.33 109.206 265.186 157.489 244.563 190.479C234.088 206.975 216.46 219.751 195.285 228.644C174.113 237.535 149.43 242.529 124.9 243.482C100.369 244.435 76.015 241.346 55.5001 234.094C34.9816 226.841 18.3485 215.439 9.17989 199.798C0.173413 183.99 -1.41656 163.817 2.53558 142.356C6.48702 120.899 15.9711 98.2027 29.0461 77.4C42.1206 56.5979 58.7731 37.7099 77.0426 23.8614C95.3155 10.0103 115.175 1.22314 134.671 0.563366Z" fill="#F99576" stroke="black"/>
<g clip-path="url(#clip0_949_2982)">
<path d="M167.836 191.976C168.528 193.537 169.665 194.758 171.247 195.639C172.733 198.042 174.342 200.233 175.652 202.796C179.597 210.56 182.979 219.834 185.798 230.618C186.314 232.593 186.035 230.634 186 232C185.971 233.106 185.074 233.03 184.5 233C181.974 220.879 178.846 213.137 172.891 201.289C172.792 200.892 172.414 200.405 171.757 199.825C171.529 199.63 171.35 199.668 171.221 199.94C168.062 206.586 165.955 212.499 164.899 217.678C163.962 222.296 162.85 229.079 162 239C158.641 238.976 154.037 240.462 148 241C145.128 241.254 142.121 242.751 138 242C137.009 237.69 136.05 230.778 135.851 226.237C135.792 224.918 135.628 223.668 135.358 222.485C135.071 221.22 134.913 219.967 134.884 218.725C134.878 218.481 134.822 218.241 134.719 218.021C134.616 217.801 134.468 217.605 134.284 217.446C134.101 217.287 133.887 217.169 133.655 217.099C133.424 217.029 133.18 217.009 132.941 217.04L130.338 217.368C129.699 217.451 129.667 217.344 130.241 217.049C130.91 216.712 131.607 216.579 132.334 216.65C134.585 216.88 136.698 216.824 138.673 216.481C143.728 215.612 148.81 216.055 153.857 215.576C153.868 215.575 153.88 215.576 153.891 215.58C153.902 215.583 153.913 215.589 153.922 215.596C153.931 215.603 153.938 215.613 153.944 215.623C153.949 215.633 153.952 215.645 153.953 215.656L153.971 215.887C153.977 216.023 153.912 216.097 153.778 216.109C150.583 216.416 147.439 216.555 144.344 216.525C141.662 216.508 139.025 217.075 136.361 217.306C136.278 217.312 136.198 217.336 136.125 217.375C136.052 217.414 135.988 217.468 135.936 217.534C135.884 217.599 135.846 217.675 135.824 217.756C135.801 217.838 135.796 217.923 135.807 218.007L136.334 221.891C136.362 222.085 136.432 222.271 136.54 222.435C136.648 222.599 136.791 222.738 136.959 222.84C139.834 224.561 143.64 224.765 147.078 225.199C150.032 225.572 152.327 224.605 154.639 222.973C155.044 222.689 155.234 222.296 155.211 221.794L154.789 214.441C154.771 214.14 154.613 213.998 154.314 214.016C150.375 214.181 146.404 214.435 142.401 214.778C137.858 215.168 133.978 215.34 130.76 215.293C130.016 215.281 129.295 215.157 128.597 214.92C128.498 214.879 128.445 214.802 128.439 214.69C128.439 214.63 128.463 214.562 128.509 214.486C128.556 214.397 128.586 214.338 128.597 214.308C129.271 214.746 129.887 214.947 130.444 214.911C138.521 214.432 146.513 213.871 154.419 213.226C154.552 213.215 154.674 213.152 154.761 213.051C154.848 212.95 154.893 212.819 154.885 212.685C154.475 205.927 154.332 199.562 154.455 193.59C154.46 193.271 154.32 193.049 154.033 192.925C151.061 191.648 148.022 190.711 144.915 190.114C144.64 190.06 144.496 190.173 144.485 190.451L143.887 200.898C143.23 200.614 142.764 200.275 142.489 199.878C142.39 199.744 142.268 199.632 142.128 199.55C139.696 198.096 137.049 197.567 134.189 197.963C133.805 198.021 133.449 198.197 133.169 198.468C131.27 200.295 129.664 202.193 128.351 204.162C126.408 207.08 127.235 212.783 127.85 216.1L131 243H129C128.191 240.7 127.619 234.668 127.419 232.055C127.044 227.177 126.851 224.703 126.839 224.632C126.141 219.222 125.526 213.803 124.993 208.375C124.711 205.525 125.116 202.648 126.206 199.745C126.382 199.272 126.411 198.749 126.294 198.176C126.358 197.957 126.479 197.753 126.654 197.564L135.701 186.974C136.616 185.898 136.402 185.564 135.059 185.972C134.022 186.291 133.093 186.885 132.272 187.754C130.901 189.218 128.879 189.706 126.98 189.413C124.635 189.052 122.279 189.274 119.911 190.078C114.064 192.074 114.609 185.812 110.943 183.905C110.134 183.486 109.404 182.959 108.754 182.327C108.461 182.049 108.297 182.111 108.262 182.513C108.009 185.109 106.556 186.971 103.901 188.1C103.488 188.277 103.139 188.577 102.9 188.961C102.661 189.345 102.544 189.793 102.564 190.247C102.734 194.125 102.16 197.596 100.841 200.659C99.8564 202.92 99.8476 205.599 101.21 207.727C102.875 210.311 103.745 212.446 103.822 214.131C104.156 221.06 104.543 228.327 104.982 235.931C105.082 237.634 104.543 238.5 103.364 238.529C102.942 238.305 102.746 238.027 102.775 237.696C103.168 233.391 102.954 229.072 102.134 224.738C102.538 222.089 102.453 219.467 101.879 216.871C101.544 215.364 100.917 214.14 99.9971 213.2C98.7193 211.899 97.5851 210.595 96.5946 209.288C96.4129 209.046 96.1755 208.877 95.8824 208.783L88.0927 206.326L85.6222 203.284C85.3995 203.006 85.3496 202.702 85.4727 202.371C85.9563 201.049 86.9146 200.029 87.3542 198.637C87.5242 198.075 87.3776 197.972 86.9146 198.326C81.9383 202.104 79.4678 206.246 76.9533 211.674C76.8068 211.987 76.6309 212.005 76.4258 211.727L76.1532 211.364C76.1194 211.317 76.0996 211.262 76.0965 211.205C76.0934 211.148 76.107 211.092 76.1356 211.044C76.7569 210.063 77.3108 209.034 77.7973 207.958C79.7491 203.692 83.0022 200.153 86.941 197.439C89.1566 195.908 90.7772 193.661 91.8029 190.699C91.9788 190.185 91.8381 190.066 91.3809 190.344C87.4509 192.73 82.7648 195.125 79.9777 198.654C78.3776 200.682 76.795 203.062 75.2301 205.794C73.9904 207.949 74.3948 210.636 75.8191 212.534C76.3554 213.244 76.2148 214.024 76.5049 214.823C78.0757 219.151 79.5674 223.89 80.98 229.04C81.0706 229.367 81.2813 229.648 81.5699 229.825C81.8585 230.003 82.2036 230.064 82.5362 229.997C84.0543 229.684 85.5431 229.418 87.0025 229.199C88.4444 228.975 89.9127 228.7 91.4073 228.374C94.5666 227.694 97.6936 227.251 100.788 227.044C100.889 227.038 100.99 227.053 101.086 227.088C101.181 227.123 101.268 227.178 101.342 227.248C101.416 227.319 101.475 227.404 101.516 227.498C101.557 227.593 101.579 227.695 101.58 227.798C101.58 229.926 101.668 231.984 101.843 233.971C101.972 235.408 101.556 236.679 100.595 237.784C100.492 237.904 100.358 237.992 100.209 238.039C100.06 238.086 99.9014 238.09 99.7509 238.05L99.4608 237.98C99.4002 237.965 99.3442 237.936 99.2975 237.894C99.2509 237.853 99.2151 237.8 99.1934 237.742C99.1717 237.683 99.1646 237.62 99.1729 237.557C99.1812 237.495 99.2046 237.436 99.241 237.385C100.085 236.188 100.876 235.026 100.674 233.483C100.457 231.81 100.296 230.24 100.19 228.773C100.18 228.615 100.137 228.46 100.064 228.319C99.9912 228.178 99.8898 228.053 99.7665 227.954C99.6432 227.855 99.5007 227.782 99.3482 227.742C99.1956 227.701 99.0363 227.693 98.8805 227.718C94.549 228.398 90.4607 229.084 86.6157 229.776C85.0595 230.06 84.1539 230.68 82.4571 230.148C82.3356 230.111 82.2064 230.107 82.0828 230.136C81.9593 230.166 81.8459 230.227 81.7544 230.315C81.6629 230.403 81.5967 230.514 81.5625 230.635C81.5284 230.757 81.5276 230.886 81.5603 231.008L83.0813 236.773C83.133 236.97 83.1176 237.177 83.0378 237.363C82.9579 237.548 82.8182 237.7 82.6417 237.793C82.1787 238.036 81.7654 237.903 81.402 237.394C81.15 235.449 80.7514 233.539 80.2063 231.665C78.3307 225.179 76.2265 218.642 73.8937 212.055C73.4013 210.672 72.9148 210.672 72.4342 212.055C72.2173 212.688 72.1998 213.347 72.3815 214.033C71.8305 214.802 71.4583 215.506 71.2649 216.144C69.0259 223.446 67.2938 230.441 66.0688 237.128C65.0431 236.655 64.6504 235.824 64.8907 234.636C66.186 228.203 67.9972 221.43 70.3241 214.317C72.9617 206.282 76.7247 199.071 83.2044 193.812C83.9341 193.218 84.7518 192.029 84.9276 191.089C85.6398 187.471 86.4662 183.799 86.8179 180.101C87.5447 172.467 88.0839 164.816 88.4356 157.148C88.5528 154.593 88.1338 152.675 87.1784 151.392C87.8172 150.593 88.2861 149.775 88.5851 148.935C88.6847 148.651 88.6027 148.438 88.3389 148.296L85.3145 146.602C84.4763 145.106 83.6235 143.563 82.756 141.973C80.5492 137.955 80.0305 134.7 81.3141 130.283C81.5427 129.494 81.2526 128.581 80.8218 127.915C79.7052 126.177 78.8172 124.182 78.6853 122.115C77.9878 110.615 80.9302 100.188 87.5125 90.8342C89.1214 88.5371 91.2578 86.4707 93.2448 84.4397C96.5946 80.9985 100.498 79.1538 104.833 77.2913C106.433 76.6054 108.112 76.0703 109.87 75.686C115.823 74.4 120.729 73.7348 126.549 75.5441C129.371 76.4221 131.437 75.8545 134.145 75.5352C135.704 75.3578 137.375 75.4613 139.157 75.8456C140.874 76.2181 142.486 76.8094 143.992 77.6194C149.385 80.5284 153.719 84.0967 156.995 88.3243C161.175 93.7048 164.287 99.6736 166.333 106.231C167.95 111.41 168.097 116.581 166.772 121.743C166.286 123.646 165.497 125.305 164.407 126.718C163.944 127.315 163.78 127.978 163.915 128.705C164.724 133.104 164.269 137.204 162.552 141.006C161.69 142.922 160.838 144.725 159.994 146.416C159.097 148.199 158.939 150.31 159.026 152.296C159.349 159.332 160.035 166.179 161.084 172.837C161.849 177.679 163.422 182.965 164.618 187.967C165.093 189.972 166.166 191.308 167.836 191.976ZM136.466 92.1291C136.748 93.0751 137.117 93.9709 137.574 94.8164C139.473 98.3344 140.883 101.737 141.803 105.025C142.624 107.969 143.356 110.866 144.001 113.716C144.165 114.455 144.611 114.916 145.337 115.1C148.942 115.987 152.579 117.648 156.248 120.084C156.512 120.261 156.664 120.507 156.705 120.82L157.286 125.29C157.374 126.012 157.752 126.23 158.42 125.947C159.744 125.379 161.013 125.459 162.227 126.186C162.338 126.252 162.461 126.294 162.589 126.309C162.717 126.324 162.847 126.311 162.97 126.272C163.093 126.232 163.206 126.167 163.302 126.081C163.398 125.994 163.475 125.888 163.528 125.769C167.033 117.905 167.027 110.059 163.51 102.231C161.254 97.211 158.877 93.0455 156.38 89.7345C152.535 84.6437 147.398 80.7324 140.968 78.0008C137.829 76.6704 133.987 76.9897 130.681 77.3356C129.468 77.4657 128.17 77.3593 126.786 77.0163C120.638 75.485 114.187 75.822 107.435 78.0274C102.318 79.7036 97.5969 81.9209 93.7636 85.6636C89.813 89.5246 86.8794 93.4831 84.9628 97.5392C81.1588 105.592 79.5147 113.716 80.0305 121.911C80.1536 123.921 80.8393 125.725 82.0878 127.321C82.2139 127.484 82.3742 127.617 82.5568 127.709C82.7395 127.801 82.9397 127.851 83.1428 127.853L87.0992 127.889C87.5974 127.895 87.8202 127.646 87.7674 127.144L87.2839 122.541C87.2487 122.174 87.3278 121.831 87.5212 121.512C87.9784 120.767 88.6671 120.229 89.5874 119.898C89.9508 119.774 90.1999 119.528 90.3347 119.162C91.5245 115.862 93.0338 113.364 94.8626 111.667C97.2657 109.432 98.0394 109.905 97.1836 113.086C96.7733 114.612 96.4217 116.389 96.1286 118.417C96.1179 118.489 96.1256 118.564 96.1511 118.633C96.1766 118.702 96.219 118.763 96.2744 118.811C96.3297 118.858 96.3962 118.891 96.4675 118.906C96.5389 118.921 96.6129 118.917 96.6825 118.896C102.52 117.069 108.499 115.732 114.618 114.887C114.741 114.869 114.852 114.804 114.928 114.704C115.004 114.605 115.038 114.479 115.023 114.355C114.296 108.3 115.245 102.337 117.871 96.466C119.12 93.6812 121.186 91.4728 122.654 88.8032C123.164 87.8897 123.982 87.6236 124.623 86.852C124.858 86.5741 125.163 86.4027 125.538 86.3376C125.819 86.2903 126.071 86.3406 126.294 86.4884C126.546 86.6599 126.654 86.8964 126.619 87.1979C125.746 94.707 125.737 102.905 126.593 111.792C126.692 112.88 126.927 113.917 127.296 114.905C127.478 115.389 127.824 115.641 128.334 115.658L131.006 115.774C131.475 115.797 131.639 115.585 131.499 115.135C128.914 106.722 128.445 98.3019 130.092 89.8764C130.203 89.2969 130.42 88.7382 130.743 88.2001C130.884 87.9688 131.109 87.8026 131.369 87.7378C131.629 87.6731 131.903 87.7149 132.132 87.8542C133.07 88.4218 133.981 89.0752 134.866 89.8143C135.675 90.4824 136.208 91.254 136.466 92.1291ZM132.193 92.3153C131.256 94.4794 130.839 96.7173 130.945 99.0291C130.628 100.909 130.52 102.252 130.62 103.056C131.024 106.219 131.909 110.517 133.275 115.951C133.533 116.98 133.134 117.45 132.079 117.361L127.428 116.962C126.385 116.868 125.766 116.303 125.573 115.268C124.07 107.144 124.237 99.7564 124.5 91.1624C124.518 90.4824 124.377 90.4469 124.078 91.0559L122.874 93.486C122.833 93.5624 122.783 93.6312 122.724 93.69C121.476 94.9849 120.324 95.8541 119.621 97.6367C118.032 101.64 117.106 105.938 116.843 110.532C116.737 112.336 116.74 114.115 116.851 115.871C116.875 116.309 116.67 116.542 116.236 116.572C112.49 116.856 108.76 117.568 105.044 118.709C102.38 119.534 99.5487 119.57 96.8935 120.767C96.6004 120.897 96.3015 120.921 95.9967 120.838C93.8075 120.226 94.3878 117.778 94.7131 116.084C95.0648 114.251 94.7805 114.145 93.8603 115.765C93.0338 117.225 92.3686 118.828 91.8645 120.572C91.7648 120.903 91.5538 121.122 91.2315 121.228L89.5346 121.769C89.3918 121.815 89.2688 121.908 89.1857 122.034C89.1026 122.16 89.0644 122.31 89.0774 122.461L89.5962 128.332C89.6548 129.024 89.9683 129.175 90.5369 128.785C97.1192 124.338 104.537 123.046 112.789 124.909C114.7 125.34 116.391 126.346 117.862 127.924C118.073 128.155 118.317 128.19 118.592 128.031C121.423 126.381 124.105 127.197 127.217 127.215C127.51 127.221 127.747 127.108 127.929 126.878C129.453 124.95 131.402 123.706 133.776 123.144C140.897 121.465 147.606 122.36 153.901 125.831C154.364 126.085 154.601 125.947 154.613 125.414L154.683 121.228C154.689 120.696 154.449 120.329 153.962 120.128C150.744 118.807 147.289 116.696 143.711 116.616C143.526 116.611 143.348 116.543 143.207 116.422C143.067 116.301 142.971 116.135 142.937 115.951C141.648 109.542 139.625 103.23 136.871 97.0159C135.892 94.7868 134.488 92.6287 132.659 90.5415C132.431 90.2755 132.255 90.308 132.132 90.6391C131.909 91.2244 131.93 91.7832 132.193 92.3153ZM134.233 142.931C134.731 143.238 135.276 143.433 135.868 143.516C139.766 144.06 143.485 144.098 147.025 143.631C148.511 143.436 149.584 142.611 150.903 142.035C151.237 141.893 151.492 141.662 151.668 141.343C152.45 139.96 153.989 139.738 154.393 137.893C155.149 134.458 155.152 131.064 154.402 127.711C154.326 127.369 154.121 127.15 153.786 127.055C152.309 126.618 150.988 126.106 149.821 125.521C146.173 123.685 142.489 123.463 138.269 123.96C134.998 124.35 132.404 124.235 129.811 126.771C128.697 127.871 128.058 129.308 127.894 131.082C127.572 134.694 127.991 137.429 129.151 139.285C130.268 141.086 132.396 141.795 134.233 142.931ZM93.9658 128.731C90.4138 129.494 90.9325 134.461 91.2315 137.405C91.4014 139.149 92.0022 140.595 93.0338 141.742C94.7453 143.64 96.788 144.737 99.1618 145.033C99.8535 145.121 100.528 145.257 101.184 145.441C101.958 145.659 102.796 145.76 103.698 145.742C106.371 145.701 108.985 145.414 111.541 144.882C113.329 144.515 114.82 143.56 116.016 142.017C118.237 139.167 118.938 135.877 118.117 132.146C117.432 129.042 115.659 127.099 112.798 126.319C110.893 125.799 108.516 125.506 105.668 125.441C104.059 125.405 102.591 125.84 100.964 125.876C99.1882 125.911 97.591 126.541 96.1726 127.765C95.9557 127.954 95.7037 128.046 95.4165 128.04C95.0648 128.034 94.7658 128.161 94.5197 128.421C94.3673 128.587 94.1826 128.69 93.9658 128.731ZM158.349 128.119C157.763 128.616 157.418 129.432 157.312 130.567C157.224 131.572 157.119 132.427 156.995 133.13C156.796 134.254 156.79 135.371 156.978 136.483L156.635 143.968C156.612 144.56 156.849 144.701 157.347 144.394L158.42 143.729C158.644 143.591 158.822 143.387 158.929 143.143C159.036 142.899 159.067 142.627 159.018 142.363L158.112 137.565C158.528 137.039 158.974 137.485 159.448 138.904C159.73 139.738 159.8 140.749 159.659 141.937C159.566 142.765 159.788 142.863 160.328 142.23C161.084 141.349 161.304 140.48 160.987 139.622C159.873 136.583 159.264 134.363 159.158 132.962C160.084 134.83 160.673 136.279 160.926 137.308C161.383 139.188 161.863 139.194 162.367 137.325C163.097 134.638 163.572 129.556 161.005 127.516C160.307 126.966 159.422 127.167 158.349 128.119ZM119.049 129.955L119.164 130.275C119.193 130.347 119.248 130.405 119.318 130.438C119.388 130.471 119.468 130.476 119.542 130.452C121.787 129.683 123.958 129.624 126.057 130.275C126.344 130.363 126.555 130.275 126.69 130.009L126.848 129.68C127.035 129.308 126.924 129.077 126.514 128.989C124.251 128.521 121.877 128.616 119.392 129.272C119.322 129.291 119.257 129.325 119.201 129.371C119.145 129.417 119.099 129.474 119.066 129.538C119.034 129.603 119.016 129.674 119.013 129.745C119.01 129.817 119.022 129.889 119.049 129.955ZM85.5167 143.117C86.1204 144.169 86.941 145.098 87.9784 145.902C89.4848 147.072 90.1413 146.7 89.9478 144.784L89.2357 137.84C89.2298 137.781 89.2093 137.751 89.1741 137.751H88.9543C88.8407 137.749 88.7305 137.791 88.6469 137.868C88.5632 137.946 88.5127 138.053 88.506 138.168C88.4473 138.978 88.1308 139.643 87.5564 140.163C87.2985 140.394 87.111 140.347 86.9937 140.022C86.8765 139.69 86.8413 139.247 86.8882 138.691L88.04 132.119C88.2627 130.848 87.7557 130.041 86.519 129.698C86.1087 129.586 85.7042 129.53 85.3057 129.53C83.559 129.535 82.5245 130.405 82.2021 132.137C81.4694 136.069 82.5743 139.729 85.5167 143.117ZM126.329 131.542C126.328 131.479 126.301 131.419 126.256 131.375C126.21 131.331 126.149 131.307 126.086 131.309L120.004 131.459C119.941 131.46 119.881 131.487 119.838 131.533C119.795 131.579 119.771 131.641 119.773 131.704L119.875 135.942C119.877 136.006 119.903 136.066 119.949 136.11C119.995 136.154 120.055 136.177 120.118 136.176L126.201 136.026C126.264 136.024 126.323 135.998 126.367 135.952C126.41 135.906 126.434 135.844 126.432 135.781L126.329 131.542ZM109.791 146.993L101.966 147.303L94.546 145.174C94.3186 145.109 94.0798 145.094 93.8458 145.13C93.6118 145.166 93.3881 145.252 93.1897 145.383C92.9914 145.515 92.823 145.687 92.696 145.89C92.569 146.093 92.4863 146.32 92.4536 146.558C92.4008 146.942 92.4155 147.333 92.4975 147.729C93.2126 151.4 94.1123 154.818 95.1967 157.981C96.6561 162.256 101.562 166.158 105.237 167.932C113.317 171.843 121.265 174.894 130.162 172.429C136.657 170.631 141.589 168.092 144.959 164.81C148.344 161.502 151.386 158.46 152.432 153.591C153.019 150.865 153.561 148.089 154.059 145.263C154.176 144.595 153.907 144.181 153.25 144.021C151.984 143.711 151.043 143.525 149.751 144.03C147.676 144.834 145.51 145.296 143.254 145.414L133.389 144.288C130.529 143.229 128.504 141.319 127.314 138.558C127.23 138.365 127.092 138.201 126.917 138.086C126.742 137.971 126.538 137.91 126.329 137.911L120.263 137.902C119.858 137.896 119.597 138.088 119.48 138.478C118.085 143.167 114.856 146.005 109.791 146.993ZM155 142.194C155.152 141.692 155.205 141.201 155.158 140.722C155.123 140.297 154.906 140.152 154.507 140.288C153.974 140.477 153.543 140.835 153.215 141.361C153.033 141.645 153.06 141.914 153.294 142.168C153.505 142.393 153.754 142.561 154.041 142.673C154.534 142.863 154.853 142.703 155 142.194ZM92.7876 143.436C92.5415 142.904 92.181 142.505 91.7062 142.239C91.378 142.056 91.1934 142.153 91.1523 142.532C91.0879 143.164 91.211 143.735 91.5216 144.243C91.5685 144.321 91.6323 144.387 91.7082 144.437C91.7841 144.486 91.8702 144.518 91.9599 144.529C92.0496 144.54 92.1406 144.53 92.2261 144.501C92.3116 144.471 92.3894 144.423 92.4536 144.359L92.6558 144.155C92.7483 144.061 92.8106 143.942 92.8341 143.813C92.8577 143.685 92.8415 143.553 92.7876 143.436ZM150.604 162.008C150 168.121 150.076 174.726 150.832 181.821C150.539 184.399 152.55 185.564 156.864 185.315C159.22 185.182 160.591 185.777 161.26 188.038C161.453 188.677 161.852 188.863 162.455 188.597L162.701 188.482C162.989 188.358 163.091 188.145 163.009 187.843C161.872 183.669 160.946 179.917 160.231 176.588C158.613 169.068 157.784 159.956 157.743 149.254C157.743 148.456 157.801 147.599 157.919 146.682C158.007 146.044 157.766 145.872 157.198 146.168L156.828 146.363C156.593 146.487 156.393 146.67 156.248 146.894C156.103 147.118 156.018 147.375 156.002 147.64C155.949 148.409 155.809 149.133 155.58 149.813C154.8 152.16 153.921 154.605 152.942 157.148C152.626 157.975 152.236 158.791 151.773 159.595C151.333 160.346 150.944 161.15 150.604 162.008ZM94.4933 185.378C95.859 178.436 96.3953 171.308 96.1022 163.994C94.6193 161.346 93.4617 158.623 92.6294 155.826C92.0257 153.786 91.504 151.918 91.0644 150.221C90.7127 148.837 90.3962 148.846 90.1149 150.248C89.857 151.542 90.0006 152.728 90.5457 153.804C90.7098 154.129 90.6776 154.431 90.449 154.709C90.1149 155.111 89.9361 155.557 89.9127 156.048C89.6255 162.037 89.3236 168.03 89.0071 174.025C88.6818 180.127 87.8026 184.978 86.264 190.593C86.2438 190.667 86.2442 190.746 86.2651 190.821C86.286 190.895 86.3267 190.963 86.3828 191.016C86.4389 191.068 86.5082 191.105 86.5833 191.121C86.6585 191.137 86.7365 191.132 86.8091 191.107C90.0504 189.995 92.6118 188.086 94.4933 185.378ZM143.597 180.482C143.895 181.05 144.326 181.635 144.959 181.848C146.143 182.25 147.304 182.743 148.441 183.329C148.48 183.347 148.524 183.355 148.568 183.351C148.611 183.347 148.653 183.331 148.687 183.305C148.722 183.279 148.748 183.245 148.764 183.205C148.779 183.166 148.783 183.122 148.775 183.08C148.042 179.29 147.817 175.456 148.098 171.577C148.247 169.431 148.23 167.249 148.186 165.103C148.174 164.287 147.908 164.193 147.386 164.819C145.118 167.563 142.155 169.943 138.497 171.959C137.618 172.444 136.718 172.754 135.798 172.89C135.546 172.931 135.391 173.076 135.332 173.325C135.297 173.496 135.326 173.653 135.42 173.795C135.543 173.978 135.71 174.093 135.921 174.141C139.221 174.886 141.78 176.999 143.597 180.482ZM104.393 169.502C102.383 168.32 100.516 167.06 98.7926 165.724C98.7416 165.683 98.6802 165.657 98.6153 165.649C98.5504 165.641 98.4846 165.651 98.4252 165.679C98.3659 165.706 98.3153 165.75 98.2793 165.805C98.2432 165.86 98.2231 165.924 98.2211 165.99L97.6057 179.134C97.5705 179.956 97.8284 180.062 98.3793 179.453C100.481 177.129 103.637 174.806 106.793 174.371C107.907 174.217 109.012 173.966 110.108 173.617C110.212 173.585 110.305 173.524 110.377 173.441C110.448 173.358 110.495 173.256 110.513 173.146C110.53 173.037 110.517 172.924 110.475 172.821C110.433 172.718 110.364 172.628 110.275 172.562C108.49 171.232 106.345 170.655 104.393 169.502ZM133.495 179.914L133.67 173.733C133.672 173.691 133.664 173.649 133.646 173.611C133.629 173.573 133.603 173.54 133.57 173.514C133.538 173.488 133.5 173.47 133.459 173.462C133.418 173.454 133.376 173.455 133.336 173.467C130.03 174.3 126.672 175.338 123.252 175.214C119.835 175.09 116.28 174.339 112.587 172.961C112.495 172.926 112.395 172.918 112.299 172.936C112.202 172.954 112.112 172.998 112.038 173.063C111.964 173.129 111.909 173.213 111.879 173.308C111.849 173.402 111.844 173.503 111.866 173.6C112.359 175.775 112.578 177.963 112.526 180.163C112.523 180.252 112.499 180.34 112.454 180.417C112.409 180.495 112.345 180.559 112.269 180.605C112.193 180.651 112.106 180.677 112.017 180.68C111.928 180.684 111.84 180.664 111.761 180.624C111.35 180.405 110.978 180.127 110.644 179.79C110.363 179.494 110.137 179.533 109.967 179.905C109.709 180.467 109.932 181.035 110.635 181.608C110.787 181.732 110.953 181.833 111.128 181.91C113.291 182.862 114.817 184.485 115.708 186.779C116.35 188.428 117.941 188.783 119.489 188.287C122.273 187.388 124.949 187.205 127.516 187.737C128.677 187.979 129.685 187.666 130.54 186.797C131.953 185.366 133.623 184.408 135.552 183.923C135.886 183.84 136.15 183.654 136.343 183.364C137.597 181.437 137.436 179.941 135.86 178.877C135.838 178.861 135.813 178.852 135.787 178.848C135.761 178.844 135.735 178.847 135.71 178.856C135.685 178.864 135.662 178.879 135.644 178.898C135.626 178.917 135.612 178.94 135.605 178.965C135.317 179.976 134.86 180.52 134.233 180.597C134.139 180.609 134.043 180.6 133.952 180.57C133.861 180.541 133.778 180.492 133.708 180.427C133.638 180.362 133.582 180.283 133.546 180.194C133.509 180.106 133.491 180.01 133.495 179.914ZM92.5591 192.925C91.0556 196.056 89.0247 198.965 87.2487 202.042C87.1747 202.171 87.1442 202.321 87.1616 202.469C87.179 202.618 87.2435 202.757 87.3454 202.867C89.4496 205.09 92.1107 206.486 95.3285 207.053C98.098 207.55 98.4673 203.94 98.8365 202.167C99.5311 198.787 100.999 196.304 101.017 192.792C101.052 185.759 103.549 179.897 109.888 176.393C110.492 176.062 110.454 175.861 109.774 175.79C100.815 174.823 95.7945 186.202 92.5591 192.925ZM136.616 176.721C140.572 179.258 139.35 184.89 136.844 188.056C134.863 190.557 132.905 192.99 130.971 195.355C130.297 196.183 130.482 196.49 131.525 196.278C133.823 195.805 136.381 195.819 139.201 196.322C140.194 196.49 140.836 196.978 141.697 197.439C142.125 197.67 142.357 197.543 142.392 197.058C142.791 191.737 142.843 187.255 142.55 183.613C142.275 180.242 140.393 177.697 136.906 175.976C136.783 175.917 136.689 175.947 136.624 176.065L136.501 176.269C136.396 176.452 136.434 176.603 136.616 176.721ZM106.477 180.775L103.224 186.087C103.211 186.111 103.207 186.139 103.213 186.165C103.22 186.191 103.236 186.214 103.259 186.229L103.276 186.247C103.608 186.452 104.097 186.37 104.636 186.017C105.176 185.665 105.72 185.071 106.151 184.367L106.266 184.189C106.48 183.84 106.66 183.473 106.795 183.111C106.93 182.749 107.018 182.398 107.053 182.078C107.088 181.758 107.07 181.476 107 181.248C106.93 181.02 106.809 180.85 106.644 180.748L106.617 180.739C106.594 180.726 106.566 180.722 106.54 180.729C106.514 180.735 106.491 180.752 106.477 180.775ZM144.959 183.967C144.915 183.953 144.867 183.95 144.821 183.958C144.775 183.966 144.732 183.985 144.694 184.014C144.657 184.043 144.628 184.08 144.608 184.123C144.588 184.166 144.579 184.213 144.581 184.26L144.766 188.482C144.768 188.541 144.787 188.597 144.822 188.645C144.856 188.692 144.904 188.728 144.959 188.748L154.332 192.207C154.373 192.222 154.416 192.227 154.46 192.223C154.503 192.218 154.545 192.204 154.582 192.181C154.619 192.158 154.651 192.127 154.674 192.09C154.698 192.053 154.713 192.011 154.718 191.967L155.281 187.382C155.29 187.312 155.273 187.241 155.235 187.183C155.196 187.124 155.137 187.081 155.07 187.063L144.959 183.967ZM160.899 236.631C159.835 227.346 158.965 217.82 159.114 208.472C159.226 201.046 159.396 194.341 159.624 188.358C159.671 187.128 159.047 186.525 157.752 186.548C156.99 186.56 156.568 186.947 156.486 187.71C155.958 192.422 155.753 197.256 155.87 202.211C156.122 213.049 156.585 222.796 157.259 231.452C157.394 233.173 157.637 234.908 157.989 236.658C158.13 237.379 158.566 237.764 159.299 237.811L159.774 237.838C160.624 237.891 160.999 237.489 160.899 236.631ZM161.998 196.189C164.343 197.566 166.318 199.255 167.924 201.253C168.463 201.921 168.888 201.853 169.199 201.049L170.148 198.619C170.389 198.016 170.304 197.466 169.893 196.969C167.478 194.031 164.885 191.725 162.112 190.052C161.433 189.644 161.095 189.839 161.101 190.637L161.128 194.681C161.134 195.355 161.424 195.858 161.998 196.189ZM161.268 214.92C161.427 215.263 161.403 215.367 161.198 215.231C160.741 219.701 160.949 224.017 161.822 228.179C161.91 228.599 161.981 228.596 162.033 228.17C162.414 225.06 162.766 221.841 163.088 218.512C163.229 217.093 163.66 215.656 164.108 214.317C164.237 213.927 164.102 213.69 163.704 213.608L162.534 213.377C162.474 213.362 162.421 213.325 162.387 213.274C162.353 213.223 162.34 213.162 162.35 213.102L162.403 212.792C162.413 212.729 162.443 212.672 162.489 212.627C162.535 212.583 162.594 212.553 162.658 212.543L164.17 212.33C164.439 212.289 164.624 212.141 164.724 211.887L168.205 202.796C168.317 202.501 168.252 202.255 168.012 202.06C165.84 200.304 163.88 198.167 161.304 197.023C160.964 196.875 160.794 196.984 160.794 197.351L160.723 214.14C160.723 214.388 160.823 214.586 161.022 214.734L161.268 214.92ZM127.745 202.246L130.611 198.158C130.628 198.133 130.635 198.102 130.63 198.072C130.625 198.043 130.609 198.016 130.584 197.998L130.558 197.989C130.314 197.817 129.933 197.863 129.498 198.115C129.063 198.368 128.609 198.807 128.237 199.337L128.052 199.595C127.679 200.126 127.418 200.704 127.326 201.203C127.233 201.702 127.318 202.08 127.56 202.255L127.586 202.273C127.611 202.29 127.641 202.297 127.671 202.292C127.7 202.287 127.727 202.271 127.745 202.246ZM101.158 211.204C100.586 209.883 99.8652 208.472 99.03 207.266C98.8072 206.941 98.5757 206.935 98.3354 207.248C97.9778 207.716 97.9456 208.195 98.2387 208.685C98.8776 209.744 99.7275 210.681 100.788 211.497C101.281 211.875 101.404 211.778 101.158 211.204ZM153.804 225.004C151.7 226.252 150.173 226.825 149.223 226.725C146.076 226.382 142.905 226.027 139.71 225.66L137.328 224.658C136.982 224.51 136.818 224.629 136.835 225.013C136.982 228.957 137.375 232.803 138.014 236.552C138.184 237.557 138.752 238.175 139.719 238.405C144.942 239.623 150.343 239.446 155.923 237.873C156.251 237.778 156.398 237.563 156.362 237.226L155.193 225.049C155.164 224.747 155 224.596 154.701 224.596C154.443 224.596 154.144 224.732 153.804 225.004Z" fill="#030202"/>
<path d="M134.865 89.814C133.98 89.0749 133.069 88.4216 132.131 87.854C131.903 87.7146 131.629 87.6728 131.368 87.7376C131.108 87.8024 130.883 87.9685 130.742 88.1999C130.42 88.7379 130.203 89.2967 130.091 89.8761C128.444 98.3016 128.913 106.721 131.498 115.135C131.639 115.584 131.475 115.797 131.006 115.774L128.333 115.658C127.823 115.641 127.477 115.389 127.296 114.904C126.926 113.917 126.692 112.879 126.592 111.791C125.736 102.905 125.745 94.7067 126.619 87.1977C126.654 86.8961 126.545 86.6596 126.293 86.4881C126.071 86.3403 125.819 86.2901 125.537 86.3374C125.162 86.4024 124.857 86.5739 124.623 86.8518C123.981 87.6234 123.163 87.8894 122.653 88.803C121.185 91.4725 119.119 93.6809 117.871 96.4658C115.245 102.337 114.295 108.3 115.022 114.354C115.037 114.479 115.003 114.604 114.927 114.704C114.852 114.803 114.741 114.869 114.618 114.887C108.498 115.732 102.52 117.068 96.6819 118.895C96.6123 118.917 96.5383 118.921 96.4669 118.906C96.3956 118.891 96.3291 118.858 96.2738 118.81C96.2184 118.763 96.176 118.701 96.1505 118.632C96.125 118.564 96.1173 118.489 96.128 118.416C96.4211 116.388 96.7727 114.612 97.183 113.086C98.0388 109.905 97.2651 109.432 94.8619 111.667C93.0332 113.364 91.5239 115.862 90.3341 119.161C90.1993 119.528 89.9502 119.773 89.5868 119.898C88.6665 120.229 87.9778 120.767 87.5206 121.512C87.3272 121.831 87.2481 122.174 87.2833 122.541L87.7668 127.144C87.8196 127.646 87.5968 127.894 87.0986 127.889L83.1422 127.853C82.9391 127.85 82.7389 127.801 82.5562 127.709C82.3736 127.617 82.2133 127.484 82.0872 127.321C80.8387 125.725 80.153 123.921 80.0299 121.911C79.5141 113.716 81.1582 105.592 84.9622 97.5389C86.8788 93.4828 89.8124 89.5243 93.763 85.6633C97.5963 81.9206 102.318 79.7034 107.434 78.0271C114.187 75.8217 120.637 75.4847 126.786 77.0161C128.169 77.359 129.467 77.4654 130.68 77.3354C133.986 76.9895 137.828 76.6702 140.967 78.0005C147.397 80.7322 152.534 84.6434 156.379 89.7342C158.876 93.0453 161.253 97.2108 163.51 102.231C167.027 110.059 167.032 117.905 163.527 125.769C163.475 125.888 163.398 125.994 163.302 126.08C163.205 126.167 163.092 126.232 162.969 126.272C162.846 126.311 162.717 126.324 162.589 126.309C162.461 126.294 162.337 126.252 162.226 126.186C161.013 125.458 159.744 125.379 158.419 125.946C157.751 126.23 157.373 126.011 157.285 125.29L156.705 120.82C156.664 120.507 156.511 120.261 156.248 120.084C152.578 117.648 148.941 115.986 145.337 115.099C144.61 114.916 144.164 114.455 144 113.716C143.356 110.866 142.623 107.969 141.802 105.024C140.882 101.737 139.472 98.3342 137.573 94.8161C137.116 93.9706 136.747 93.0748 136.466 92.1288C136.208 91.2537 135.674 90.4821 134.865 89.814ZM92.9453 93.672C95.706 89.8465 98.8418 86.7956 102.353 84.5192C104.416 83.1771 107.156 81.9531 110.573 80.8475C110.617 80.8332 110.654 80.8019 110.676 80.7604C110.697 80.7188 110.701 80.6704 110.688 80.6257L110.608 80.3774C110.532 80.1409 110.377 80.0552 110.142 80.1202C106.503 81.149 103.425 82.5769 100.911 84.4039C95.7587 88.1289 91.8404 92.7733 89.156 98.3371C89.1331 98.3843 89.1218 98.4363 89.123 98.4887C89.1242 98.5412 89.1379 98.5926 89.1629 98.6387C89.1878 98.6847 89.2234 98.7241 89.2666 98.7534C89.3097 98.7827 89.3592 98.8011 89.4109 98.8072L89.7011 98.8426C89.7714 98.8486 89.8212 98.822 89.8505 98.7628C90.7708 96.9476 91.8023 95.2507 92.9453 93.672ZM146.321 97.3172C144.264 91.1325 140.621 86.4911 135.393 83.3929C135.223 83.2864 135.115 83.3337 135.068 83.5348L134.997 83.8452C134.898 84.2768 135.03 84.6197 135.393 84.874C139.754 87.9367 142.822 91.6854 144.598 96.1199C144.818 96.6697 145.425 97.2817 145.908 97.6276C146.36 97.9469 146.497 97.8434 146.321 97.3172ZM95.4334 99.1442C94.3198 101.356 93.294 103.596 92.3562 105.867C92.3382 105.91 92.3295 105.957 92.3305 106.004C92.3315 106.051 92.3423 106.098 92.3622 106.14C92.3821 106.183 92.4106 106.221 92.4459 106.252C92.4812 106.282 92.5226 106.305 92.5672 106.319L92.7958 106.39C92.9535 106.438 93.1234 106.426 93.2727 106.356C93.422 106.285 93.5402 106.162 93.6047 106.009C96.7698 98.4701 101.491 90.5856 107.777 85.9471C108.123 85.6929 108.167 85.3943 107.909 85.0514L107.777 84.8651C107.719 84.7873 107.632 84.7363 107.535 84.7231C107.438 84.7098 107.339 84.7353 107.259 84.7942C102.329 88.4659 98.3875 93.2493 95.4334 99.1442ZM152.854 93.6454C151.465 90.9079 149.314 88.8236 146.401 87.3928C146.307 87.3455 146.254 87.375 146.242 87.4815L146.216 87.8717C146.198 88.0136 146.248 88.126 146.365 88.2087C148.645 89.9411 150.328 91.7682 151.412 93.6898C153.762 97.8405 155.491 102.984 156.599 109.122C156.609 109.183 156.636 109.239 156.678 109.283C156.72 109.328 156.774 109.359 156.834 109.372C156.894 109.385 156.958 109.38 157.016 109.358C157.074 109.335 157.125 109.297 157.162 109.246L157.382 108.936C157.587 108.646 157.654 108.327 157.584 107.978C156.423 102.361 154.847 97.5832 152.854 93.6454ZM94.7692 96.0663C94.7956 96.0225 94.8132 95.9739 94.821 95.9233C94.8287 95.8726 94.8265 95.8209 94.8145 95.7711C94.8025 95.7213 94.7808 95.6744 94.7508 95.633C94.7208 95.5917 94.683 95.5567 94.6396 95.5301L94.6095 95.5117C94.5219 95.458 94.4166 95.4415 94.317 95.466C94.2173 95.4905 94.1314 95.5539 94.0781 95.6424L91.4379 100.023C91.4115 100.066 91.3939 100.115 91.3862 100.166C91.3784 100.216 91.3806 100.268 91.3926 100.318C91.4046 100.368 91.4263 100.414 91.4563 100.456C91.4863 100.497 91.5241 100.532 91.5675 100.559L91.5976 100.577C91.6852 100.631 91.7905 100.647 91.8901 100.623C91.9898 100.598 92.0757 100.535 92.1291 100.447L94.7692 96.0663ZM106.599 109.902C108.006 104.714 110.151 100.333 113.246 95.8272C113.296 95.7569 113.316 95.6691 113.301 95.5827C113.286 95.4963 113.238 95.4185 113.167 95.366L112.965 95.2241C112.859 95.1413 112.768 95.1531 112.692 95.2596C109.556 99.3866 107.256 103.928 105.79 108.882C105.679 109.243 105.702 109.601 105.861 109.955C106.16 110.635 106.406 110.618 106.599 109.902ZM149.777 102.647L152.458 107.818C152.466 107.833 152.476 107.846 152.488 107.856C152.501 107.867 152.515 107.875 152.531 107.88C152.546 107.885 152.563 107.887 152.579 107.885C152.595 107.884 152.611 107.879 152.625 107.871L152.696 107.827C152.968 107.68 153.088 107.267 153.029 106.677C152.969 106.087 152.736 105.368 152.379 104.678L152.291 104.501C152.113 104.158 151.91 103.832 151.693 103.543C151.476 103.254 151.251 103.006 151.028 102.815C150.806 102.624 150.592 102.493 150.399 102.429C150.205 102.365 150.035 102.37 149.9 102.443L149.829 102.479C149.815 102.486 149.802 102.497 149.792 102.509C149.781 102.522 149.773 102.536 149.768 102.552C149.763 102.568 149.761 102.584 149.763 102.601C149.764 102.617 149.769 102.633 149.777 102.647ZM103.61 108.501L105.535 103.401C105.538 103.396 105.54 103.389 105.54 103.383C105.54 103.376 105.539 103.37 105.536 103.364C105.534 103.358 105.53 103.353 105.525 103.349C105.521 103.344 105.515 103.341 105.509 103.339L105.474 103.33C105.256 103.246 105.003 103.283 104.768 103.435C104.534 103.586 104.339 103.839 104.225 104.137L103.109 107.073C102.997 107.371 102.976 107.689 103.05 107.958C103.125 108.228 103.288 108.426 103.504 108.51L103.548 108.528C103.554 108.53 103.56 108.532 103.567 108.532C103.573 108.532 103.579 108.531 103.585 108.529C103.591 108.526 103.596 108.522 103.601 108.518C103.605 108.513 103.608 108.507 103.61 108.501ZM149.009 105.001C148.957 104.84 148.843 104.707 148.693 104.631C148.543 104.555 148.369 104.542 148.21 104.595L148.176 104.606C148.097 104.632 148.024 104.674 147.961 104.729C147.899 104.784 147.847 104.851 147.81 104.925C147.772 105 147.75 105.082 147.744 105.166C147.738 105.249 147.748 105.333 147.774 105.413L149.911 111.93C149.964 112.091 150.077 112.224 150.227 112.3C150.377 112.376 150.551 112.389 150.711 112.336L150.744 112.325C150.823 112.299 150.896 112.257 150.959 112.202C151.022 112.147 151.073 112.08 151.111 112.006C151.148 111.931 151.17 111.849 151.177 111.765C151.183 111.682 151.172 111.598 151.146 111.518L149.009 105.001ZM99.8977 116.051C99.9915 116.071 100.101 116.009 100.221 115.869C100.34 115.729 100.467 115.513 100.594 115.235C100.721 114.956 100.845 114.62 100.961 114.245C101.076 113.87 101.179 113.464 101.265 113.05C101.35 112.637 101.417 112.223 101.46 111.833C101.503 111.443 101.523 111.085 101.517 110.778C101.511 110.471 101.481 110.223 101.427 110.046C101.373 109.869 101.297 109.768 101.203 109.749C101.109 109.729 100.999 109.791 100.88 109.931C100.76 110.071 100.634 110.286 100.507 110.565C100.38 110.844 100.255 111.18 100.14 111.555C100.025 111.93 99.9217 112.336 99.836 112.749C99.7503 113.163 99.6839 113.577 99.6406 113.967C99.5973 114.357 99.578 114.715 99.5837 115.022C99.5895 115.329 99.6202 115.577 99.674 115.754C99.7279 115.931 99.8039 116.032 99.8977 116.051Z" fill="#56473E"/>
<path d="M92.9454 93.672C91.8025 95.2506 90.7709 96.9476 89.8506 98.7628C89.8213 98.8219 89.7715 98.8485 89.7012 98.8426L89.411 98.8071C89.3594 98.8011 89.3098 98.7827 89.2667 98.7533C89.2235 98.724 89.188 98.6847 89.163 98.6386C89.138 98.5926 89.1243 98.5412 89.1231 98.4887C89.1219 98.4362 89.1332 98.3842 89.1561 98.3371C91.8406 92.7732 95.7589 88.1289 100.911 84.4039C103.425 82.5769 106.503 81.149 110.143 80.1202C110.377 80.0551 110.532 80.1409 110.609 80.3774L110.688 80.6257C110.701 80.6704 110.697 80.7188 110.676 80.7603C110.654 80.8018 110.618 80.8332 110.573 80.8474C107.156 81.9531 104.416 83.177 102.353 84.5192C98.8419 86.7956 95.7061 89.8465 92.9454 93.672Z" fill="#030202"/>
<path d="M146.321 97.317C146.497 97.8432 146.359 97.9467 145.908 97.6274C145.424 97.2815 144.818 96.6695 144.598 96.1197C142.822 91.6852 139.753 87.9365 135.393 84.8738C135.029 84.6195 134.897 84.2766 134.997 83.845L135.067 83.5346C135.114 83.3335 135.223 83.2862 135.393 83.3927C140.621 86.4909 144.264 91.1323 146.321 97.317Z" fill="#8C7970"/>
<path d="M95.4331 99.1443C98.3872 93.2494 102.329 88.466 107.258 84.7943C107.338 84.7354 107.438 84.7099 107.535 84.7232C107.632 84.7364 107.719 84.7874 107.777 84.8652L107.909 85.0515C108.167 85.3944 108.123 85.693 107.777 85.9472C101.491 90.5857 96.7695 98.4702 93.6044 106.009C93.5399 106.162 93.4216 106.285 93.2723 106.356C93.123 106.426 92.9532 106.438 92.7955 106.39L92.5669 106.319C92.5222 106.306 92.4809 106.283 92.4456 106.252C92.4103 106.221 92.3818 106.183 92.3619 106.14C92.342 106.098 92.3312 106.051 92.3302 106.004C92.3291 105.957 92.3379 105.91 92.3559 105.867C93.2937 103.597 94.3194 101.356 95.4331 99.1443Z" fill="#8C7970"/>
<path d="M152.852 93.6456C154.845 97.5834 156.422 102.361 157.582 107.978C157.653 108.327 157.585 108.646 157.38 108.936L157.16 109.246C157.124 109.297 157.073 109.336 157.014 109.358C156.956 109.38 156.893 109.385 156.833 109.372C156.773 109.359 156.718 109.328 156.676 109.283C156.635 109.239 156.607 109.183 156.598 109.122C155.49 102.985 153.761 97.8406 151.41 93.6899C150.326 91.7683 148.644 89.9413 146.364 88.2089C146.247 88.1261 146.197 88.0138 146.214 87.8718L146.241 87.4816C146.252 87.3752 146.305 87.3456 146.399 87.3929C149.312 88.8238 151.463 90.908 152.852 93.6456Z" fill="#030202"/>
<path d="M130.944 99.0287C131.378 100.27 131.604 101.607 131.621 103.038C131.645 104.77 131.779 106.094 132.026 107.011C132.582 109.039 133.297 111.227 134.171 113.574C134.605 114.739 135.205 115.525 135.973 115.933C136.7 116.329 136.87 116.158 136.483 115.419C134.854 112.314 133.758 109.281 133.195 106.319C132.855 104.51 132.638 102.177 132.544 99.3214C132.468 97.0214 132.351 94.6859 132.193 92.3149C131.929 91.7828 131.908 91.224 132.131 90.6387C132.254 90.3076 132.43 90.275 132.659 90.5411C134.487 92.6283 135.891 94.7864 136.87 97.0155C139.625 103.23 141.647 109.541 142.936 115.951C142.971 116.134 143.066 116.3 143.207 116.421C143.347 116.542 143.525 116.611 143.71 116.616C147.288 116.696 150.744 118.807 153.962 120.128C154.448 120.329 154.688 120.696 154.682 121.228L154.612 125.414C154.6 125.946 154.363 126.085 153.9 125.831C147.605 122.36 140.897 121.464 133.775 123.143C131.401 123.705 129.452 124.95 127.928 126.877C127.747 127.108 127.509 127.22 127.216 127.214C124.104 127.197 121.422 126.381 118.591 128.03C118.316 128.19 118.073 128.154 117.862 127.924C116.39 126.345 114.699 125.34 112.789 124.908C104.536 123.046 97.1185 124.338 90.5362 128.784C89.9676 129.174 89.6541 129.024 89.5954 128.332L89.0767 122.461C89.0637 122.31 89.1019 122.16 89.185 122.034C89.2681 121.908 89.3911 121.815 89.5339 121.769L91.2308 121.228C91.5531 121.121 91.7641 120.903 91.8638 120.571C92.3679 118.827 93.0331 117.225 93.8596 115.764C94.7798 114.144 95.0641 114.251 94.7124 116.084C94.3871 117.778 93.8068 120.226 95.996 120.838C96.3008 120.92 96.5997 120.897 96.8928 120.767C99.548 119.569 102.379 119.534 105.043 118.709C108.759 117.568 112.49 116.855 116.235 116.572C116.669 116.542 116.874 116.308 116.851 115.871C116.739 114.115 116.736 112.335 116.842 110.532C117.106 105.938 118.032 101.639 119.62 97.6363C120.323 95.8536 121.475 94.9845 122.724 93.6896C122.782 93.6308 122.832 93.562 122.873 93.4856L124.078 91.0555C124.377 90.4465 124.517 90.482 124.5 91.1619C124.236 99.756 124.069 107.144 125.572 115.268C125.766 116.303 126.384 116.867 127.427 116.962L132.078 117.361C133.133 117.45 133.532 116.98 133.274 115.951C131.908 110.517 131.023 106.219 130.619 103.055C130.519 102.251 130.628 100.909 130.944 99.0287ZM149.398 123.01C149.586 123.176 149.803 123.244 150.049 123.214C150.216 123.198 150.374 123.131 150.501 123.021C150.628 122.911 150.719 122.765 150.761 122.601C150.804 122.438 150.795 122.265 150.737 122.107C150.679 121.948 150.574 121.812 150.436 121.716C148.836 120.598 146.989 119.877 144.897 119.552C140.601 118.883 136.726 119.377 133.274 121.033C133.23 121.054 133.192 121.085 133.162 121.123C133.132 121.161 133.11 121.206 133.099 121.254C133.089 121.301 133.088 121.351 133.099 121.398C133.109 121.446 133.13 121.491 133.16 121.529L133.336 121.742C133.487 121.927 133.689 122.063 133.915 122.134C134.142 122.205 134.383 122.207 134.61 122.141C139.54 120.74 144.123 120.823 148.361 122.39C148.748 122.532 149.094 122.738 149.398 123.01ZM95.5652 121.671C94.3578 121.849 93.4434 122.375 92.8221 123.25C92.1246 124.226 92.3679 124.619 93.5518 124.429C95.8465 124.057 97.9039 123.037 100.216 122.7C103.469 122.221 106.69 122.263 109.879 122.824C110.277 122.895 110.632 122.848 110.942 122.682C111.041 122.632 111.124 122.555 111.182 122.461C111.241 122.367 111.273 122.258 111.274 122.147C111.276 122.035 111.248 121.926 111.192 121.829C111.137 121.733 111.057 121.654 110.96 121.6C109.307 120.672 107.563 120.187 105.729 120.146C102.663 120.081 100.105 120.391 98.0533 121.077C97.2621 121.343 96.4327 121.541 95.5652 121.671Z" fill="#FCDDCF"/>
<path d="M132.192 92.3149C132.35 94.6859 132.468 97.0214 132.544 99.3214C132.638 102.177 132.855 104.51 133.194 106.319C133.757 109.281 134.853 112.315 136.483 115.419C136.87 116.158 136.7 116.329 135.973 115.933C135.205 115.525 134.604 114.739 134.17 113.574C133.297 111.227 132.582 109.039 132.025 107.011C131.779 106.094 131.644 104.77 131.621 103.038C131.603 101.607 131.377 100.27 130.944 99.0288C130.838 96.7169 131.254 94.479 132.192 92.3149Z" fill="#56473E"/>
<path d="M94.6379 95.5298L94.6079 95.5113C94.4253 95.3994 94.1874 95.4579 94.0764 95.642L91.4363 100.022C91.3253 100.206 91.3833 100.446 91.5659 100.558L91.5959 100.577C91.7785 100.689 92.0164 100.63 92.1274 100.446L94.7675 96.0659C94.8785 95.8818 94.8205 95.6417 94.6379 95.5298Z" fill="#030202"/>
<path d="M113.245 95.8273C110.151 100.333 108.005 104.714 106.599 109.902C106.405 110.618 106.159 110.636 105.86 109.956C105.702 109.601 105.678 109.243 105.79 108.882C107.255 103.928 109.556 99.3868 112.691 95.2597C112.768 95.1533 112.858 95.1415 112.964 95.2242L113.166 95.3662C113.237 95.4186 113.285 95.4965 113.3 95.5829C113.315 95.6692 113.295 95.7571 113.245 95.8273Z" fill="#030202"/>
<path d="M149.776 102.647C149.768 102.633 149.764 102.617 149.762 102.6C149.761 102.584 149.763 102.568 149.767 102.552C149.772 102.536 149.78 102.522 149.791 102.509C149.801 102.497 149.814 102.486 149.829 102.479L149.899 102.443C150.035 102.37 150.204 102.365 150.398 102.429C150.592 102.492 150.806 102.624 151.028 102.815C151.25 103.006 151.476 103.253 151.692 103.543C151.909 103.832 152.112 104.158 152.29 104.501L152.378 104.678C152.735 105.368 152.969 106.087 153.028 106.677C153.087 107.267 152.968 107.68 152.695 107.827L152.625 107.871C152.61 107.879 152.594 107.883 152.578 107.885C152.562 107.886 152.546 107.885 152.53 107.88C152.514 107.875 152.5 107.867 152.488 107.856C152.475 107.845 152.465 107.832 152.458 107.818L149.776 102.647Z" fill="#030202"/>
<path d="M103.611 108.501C103.609 108.507 103.606 108.513 103.602 108.518C103.597 108.522 103.592 108.526 103.586 108.529C103.58 108.531 103.574 108.532 103.568 108.532C103.561 108.532 103.555 108.53 103.549 108.528L103.505 108.51C103.289 108.426 103.126 108.228 103.051 107.958C102.977 107.689 102.998 107.371 103.11 107.073L104.226 104.137C104.34 103.839 104.535 103.586 104.769 103.435C105.004 103.283 105.257 103.246 105.475 103.33L105.51 103.339C105.516 103.341 105.522 103.344 105.526 103.349C105.531 103.353 105.535 103.358 105.537 103.364C105.54 103.37 105.541 103.376 105.541 103.383C105.541 103.389 105.539 103.396 105.536 103.401L103.611 108.501Z" fill="#030202"/>
<path d="M148.211 104.595L148.177 104.606C147.845 104.717 147.665 105.078 147.775 105.413L149.912 111.93C150.021 112.265 150.379 112.447 150.711 112.336L150.745 112.325C151.077 112.214 151.257 111.853 151.147 111.518L149.01 105.001C148.901 104.666 148.542 104.484 148.211 104.595Z" fill="#8C7970"/>
<path d="M99.8347 112.749C99.4743 114.49 99.5019 115.968 99.8964 116.051C100.291 116.134 100.903 114.791 101.263 113.05C101.624 111.31 101.596 109.832 101.202 109.748C100.807 109.665 100.195 111.009 99.8347 112.749Z" fill="#8C7970"/>
<path d="M148.36 122.39C144.122 120.823 139.539 120.74 134.609 122.142C134.382 122.208 134.141 122.205 133.914 122.134C133.688 122.063 133.486 121.927 133.334 121.742L133.158 121.53C133.129 121.491 133.108 121.446 133.097 121.399C133.087 121.351 133.087 121.301 133.098 121.254C133.109 121.206 133.131 121.162 133.161 121.123C133.191 121.085 133.229 121.054 133.273 121.033C136.725 119.377 140.599 118.884 144.896 119.552C146.988 119.877 148.835 120.598 150.435 121.716C150.572 121.812 150.677 121.949 150.736 122.107C150.794 122.265 150.802 122.438 150.76 122.602C150.718 122.765 150.627 122.912 150.5 123.021C150.372 123.131 150.215 123.198 150.048 123.215C149.802 123.244 149.585 123.176 149.397 123.011C149.092 122.739 148.747 122.532 148.36 122.39Z" fill="#030202"/>
<path d="M98.0527 121.077C100.104 120.391 102.663 120.081 105.728 120.146C107.563 120.187 109.306 120.672 110.959 121.6C111.056 121.654 111.136 121.733 111.192 121.829C111.247 121.926 111.276 122.035 111.274 122.147C111.272 122.258 111.24 122.367 111.182 122.461C111.123 122.555 111.04 122.632 110.942 122.682C110.631 122.848 110.276 122.895 109.878 122.824C106.689 122.262 103.469 122.221 100.216 122.7C97.9032 123.037 95.8459 124.057 93.5512 124.429C92.3672 124.619 92.124 124.225 92.8215 123.25C93.4428 122.375 94.3571 121.849 95.5646 121.671C96.432 121.541 97.2614 121.343 98.0527 121.077Z" fill="#030202"/>
<path d="M134.233 142.93C132.396 141.795 130.268 141.086 129.151 139.285C127.991 137.429 127.572 134.694 127.894 131.081C128.058 129.307 128.697 127.871 129.811 126.771C132.404 124.234 134.998 124.35 138.269 123.959C142.489 123.463 146.173 123.685 149.821 125.52C150.988 126.106 152.31 126.617 153.787 127.055C154.121 127.149 154.326 127.368 154.402 127.711C155.152 131.064 155.149 134.457 154.393 137.893C153.989 139.737 152.45 139.959 151.668 141.343C151.492 141.662 151.237 141.893 150.903 142.034C149.584 142.611 148.511 143.436 147.026 143.631C143.485 144.098 139.766 144.06 135.869 143.516C135.277 143.433 134.731 143.238 134.233 142.93ZM147.359 125.574C147.361 125.511 147.318 125.448 147.234 125.388C147.15 125.328 147.026 125.273 146.869 125.225C146.713 125.177 146.527 125.138 146.321 125.109C146.116 125.081 145.895 125.064 145.673 125.059C145.45 125.055 145.229 125.062 145.023 125.082C144.816 125.102 144.629 125.133 144.47 125.174C144.312 125.215 144.186 125.266 144.099 125.322C144.013 125.378 143.968 125.439 143.966 125.502C143.965 125.565 144.008 125.628 144.092 125.688C144.176 125.748 144.3 125.804 144.456 125.851C144.613 125.899 144.799 125.938 145.004 125.967C145.21 125.995 145.43 126.012 145.653 126.017C145.876 126.022 146.097 126.014 146.303 125.994C146.509 125.975 146.697 125.943 146.855 125.902C147.014 125.861 147.14 125.811 147.226 125.755C147.313 125.698 147.358 125.637 147.359 125.574ZM151.36 128.385C149.47 126.806 147.412 126.132 144.792 126.061C142.477 126.002 140.218 125.985 138.014 126.008C131.473 126.061 128.829 129.399 130.083 136.021C130.165 136.477 130.432 136.74 130.883 136.811C136.094 137.633 141.601 138.845 147.404 140.447C149.698 141.077 151.773 139.117 152.336 137.13C153.051 134.617 153.11 132.149 152.512 129.724C152.418 129.346 152.213 129.041 151.896 128.811C151.715 128.675 151.536 128.533 151.36 128.385ZM143.465 141.174L132.343 138.939C131.985 138.868 131.845 139.01 131.921 139.365C131.991 139.726 132.196 139.998 132.536 140.181C135.889 142.037 139.535 142.502 143.474 141.573C144.077 141.431 144.074 141.298 143.465 141.174Z" fill="#665E5A"/>
<path d="M145.653 126.017C146.59 126.037 147.354 125.839 147.36 125.574C147.365 125.31 146.61 125.08 145.673 125.06C144.736 125.04 143.972 125.238 143.967 125.503C143.961 125.767 144.716 125.998 145.653 126.017Z" fill="#56473E"/>
<path d="M94.5197 128.421C94.7659 128.16 95.0648 128.033 95.4165 128.039C95.7037 128.045 95.9557 127.953 96.1726 127.764C97.591 126.54 99.1882 125.911 100.964 125.875C102.591 125.84 104.059 125.405 105.668 125.441C108.517 125.506 110.893 125.798 112.798 126.319C115.659 127.099 117.432 129.041 118.117 132.145C118.938 135.876 118.238 139.167 116.016 142.017C114.82 143.56 113.329 144.515 111.541 144.881C108.985 145.413 106.371 145.7 103.699 145.742C102.796 145.759 101.958 145.659 101.184 145.44C100.528 145.257 99.8535 145.121 99.1618 145.032C96.788 144.736 94.7453 143.64 93.0338 141.742C92.0022 140.595 91.4015 139.149 91.2315 137.405C90.9326 134.46 90.4138 129.494 93.9658 128.731C94.1827 128.69 94.3673 128.586 94.5197 128.421ZM97.4122 141.83C103.69 139.424 109.718 137.816 115.497 137.006C115.826 136.958 116.025 136.772 116.095 136.447C116.728 133.369 116.227 129.627 112.745 128.58C106.462 126.688 100.147 127.321 93.7987 130.478C93.5408 130.608 93.3767 130.815 93.3064 131.099C92.5386 134.25 92.7613 137.227 93.9746 140.03C94.5636 141.414 95.9 142.407 97.4122 141.83ZM99.7949 143.391C103.98 144.163 113.519 144.296 115.515 139.338C115.549 139.253 115.558 139.161 115.542 139.071C115.527 138.98 115.486 138.896 115.425 138.828C115.364 138.759 115.285 138.708 115.197 138.681C115.109 138.654 115.015 138.651 114.926 138.673L99.7685 142.646C98.6666 142.936 98.6754 143.184 99.7949 143.391Z" fill="#665E5A"/>
<path d="M151.361 128.386C151.536 128.533 151.715 128.675 151.897 128.811C152.213 129.042 152.419 129.346 152.512 129.725C153.11 132.149 153.052 134.618 152.336 137.13C151.774 139.117 149.699 141.077 147.404 140.447C141.601 138.845 136.095 137.633 130.884 136.811C130.433 136.74 130.166 136.477 130.084 136.022C128.83 129.4 131.473 126.062 138.014 126.009C140.218 125.985 142.478 126.003 144.793 126.062C147.413 126.133 149.47 126.807 151.361 128.386ZM147.633 133.627C147.773 131.327 146.557 130.218 143.984 130.301C140.778 129.621 137.962 130.626 135.535 133.317C135.416 133.449 135.34 133.614 135.316 133.79C135.293 133.967 135.323 134.147 135.403 134.306C135.484 134.464 135.61 134.595 135.765 134.68C135.921 134.764 136.098 134.799 136.274 134.78C136.883 134.715 137.469 134.529 138.032 134.221C140.661 132.785 144.054 133.379 146.455 134.993C146.559 135.065 146.679 135.11 146.805 135.126C146.93 135.142 147.058 135.128 147.177 135.085C147.297 135.042 147.405 134.971 147.494 134.878C147.582 134.785 147.648 134.673 147.686 134.55C147.768 134.295 147.75 133.988 147.633 133.627Z" fill="#FAEBE0"/>
<path d="M159.16 132.961L158.352 128.119C159.424 127.167 160.309 126.966 161.007 127.516C163.574 129.556 163.099 134.638 162.369 137.325C161.865 139.193 161.385 139.187 160.928 137.307C160.676 136.278 160.087 134.83 159.16 132.961Z" fill="#FAEBE0"/>
<path d="M97.4116 141.831C95.8994 142.407 94.563 141.414 93.974 140.03C92.7607 137.228 92.5379 134.251 93.3058 131.099C93.3761 130.816 93.5402 130.609 93.7981 130.478C100.146 127.321 106.461 126.688 112.745 128.581C116.226 129.627 116.728 133.37 116.095 136.447C116.024 136.773 115.825 136.959 115.497 137.006C109.717 137.816 103.689 139.424 97.4116 141.831ZM102.502 131.179C99.1202 131.333 97.7926 132.356 98.5194 134.248C98.0388 135.099 98.0271 135.797 98.4842 136.341C98.5733 136.448 98.6999 136.516 98.8376 136.531C98.9752 136.546 99.1132 136.506 99.2228 136.421C101.901 134.286 104.864 133.822 108.111 135.028C108.733 135.259 109.184 135.342 109.465 135.277C109.668 135.232 109.854 135.129 110.001 134.981C110.147 134.832 110.249 134.645 110.292 134.44C110.336 134.235 110.32 134.022 110.247 133.826C110.173 133.63 110.046 133.459 109.879 133.334C107.376 131.436 104.917 130.718 102.502 131.179Z" fill="#FAEBE0"/>
<path d="M158.35 128.119L159.159 132.962C159.264 134.363 159.874 136.583 160.987 139.622C161.304 140.48 161.084 141.349 160.328 142.23C159.789 142.862 159.566 142.765 159.66 141.937C159.8 140.749 159.73 139.738 159.449 138.904C158.974 137.485 158.529 137.038 158.112 137.565C157.755 136.518 157.377 136.157 156.978 136.483C156.791 135.371 156.796 134.254 156.996 133.13C157.119 132.427 157.224 131.572 157.312 130.567C157.418 129.432 157.764 128.616 158.35 128.119Z" fill="#665E5A"/>
<path d="M119.392 129.272C121.877 128.616 124.251 128.521 126.513 128.989C126.923 129.077 127.035 129.308 126.847 129.68L126.689 130.009C126.554 130.275 126.343 130.363 126.056 130.275C123.958 129.624 121.786 129.683 119.541 130.452C119.467 130.476 119.388 130.471 119.318 130.438C119.248 130.405 119.192 130.347 119.163 130.275L119.049 129.955C119.022 129.889 119.009 129.817 119.012 129.745C119.015 129.674 119.033 129.603 119.066 129.538C119.098 129.474 119.144 129.417 119.2 129.371C119.256 129.325 119.322 129.291 119.392 129.272Z" fill="#8C7970"/>
<path d="M86.8896 138.691L85.5181 143.117C82.5757 139.729 81.4708 136.069 82.2035 132.137C82.5258 130.404 83.5604 129.535 85.307 129.529C85.7056 129.529 86.11 129.585 86.5203 129.698C87.7571 130.041 88.2641 130.848 88.0414 132.119L86.8896 138.691Z" fill="#FCDDCF"/>
<path d="M143.982 130.301L147.631 133.626C147.748 133.987 147.765 134.294 147.683 134.549C147.646 134.672 147.58 134.784 147.492 134.877C147.403 134.97 147.295 135.041 147.175 135.084C147.056 135.128 146.928 135.142 146.802 135.126C146.677 135.11 146.557 135.064 146.453 134.992C144.052 133.378 140.659 132.784 138.03 134.221C137.467 134.528 136.881 134.714 136.271 134.779C136.096 134.799 135.919 134.764 135.763 134.679C135.608 134.594 135.482 134.464 135.401 134.305C135.321 134.146 135.291 133.966 135.314 133.79C135.338 133.613 135.414 133.448 135.533 133.316C137.959 130.626 140.776 129.621 143.982 130.301Z" fill="#030202"/>
<path d="M143.982 130.301C146.556 130.218 147.772 131.327 147.631 133.627L143.982 130.301Z" fill="#8C7970"/>
<path d="M98.5199 134.248L102.503 131.179C104.918 130.718 107.376 131.436 109.879 133.334C110.046 133.459 110.174 133.63 110.247 133.826C110.32 134.022 110.336 134.235 110.293 134.44C110.249 134.645 110.148 134.832 110.001 134.981C109.855 135.129 109.669 135.232 109.466 135.277C109.185 135.342 108.733 135.259 108.112 135.028C104.865 133.822 101.902 134.286 99.2232 136.421C99.1137 136.506 98.9757 136.546 98.8381 136.531C98.7004 136.516 98.5738 136.448 98.4847 136.341C98.0275 135.797 98.0392 135.099 98.5199 134.248Z" fill="#030202"/>
<path d="M102.502 131.179L98.519 134.247C97.7922 132.355 99.1198 131.332 102.502 131.179Z" fill="#8C7970"/>
<path d="M126.087 131.309L120.005 131.459C119.874 131.462 119.77 131.572 119.773 131.704L119.876 135.942C119.879 136.074 119.988 136.179 120.119 136.175L126.201 136.025C126.332 136.022 126.436 135.912 126.433 135.78L126.33 131.542C126.327 131.41 126.218 131.305 126.087 131.309Z" fill="#FCDDCF"/>
<path d="M158.111 137.565L159.017 142.363C159.066 142.627 159.035 142.899 158.928 143.143C158.821 143.387 158.644 143.591 158.419 143.729L157.347 144.394C156.848 144.701 156.611 144.56 156.634 143.968L156.977 136.483C157.376 136.158 157.754 136.518 158.111 137.565Z" fill="#FCDDCF"/>
<path d="M85.5156 143.117L86.8872 138.691C86.8403 139.247 86.8755 139.69 86.9927 140.022C87.1099 140.347 87.2975 140.394 87.5554 140.163C88.1298 139.643 88.4463 138.978 88.5049 138.168C88.5117 138.053 88.5622 137.946 88.6458 137.868C88.7294 137.791 88.8396 137.749 88.9533 137.751H89.1731C89.2083 137.751 89.2288 137.781 89.2346 137.84L89.9468 144.784C90.1402 146.7 89.4837 147.072 87.9774 145.902C86.9399 145.098 86.1193 144.169 85.5156 143.117Z" fill="#665E5A"/>
<path d="M133.386 144.287C133.679 145.162 134.192 145.937 134.925 146.611C135.142 146.806 135.394 146.915 135.681 146.939C139.655 147.282 143.526 148.054 147.295 149.254C147.471 149.307 147.585 149.245 147.638 149.068L147.726 148.766C147.758 148.646 147.742 148.518 147.681 148.41C147.62 148.302 147.52 148.223 147.401 148.19L142.257 146.762C142.017 146.697 141.885 146.543 141.862 146.3C141.85 146.218 141.862 146.132 141.897 146.043C141.936 145.927 142.009 145.826 142.107 145.754C142.205 145.682 142.322 145.644 142.442 145.644C142.741 145.638 143.011 145.561 143.251 145.414C145.508 145.295 147.673 144.834 149.748 144.03C151.041 143.524 151.981 143.711 153.247 144.021C153.904 144.181 154.174 144.595 154.056 145.263C153.558 148.089 153.016 150.865 152.43 153.591C151.384 158.46 148.342 161.502 144.957 164.81C141.586 168.092 136.654 170.631 130.16 172.428C121.262 174.894 113.314 171.843 105.234 167.932C101.559 166.158 96.6535 162.256 95.194 157.981C94.1096 154.818 93.2099 151.4 92.4948 147.728C92.4128 147.332 92.3981 146.942 92.4509 146.558C92.4836 146.32 92.5663 146.092 92.6933 145.89C92.8203 145.687 92.9887 145.514 93.1871 145.383C93.3854 145.252 93.6092 145.165 93.8431 145.129C94.0771 145.093 94.3159 145.109 94.5434 145.174L101.964 147.303C101.489 148.509 100.041 149.431 97.6206 150.07C97.3451 150.147 97.137 150.309 96.9963 150.558C96.8439 150.835 96.8732 151.087 97.0843 151.311C97.1487 151.379 97.2324 151.425 97.3238 151.442C97.4152 151.46 97.5097 151.448 97.5942 151.409C99.6222 150.493 101.885 149.816 104.382 149.378C105.425 149.195 106.284 148.763 106.958 148.083C107.157 147.876 107.397 147.764 107.679 147.746C108.482 147.699 109.185 147.447 109.789 146.992C114.853 146.005 118.082 143.167 119.477 138.478C119.595 138.088 119.855 137.896 120.26 137.901L126.326 137.91C126.535 137.91 126.74 137.971 126.914 138.086C127.089 138.201 127.227 138.365 127.311 138.558C128.501 141.319 130.526 143.229 133.386 144.287ZM130.731 144.553C130.01 144.051 129.213 143.832 128.34 143.897C124.726 144.163 120.19 143.374 116.963 145.05C116.9 145.084 116.845 145.132 116.803 145.19C116.761 145.249 116.733 145.316 116.721 145.387C116.709 145.458 116.714 145.531 116.734 145.601C116.755 145.67 116.791 145.733 116.84 145.786C117.15 146.111 117.529 146.227 117.974 146.132C122.335 145.239 126.532 145.017 130.564 145.467C130.822 145.496 130.998 145.39 131.092 145.147C131.144 144.994 131.112 144.864 130.995 144.757C130.913 144.686 130.825 144.618 130.731 144.553ZM147.093 153.378C142.826 154.194 138.793 154.767 134.995 155.098C131.473 155.406 127.581 155.498 123.32 155.373C115.571 155.149 107.717 154.965 99.757 154.824C99.5226 154.818 99.4288 154.933 99.4757 155.169L99.5284 155.462C99.6046 155.817 99.8244 155.997 100.188 156.003C105.316 156.068 112.35 156.278 121.289 156.633C129.225 156.946 137.29 156.319 145.484 154.753C146.381 154.581 147.02 154.348 147.401 154.052C148.21 153.407 148.107 153.183 147.093 153.378ZM100.874 160.908C102.175 161.747 103.47 162.436 104.76 162.974C111.096 165.623 118.132 166.986 125.869 167.063C125.942 167.063 126.012 167.036 126.066 166.987C126.119 166.937 126.153 166.87 126.159 166.797L126.203 166.451C126.215 166.309 126.151 166.229 126.01 166.211C124.005 165.951 121.851 165.741 119.548 165.582C116.33 165.363 111.837 164.343 106.07 162.522C104.259 161.945 102.913 160.89 101.19 160.189C101.161 160.177 101.131 160.183 101.102 160.207L100.847 160.411C100.809 160.441 100.778 160.48 100.758 160.524C100.737 160.569 100.728 160.617 100.731 160.666C100.733 160.715 100.748 160.763 100.773 160.805C100.797 160.847 100.832 160.882 100.874 160.908ZM127.856 166.584L127.874 166.832C127.88 166.909 127.924 166.947 128.006 166.947C131.276 166.782 134.002 166.312 136.182 165.537C138.181 164.822 140.15 164 142.09 163.072C142.131 163.054 142.152 163.024 142.152 162.983L142.161 162.717C142.161 162.644 142.142 162.572 142.107 162.508C142.072 162.443 142.021 162.39 141.96 162.351C141.899 162.313 141.83 162.291 141.759 162.289C141.688 162.286 141.617 162.302 141.554 162.336C137.094 164.665 132.689 165.901 128.34 166.043C127.994 166.049 127.833 166.229 127.856 166.584Z" fill="white"/>
<path d="M115.514 139.338C113.518 144.296 103.979 144.163 99.7935 143.391C98.674 143.184 98.6652 142.936 99.7672 142.646L114.925 138.673C115.014 138.651 115.108 138.654 115.196 138.681C115.284 138.708 115.363 138.759 115.424 138.828C115.485 138.896 115.525 138.981 115.541 139.071C115.557 139.161 115.547 139.253 115.514 139.338Z" fill="white"/>
<path d="M132.344 138.939L143.466 141.174C144.076 141.298 144.079 141.431 143.475 141.573C139.536 142.501 135.891 142.037 132.538 140.18C132.198 139.997 131.993 139.725 131.922 139.364C131.846 139.01 131.987 138.868 132.344 138.939Z" fill="white"/>
<path d="M154.999 142.195C154.853 142.703 154.533 142.863 154.041 142.673C153.754 142.561 153.505 142.393 153.294 142.168C153.059 141.914 153.033 141.645 153.215 141.361C153.543 140.835 153.974 140.477 154.507 140.288C154.906 140.152 155.123 140.297 155.158 140.722C155.205 141.201 155.152 141.692 154.999 142.195Z" fill="#8C7970"/>
<path d="M92.7867 143.436C92.8405 143.553 92.8568 143.685 92.8332 143.813C92.8096 143.942 92.7474 144.061 92.6548 144.155L92.4526 144.359C92.3884 144.423 92.3107 144.472 92.2252 144.501C92.1396 144.531 92.0486 144.54 91.9589 144.529C91.8692 144.518 91.7832 144.487 91.7073 144.437C91.6314 144.388 91.5676 144.321 91.5207 144.244C91.21 143.735 91.0869 143.164 91.1514 142.532C91.1924 142.153 91.3771 142.056 91.7053 142.239C92.1801 142.505 92.5405 142.904 92.7867 143.436Z" fill="#FCDDCF"/>
<path d="M130.733 144.553C130.827 144.618 130.915 144.686 130.997 144.757C131.114 144.864 131.147 144.994 131.094 145.147C131 145.39 130.824 145.496 130.566 145.467C126.534 145.017 122.337 145.239 117.976 146.132C117.531 146.227 117.153 146.111 116.842 145.786C116.793 145.733 116.757 145.67 116.736 145.601C116.716 145.531 116.711 145.458 116.723 145.387C116.735 145.316 116.763 145.249 116.805 145.19C116.847 145.132 116.902 145.084 116.965 145.05C120.192 143.374 124.728 144.163 128.342 143.897C129.215 143.832 130.012 144.051 130.733 144.553Z" fill="#DAD9D8"/>
<path d="M133.389 144.287L143.253 145.413C143.013 145.561 142.743 145.638 142.444 145.644C142.324 145.644 142.207 145.682 142.109 145.754C142.011 145.825 141.938 145.927 141.899 146.043C141.864 146.132 141.852 146.218 141.864 146.3C141.888 146.543 142.019 146.697 142.26 146.762L147.403 148.189C147.522 148.223 147.623 148.302 147.684 148.41C147.745 148.518 147.761 148.646 147.728 148.766L147.64 149.067C147.588 149.245 147.473 149.307 147.298 149.254C143.529 148.053 139.657 147.282 135.683 146.939C135.396 146.915 135.144 146.806 134.927 146.611C134.195 145.937 133.682 145.162 133.389 144.287Z" fill="#DAD9D8"/>
<path d="M150.832 181.821C151.922 177.93 152.409 173.907 152.292 169.75C152.23 167.329 152.652 165.138 152.371 162.699C152.33 162.315 152.145 162.067 151.817 161.954C151.518 161.848 151.113 161.866 150.604 162.008C150.943 161.15 151.333 160.346 151.773 159.595C152.236 158.791 152.626 157.975 152.942 157.147C153.921 154.605 154.8 152.16 155.58 149.813C155.808 149.133 155.949 148.409 156.002 147.64C156.018 147.375 156.103 147.118 156.248 146.894C156.392 146.67 156.592 146.487 156.828 146.363L157.198 146.168C157.766 145.872 158.006 146.044 157.918 146.682C157.801 147.599 157.743 148.456 157.743 149.254C157.784 159.956 158.613 169.067 160.231 176.588C160.946 179.917 161.872 183.669 163.009 187.843C163.091 188.145 162.988 188.357 162.701 188.482L162.455 188.597C161.851 188.863 161.453 188.677 161.259 188.038C160.591 185.777 159.22 185.182 156.863 185.315C152.549 185.564 150.539 184.399 150.832 181.821ZM155.275 161.659C155.276 161.591 155.264 161.524 155.239 161.462C155.214 161.399 155.177 161.342 155.13 161.294C155.083 161.245 155.027 161.207 154.966 161.18C154.904 161.154 154.838 161.14 154.771 161.139L154.718 161.139C154.583 161.137 154.453 161.19 154.356 161.286C154.259 161.381 154.204 161.511 154.203 161.648L154.038 177.558C154.037 177.625 154.05 177.692 154.075 177.755C154.099 177.818 154.136 177.875 154.183 177.923C154.23 177.971 154.286 178.01 154.348 178.036C154.409 178.063 154.475 178.077 154.542 178.078L154.595 178.078C154.73 178.08 154.861 178.027 154.957 177.931C155.054 177.836 155.109 177.706 155.11 177.569L155.275 161.659Z" fill="#56473E"/>
<path d="M85.3145 146.602L88.3389 148.296C88.6027 148.437 88.6847 148.65 88.5851 148.934C88.2861 149.774 87.8172 150.593 87.1784 151.391L85.3145 146.602Z" fill="#8C7970"/>
<path d="M109.791 146.993C109.187 147.448 108.483 147.7 107.68 147.747C107.399 147.765 107.159 147.877 106.96 148.084C106.285 148.764 105.427 149.196 104.383 149.379C101.887 149.816 99.6241 150.493 97.5961 151.41C97.5115 151.449 97.417 151.461 97.3257 151.443C97.2343 151.426 97.1506 151.38 97.0861 151.312C96.8751 151.088 96.8458 150.836 96.9982 150.558C97.1389 150.31 97.347 150.148 97.6224 150.071C100.043 149.432 101.491 148.51 101.966 147.304L109.791 146.993Z" fill="#DAD9D8"/>
<path d="M96.1012 163.994C95.4564 163.923 94.9523 163.947 94.5889 164.065C94.249 164.177 94.0497 164.547 93.9911 165.174C93.9325 165.842 93.824 166.489 93.6658 167.116L93.1471 162.389C93.1388 162.321 93.1076 162.259 93.0592 162.214C93.0109 162.168 92.9484 162.142 92.8833 162.14L92.6195 162.132C92.4554 162.126 92.3734 162.208 92.3734 162.38C92.4554 167.205 92.177 171.861 91.5381 176.349C91.2568 178.273 91.3447 180.26 91.3887 182.229C91.3942 182.383 91.4568 182.531 91.5645 182.646C91.9865 183.095 92.2767 183.104 92.4349 182.672L93.024 185.049C93.0943 185.327 93.2731 185.457 93.5603 185.439L94.4922 185.377C92.6107 188.085 90.0494 189.995 86.808 191.107C86.7355 191.132 86.6574 191.137 86.5823 191.121C86.5072 191.105 86.4378 191.068 86.3818 191.015C86.3257 190.962 86.285 190.895 86.264 190.82C86.2431 190.746 86.2427 190.667 86.2629 190.592C87.8015 184.978 88.6807 180.127 89.006 174.025C89.3225 168.029 89.6244 162.037 89.9116 156.047C89.9351 155.557 90.1138 155.11 90.4479 154.708C90.6765 154.43 90.7088 154.129 90.5446 153.804C89.9995 152.727 89.8559 151.542 90.1138 150.247C90.3952 148.846 90.7117 148.837 91.0634 150.221C91.503 151.917 92.0246 153.786 92.6283 155.826C93.4606 158.622 94.6183 161.345 96.1012 163.994Z" fill="#56473E"/>
<path d="M147.096 153.379C148.11 153.183 148.212 153.408 147.404 154.053C147.023 154.348 146.384 154.582 145.487 154.753C137.293 156.32 129.228 156.947 121.291 156.633C112.353 156.279 105.319 156.069 100.191 156.004C99.8273 155.998 99.6075 155.818 99.5313 155.463L99.4785 155.17C99.4316 154.934 99.5254 154.818 99.7599 154.824C107.72 154.966 115.574 155.149 123.322 155.374C127.584 155.498 131.475 155.407 134.998 155.099C138.796 154.768 142.829 154.195 147.096 153.379Z" fill="#DAD9D8"/>
<path d="M100.876 160.908C100.834 160.882 100.8 160.847 100.775 160.805C100.75 160.763 100.735 160.715 100.733 160.667C100.73 160.618 100.739 160.569 100.76 160.524C100.78 160.48 100.811 160.441 100.849 160.411L101.104 160.207C101.134 160.184 101.163 160.178 101.192 160.19C102.915 160.89 104.261 161.946 106.072 162.522C111.839 164.343 116.332 165.363 119.55 165.582C121.853 165.741 124.007 165.951 126.012 166.212C126.153 166.229 126.217 166.309 126.205 166.451L126.161 166.797C126.155 166.87 126.121 166.938 126.068 166.987C126.014 167.036 125.944 167.063 125.871 167.063C118.134 166.986 111.098 165.623 104.762 162.974C103.472 162.436 102.177 161.747 100.876 160.908Z" fill="#DAD9D8"/>
<path d="M154.77 161.139L154.717 161.138C154.435 161.135 154.205 161.363 154.202 161.647L154.037 177.557C154.034 177.841 154.259 178.074 154.541 178.077L154.594 178.078C154.875 178.081 155.106 177.853 155.109 177.569L155.274 161.659C155.277 161.374 155.051 161.142 154.77 161.139Z" fill="#030202"/>
<path d="M150.83 181.821C150.074 174.725 149.998 168.121 150.601 162.007C151.111 161.865 151.516 161.848 151.815 161.954C152.143 162.067 152.327 162.315 152.368 162.699C152.65 165.138 152.228 167.329 152.289 169.75C152.407 173.907 151.92 177.93 150.83 181.821Z" fill="#8C7970"/>
<path d="M93.6673 167.116L92.4364 182.672C92.2782 183.103 91.988 183.094 91.566 182.645C91.4583 182.531 91.3958 182.383 91.3902 182.228C91.3462 180.259 91.2583 178.273 91.5397 176.348C92.1785 171.86 92.457 167.204 92.3749 162.379C92.3749 162.208 92.457 162.125 92.6211 162.131L92.8848 162.14C92.95 162.142 93.0124 162.168 93.0608 162.213C93.1092 162.259 93.1403 162.321 93.1486 162.388L93.6673 167.116Z" fill="#030202"/>
<path d="M128.341 166.043C132.69 165.901 137.095 164.665 141.556 162.335C141.619 162.302 141.689 162.286 141.76 162.288C141.832 162.291 141.901 162.313 141.962 162.351C142.023 162.389 142.073 162.443 142.109 162.507C142.144 162.571 142.162 162.643 142.162 162.717L142.153 162.983C142.153 163.024 142.133 163.054 142.092 163.071C140.152 164 138.182 164.822 136.184 165.537C134.003 166.312 131.278 166.782 128.007 166.947C127.925 166.947 127.881 166.909 127.875 166.832L127.858 166.584C127.834 166.229 127.995 166.048 128.341 166.043Z" fill="#DAD9D8"/>
<path d="M96.1018 163.994C96.3949 171.308 95.8586 178.436 94.4929 185.377L93.5609 185.439C93.2737 185.457 93.0949 185.327 93.0246 185.049L92.4355 182.672L93.6664 167.116C93.8247 166.489 93.9331 165.842 93.9917 165.174C94.0503 164.547 94.2496 164.177 94.5896 164.065C94.953 163.947 95.4571 163.923 96.1018 163.994Z" fill="#8C7970"/>
<path d="M143.597 180.482C141.78 177 139.222 174.886 135.922 174.141C135.711 174.094 135.544 173.978 135.421 173.795C135.327 173.653 135.298 173.496 135.333 173.325C135.391 173.077 135.547 172.932 135.799 172.89C136.719 172.754 137.619 172.444 138.498 171.959C142.155 169.943 145.118 167.563 147.387 164.82C147.908 164.193 148.175 164.287 148.187 165.103C148.231 167.25 148.248 169.431 148.099 171.578C147.817 175.456 148.043 179.291 148.776 183.081C148.784 183.123 148.78 183.166 148.764 183.205C148.749 183.245 148.722 183.28 148.688 183.305C148.653 183.331 148.612 183.347 148.569 183.351C148.525 183.355 148.481 183.348 148.442 183.329C147.304 182.744 146.144 182.25 144.96 181.848C144.327 181.635 143.896 181.05 143.597 180.482ZM146.965 170.957C146.965 170.7 146.864 170.455 146.684 170.273C146.504 170.092 146.26 169.99 146.006 169.99H145.918C145.664 169.99 145.42 170.092 145.241 170.273C145.061 170.455 144.96 170.7 144.96 170.957V178.673C144.96 178.929 145.061 179.175 145.241 179.356C145.42 179.538 145.664 179.64 145.918 179.64H146.006C146.26 179.64 146.504 179.538 146.684 179.356C146.864 179.175 146.965 178.929 146.965 178.673V170.957Z" fill="#56473E"/>
<path d="M104.392 169.502C106.344 170.655 108.489 171.231 110.274 172.561C110.363 172.628 110.432 172.718 110.474 172.821C110.516 172.924 110.529 173.036 110.512 173.146C110.494 173.255 110.447 173.357 110.376 173.44C110.304 173.523 110.211 173.585 110.107 173.617C109.011 173.966 107.906 174.217 106.792 174.371C103.636 174.805 100.48 177.129 98.3784 179.453C97.8275 180.062 97.5696 179.955 97.6047 179.133L98.2202 165.99C98.2221 165.924 98.2423 165.86 98.2784 165.805C98.3144 165.75 98.365 165.706 98.4243 165.678C98.4837 165.651 98.5495 165.64 98.6144 165.648C98.6793 165.656 98.7406 165.682 98.7916 165.723C100.515 167.06 102.382 168.319 104.392 169.502Z" fill="#56473E"/>
<path d="M146.005 169.99H145.917C145.388 169.99 144.959 170.423 144.959 170.957V178.673C144.959 179.207 145.388 179.64 145.917 179.64H146.005C146.535 179.64 146.964 179.207 146.964 178.673V170.957C146.964 170.423 146.535 169.99 146.005 169.99Z" fill="#8C7970"/>
<path d="M134.233 180.597C134.86 180.52 135.317 179.976 135.604 178.965C135.612 178.94 135.626 178.917 135.644 178.898C135.662 178.879 135.685 178.864 135.71 178.856C135.735 178.847 135.761 178.845 135.787 178.848C135.813 178.852 135.838 178.862 135.859 178.877C137.436 179.941 137.597 181.437 136.343 183.364C136.15 183.654 135.886 183.84 135.552 183.923C133.623 184.408 131.953 185.366 130.54 186.797C129.685 187.666 128.676 187.979 127.516 187.737C124.949 187.205 122.273 187.388 119.489 188.287C117.941 188.783 116.35 188.429 115.708 186.779C114.817 184.485 113.29 182.862 111.128 181.91C110.953 181.833 110.787 181.732 110.635 181.608C109.932 181.035 109.709 180.467 109.967 179.906C110.137 179.533 110.363 179.495 110.644 179.79C110.978 180.127 111.35 180.405 111.761 180.624C111.84 180.664 111.928 180.684 112.017 180.681C112.106 180.677 112.193 180.652 112.269 180.606C112.345 180.56 112.409 180.495 112.454 180.417C112.498 180.34 112.523 180.252 112.526 180.163C112.578 177.963 112.358 175.776 111.866 173.6C111.844 173.503 111.848 173.402 111.879 173.308C111.909 173.213 111.964 173.129 112.038 173.063C112.112 172.998 112.202 172.954 112.298 172.936C112.395 172.918 112.495 172.927 112.587 172.961C116.28 174.339 119.835 175.09 123.252 175.214C126.672 175.338 130.03 174.3 133.336 173.467C133.376 173.455 133.418 173.454 133.459 173.462C133.499 173.47 133.538 173.488 133.57 173.514C133.603 173.54 133.629 173.573 133.646 173.611C133.663 173.649 133.672 173.691 133.67 173.733L133.494 179.914C133.491 180.01 133.509 180.106 133.545 180.194C133.582 180.283 133.638 180.362 133.708 180.427C133.778 180.492 133.861 180.541 133.952 180.57C134.043 180.6 134.138 180.609 134.233 180.597Z" fill="#FCDDCF"/>
<path d="M92.5585 192.925C95.7939 186.202 100.814 174.824 109.773 175.79C110.453 175.861 110.491 176.062 109.887 176.393C103.548 179.897 101.052 185.759 101.016 192.792C100.999 196.304 99.5305 198.788 98.836 202.167C98.4667 203.94 98.0974 207.55 95.328 207.053C92.1101 206.486 89.4491 205.09 87.3448 202.867C87.2429 202.757 87.1784 202.618 87.161 202.469C87.1436 202.321 87.1741 202.171 87.2481 202.042C89.0241 198.965 91.0551 196.056 92.5585 192.925Z" fill="#5588C3"/>
<path d="M136.844 188.055C139.35 184.889 140.572 179.257 136.616 176.721C136.434 176.603 136.396 176.452 136.501 176.269L136.624 176.065C136.689 175.946 136.783 175.917 136.906 175.976C140.393 177.696 142.275 180.242 142.55 183.612C142.843 187.254 142.79 191.736 142.392 197.057C142.357 197.542 142.125 197.669 141.697 197.439C140.836 196.978 140.194 196.49 139.2 196.321C136.381 195.819 133.823 195.804 131.525 196.277C130.482 196.49 130.297 196.182 130.971 195.355C132.905 192.99 134.863 190.556 136.844 188.055Z" fill="#5588C3"/>
<path d="M106.476 180.774C106.49 180.751 106.513 180.734 106.539 180.728C106.565 180.721 106.593 180.725 106.616 180.738L106.643 180.747C106.807 180.849 106.928 181.019 106.999 181.247C107.069 181.475 107.087 181.757 107.052 182.077C107.017 182.397 106.929 182.748 106.794 183.11C106.659 183.472 106.479 183.839 106.265 184.188L106.15 184.366C105.719 185.07 105.174 185.664 104.635 186.016C104.096 186.369 103.607 186.451 103.275 186.246L103.258 186.228C103.235 186.214 103.219 186.191 103.212 186.164C103.206 186.138 103.209 186.11 103.223 186.086L106.476 180.774Z" fill="#396299"/>
<path d="M126.655 197.564C124.627 197.717 123.03 197.762 121.863 197.697C119.419 197.549 119.357 197.871 121.678 198.663C122.669 199.006 124.208 198.844 126.294 198.175C126.412 198.749 126.382 199.272 126.206 199.745C125.116 202.648 124.712 205.525 124.993 208.375C125.526 213.803 126.142 219.222 126.839 224.632C126.851 224.703 127.045 227.177 127.42 232.055C127.619 234.668 128.191 240.7 129 243H109.5H105L102 242.5L103.365 238.529C104.543 238.5 105.082 237.634 104.983 235.931C104.543 228.327 104.156 221.06 103.822 214.131C103.746 212.446 102.875 210.311 101.211 207.727C99.848 205.599 99.8568 202.92 100.842 200.659C102.16 197.596 102.735 194.125 102.565 190.247C102.545 189.793 102.662 189.345 102.901 188.961C103.139 188.577 103.489 188.277 103.901 188.1C106.556 186.971 108.01 185.109 108.262 182.513C108.297 182.111 108.461 182.049 108.754 182.327C109.405 182.959 110.135 183.485 110.943 183.905C114.61 185.812 114.065 192.074 119.911 190.078C122.279 189.274 124.636 189.052 126.98 189.413C128.879 189.706 130.901 189.218 132.273 187.754C133.093 186.885 134.022 186.291 135.06 185.972C136.402 185.564 136.616 185.898 135.702 186.974L126.655 197.564ZM116.289 197.023C117.004 197.224 117.71 197.46 118.408 197.732C118.959 197.945 119.044 197.824 118.663 197.368C118.37 197.02 118.042 196.795 117.678 196.694C112.632 195.258 109.792 192.482 106.591 188.074C106.515 187.973 106.43 187.961 106.336 188.038L106.143 188.18C105.956 188.328 105.935 188.499 106.082 188.695C108.825 192.295 111.858 195.772 116.289 197.023Z" fill="white"/>
<path d="M144.956 183.967L155.067 187.062C155.135 187.081 155.193 187.123 155.232 187.182C155.271 187.241 155.287 187.312 155.278 187.382L154.716 191.967C154.71 192.01 154.695 192.052 154.672 192.089C154.648 192.126 154.617 192.158 154.579 192.181C154.542 192.204 154.5 192.218 154.457 192.222C154.414 192.227 154.37 192.221 154.329 192.206L144.956 188.747C144.901 188.728 144.854 188.692 144.819 188.644C144.785 188.597 144.765 188.54 144.763 188.481L144.578 184.26C144.576 184.212 144.585 184.165 144.605 184.123C144.625 184.08 144.654 184.042 144.692 184.014C144.729 183.985 144.772 183.966 144.818 183.957C144.865 183.949 144.912 183.953 144.956 183.967Z" fill="#5588C3"/>
<path d="M159.112 208.472C158.963 217.82 159.833 227.345 160.897 236.631C160.997 237.488 160.621 237.89 159.772 237.837L159.297 237.81C158.564 237.763 158.127 237.379 157.987 236.657C157.635 234.907 157.392 233.172 157.257 231.451C156.583 222.795 156.12 213.048 155.868 202.21C155.751 197.255 155.956 192.422 156.483 187.709C156.565 186.947 156.987 186.559 157.749 186.548C159.045 186.524 159.669 187.127 159.622 188.357C159.393 194.34 159.224 201.045 159.112 208.472Z" fill="#EFDAA0"/>
<path d="M116.288 197.023C111.857 195.772 108.824 192.295 106.081 188.695C105.934 188.499 105.955 188.328 106.142 188.18L106.336 188.038C106.43 187.961 106.515 187.973 106.591 188.074C109.791 192.482 112.631 195.258 117.677 196.694C118.041 196.795 118.369 197.02 118.662 197.368C119.043 197.824 118.958 197.945 118.407 197.732C117.71 197.46 117.003 197.224 116.288 197.023Z" fill="#030202"/>
<path d="M128.597 214.309C128.369 211.063 128.838 208.172 130.004 205.635C131.082 203.294 132.908 201.49 135.481 200.225C135.722 200.109 135.993 200.063 136.264 200.092L143.886 200.899L144.484 190.451C144.496 190.174 144.64 190.061 144.915 190.114C148.022 190.712 151.061 191.649 154.032 192.926C154.32 193.05 154.46 193.272 154.454 193.591C154.331 199.563 154.475 205.928 154.885 212.686C154.893 212.82 154.848 212.951 154.761 213.052C154.674 213.153 154.551 213.216 154.419 213.227C146.512 213.871 138.52 214.433 130.444 214.912C129.887 214.948 129.271 214.747 128.597 214.309Z" fill="#5588C3"/>
<path d="M161.998 196.188C161.424 195.857 161.134 195.354 161.128 194.68L161.102 190.636C161.096 189.838 161.433 189.643 162.113 190.051C164.885 191.724 167.479 194.03 169.894 196.969C170.304 197.465 170.389 198.015 170.149 198.618L169.199 201.048C168.888 201.852 168.463 201.92 167.924 201.252C166.318 199.254 164.343 197.566 161.998 196.188Z" fill="#5588C3"/>
<path d="M88.0923 206.325C89.4052 207.431 90.8823 208.439 92.5234 209.35C94.2584 210.313 95.4951 211.257 96.2337 212.179C98.08 214.476 100.146 218.281 100.366 221.438C100.454 222.706 101.263 223.425 100.841 224.773C99.9087 225.264 99.0383 225.55 98.2294 225.633C92.7315 226.183 87.2981 227.076 81.9291 228.312C81.8763 228.323 81.85 228.356 81.85 228.409V228.649C81.85 228.743 81.8969 228.785 81.9906 228.773C84.2853 228.56 86.3251 227.664 88.6813 227.593C90.5189 227.54 92.1981 226.857 94.0972 226.671C96.3245 226.452 98.5196 226.056 100.682 225.482C100.829 225.447 101.049 225.293 101.342 225.021L102.133 224.737C102.954 229.071 103.168 233.391 102.775 237.695C102.746 238.026 102.942 238.304 103.364 238.529L102 242.5C96.0273 242.695 91.8229 241.654 90 241.5C83.1247 240.909 85 240.5 84.8304 240.781C83.8457 240.775 68.2077 237.878 66.0684 237.127C67.2934 230.44 69.0254 223.445 71.2644 216.143C71.4578 215.505 71.83 214.801 72.381 214.033C74.157 217.769 75.1827 220.241 75.4582 221.447C77.1873 228.997 78.5325 234.109 79.4937 236.781C79.7809 237.586 80.4169 237.79 81.4016 237.393C81.765 237.902 82.1782 238.035 82.6412 237.793C82.8178 237.699 82.9574 237.547 83.0373 237.362C83.1172 237.177 83.1325 236.969 83.0808 236.773L81.5598 231.008C81.5272 230.885 81.528 230.757 81.5621 230.635C81.5962 230.513 81.6625 230.402 81.754 230.315C81.8454 230.227 81.9588 230.165 82.0824 230.136C82.2059 230.106 82.3351 230.11 82.4566 230.147C84.1535 230.68 85.059 230.059 86.6152 229.775C90.4602 229.083 94.5485 228.397 98.88 227.717C99.0359 227.692 99.1952 227.7 99.3477 227.741C99.5003 227.782 99.6428 227.854 99.7661 227.953C99.8893 228.053 99.9907 228.177 100.064 228.318C100.137 228.459 100.18 228.614 100.19 228.773C100.296 230.239 100.457 231.809 100.674 233.482C100.876 235.025 100.085 236.187 99.2405 237.385C99.2041 237.435 99.1808 237.495 99.1725 237.557C99.1642 237.619 99.1712 237.682 99.1929 237.741C99.2147 237.8 99.2505 237.852 99.2971 237.894C99.3437 237.935 99.3998 237.964 99.4603 237.979L99.7504 238.05C99.9009 238.089 100.06 238.085 100.209 238.038C100.358 237.991 100.491 237.903 100.594 237.784C101.556 236.678 101.972 235.407 101.843 233.97C101.667 231.983 101.579 229.926 101.579 227.797C101.578 227.694 101.556 227.592 101.516 227.497C101.475 227.403 101.416 227.318 101.342 227.247C101.268 227.177 101.18 227.122 101.085 227.087C100.99 227.052 100.889 227.037 100.788 227.043C97.6931 227.25 94.5661 227.694 91.4068 228.374C89.9122 228.699 88.444 228.974 87.0021 229.198C85.5426 229.417 84.0538 229.683 82.5357 229.997C82.2031 230.064 81.858 230.002 81.5694 229.824C81.2809 229.647 81.0702 229.366 80.9796 229.039C79.567 223.889 78.0753 219.15 76.5044 214.822C76.2143 214.024 76.355 213.243 75.8187 212.534C74.3944 210.636 73.9899 207.948 75.2296 205.793C76.7946 203.062 78.3771 200.682 79.9773 198.654C82.7643 195.124 87.4505 192.729 91.3805 190.343C91.8377 190.066 91.9783 190.184 91.8025 190.698C90.7768 193.66 89.1561 195.907 86.9405 197.439C83.0017 200.153 79.7487 203.691 77.7969 207.957C77.3104 209.033 76.7565 210.062 76.1352 211.044C76.1065 211.092 76.0929 211.148 76.0961 211.205C76.0992 211.261 76.1189 211.316 76.1528 211.363L76.4253 211.727C76.6305 212.004 76.8063 211.987 76.9528 211.673C79.4673 206.246 81.9379 202.104 86.9141 198.326C87.3772 197.971 87.5237 198.074 87.3537 198.636C86.9141 200.028 85.9558 201.048 85.4723 202.37C85.3492 202.701 85.399 203.005 85.6217 203.283L88.0923 206.325ZM79.6053 218.145C79.6529 218.108 79.6878 218.056 79.708 217.991C79.7282 217.925 79.7334 217.849 79.7232 217.765C79.713 217.682 79.6876 217.593 79.6486 217.504C79.6095 217.414 79.5575 217.327 79.4955 217.245C79.3703 217.082 79.212 216.954 79.0556 216.891C78.8991 216.828 78.7573 216.834 78.6612 216.909C78.6136 216.946 78.5787 216.998 78.5585 217.063C78.5383 217.129 78.5331 217.205 78.5433 217.289C78.5535 217.372 78.5789 217.461 78.6179 217.55C78.657 217.639 78.709 217.727 78.771 217.808C78.8962 217.972 79.0545 218.1 79.2109 218.163C79.3674 218.226 79.5092 218.22 79.6053 218.145ZM80.496 220.826C80.4754 220.79 80.4475 220.758 80.4141 220.733C80.3807 220.708 80.3425 220.691 80.3019 220.682C80.2614 220.672 80.2194 220.672 80.1786 220.68C80.1379 220.688 80.0992 220.705 80.0652 220.729C79.8249 220.9 79.7487 221.137 79.8366 221.438C80.0066 222.006 80.2381 222.038 80.5312 221.536C80.6601 221.317 80.6484 221.08 80.496 220.826ZM81.1554 224.986L81.5422 225.952C81.7005 226.343 81.8763 226.352 82.0698 225.979C82.3863 225.382 82.2075 224.93 81.5335 224.622C81.4823 224.599 81.4254 224.591 81.3699 224.6C81.3145 224.61 81.2631 224.636 81.2225 224.675C81.1818 224.714 81.1536 224.765 81.1417 224.82C81.1297 224.875 81.1345 224.933 81.1554 224.986ZM84.4941 237.278C84.5356 237.279 84.5773 237.262 84.6167 237.227C84.656 237.192 84.6924 237.14 84.7236 237.074C84.7548 237.008 84.7803 236.93 84.7987 236.843C84.817 236.756 84.8277 236.663 84.8304 236.569C84.833 236.474 84.8274 236.381 84.8139 236.293C84.8004 236.206 84.7793 236.126 84.7517 236.058C84.7242 235.991 84.6908 235.937 84.6534 235.9C84.616 235.863 84.5754 235.843 84.5338 235.842C84.4923 235.84 84.4506 235.858 84.4112 235.893C84.3718 235.928 84.3355 235.98 84.3043 236.046C84.273 236.111 84.2475 236.19 84.2292 236.277C84.2109 236.363 84.2001 236.456 84.1975 236.551C84.1949 236.645 84.2005 236.739 84.214 236.826C84.2275 236.914 84.2486 236.994 84.2761 237.061C84.3037 237.129 84.3371 237.183 84.3745 237.22C84.4119 237.257 84.4525 237.277 84.4941 237.278Z" fill="#5588C3"/>
<path d="M161.197 215.23C162.059 215.46 162.707 215.457 163.14 215.221C163.375 215.091 163.369 214.97 163.123 214.857C162.654 214.638 162.036 214.659 161.268 214.919L161.022 214.733C160.822 214.585 160.723 214.387 160.723 214.139L160.793 197.35C160.793 196.983 160.963 196.874 161.303 197.022C163.879 198.166 165.84 200.303 168.011 202.059C168.252 202.254 168.316 202.5 168.205 202.795L164.723 211.886C164.623 212.14 164.439 212.288 164.169 212.33L162.657 212.542C162.593 212.552 162.534 212.582 162.489 212.626C162.443 212.671 162.413 212.728 162.402 212.791L162.349 213.101C162.339 213.161 162.352 213.222 162.387 213.273C162.421 213.324 162.473 213.361 162.534 213.376L163.703 213.607C164.102 213.689 164.237 213.926 164.108 214.316C163.659 215.655 163.228 217.092 163.088 218.511C162.765 221.84 162.414 225.06 162.033 228.17C161.98 228.595 161.91 228.598 161.822 228.178C160.948 224.016 160.74 219.7 161.197 215.23Z" fill="#5588C3"/>
<path d="M126.653 197.563C126.477 197.753 126.357 197.957 126.292 198.175C124.205 198.844 122.667 199.006 121.676 198.663C119.355 197.871 119.417 197.549 121.861 197.697C123.027 197.762 124.625 197.717 126.653 197.563Z" fill="#665E5A"/>
<path d="M143.886 200.898L136.263 200.091C135.993 200.062 135.722 200.108 135.481 200.224C132.908 201.489 131.082 203.292 130.003 205.634C128.837 208.17 128.368 211.062 128.597 214.308C128.585 214.337 128.556 214.396 128.509 214.485C128.462 214.562 128.438 214.63 128.438 214.689C128.444 214.801 128.497 214.878 128.597 214.92C127.899 215.056 127.65 215.449 127.849 216.099C127.234 212.782 126.407 207.079 128.35 204.162C129.663 202.193 131.269 200.295 133.169 198.468C133.448 198.197 133.805 198.02 134.188 197.962C137.049 197.566 139.695 198.095 142.128 199.55C142.267 199.632 142.389 199.743 142.488 199.878C142.763 200.274 143.229 200.614 143.886 200.898Z" fill="#396299"/>
<path d="M127.744 202.247C127.727 202.271 127.7 202.288 127.671 202.293C127.641 202.298 127.611 202.291 127.586 202.273L127.56 202.255C127.318 202.08 127.233 201.702 127.326 201.203C127.418 200.704 127.679 200.126 128.052 199.595L128.237 199.337C128.609 198.807 129.063 198.368 129.498 198.115C129.933 197.863 130.314 197.817 130.558 197.989L130.584 197.998C130.609 198.016 130.625 198.043 130.63 198.073C130.635 198.103 130.628 198.133 130.611 198.158L127.744 202.247Z" fill="#5588C3"/>
<path d="M172.89 201.289C170.71 206.143 169.412 209.312 168.995 210.796C168.028 214.267 167.114 219.677 166.252 227.027C165.772 231.142 165.233 233.837 164.5 238L162 238.5C162.85 228.579 163.961 222.296 164.898 217.679C165.953 212.499 168.061 206.587 171.22 199.941C171.349 199.669 171.528 199.63 171.756 199.825C172.413 200.405 172.791 200.893 172.89 201.289Z" fill="#396299"/>
<path d="M172.491 201C178.346 211.559 182.016 221.699 184.5 232.5C182.437 233.011 178.374 234.436 176.656 234.747C175.066 235.037 171.777 236.974 169.5 237C166.376 237.037 167.612 237.868 164.5 238C165.22 234.291 165.491 227.603 165.963 223.935C166.811 217.386 167.71 212.565 168.661 209.472C169.07 208.15 170.347 205.326 172.491 201Z" fill="#5588C3"/>
<path d="M88.0918 206.326L95.8815 208.783C96.1746 208.877 96.4119 209.046 96.5936 209.288C97.5842 210.595 98.7184 211.899 99.9961 213.2C100.916 214.14 101.544 215.364 101.878 216.871C102.452 219.467 102.537 222.089 102.133 224.738L101.341 225.022C101.371 224.874 101.204 224.791 100.84 224.774C101.262 223.426 100.453 222.707 100.365 221.439C100.146 218.282 98.0795 214.477 96.2332 212.18C95.4946 211.257 94.2579 210.314 92.523 209.35C90.8818 208.44 89.4047 207.432 88.0918 206.326Z" fill="#396299"/>
<path d="M99.0303 207.266C99.8656 208.472 100.586 209.882 101.158 211.204C101.404 211.777 101.281 211.875 100.789 211.497C99.7278 210.681 98.8779 209.743 98.239 208.685C97.946 208.194 97.9782 207.715 98.3357 207.248C98.5761 206.935 98.8076 206.941 99.0303 207.266Z" fill="#5588C3"/>
<path d="M81.4007 237.394C80.416 237.79 79.78 237.586 79.4928 236.782C78.5316 234.109 77.1864 228.998 75.4573 221.448C75.1818 220.241 74.1561 217.77 72.3801 214.033C72.1984 213.347 72.216 212.688 72.4329 212.055C72.9135 210.672 73.4 210.672 73.8923 212.055C76.2251 218.642 78.3293 225.178 80.205 231.665C80.7501 233.539 81.1486 235.449 81.4007 237.394Z" fill="#396299"/>
<path d="M138 242L131 243L127.848 216.099C127.648 215.449 127.897 215.056 128.595 214.92C129.292 215.156 130.013 215.28 130.758 215.292C133.976 215.34 137.856 215.168 142.398 214.778C146.402 214.435 150.373 214.181 154.312 214.015C154.61 213.997 154.769 214.139 154.786 214.441L155.208 221.793C155.232 222.296 155.041 222.689 154.637 222.973C152.325 224.605 150.03 225.571 147.076 225.199C143.638 224.764 139.831 224.56 136.956 222.84C136.788 222.737 136.645 222.599 136.537 222.435C136.429 222.271 136.359 222.085 136.332 221.891L135.804 218.006C135.793 217.922 135.799 217.837 135.821 217.756C135.843 217.675 135.882 217.599 135.933 217.533C135.985 217.468 136.05 217.414 136.123 217.374C136.196 217.335 136.276 217.312 136.358 217.306C139.022 217.075 141.66 216.507 144.341 216.525C147.436 216.555 150.581 216.416 153.775 216.108C153.91 216.096 153.975 216.022 153.969 215.887L153.951 215.656C153.95 215.644 153.947 215.633 153.941 215.623C153.936 215.612 153.928 215.603 153.919 215.596C153.91 215.588 153.9 215.583 153.889 215.579C153.878 215.576 153.866 215.575 153.854 215.576C148.808 216.055 143.726 215.612 138.671 216.481C136.695 216.824 134.582 216.88 132.332 216.649C131.605 216.578 130.907 216.711 130.239 217.048C129.665 217.344 129.697 217.45 130.336 217.368L132.938 217.039C133.178 217.008 133.421 217.028 133.653 217.098C133.884 217.168 134.099 217.286 134.282 217.445C134.465 217.604 134.613 217.8 134.716 218.021C134.82 218.241 134.876 218.481 134.881 218.725C134.911 219.966 135.069 221.22 135.356 222.485C135.626 223.668 135.79 224.918 135.848 226.237C136.048 230.778 137.009 237.69 138 242ZM131.004 219.611C130.869 220.297 130.441 220.637 129.72 220.631C128.847 220.626 128.788 220.841 129.545 221.279C130.465 221.811 131.253 221.462 131.91 220.232C131.951 220.155 131.948 220.084 131.901 220.019L131.549 219.496C131.279 219.106 131.098 219.144 131.004 219.611ZM150.049 222.583C149.995 222.414 149.902 222.258 149.775 222.127C149.648 221.995 149.491 221.889 149.311 221.815C149.131 221.742 148.933 221.701 148.727 221.696C148.522 221.692 148.313 221.723 148.113 221.788C147.709 221.92 147.365 222.182 147.157 222.517C146.949 222.852 146.894 223.233 147.004 223.575C147.058 223.745 147.151 223.9 147.278 224.032C147.405 224.163 147.562 224.269 147.742 224.343C147.922 224.417 148.12 224.457 148.326 224.462C148.531 224.467 148.74 224.436 148.94 224.37C149.344 224.239 149.687 223.977 149.895 223.641C150.103 223.306 150.159 222.926 150.049 222.583ZM130.731 233.19C130.716 233.44 130.798 233.687 130.958 233.878C131.118 234.07 131.346 234.192 131.593 234.219C132.478 234.307 133.014 233.923 133.202 233.066C133.425 232.037 133.014 231.469 131.971 231.363C131.438 231.31 130.94 231.387 130.476 231.593C130.422 231.618 130.373 231.655 130.336 231.702C130.299 231.75 130.273 231.805 130.262 231.865C130.251 231.924 130.254 231.985 130.271 232.043C130.289 232.101 130.32 232.154 130.362 232.197C130.632 232.474 130.755 232.806 130.731 233.19Z" fill="#5588C3"/>
<path d="M161.27 214.92C162.037 214.66 162.656 214.639 163.125 214.858C163.371 214.97 163.377 215.091 163.142 215.222C162.709 215.458 162.061 215.461 161.199 215.23C161.404 215.366 161.428 215.263 161.27 214.92Z" fill="#56473E"/>
<path d="M78.7711 217.808C79.0318 218.15 79.4053 218.3 79.6053 218.145C79.8054 217.99 79.7562 217.587 79.4955 217.245C79.2348 216.904 78.8613 216.753 78.6612 216.908C78.4612 217.064 78.5103 217.467 78.7711 217.808Z" fill="#56473E"/>
<path d="M131.007 219.611C131.101 219.144 131.283 219.106 131.552 219.496L131.904 220.019C131.951 220.084 131.954 220.155 131.913 220.232C131.256 221.462 130.468 221.811 129.548 221.279C128.792 220.841 128.85 220.625 129.724 220.631C130.445 220.637 130.872 220.297 131.007 219.611Z" fill="#030202"/>
<path d="M80.4975 220.827C80.6499 221.081 80.6616 221.318 80.5326 221.536C80.2396 222.039 80.008 222.006 79.8381 221.439C79.7501 221.137 79.8263 220.901 80.0666 220.729C80.1007 220.705 80.1393 220.689 80.1801 220.68C80.2209 220.672 80.2628 220.673 80.3034 220.682C80.3439 220.691 80.3821 220.709 80.4155 220.734C80.4489 220.759 80.4768 220.79 80.4975 220.827Z" fill="#030202"/>
<path d="M150.05 222.583C150.159 222.926 150.104 223.307 149.896 223.642C149.688 223.977 149.344 224.239 148.941 224.371C148.741 224.436 148.532 224.467 148.326 224.462C148.121 224.458 147.923 224.417 147.743 224.343C147.563 224.27 147.405 224.164 147.278 224.032C147.152 223.9 147.059 223.745 147.004 223.576C146.895 223.233 146.95 222.853 147.158 222.517C147.366 222.182 147.71 221.92 148.114 221.788C148.314 221.723 148.522 221.692 148.728 221.697C148.933 221.701 149.132 221.742 149.311 221.816C149.491 221.89 149.649 221.995 149.776 222.127C149.902 222.259 149.995 222.414 150.05 222.583ZM149.485 222.965C149.478 222.782 149.378 222.61 149.206 222.487C149.035 222.363 148.806 222.299 148.571 222.308C148.455 222.313 148.34 222.335 148.233 222.374C148.127 222.413 148.031 222.468 147.951 222.535C147.871 222.603 147.809 222.681 147.767 222.767C147.726 222.853 147.707 222.943 147.71 223.034C147.717 223.217 147.817 223.39 147.989 223.513C148.16 223.636 148.388 223.7 148.624 223.691C148.74 223.686 148.855 223.664 148.961 223.625C149.068 223.586 149.163 223.532 149.243 223.464C149.323 223.397 149.386 223.318 149.427 223.233C149.469 223.147 149.488 223.056 149.485 222.965Z" fill="#030202"/>
<path d="M148.624 223.691C149.114 223.672 149.499 223.347 149.485 222.965C149.47 222.583 149.061 222.289 148.571 222.308C148.081 222.327 147.695 222.652 147.71 223.034C147.724 223.416 148.134 223.71 148.624 223.691Z" fill="#5588C3"/>
<path d="M81.1549 224.986C81.134 224.933 81.1292 224.876 81.1412 224.82C81.1531 224.765 81.1813 224.714 81.222 224.675C81.2626 224.636 81.314 224.61 81.3694 224.601C81.4249 224.591 81.4818 224.599 81.533 224.622C82.207 224.93 82.3858 225.382 82.0693 225.979C81.8759 226.352 81.7 226.343 81.5418 225.953L81.1549 224.986Z" fill="#56473E"/>
<path d="M139.71 225.66C142.061 227.339 144.584 228.368 147.28 228.746C149.241 229.03 151.166 228.001 152.977 227.292C154.097 226.854 154.372 226.092 153.804 225.004C154.144 224.732 154.443 224.596 154.701 224.596C154.999 224.596 155.164 224.746 155.193 225.048L156.362 237.225C156.397 237.562 156.251 237.778 155.923 237.873C150.343 239.445 144.941 239.623 139.719 238.405C138.752 238.174 138.183 237.556 138.013 236.551C137.374 232.802 136.982 228.956 136.835 225.013C136.818 224.628 136.982 224.51 137.328 224.658L139.71 225.66Z" fill="#5588C3"/>
<path d="M100.84 224.773C101.204 224.791 101.371 224.874 101.341 225.022C101.048 225.294 100.829 225.447 100.682 225.483C98.5192 226.056 96.3241 226.453 94.0968 226.671C92.1978 226.858 90.5185 227.541 88.681 227.594C86.3247 227.665 84.285 228.56 81.9903 228.773C81.8965 228.785 81.8496 228.744 81.8496 228.649V228.41C81.8496 228.356 81.876 228.324 81.9287 228.312C87.2977 227.076 92.7312 226.184 98.2291 225.634C99.0379 225.551 99.9083 225.264 100.84 224.773Z" fill="#030202"/>
<path d="M153.803 225.004C154.371 226.092 154.096 226.855 152.976 227.292C151.165 228.002 149.239 229.03 147.279 228.747C144.583 228.368 142.059 227.339 139.709 225.66C142.903 226.027 146.074 226.382 149.222 226.724C150.171 226.825 151.698 226.251 153.803 225.004Z" fill="#396299"/>
<path d="M130.734 233.19C130.757 232.806 130.634 232.475 130.365 232.197C130.322 232.154 130.291 232.101 130.274 232.043C130.256 231.985 130.253 231.924 130.264 231.865C130.276 231.805 130.301 231.75 130.338 231.702C130.376 231.655 130.424 231.618 130.479 231.594C130.942 231.387 131.44 231.31 131.973 231.363C133.017 231.469 133.427 232.037 133.204 233.066C133.017 233.923 132.48 234.308 131.595 234.219C131.348 234.192 131.121 234.07 130.96 233.878C130.8 233.687 130.719 233.44 130.734 233.19ZM132.438 232.807C132.441 232.752 132.426 232.695 132.391 232.641C132.357 232.587 132.304 232.536 132.237 232.492C132.17 232.448 132.089 232.411 131.998 232.383C131.908 232.355 131.811 232.338 131.712 232.331C131.512 232.317 131.317 232.349 131.17 232.418C131.023 232.488 130.937 232.591 130.929 232.704C130.925 232.759 130.941 232.816 130.975 232.87C131.01 232.924 131.062 232.975 131.13 233.019C131.197 233.063 131.278 233.1 131.368 233.128C131.458 233.156 131.556 233.173 131.655 233.18C131.855 233.194 132.05 233.162 132.196 233.092C132.343 233.023 132.43 232.92 132.438 232.807Z" fill="#030202"/>
<path d="M131.654 233.181C132.071 233.209 132.421 233.042 132.437 232.808C132.453 232.573 132.128 232.36 131.711 232.331C131.295 232.303 130.944 232.469 130.928 232.704C130.912 232.939 131.237 233.152 131.654 233.181Z" fill="#5588C3"/>
<path d="M84.1969 236.552C84.186 236.948 84.3187 237.274 84.4935 237.279C84.6682 237.284 84.8187 236.966 84.8297 236.57C84.8407 236.173 84.708 235.848 84.5332 235.843C84.3585 235.838 84.2079 236.155 84.1969 236.552Z" fill="#56473E"/>
</g>
<defs>
<clipPath id="clip0_949_2982">
<rect width="121" height="175" fill="white" transform="translate(65 72)"/>
</clipPath>
</defs>
</svg>
