<svg width="257" height="248" viewBox="0 0 257 248" fill="none" xmlns="http://www.w3.org/2000/svg">
<path d="M244.986 190.746C202.8 257.186 45.7403 263.166 8.74687 200.048C-27.5975 136.265 56.1244 2.72123 134.654 0.063634C213.184 -3.25836 286.522 124.306 244.986 190.746Z" fill="#F99576"/>
<g clip-path="url(#clip0_949_2983)">
<path d="M165.836 192.976C166.528 194.537 167.665 195.758 169.247 196.639C170.733 199.042 172.342 201.233 173.652 203.796C177.597 211.56 180.979 220.834 183.798 231.618C184.314 233.593 184.035 231.634 184 233C183.971 234.106 183.074 234.03 182.5 234C179.974 221.879 176.846 214.137 170.891 202.289C170.792 201.892 170.414 201.405 169.757 200.825C169.529 200.63 169.35 200.668 169.221 200.94C166.062 207.586 163.955 213.499 162.899 218.678C161.962 223.296 160.85 230.079 160 240C156.641 239.976 152.037 241.462 146 242C143.128 242.254 140.121 243.751 136 243C135.009 238.69 134.05 231.778 133.851 227.237C133.792 225.918 133.628 224.668 133.358 223.485C133.071 222.22 132.913 220.967 132.884 219.725C132.878 219.481 132.822 219.241 132.719 219.021C132.616 218.801 132.468 218.605 132.284 218.446C132.101 218.287 131.887 218.169 131.655 218.099C131.424 218.029 131.18 218.009 130.941 218.04L128.338 218.368C127.699 218.451 127.667 218.344 128.241 218.049C128.91 217.712 129.607 217.579 130.334 217.65C132.585 217.88 134.698 217.824 136.673 217.481C141.728 216.612 146.81 217.055 151.857 216.576C151.868 216.575 151.88 216.576 151.891 216.58C151.902 216.583 151.913 216.589 151.922 216.596C151.931 216.603 151.938 216.613 151.944 216.623C151.949 216.633 151.952 216.645 151.953 216.656L151.971 216.887C151.977 217.023 151.912 217.097 151.778 217.109C148.583 217.416 145.439 217.555 142.344 217.525C139.662 217.508 137.025 218.075 134.361 218.306C134.278 218.312 134.198 218.336 134.125 218.375C134.052 218.414 133.988 218.468 133.936 218.534C133.884 218.599 133.846 218.675 133.824 218.756C133.801 218.838 133.796 218.923 133.807 219.007L134.334 222.891C134.362 223.085 134.432 223.271 134.54 223.435C134.648 223.599 134.791 223.738 134.959 223.84C137.834 225.561 141.64 225.765 145.078 226.199C148.032 226.572 150.327 225.605 152.639 223.973C153.044 223.689 153.234 223.296 153.211 222.794L152.789 215.441C152.771 215.14 152.613 214.998 152.314 215.016C148.375 215.181 144.404 215.435 140.401 215.778C135.858 216.168 131.978 216.34 128.76 216.293C128.016 216.281 127.295 216.157 126.597 215.92C126.498 215.879 126.445 215.802 126.439 215.69C126.439 215.63 126.463 215.562 126.509 215.486C126.556 215.397 126.586 215.338 126.597 215.308C127.271 215.746 127.887 215.947 128.444 215.911C136.521 215.432 144.513 214.871 152.419 214.226C152.552 214.215 152.674 214.152 152.761 214.051C152.848 213.95 152.893 213.819 152.885 213.685C152.475 206.927 152.332 200.562 152.455 194.59C152.46 194.271 152.32 194.049 152.033 193.925C149.061 192.648 146.022 191.711 142.915 191.114C142.64 191.06 142.496 191.173 142.485 191.451L141.887 201.898C141.23 201.614 140.764 201.275 140.489 200.878C140.39 200.744 140.268 200.632 140.128 200.55C137.696 199.096 135.049 198.567 132.189 198.963C131.805 199.021 131.449 199.197 131.169 199.468C129.27 201.295 127.664 203.193 126.351 205.162C124.408 208.08 125.235 213.783 125.85 217.1L129 244H127C126.191 241.7 125.619 235.668 125.419 233.055C125.044 228.177 124.851 225.703 124.839 225.632C124.141 220.222 123.526 214.803 122.993 209.375C122.711 206.525 123.116 203.648 124.206 200.745C124.382 200.272 124.411 199.749 124.294 199.176C124.358 198.957 124.479 198.753 124.654 198.564L133.701 187.974C134.616 186.898 134.402 186.564 133.059 186.972C132.022 187.291 131.093 187.885 130.272 188.754C128.901 190.218 126.879 190.706 124.98 190.413C122.635 190.052 120.279 190.274 117.911 191.078C112.064 193.074 112.609 186.812 108.943 184.905C108.134 184.486 107.404 183.959 106.754 183.327C106.461 183.049 106.297 183.111 106.262 183.513C106.009 186.109 104.556 187.971 101.901 189.1C101.488 189.277 101.139 189.577 100.9 189.961C100.661 190.345 100.544 190.793 100.564 191.247C100.734 195.125 100.16 198.596 98.8411 201.659C97.8564 203.92 97.8476 206.599 99.2104 208.727C100.875 211.311 101.745 213.446 101.822 215.131C102.156 222.06 102.543 229.327 102.982 236.931C103.082 238.634 102.543 239.5 101.364 239.529C100.942 239.305 100.746 239.027 100.775 238.696C101.168 234.391 100.954 230.072 100.134 225.738C100.538 223.089 100.453 220.467 99.8786 217.871C99.5445 216.364 98.9173 215.14 97.9971 214.2C96.7193 212.899 95.5851 211.595 94.5946 210.288C94.4129 210.046 94.1755 209.877 93.8824 209.783L86.0927 207.326L83.6222 204.284C83.3995 204.006 83.3496 203.702 83.4727 203.371C83.9563 202.049 84.9146 201.029 85.3542 199.637C85.5242 199.075 85.3776 198.972 84.9146 199.326C79.9383 203.104 77.4678 207.246 74.9533 212.674C74.8068 212.987 74.6309 213.005 74.4258 212.727L74.1532 212.364C74.1194 212.317 74.0996 212.262 74.0965 212.205C74.0934 212.148 74.107 212.092 74.1356 212.044C74.7569 211.063 75.3108 210.034 75.7973 208.958C77.7491 204.692 81.0022 201.153 84.941 198.439C87.1566 196.908 88.7772 194.661 89.8029 191.699C89.9788 191.185 89.8381 191.066 89.3809 191.344C85.4509 193.73 80.7648 196.125 77.9777 199.654C76.3776 201.682 74.795 204.062 73.2301 206.794C71.9904 208.949 72.3948 211.636 73.8191 213.534C74.3554 214.244 74.2148 215.024 74.5049 215.823C76.0757 220.151 77.5674 224.89 78.98 230.04C79.0706 230.367 79.2813 230.648 79.5699 230.825C79.8585 231.003 80.2036 231.064 80.5362 230.997C82.0543 230.684 83.5431 230.418 85.0025 230.199C86.4444 229.975 87.9127 229.7 89.4073 229.374C92.5666 228.694 95.6936 228.251 98.7884 228.044C98.8893 228.038 98.9905 228.053 99.0857 228.088C99.1809 228.123 99.2681 228.178 99.3421 228.248C99.4161 228.319 99.4753 228.404 99.5161 228.498C99.5569 228.593 99.5785 228.695 99.5796 228.798C99.5796 230.926 99.6675 232.984 99.8434 234.971C99.9723 236.408 99.5562 237.679 98.5949 238.784C98.4919 238.904 98.3583 238.992 98.2092 239.039C98.0601 239.086 97.9014 239.09 97.7509 239.05L97.4608 238.98C97.4002 238.965 97.3442 238.936 97.2975 238.894C97.2509 238.853 97.2151 238.8 97.1934 238.742C97.1717 238.683 97.1646 238.62 97.1729 238.557C97.1812 238.495 97.2046 238.436 97.241 238.385C98.085 237.188 98.8763 236.026 98.6741 234.483C98.4572 232.81 98.296 231.24 98.1905 229.773C98.1802 229.615 98.1372 229.46 98.0642 229.319C97.9912 229.178 97.8898 229.053 97.7665 228.954C97.6432 228.855 97.5007 228.782 97.3482 228.742C97.1956 228.701 97.0363 228.693 96.8805 228.718C92.549 229.398 88.4607 230.084 84.6157 230.776C83.0595 231.06 82.1539 231.68 80.4571 231.148C80.3356 231.111 80.2064 231.107 80.0828 231.136C79.9593 231.166 79.8459 231.227 79.7544 231.315C79.6629 231.403 79.5967 231.514 79.5625 231.635C79.5284 231.757 79.5276 231.886 79.5603 232.008L81.0813 237.773C81.133 237.97 81.1176 238.177 81.0378 238.363C80.9579 238.548 80.8182 238.7 80.6417 238.793C80.1787 239.036 79.7654 238.903 79.402 238.394C79.15 236.449 78.7514 234.539 78.2063 232.665C76.3307 226.179 74.2265 219.642 71.8937 213.055C71.4013 211.672 70.9148 211.672 70.4342 213.055C70.2173 213.688 70.1998 214.347 70.3815 215.033C69.8305 215.802 69.4583 216.506 69.2649 217.144C67.0259 224.446 65.2938 231.441 64.0688 238.128C63.0431 237.655 62.6504 236.824 62.8907 235.636C64.186 229.203 65.9972 222.43 68.3241 215.317C70.9617 207.282 74.7247 200.071 81.2044 194.812C81.9341 194.218 82.7518 193.029 82.9276 192.089C83.6398 188.471 84.4662 184.799 84.8179 181.101C85.5447 173.467 86.0839 165.816 86.4356 158.148C86.5528 155.593 86.1338 153.675 85.1784 152.392C85.8172 151.593 86.2861 150.775 86.5851 149.935C86.6847 149.651 86.6027 149.438 86.3389 149.296L83.3145 147.602C82.4763 146.106 81.6235 144.563 80.756 142.973C78.5492 138.955 78.0305 135.7 79.3141 131.283C79.5427 130.494 79.2526 129.581 78.8218 128.915C77.7052 127.177 76.8172 125.182 76.6853 123.115C75.9878 111.615 78.9302 101.188 85.5125 91.8342C87.1214 89.5371 89.2578 87.4707 91.2448 85.4397C94.5946 81.9985 98.4982 80.1538 102.833 78.2913C104.433 77.6054 106.112 77.0703 107.87 76.686C113.823 75.4 118.729 74.7348 124.549 76.5441C127.371 77.4221 129.437 76.8545 132.145 76.5352C133.704 76.3578 135.375 76.4613 137.157 76.8456C138.874 77.2181 140.486 77.8094 141.992 78.6194C147.385 81.5284 151.719 85.0967 154.995 89.3243C159.175 94.7048 162.287 100.674 164.333 107.231C165.95 112.41 166.097 117.581 164.772 122.743C164.286 124.646 163.497 126.305 162.407 127.718C161.944 128.315 161.78 128.978 161.915 129.705C162.724 134.104 162.269 138.204 160.552 142.006C159.69 143.922 158.838 145.725 157.994 147.416C157.097 149.199 156.939 151.31 157.026 153.296C157.349 160.332 158.035 167.179 159.084 173.837C159.849 178.679 161.422 183.965 162.618 188.967C163.093 190.972 164.166 192.308 165.836 192.976ZM134.466 93.1291C134.748 94.0751 135.117 94.9709 135.574 95.8164C137.473 99.3344 138.883 102.737 139.803 106.025C140.624 108.969 141.356 111.866 142.001 114.716C142.165 115.455 142.611 115.916 143.337 116.1C146.942 116.987 150.579 118.648 154.248 121.084C154.512 121.261 154.664 121.507 154.705 121.82L155.286 126.29C155.374 127.012 155.752 127.23 156.42 126.947C157.744 126.379 159.013 126.459 160.227 127.186C160.338 127.252 160.461 127.294 160.589 127.309C160.717 127.324 160.847 127.311 160.97 127.272C161.093 127.232 161.206 127.167 161.302 127.081C161.398 126.994 161.475 126.888 161.528 126.769C165.033 118.905 165.027 111.059 161.51 103.231C159.254 98.211 156.877 94.0455 154.38 90.7345C150.535 85.6437 145.398 81.7324 138.968 79.0008C135.829 77.6704 131.987 77.9897 128.681 78.3356C127.468 78.4657 126.17 78.3593 124.786 78.0163C118.638 76.485 112.187 76.822 105.435 79.0274C100.318 80.7036 95.5969 82.9209 91.7636 86.6636C87.813 90.5246 84.8794 94.4831 82.9628 98.5392C79.1588 106.592 77.5147 114.716 78.0305 122.911C78.1536 124.921 78.8393 126.725 80.0878 128.321C80.2139 128.484 80.3742 128.617 80.5568 128.709C80.7395 128.801 80.9397 128.851 81.1428 128.853L85.0992 128.889C85.5974 128.895 85.8202 128.646 85.7674 128.144L85.2839 123.541C85.2487 123.174 85.3278 122.831 85.5212 122.512C85.9784 121.767 86.6671 121.229 87.5874 120.898C87.9508 120.774 88.1999 120.528 88.3347 120.162C89.5245 116.862 91.0338 114.364 92.8626 112.667C95.2657 110.432 96.0394 110.905 95.1836 114.086C94.7733 115.612 94.4217 117.389 94.1286 119.417C94.1179 119.489 94.1256 119.564 94.1511 119.633C94.1766 119.702 94.219 119.763 94.2744 119.811C94.3297 119.858 94.3962 119.891 94.4675 119.906C94.5389 119.921 94.6129 119.917 94.6825 119.896C100.52 118.069 106.499 116.732 112.618 115.887C112.741 115.869 112.852 115.804 112.928 115.704C113.004 115.605 113.038 115.479 113.023 115.355C112.296 109.3 113.245 103.337 115.871 97.466C117.12 94.6812 119.186 92.4728 120.654 89.8032C121.164 88.8897 121.982 88.6236 122.623 87.852C122.858 87.5741 123.163 87.4027 123.538 87.3376C123.819 87.2903 124.071 87.3406 124.294 87.4884C124.546 87.6599 124.654 87.8964 124.619 88.1979C123.746 95.707 123.737 103.905 124.593 112.792C124.692 113.88 124.927 114.917 125.296 115.905C125.478 116.389 125.824 116.641 126.334 116.658L129.006 116.774C129.475 116.797 129.639 116.585 129.499 116.135C126.914 107.722 126.445 99.3019 128.092 90.8764C128.203 90.2969 128.42 89.7382 128.743 89.2001C128.884 88.9688 129.109 88.8026 129.369 88.7378C129.629 88.6731 129.903 88.7149 130.132 88.8542C131.07 89.4218 131.981 90.0752 132.866 90.8143C133.675 91.4824 134.208 92.254 134.466 93.1291ZM130.193 93.3153C129.256 95.4794 128.839 97.7173 128.945 100.029C128.628 101.909 128.52 103.252 128.62 104.056C129.024 107.219 129.909 111.517 131.275 116.951C131.533 117.98 131.134 118.45 130.079 118.361L125.428 117.962C124.385 117.868 123.766 117.303 123.573 116.268C122.07 108.144 122.237 100.756 122.5 92.1624C122.518 91.4824 122.377 91.4469 122.078 92.0559L120.874 94.486C120.833 94.5624 120.783 94.6312 120.724 94.69C119.476 95.9849 118.324 96.8541 117.621 98.6367C116.032 102.64 115.106 106.938 114.843 111.532C114.737 113.336 114.74 115.115 114.851 116.871C114.875 117.309 114.67 117.542 114.236 117.572C110.49 117.856 106.76 118.568 103.044 119.709C100.38 120.534 97.5487 120.57 94.8935 121.767C94.6004 121.897 94.3015 121.921 93.9967 121.838C91.8075 121.226 92.3878 118.778 92.7131 117.084C93.0648 115.251 92.7805 115.145 91.8603 116.765C91.0338 118.225 90.3686 119.828 89.8645 121.572C89.7648 121.903 89.5538 122.122 89.2315 122.228L87.5346 122.769C87.3918 122.815 87.2688 122.908 87.1857 123.034C87.1026 123.16 87.0644 123.31 87.0774 123.461L87.5962 129.332C87.6548 130.024 87.9683 130.175 88.5369 129.785C95.1192 125.338 102.537 124.046 110.789 125.909C112.7 126.34 114.391 127.346 115.862 128.924C116.073 129.155 116.317 129.19 116.592 129.031C119.423 127.381 122.105 128.197 125.217 128.215C125.51 128.221 125.747 128.108 125.929 127.878C127.453 125.95 129.402 124.706 131.776 124.144C138.897 122.465 145.606 123.36 151.901 126.831C152.364 127.085 152.601 126.947 152.613 126.414L152.683 122.228C152.689 121.696 152.449 121.329 151.962 121.128C148.744 119.807 145.289 117.696 141.711 117.616C141.526 117.611 141.348 117.543 141.207 117.422C141.067 117.301 140.971 117.135 140.937 116.951C139.648 110.542 137.625 104.23 134.871 98.0159C133.892 95.7868 132.488 93.6287 130.659 91.5415C130.431 91.2755 130.255 91.308 130.132 91.6391C129.909 92.2244 129.93 92.7832 130.193 93.3153ZM132.233 143.931C132.731 144.238 133.276 144.433 133.868 144.516C137.766 145.06 141.485 145.098 145.025 144.631C146.511 144.436 147.584 143.611 148.903 143.035C149.237 142.893 149.492 142.662 149.668 142.343C150.45 140.96 151.989 140.738 152.393 138.893C153.149 135.458 153.152 132.064 152.402 128.711C152.326 128.369 152.121 128.15 151.786 128.055C150.309 127.618 148.988 127.106 147.821 126.521C144.173 124.685 140.489 124.463 136.269 124.96C132.998 125.35 130.404 125.235 127.811 127.771C126.697 128.871 126.058 130.308 125.894 132.082C125.572 135.694 125.991 138.429 127.151 140.285C128.268 142.086 130.396 142.795 132.233 143.931ZM91.9658 129.731C88.4138 130.494 88.9325 135.461 89.2315 138.405C89.4014 140.149 90.0022 141.595 91.0338 142.742C92.7453 144.64 94.788 145.737 97.1618 146.033C97.8535 146.121 98.5275 146.257 99.184 146.441C99.9577 146.659 100.796 146.76 101.698 146.742C104.371 146.701 106.985 146.414 109.541 145.882C111.329 145.515 112.82 144.56 114.016 143.017C116.237 140.167 116.938 136.877 116.117 133.146C115.432 130.042 113.659 128.099 110.798 127.319C108.893 126.799 106.516 126.506 103.668 126.441C102.059 126.405 100.591 126.84 98.9642 126.876C97.1882 126.911 95.591 127.541 94.1726 128.765C93.9557 128.954 93.7037 129.046 93.4165 129.04C93.0648 129.034 92.7658 129.161 92.5197 129.421C92.3673 129.587 92.1826 129.69 91.9658 129.731ZM156.349 129.119C155.763 129.616 155.418 130.432 155.312 131.567C155.224 132.572 155.119 133.427 154.995 134.13C154.796 135.254 154.79 136.371 154.978 137.483L154.635 144.968C154.612 145.56 154.849 145.701 155.347 145.394L156.42 144.729C156.644 144.591 156.822 144.387 156.929 144.143C157.036 143.899 157.067 143.627 157.018 143.363L156.112 138.565C156.528 138.039 156.974 138.485 157.448 139.904C157.73 140.738 157.8 141.749 157.659 142.937C157.566 143.765 157.788 143.863 158.328 143.23C159.084 142.349 159.304 141.48 158.987 140.622C157.873 137.583 157.264 135.363 157.158 133.962C158.084 135.83 158.673 137.279 158.926 138.308C159.383 140.188 159.863 140.194 160.367 138.325C161.097 135.638 161.572 130.556 159.005 128.516C158.307 127.966 157.422 128.167 156.349 129.119ZM117.049 130.955L117.164 131.275C117.193 131.347 117.248 131.405 117.318 131.438C117.388 131.471 117.468 131.476 117.542 131.452C119.787 130.683 121.958 130.624 124.057 131.275C124.344 131.363 124.555 131.275 124.69 131.009L124.848 130.68C125.035 130.308 124.924 130.077 124.514 129.989C122.251 129.521 119.877 129.616 117.392 130.272C117.322 130.291 117.257 130.325 117.201 130.371C117.145 130.417 117.099 130.474 117.066 130.538C117.034 130.603 117.016 130.674 117.013 130.745C117.01 130.817 117.022 130.889 117.049 130.955ZM83.5167 144.117C84.1204 145.169 84.941 146.098 85.9784 146.902C87.4848 148.072 88.1413 147.7 87.9478 145.784L87.2357 138.84C87.2298 138.781 87.2093 138.751 87.1741 138.751H86.9543C86.8407 138.749 86.7305 138.791 86.6469 138.868C86.5632 138.946 86.5127 139.053 86.506 139.168C86.4473 139.978 86.1308 140.643 85.5564 141.163C85.2985 141.394 85.111 141.347 84.9937 141.022C84.8765 140.69 84.8413 140.247 84.8882 139.691L86.04 133.119C86.2627 131.848 85.7557 131.041 84.519 130.698C84.1087 130.586 83.7042 130.53 83.3057 130.53C81.559 130.535 80.5245 131.405 80.2021 133.137C79.4694 137.069 80.5743 140.729 83.5167 144.117ZM124.329 132.542C124.328 132.479 124.301 132.419 124.256 132.375C124.21 132.331 124.149 132.307 124.086 132.309L118.004 132.459C117.941 132.46 117.881 132.487 117.838 132.533C117.795 132.579 117.771 132.641 117.773 132.704L117.875 136.942C117.877 137.006 117.903 137.066 117.949 137.11C117.995 137.154 118.055 137.177 118.118 137.176L124.201 137.026C124.264 137.024 124.323 136.998 124.367 136.952C124.41 136.906 124.434 136.844 124.432 136.781L124.329 132.542ZM107.791 147.993L99.9665 148.303L92.546 146.174C92.3186 146.109 92.0798 146.094 91.8458 146.13C91.6118 146.166 91.3881 146.252 91.1897 146.383C90.9914 146.515 90.823 146.687 90.696 146.89C90.569 147.093 90.4863 147.32 90.4536 147.558C90.4008 147.942 90.4155 148.333 90.4975 148.729C91.2126 152.4 92.1123 155.818 93.1967 158.981C94.6561 163.256 99.562 167.158 103.237 168.932C111.317 172.843 119.265 175.894 128.162 173.429C134.657 171.631 139.589 169.092 142.959 165.81C146.344 162.502 149.386 159.46 150.432 154.591C151.019 151.865 151.561 149.089 152.059 146.263C152.176 145.595 151.907 145.181 151.25 145.021C149.984 144.711 149.043 144.525 147.751 145.03C145.676 145.834 143.51 146.296 141.254 146.414L131.389 145.288C128.529 144.229 126.504 142.319 125.314 139.558C125.23 139.365 125.092 139.201 124.917 139.086C124.742 138.971 124.538 138.91 124.329 138.911L118.263 138.902C117.858 138.896 117.597 139.088 117.48 139.478C116.085 144.167 112.856 147.005 107.791 147.993ZM153 143.194C153.152 142.692 153.205 142.201 153.158 141.722C153.123 141.297 152.906 141.152 152.507 141.288C151.974 141.477 151.543 141.835 151.215 142.361C151.033 142.645 151.06 142.914 151.294 143.168C151.505 143.393 151.754 143.561 152.041 143.673C152.534 143.863 152.853 143.703 153 143.194ZM90.7876 144.436C90.5415 143.904 90.181 143.505 89.7062 143.239C89.378 143.056 89.1934 143.153 89.1523 143.532C89.0879 144.164 89.211 144.735 89.5216 145.243C89.5685 145.321 89.6323 145.387 89.7082 145.437C89.7841 145.486 89.8702 145.518 89.9599 145.529C90.0496 145.54 90.1406 145.53 90.2261 145.501C90.3116 145.471 90.3894 145.423 90.4536 145.359L90.6558 145.155C90.7483 145.061 90.8106 144.942 90.8341 144.813C90.8577 144.685 90.8415 144.553 90.7876 144.436ZM148.604 163.008C148 169.121 148.076 175.726 148.832 182.821C148.539 185.399 150.55 186.564 154.864 186.315C157.22 186.182 158.591 186.777 159.26 189.038C159.453 189.677 159.852 189.863 160.455 189.597L160.701 189.482C160.989 189.358 161.091 189.145 161.009 188.843C159.872 184.669 158.946 180.917 158.231 177.588C156.613 170.068 155.784 160.956 155.743 150.254C155.743 149.456 155.801 148.599 155.919 147.682C156.007 147.044 155.766 146.872 155.198 147.168L154.828 147.363C154.593 147.487 154.393 147.67 154.248 147.894C154.103 148.118 154.018 148.375 154.002 148.64C153.949 149.409 153.809 150.133 153.58 150.813C152.8 153.16 151.921 155.605 150.942 158.148C150.626 158.975 150.236 159.791 149.773 160.595C149.333 161.346 148.944 162.15 148.604 163.008ZM92.4933 186.378C93.859 179.436 94.3953 172.308 94.1022 164.994C92.6193 162.346 91.4617 159.623 90.6294 156.826C90.0257 154.786 89.504 152.918 89.0644 151.221C88.7127 149.837 88.3962 149.846 88.1149 151.248C87.857 152.542 88.0006 153.728 88.5457 154.804C88.7098 155.129 88.6776 155.431 88.449 155.709C88.1149 156.111 87.9361 156.557 87.9127 157.048C87.6255 163.037 87.3236 169.03 87.0071 175.025C86.6818 181.127 85.8026 185.978 84.264 191.593C84.2438 191.667 84.2442 191.746 84.2651 191.821C84.286 191.895 84.3267 191.963 84.3828 192.016C84.4389 192.068 84.5082 192.105 84.5833 192.121C84.6585 192.137 84.7365 192.132 84.8091 192.107C88.0504 190.995 90.6118 189.086 92.4933 186.378ZM141.597 181.482C141.895 182.05 142.326 182.635 142.959 182.848C144.143 183.25 145.304 183.743 146.441 184.329C146.48 184.347 146.524 184.355 146.568 184.351C146.611 184.347 146.653 184.331 146.687 184.305C146.722 184.279 146.748 184.245 146.764 184.205C146.779 184.166 146.783 184.122 146.775 184.08C146.042 180.29 145.817 176.456 146.098 172.577C146.247 170.431 146.23 168.249 146.186 166.103C146.174 165.287 145.908 165.193 145.386 165.819C143.118 168.563 140.155 170.943 136.497 172.959C135.618 173.444 134.718 173.754 133.798 173.89C133.546 173.931 133.391 174.076 133.332 174.325C133.297 174.496 133.326 174.653 133.42 174.795C133.543 174.978 133.71 175.093 133.921 175.141C137.221 175.886 139.78 177.999 141.597 181.482ZM102.393 170.502C100.383 169.32 98.5158 168.06 96.7926 166.724C96.7416 166.683 96.6802 166.657 96.6153 166.649C96.5504 166.641 96.4846 166.651 96.4252 166.679C96.3659 166.706 96.3153 166.75 96.2793 166.805C96.2432 166.86 96.2231 166.924 96.2211 166.99L95.6057 180.134C95.5705 180.956 95.8284 181.062 96.3793 180.453C98.4806 178.129 101.637 175.806 104.793 175.371C105.907 175.217 107.012 174.966 108.108 174.617C108.212 174.585 108.305 174.524 108.377 174.441C108.448 174.358 108.495 174.256 108.513 174.146C108.53 174.037 108.517 173.924 108.475 173.821C108.433 173.718 108.364 173.628 108.275 173.562C106.49 172.232 104.345 171.655 102.393 170.502ZM131.495 180.914L131.67 174.733C131.672 174.691 131.664 174.649 131.646 174.611C131.629 174.573 131.603 174.54 131.57 174.514C131.538 174.488 131.5 174.47 131.459 174.462C131.418 174.454 131.376 174.455 131.336 174.467C128.03 175.3 124.672 176.338 121.252 176.214C117.835 176.09 114.28 175.339 110.587 173.961C110.495 173.926 110.395 173.918 110.299 173.936C110.202 173.954 110.112 173.998 110.038 174.063C109.964 174.129 109.909 174.213 109.879 174.308C109.849 174.402 109.844 174.503 109.866 174.6C110.359 176.775 110.578 178.963 110.526 181.163C110.523 181.252 110.499 181.34 110.454 181.417C110.409 181.495 110.345 181.559 110.269 181.605C110.193 181.651 110.106 181.677 110.017 181.68C109.928 181.684 109.84 181.664 109.761 181.624C109.35 181.405 108.978 181.127 108.644 180.79C108.363 180.494 108.137 180.533 107.967 180.905C107.709 181.467 107.932 182.035 108.635 182.608C108.787 182.732 108.953 182.833 109.128 182.91C111.291 183.862 112.817 185.485 113.708 187.779C114.35 189.428 115.941 189.783 117.489 189.287C120.273 188.388 122.949 188.205 125.516 188.737C126.677 188.979 127.685 188.666 128.54 187.797C129.953 186.366 131.623 185.408 133.552 184.923C133.886 184.84 134.15 184.654 134.343 184.364C135.597 182.437 135.436 180.941 133.86 179.877C133.838 179.861 133.813 179.852 133.787 179.848C133.761 179.844 133.735 179.847 133.71 179.856C133.685 179.864 133.662 179.879 133.644 179.898C133.626 179.917 133.612 179.94 133.605 179.965C133.317 180.976 132.86 181.52 132.233 181.597C132.139 181.609 132.043 181.6 131.952 181.57C131.861 181.541 131.778 181.492 131.708 181.427C131.638 181.362 131.582 181.283 131.546 181.194C131.509 181.106 131.491 181.01 131.495 180.914ZM90.5591 193.925C89.0556 197.056 87.0247 199.965 85.2487 203.042C85.1747 203.171 85.1442 203.321 85.1616 203.469C85.179 203.618 85.2435 203.757 85.3454 203.867C87.4496 206.09 90.1107 207.486 93.3285 208.053C96.098 208.55 96.4673 204.94 96.8365 203.167C97.5311 199.787 98.9994 197.304 99.0169 193.792C99.0521 186.759 101.549 180.897 107.888 177.393C108.492 177.062 108.454 176.861 107.774 176.79C98.8147 175.823 93.7945 187.202 90.5591 193.925ZM134.616 177.721C138.572 180.258 137.35 185.89 134.844 189.056C132.863 191.557 130.905 193.99 128.971 196.355C128.297 197.183 128.482 197.49 129.525 197.278C131.823 196.805 134.381 196.819 137.201 197.322C138.194 197.49 138.836 197.978 139.697 198.439C140.125 198.67 140.357 198.543 140.392 198.058C140.791 192.737 140.843 188.255 140.55 184.613C140.275 181.242 138.393 178.697 134.906 176.976C134.783 176.917 134.689 176.947 134.624 177.065L134.501 177.269C134.396 177.452 134.434 177.603 134.616 177.721ZM104.477 181.775L101.224 187.087C101.211 187.111 101.207 187.139 101.213 187.165C101.22 187.191 101.236 187.214 101.259 187.229L101.276 187.247C101.608 187.452 102.097 187.37 102.636 187.017C103.176 186.665 103.72 186.071 104.151 185.367L104.266 185.189C104.48 184.84 104.66 184.473 104.795 184.111C104.93 183.749 105.018 183.398 105.053 183.078C105.088 182.758 105.07 182.476 105 182.248C104.93 182.02 104.809 181.85 104.644 181.748L104.617 181.739C104.594 181.726 104.566 181.722 104.54 181.729C104.514 181.735 104.491 181.752 104.477 181.775ZM142.959 184.967C142.915 184.953 142.867 184.95 142.821 184.958C142.775 184.966 142.732 184.985 142.694 185.014C142.657 185.043 142.628 185.08 142.608 185.123C142.588 185.166 142.579 185.213 142.581 185.26L142.766 189.482C142.768 189.541 142.787 189.597 142.822 189.645C142.856 189.692 142.904 189.728 142.959 189.748L152.332 193.207C152.373 193.222 152.416 193.227 152.46 193.223C152.503 193.218 152.545 193.204 152.582 193.181C152.619 193.158 152.651 193.127 152.674 193.09C152.698 193.053 152.713 193.011 152.718 192.967L153.281 188.382C153.29 188.312 153.273 188.241 153.235 188.183C153.196 188.124 153.137 188.081 153.07 188.063L142.959 184.967ZM158.899 237.631C157.835 228.346 156.965 218.82 157.114 209.472C157.226 202.046 157.396 195.341 157.624 189.358C157.671 188.128 157.047 187.525 155.752 187.548C154.99 187.56 154.568 187.947 154.486 188.71C153.958 193.422 153.753 198.256 153.87 203.211C154.122 214.049 154.585 223.796 155.259 232.452C155.394 234.173 155.637 235.908 155.989 237.658C156.13 238.379 156.566 238.764 157.299 238.811L157.774 238.838C158.624 238.891 158.999 238.489 158.899 237.631ZM159.998 197.189C162.343 198.566 164.318 200.255 165.924 202.253C166.463 202.921 166.888 202.853 167.199 202.049L168.148 199.619C168.389 199.016 168.304 198.466 167.893 197.969C165.478 195.031 162.885 192.725 160.112 191.052C159.433 190.644 159.095 190.839 159.101 191.637L159.128 195.681C159.134 196.355 159.424 196.858 159.998 197.189ZM159.268 215.92C159.427 216.263 159.403 216.367 159.198 216.231C158.741 220.701 158.949 225.017 159.822 229.179C159.91 229.599 159.981 229.596 160.033 229.17C160.414 226.06 160.766 222.841 161.088 219.512C161.229 218.093 161.66 216.656 162.108 215.317C162.237 214.927 162.102 214.69 161.704 214.608L160.534 214.377C160.474 214.362 160.421 214.325 160.387 214.274C160.353 214.223 160.34 214.162 160.35 214.102L160.403 213.792C160.413 213.729 160.443 213.672 160.489 213.627C160.535 213.583 160.594 213.553 160.658 213.543L162.17 213.33C162.439 213.289 162.624 213.141 162.724 212.887L166.205 203.796C166.317 203.501 166.252 203.255 166.012 203.06C163.84 201.304 161.88 199.167 159.304 198.023C158.964 197.875 158.794 197.984 158.794 198.351L158.723 215.14C158.723 215.388 158.823 215.586 159.022 215.734L159.268 215.92ZM125.745 203.246L128.611 199.158C128.628 199.133 128.635 199.102 128.63 199.072C128.625 199.043 128.609 199.016 128.584 198.998L128.558 198.989C128.314 198.817 127.933 198.863 127.498 199.115C127.063 199.368 126.609 199.807 126.237 200.337L126.052 200.595C125.679 201.126 125.418 201.704 125.326 202.203C125.233 202.702 125.318 203.08 125.56 203.255L125.586 203.273C125.611 203.29 125.641 203.297 125.671 203.292C125.7 203.287 125.727 203.271 125.745 203.246ZM99.1576 212.204C98.5861 210.883 97.8652 209.472 97.03 208.266C96.8072 207.941 96.5757 207.935 96.3354 208.248C95.9778 208.716 95.9456 209.195 96.2387 209.685C96.8776 210.744 97.7275 211.681 98.7884 212.497C99.2807 212.875 99.4038 212.778 99.1576 212.204ZM151.804 226.004C149.7 227.252 148.173 227.825 147.223 227.725C144.076 227.382 140.905 227.027 137.71 226.66L135.328 225.658C134.982 225.51 134.818 225.629 134.835 226.013C134.982 229.957 135.375 233.803 136.014 237.552C136.184 238.557 136.752 239.175 137.719 239.405C142.942 240.623 148.343 240.446 153.923 238.873C154.251 238.778 154.398 238.563 154.362 238.226L153.193 226.049C153.164 225.747 153 225.596 152.701 225.596C152.443 225.596 152.144 225.732 151.804 226.004Z" fill="#030202"/>
<path d="M132.865 90.814C131.98 90.0749 131.069 89.4216 130.131 88.854C129.903 88.7146 129.629 88.6728 129.368 88.7376C129.108 88.8024 128.883 88.9685 128.742 89.1999C128.42 89.7379 128.203 90.2967 128.091 90.8761C126.444 99.3016 126.913 107.721 129.498 116.135C129.639 116.584 129.475 116.797 129.006 116.774L126.333 116.658C125.823 116.641 125.477 116.389 125.296 115.904C124.926 114.917 124.692 113.879 124.592 112.791C123.736 103.905 123.745 95.7067 124.619 88.1977C124.654 87.8961 124.545 87.6596 124.293 87.4881C124.071 87.3403 123.819 87.2901 123.537 87.3374C123.162 87.4024 122.857 87.5739 122.623 87.8518C121.981 88.6234 121.163 88.8894 120.653 89.803C119.185 92.4725 117.119 94.6809 115.871 97.4658C113.245 103.337 112.295 109.3 113.022 115.354C113.037 115.479 113.003 115.604 112.927 115.704C112.852 115.803 112.741 115.869 112.618 115.887C106.498 116.732 100.52 118.068 94.6819 119.895C94.6123 119.917 94.5383 119.921 94.4669 119.906C94.3956 119.891 94.3291 119.858 94.2738 119.81C94.2184 119.763 94.176 119.701 94.1505 119.632C94.125 119.564 94.1173 119.489 94.128 119.416C94.4211 117.388 94.7727 115.612 95.183 114.086C96.0388 110.905 95.2651 110.432 92.8619 112.667C91.0332 114.364 89.5239 116.862 88.3341 120.161C88.1993 120.528 87.9502 120.773 87.5868 120.898C86.6665 121.229 85.9778 121.767 85.5206 122.512C85.3272 122.831 85.2481 123.174 85.2833 123.541L85.7668 128.144C85.8196 128.646 85.5968 128.894 85.0986 128.889L81.1422 128.853C80.9391 128.85 80.7389 128.801 80.5562 128.709C80.3736 128.617 80.2133 128.484 80.0872 128.321C78.8387 126.725 78.153 124.921 78.0299 122.911C77.5141 114.716 79.1582 106.592 82.9622 98.5389C84.8788 94.4828 87.8124 90.5243 91.763 86.6633C95.5963 82.9206 100.318 80.7034 105.434 79.0271C112.187 76.8217 118.637 76.4847 124.786 78.0161C126.169 78.359 127.467 78.4654 128.68 78.3354C131.986 77.9895 135.828 77.6702 138.967 79.0005C145.397 81.7322 150.534 85.6434 154.379 90.7342C156.876 94.0453 159.253 98.2108 161.51 103.231C165.027 111.059 165.032 118.905 161.527 126.769C161.475 126.888 161.398 126.994 161.302 127.08C161.205 127.167 161.092 127.232 160.969 127.272C160.846 127.311 160.717 127.324 160.589 127.309C160.461 127.294 160.337 127.252 160.226 127.186C159.013 126.458 157.744 126.379 156.419 126.946C155.751 127.23 155.373 127.011 155.285 126.29L154.705 121.82C154.664 121.507 154.511 121.261 154.248 121.084C150.578 118.648 146.941 116.986 143.337 116.099C142.61 115.916 142.164 115.455 142 114.716C141.356 111.866 140.623 108.969 139.802 106.024C138.882 102.737 137.472 99.3342 135.573 95.8161C135.116 94.9706 134.747 94.0748 134.466 93.1288C134.208 92.2537 133.674 91.4821 132.865 90.814ZM90.9453 94.672C93.706 90.8465 96.8418 87.7956 100.353 85.5192C102.416 84.1771 105.156 82.9531 108.573 81.8475C108.617 81.8332 108.654 81.8019 108.676 81.7604C108.697 81.7188 108.701 81.6704 108.688 81.6257L108.608 81.3774C108.532 81.1409 108.377 81.0552 108.142 81.1202C104.503 82.149 101.425 83.5769 98.9108 85.4039C93.7587 89.1289 89.8404 93.7733 87.156 99.3371C87.1331 99.3843 87.1218 99.4363 87.123 99.4887C87.1242 99.5412 87.1379 99.5926 87.1629 99.6387C87.1878 99.6847 87.2234 99.7241 87.2666 99.7534C87.3097 99.7827 87.3592 99.8011 87.4109 99.8072L87.7011 99.8426C87.7714 99.8486 87.8212 99.822 87.8505 99.7628C88.7708 97.9476 89.8023 96.2507 90.9453 94.672ZM144.321 98.3172C142.264 92.1325 138.621 87.4911 133.393 84.3929C133.223 84.2864 133.115 84.3337 133.068 84.5348L132.997 84.8452C132.898 85.2768 133.03 85.6197 133.393 85.874C137.754 88.9367 140.822 92.6854 142.598 97.1199C142.818 97.6697 143.425 98.2817 143.908 98.6276C144.36 98.9469 144.497 98.8434 144.321 98.3172ZM93.4334 100.144C92.3198 102.356 91.294 104.596 90.3562 106.867C90.3382 106.91 90.3295 106.957 90.3305 107.004C90.3315 107.051 90.3423 107.098 90.3622 107.14C90.3821 107.183 90.4106 107.221 90.4459 107.252C90.4812 107.282 90.5226 107.305 90.5672 107.319L90.7958 107.39C90.9535 107.438 91.1234 107.426 91.2727 107.356C91.422 107.285 91.5402 107.162 91.6047 107.009C94.7698 99.4701 99.4911 91.5856 105.777 86.9471C106.123 86.6929 106.167 86.3943 105.909 86.0514L105.777 85.8651C105.719 85.7873 105.632 85.7363 105.535 85.7231C105.438 85.7098 105.339 85.7353 105.259 85.7942C100.329 89.4659 96.3875 94.2493 93.4334 100.144ZM150.854 94.6454C149.465 91.9079 147.314 89.8236 144.401 88.3928C144.307 88.3455 144.254 88.375 144.242 88.4815L144.216 88.8717C144.198 89.0136 144.248 89.126 144.365 89.2087C146.645 90.9411 148.328 92.7682 149.412 94.6898C151.762 98.8405 153.491 103.984 154.599 110.122C154.609 110.183 154.636 110.239 154.678 110.283C154.72 110.328 154.774 110.359 154.834 110.372C154.894 110.385 154.958 110.38 155.016 110.358C155.074 110.335 155.125 110.297 155.162 110.246L155.382 109.936C155.587 109.646 155.654 109.327 155.584 108.978C154.423 103.361 152.847 98.5832 150.854 94.6454ZM92.7692 97.0663C92.7956 97.0225 92.8132 96.9739 92.821 96.9233C92.8287 96.8726 92.8265 96.8209 92.8145 96.7711C92.8025 96.7213 92.7808 96.6744 92.7508 96.633C92.7208 96.5917 92.683 96.5567 92.6396 96.5301L92.6095 96.5117C92.5219 96.458 92.4166 96.4415 92.317 96.466C92.2173 96.4905 92.1314 96.5539 92.0781 96.6424L89.4379 101.023C89.4115 101.066 89.3939 101.115 89.3862 101.166C89.3784 101.216 89.3806 101.268 89.3926 101.318C89.4046 101.368 89.4263 101.414 89.4563 101.456C89.4863 101.497 89.5241 101.532 89.5675 101.559L89.5976 101.577C89.6852 101.631 89.7905 101.647 89.8901 101.623C89.9898 101.598 90.0757 101.535 90.1291 101.447L92.7692 97.0663ZM104.599 110.902C106.006 105.714 108.151 101.333 111.246 96.8272C111.296 96.7569 111.316 96.6691 111.301 96.5827C111.286 96.4963 111.238 96.4185 111.167 96.366L110.965 96.2241C110.859 96.1413 110.768 96.1531 110.692 96.2596C107.556 100.387 105.256 104.928 103.79 109.882C103.679 110.243 103.702 110.601 103.861 110.955C104.16 111.635 104.406 111.618 104.599 110.902ZM147.777 103.647L150.458 108.818C150.466 108.833 150.476 108.846 150.488 108.856C150.501 108.867 150.515 108.875 150.531 108.88C150.546 108.885 150.563 108.887 150.579 108.885C150.595 108.884 150.611 108.879 150.625 108.871L150.696 108.827C150.968 108.68 151.088 108.267 151.029 107.677C150.969 107.087 150.736 106.368 150.379 105.678L150.291 105.501C150.113 105.158 149.91 104.832 149.693 104.543C149.476 104.254 149.251 104.006 149.028 103.815C148.806 103.624 148.592 103.493 148.399 103.429C148.205 103.365 148.035 103.37 147.9 103.443L147.829 103.479C147.815 103.486 147.802 103.497 147.792 103.509C147.781 103.522 147.773 103.536 147.768 103.552C147.763 103.568 147.761 103.584 147.763 103.601C147.764 103.617 147.769 103.633 147.777 103.647ZM101.61 109.501L103.535 104.401C103.538 104.396 103.54 104.389 103.54 104.383C103.54 104.376 103.539 104.37 103.536 104.364C103.534 104.358 103.53 104.353 103.525 104.349C103.521 104.344 103.515 104.341 103.509 104.339L103.474 104.33C103.256 104.246 103.003 104.283 102.768 104.435C102.534 104.586 102.339 104.839 102.225 105.137L101.109 108.073C100.997 108.371 100.976 108.689 101.05 108.958C101.125 109.228 101.288 109.426 101.504 109.51L101.548 109.528C101.554 109.53 101.56 109.532 101.567 109.532C101.573 109.532 101.579 109.531 101.585 109.529C101.591 109.526 101.596 109.522 101.601 109.518C101.605 109.513 101.608 109.507 101.61 109.501ZM147.009 106.001C146.957 105.84 146.843 105.707 146.693 105.631C146.543 105.555 146.369 105.542 146.21 105.595L146.176 105.606C146.097 105.632 146.024 105.674 145.961 105.729C145.899 105.784 145.847 105.851 145.81 105.925C145.772 106 145.75 106.082 145.744 106.166C145.738 106.249 145.748 106.333 145.774 106.413L147.911 112.93C147.964 113.091 148.077 113.224 148.227 113.3C148.377 113.376 148.551 113.389 148.711 113.336L148.744 113.325C148.823 113.299 148.896 113.257 148.959 113.202C149.022 113.147 149.073 113.08 149.111 113.006C149.148 112.931 149.17 112.849 149.177 112.765C149.183 112.682 149.172 112.598 149.146 112.518L147.009 106.001ZM97.8977 117.051C97.9915 117.071 98.1013 117.009 98.2208 116.869C98.3402 116.729 98.4671 116.513 98.594 116.235C98.7209 115.956 98.8455 115.62 98.9606 115.245C99.0757 114.87 99.179 114.464 99.2647 114.05C99.3504 113.637 99.4168 113.223 99.4601 112.833C99.5034 112.443 99.5227 112.085 99.517 111.778C99.5112 111.471 99.4806 111.223 99.4267 111.046C99.3728 110.869 99.2968 110.768 99.203 110.749C99.1092 110.729 98.9994 110.791 98.88 110.931C98.7605 111.071 98.6337 111.286 98.5067 111.565C98.3798 111.844 98.2552 112.18 98.1401 112.555C98.0251 112.93 97.9217 113.336 97.836 113.749C97.7503 114.163 97.6839 114.577 97.6406 114.967C97.5973 115.357 97.578 115.715 97.5837 116.022C97.5895 116.329 97.6202 116.577 97.674 116.754C97.7279 116.931 97.8039 117.032 97.8977 117.051Z" fill="#56473E"/>
<path d="M90.9454 94.672C89.8025 96.2506 88.7709 97.9476 87.8506 99.7628C87.8213 99.8219 87.7715 99.8485 87.7012 99.8426L87.411 99.8071C87.3594 99.8011 87.3098 99.7827 87.2667 99.7533C87.2235 99.724 87.188 99.6847 87.163 99.6386C87.138 99.5926 87.1243 99.5412 87.1231 99.4887C87.1219 99.4362 87.1332 99.3842 87.1561 99.3371C89.8406 93.7732 93.7589 89.1289 98.911 85.4039C101.425 83.5769 104.503 82.149 108.143 81.1202C108.377 81.0551 108.532 81.1409 108.609 81.3774L108.688 81.6257C108.701 81.6704 108.697 81.7188 108.676 81.7603C108.654 81.8018 108.618 81.8332 108.573 81.8474C105.156 82.9531 102.416 84.177 100.353 85.5192C96.8419 87.7956 93.7061 90.8465 90.9454 94.672Z" fill="#030202"/>
<path d="M144.321 98.317C144.497 98.8432 144.359 98.9467 143.908 98.6274C143.424 98.2815 142.818 97.6695 142.598 97.1197C140.822 92.6852 137.753 88.9365 133.393 85.8738C133.029 85.6195 132.897 85.2766 132.997 84.845L133.067 84.5346C133.114 84.3335 133.223 84.2862 133.393 84.3927C138.621 87.4909 142.264 92.1323 144.321 98.317Z" fill="#8C7970"/>
<path d="M93.4331 100.144C96.3872 94.2494 100.329 89.466 105.258 85.7943C105.338 85.7354 105.438 85.7099 105.535 85.7232C105.632 85.7364 105.719 85.7874 105.777 85.8652L105.909 86.0515C106.167 86.3944 106.123 86.693 105.777 86.9472C99.4908 91.5857 94.7695 99.4702 91.6044 107.009C91.5399 107.162 91.4216 107.285 91.2723 107.356C91.123 107.426 90.9532 107.438 90.7955 107.39L90.5669 107.319C90.5222 107.306 90.4809 107.283 90.4456 107.252C90.4103 107.221 90.3818 107.183 90.3619 107.14C90.342 107.098 90.3312 107.051 90.3302 107.004C90.3291 106.957 90.3379 106.91 90.3559 106.867C91.2937 104.597 92.3194 102.356 93.4331 100.144Z" fill="#8C7970"/>
<path d="M150.852 94.6456C152.845 98.5834 154.422 103.361 155.582 108.978C155.653 109.327 155.585 109.646 155.38 109.936L155.16 110.246C155.124 110.297 155.073 110.336 155.014 110.358C154.956 110.38 154.893 110.385 154.833 110.372C154.773 110.359 154.718 110.328 154.676 110.283C154.635 110.239 154.607 110.183 154.598 110.122C153.49 103.985 151.761 98.8406 149.41 94.6899C148.326 92.7683 146.644 90.9413 144.364 89.2089C144.247 89.1261 144.197 89.0138 144.214 88.8718L144.241 88.4816C144.252 88.3752 144.305 88.3456 144.399 88.3929C147.312 89.8238 149.463 91.908 150.852 94.6456Z" fill="#030202"/>
<path d="M128.944 100.029C129.378 101.27 129.604 102.607 129.621 104.038C129.645 105.77 129.779 107.094 130.026 108.011C130.582 110.039 131.297 112.227 132.171 114.574C132.605 115.739 133.205 116.525 133.973 116.933C134.7 117.329 134.87 117.158 134.483 116.419C132.854 113.314 131.758 110.281 131.195 107.319C130.855 105.51 130.638 103.177 130.544 100.321C130.468 98.0214 130.351 95.6859 130.193 93.3149C129.929 92.7828 129.908 92.224 130.131 91.6387C130.254 91.3076 130.43 91.275 130.659 91.5411C132.487 93.6283 133.891 95.7864 134.87 98.0155C137.625 104.23 139.647 110.541 140.936 116.951C140.971 117.134 141.066 117.3 141.207 117.421C141.347 117.542 141.525 117.611 141.71 117.616C145.288 117.696 148.744 119.807 151.962 121.128C152.448 121.329 152.688 121.696 152.682 122.228L152.612 126.414C152.6 126.946 152.363 127.085 151.9 126.831C145.605 123.36 138.897 122.464 131.775 124.143C129.401 124.705 127.452 125.95 125.928 127.877C125.747 128.108 125.509 128.22 125.216 128.214C122.104 128.197 119.422 127.381 116.591 129.03C116.316 129.19 116.073 129.154 115.862 128.924C114.39 127.345 112.699 126.34 110.789 125.908C102.536 124.046 95.1185 125.338 88.5362 129.784C87.9676 130.174 87.6541 130.024 87.5954 129.332L87.0767 123.461C87.0637 123.31 87.1019 123.16 87.185 123.034C87.2681 122.908 87.3911 122.815 87.5339 122.769L89.2308 122.228C89.5531 122.121 89.7641 121.903 89.8638 121.571C90.3679 119.827 91.0331 118.225 91.8596 116.764C92.7798 115.144 93.0641 115.251 92.7124 117.084C92.3871 118.778 91.8068 121.226 93.996 121.838C94.3008 121.92 94.5997 121.897 94.8928 121.767C97.548 120.569 100.379 120.534 103.043 119.709C106.759 118.568 110.49 117.855 114.235 117.572C114.669 117.542 114.874 117.308 114.851 116.871C114.739 115.115 114.736 113.335 114.842 111.532C115.106 106.938 116.032 102.639 117.62 98.6363C118.323 96.8536 119.475 95.9845 120.724 94.6896C120.782 94.6308 120.832 94.562 120.873 94.4856L122.078 92.0555C122.377 91.4465 122.517 91.482 122.5 92.1619C122.236 100.756 122.069 108.144 123.572 116.268C123.766 117.303 124.384 117.867 125.427 117.962L130.078 118.361C131.133 118.45 131.532 117.98 131.274 116.951C129.908 111.517 129.023 107.219 128.619 104.055C128.519 103.251 128.628 101.909 128.944 100.029ZM147.398 124.01C147.586 124.176 147.803 124.244 148.049 124.214C148.216 124.198 148.374 124.131 148.501 124.021C148.628 123.911 148.719 123.765 148.761 123.601C148.804 123.438 148.795 123.265 148.737 123.107C148.679 122.948 148.574 122.812 148.436 122.716C146.836 121.598 144.989 120.877 142.897 120.552C138.601 119.883 134.726 120.377 131.274 122.033C131.23 122.054 131.192 122.085 131.162 122.123C131.132 122.161 131.11 122.206 131.099 122.254C131.089 122.301 131.088 122.351 131.099 122.398C131.109 122.446 131.13 122.491 131.16 122.529L131.336 122.742C131.487 122.927 131.689 123.063 131.915 123.134C132.142 123.205 132.383 123.207 132.61 123.141C137.54 121.74 142.123 121.823 146.361 123.39C146.748 123.532 147.094 123.738 147.398 124.01ZM93.5652 122.671C92.3578 122.849 91.4434 123.375 90.8221 124.25C90.1246 125.226 90.3679 125.619 91.5518 125.429C93.8465 125.057 95.9039 124.037 98.2162 123.7C101.469 123.221 104.69 123.263 107.879 123.824C108.277 123.895 108.632 123.848 108.942 123.682C109.041 123.632 109.124 123.555 109.182 123.461C109.241 123.367 109.273 123.258 109.274 123.147C109.276 123.035 109.248 122.926 109.192 122.829C109.137 122.733 109.057 122.654 108.96 122.6C107.307 121.672 105.563 121.187 103.729 121.146C100.663 121.081 98.1048 121.391 96.0533 122.077C95.2621 122.343 94.4327 122.541 93.5652 122.671Z" fill="#FCDDCF"/>
<path d="M130.192 93.3149C130.35 95.6859 130.468 98.0214 130.544 100.321C130.638 103.177 130.855 105.51 131.194 107.319C131.757 110.281 132.853 113.315 134.483 116.419C134.87 117.158 134.7 117.329 133.973 116.933C133.205 116.525 132.604 115.739 132.17 114.574C131.297 112.227 130.582 110.039 130.025 108.011C129.779 107.094 129.644 105.77 129.621 104.038C129.603 102.607 129.377 101.27 128.944 100.029C128.838 97.7169 129.254 95.479 130.192 93.3149Z" fill="#56473E"/>
<path d="M92.6379 96.5298L92.6079 96.5113C92.4253 96.3994 92.1874 96.4579 92.0764 96.642L89.4363 101.022C89.3253 101.206 89.3833 101.446 89.5659 101.558L89.5959 101.577C89.7785 101.689 90.0164 101.63 90.1274 101.446L92.7675 97.0659C92.8785 96.8818 92.8205 96.6417 92.6379 96.5298Z" fill="#030202"/>
<path d="M111.245 96.8273C108.151 101.333 106.005 105.714 104.599 110.902C104.405 111.618 104.159 111.636 103.86 110.956C103.702 110.601 103.678 110.243 103.79 109.882C105.255 104.928 107.556 100.387 110.691 96.2597C110.768 96.1533 110.858 96.1415 110.964 96.2242L111.166 96.3662C111.237 96.4186 111.285 96.4965 111.3 96.5829C111.315 96.6692 111.295 96.7571 111.245 96.8273Z" fill="#030202"/>
<path d="M147.776 103.647C147.768 103.633 147.764 103.617 147.762 103.6C147.761 103.584 147.763 103.568 147.767 103.552C147.772 103.536 147.78 103.522 147.791 103.509C147.801 103.497 147.814 103.486 147.829 103.479L147.899 103.443C148.035 103.37 148.204 103.365 148.398 103.429C148.592 103.492 148.806 103.624 149.028 103.815C149.25 104.006 149.476 104.253 149.692 104.543C149.909 104.832 150.112 105.158 150.29 105.501L150.378 105.678C150.735 106.368 150.969 107.087 151.028 107.677C151.087 108.267 150.968 108.68 150.695 108.827L150.625 108.871C150.61 108.879 150.594 108.883 150.578 108.885C150.562 108.886 150.546 108.885 150.53 108.88C150.514 108.875 150.5 108.867 150.488 108.856C150.475 108.845 150.465 108.832 150.458 108.818L147.776 103.647Z" fill="#030202"/>
<path d="M101.611 109.501C101.609 109.507 101.606 109.513 101.602 109.518C101.597 109.522 101.592 109.526 101.586 109.529C101.58 109.531 101.574 109.532 101.568 109.532C101.561 109.532 101.555 109.53 101.549 109.528L101.505 109.51C101.289 109.426 101.126 109.228 101.051 108.958C100.977 108.689 100.998 108.371 101.11 108.073L102.226 105.137C102.34 104.839 102.535 104.586 102.769 104.435C103.004 104.283 103.257 104.246 103.475 104.33L103.51 104.339C103.516 104.341 103.522 104.344 103.526 104.349C103.531 104.353 103.535 104.358 103.537 104.364C103.54 104.37 103.541 104.376 103.541 104.383C103.541 104.389 103.539 104.396 103.536 104.401L101.611 109.501Z" fill="#030202"/>
<path d="M146.211 105.595L146.177 105.606C145.845 105.717 145.665 106.078 145.775 106.413L147.912 112.93C148.021 113.265 148.379 113.447 148.711 113.336L148.745 113.325C149.077 113.214 149.257 112.853 149.147 112.518L147.01 106.001C146.901 105.666 146.542 105.484 146.211 105.595Z" fill="#8C7970"/>
<path d="M97.8347 113.749C97.4743 115.49 97.5019 116.968 97.8964 117.051C98.2909 117.134 98.9029 115.791 99.2634 114.05C99.6238 112.31 99.5962 110.832 99.2017 110.748C98.8072 110.665 98.1952 112.009 97.8347 113.749Z" fill="#8C7970"/>
<path d="M146.36 123.39C142.122 121.823 137.539 121.74 132.609 123.142C132.382 123.208 132.141 123.205 131.914 123.134C131.688 123.063 131.486 122.927 131.334 122.742L131.158 122.53C131.129 122.491 131.108 122.446 131.097 122.399C131.087 122.351 131.087 122.301 131.098 122.254C131.109 122.206 131.131 122.162 131.161 122.123C131.191 122.085 131.229 122.054 131.273 122.033C134.725 120.377 138.599 119.884 142.896 120.552C144.988 120.877 146.835 121.598 148.435 122.716C148.572 122.812 148.677 122.949 148.736 123.107C148.794 123.265 148.802 123.438 148.76 123.602C148.718 123.765 148.627 123.912 148.5 124.021C148.372 124.131 148.215 124.198 148.048 124.215C147.802 124.244 147.585 124.176 147.397 124.011C147.092 123.739 146.747 123.532 146.36 123.39Z" fill="#030202"/>
<path d="M96.0527 122.077C98.1042 121.391 100.663 121.081 103.728 121.146C105.563 121.187 107.306 121.672 108.959 122.6C109.056 122.654 109.136 122.733 109.192 122.829C109.247 122.926 109.276 123.035 109.274 123.147C109.272 123.258 109.24 123.367 109.182 123.461C109.123 123.555 109.04 123.632 108.942 123.682C108.631 123.848 108.276 123.895 107.878 123.824C104.689 123.262 101.469 123.221 98.2155 123.7C95.9032 124.037 93.8459 125.057 91.5512 125.429C90.3672 125.619 90.124 125.225 90.8215 124.25C91.4428 123.375 92.3571 122.849 93.5646 122.671C94.432 122.541 95.2614 122.343 96.0527 122.077Z" fill="#030202"/>
<path d="M132.233 143.93C130.396 142.795 128.268 142.086 127.151 140.285C125.991 138.429 125.572 135.694 125.894 132.081C126.058 130.307 126.697 128.871 127.811 127.771C130.404 125.234 132.998 125.35 136.269 124.959C140.489 124.463 144.173 124.685 147.821 126.52C148.988 127.106 150.31 127.617 151.787 128.055C152.121 128.149 152.326 128.368 152.402 128.711C153.152 132.064 153.149 135.457 152.393 138.893C151.989 140.737 150.45 140.959 149.668 142.343C149.492 142.662 149.237 142.893 148.903 143.034C147.584 143.611 146.511 144.436 145.026 144.631C141.485 145.098 137.766 145.06 133.869 144.516C133.277 144.433 132.731 144.238 132.233 143.93ZM145.359 126.574C145.361 126.511 145.318 126.448 145.234 126.388C145.15 126.328 145.026 126.273 144.869 126.225C144.713 126.177 144.527 126.138 144.321 126.109C144.116 126.081 143.895 126.064 143.673 126.059C143.45 126.055 143.229 126.062 143.023 126.082C142.816 126.102 142.629 126.133 142.47 126.174C142.312 126.215 142.186 126.266 142.099 126.322C142.013 126.378 141.968 126.439 141.966 126.502C141.965 126.565 142.008 126.628 142.092 126.688C142.176 126.748 142.3 126.804 142.456 126.851C142.613 126.899 142.799 126.938 143.004 126.967C143.21 126.995 143.43 127.012 143.653 127.017C143.876 127.022 144.097 127.014 144.303 126.994C144.509 126.975 144.697 126.943 144.855 126.902C145.014 126.861 145.14 126.811 145.226 126.755C145.313 126.698 145.358 126.637 145.359 126.574ZM149.36 129.385C147.47 127.806 145.412 127.132 142.792 127.061C140.477 127.002 138.218 126.985 136.014 127.008C129.473 127.061 126.829 130.399 128.083 137.021C128.165 137.477 128.432 137.74 128.883 137.811C134.094 138.633 139.601 139.845 145.404 141.447C147.698 142.077 149.773 140.117 150.336 138.13C151.051 135.617 151.11 133.149 150.512 130.724C150.418 130.346 150.213 130.041 149.896 129.811C149.715 129.675 149.536 129.533 149.36 129.385ZM141.465 142.174L130.343 139.939C129.985 139.868 129.845 140.01 129.921 140.365C129.991 140.726 130.196 140.998 130.536 141.181C133.889 143.037 137.535 143.502 141.474 142.573C142.077 142.431 142.074 142.298 141.465 142.174Z" fill="#665E5A"/>
<path d="M143.653 127.017C144.59 127.037 145.354 126.839 145.36 126.574C145.365 126.31 144.61 126.08 143.673 126.06C142.736 126.04 141.972 126.238 141.967 126.503C141.961 126.767 142.716 126.998 143.653 127.017Z" fill="#56473E"/>
<path d="M92.5197 129.421C92.7659 129.16 93.0648 129.033 93.4165 129.039C93.7037 129.045 93.9557 128.953 94.1726 128.764C95.591 127.54 97.1882 126.911 98.9642 126.875C100.591 126.84 102.059 126.405 103.668 126.441C106.517 126.506 108.893 126.798 110.798 127.319C113.659 128.099 115.432 130.041 116.117 133.145C116.938 136.876 116.238 140.167 114.016 143.017C112.82 144.56 111.329 145.515 109.541 145.881C106.985 146.413 104.371 146.7 101.699 146.742C100.796 146.759 99.9577 146.659 99.184 146.44C98.5275 146.257 97.8535 146.121 97.1618 146.032C94.788 145.736 92.7453 144.64 91.0338 142.742C90.0022 141.595 89.4015 140.149 89.2315 138.405C88.9326 135.46 88.4138 130.494 91.9658 129.731C92.1827 129.69 92.3673 129.586 92.5197 129.421ZM95.4122 142.83C101.69 140.424 107.718 138.816 113.497 138.006C113.826 137.958 114.025 137.772 114.095 137.447C114.728 134.369 114.227 130.627 110.745 129.58C104.462 127.688 98.1465 128.321 91.7987 131.478C91.5408 131.608 91.3767 131.815 91.3064 132.099C90.5386 135.25 90.7613 138.227 91.9746 141.03C92.5636 142.414 93.9 143.407 95.4122 142.83ZM97.7949 144.391C101.98 145.163 111.519 145.296 113.515 140.338C113.549 140.253 113.558 140.161 113.542 140.071C113.527 139.98 113.486 139.896 113.425 139.828C113.364 139.759 113.285 139.708 113.197 139.681C113.109 139.654 113.015 139.651 112.926 139.673L97.7685 143.646C96.6666 143.936 96.6754 144.184 97.7949 144.391Z" fill="#665E5A"/>
<path d="M149.361 129.386C149.536 129.533 149.715 129.675 149.897 129.811C150.213 130.042 150.419 130.346 150.512 130.725C151.11 133.149 151.052 135.618 150.336 138.13C149.774 140.117 147.699 142.077 145.404 141.447C139.601 139.845 134.095 138.633 128.884 137.811C128.433 137.74 128.166 137.477 128.084 137.022C126.83 130.4 129.473 127.062 136.014 127.009C138.218 126.985 140.478 127.003 142.793 127.062C145.413 127.133 147.47 127.807 149.361 129.386ZM145.633 134.627C145.773 132.327 144.557 131.218 141.984 131.301C138.778 130.621 135.962 131.626 133.535 134.317C133.416 134.449 133.34 134.614 133.316 134.79C133.293 134.967 133.323 135.147 133.403 135.306C133.484 135.464 133.61 135.595 133.765 135.68C133.921 135.764 134.098 135.799 134.274 135.78C134.883 135.715 135.469 135.529 136.032 135.221C138.661 133.785 142.054 134.379 144.455 135.993C144.559 136.065 144.679 136.11 144.805 136.126C144.93 136.142 145.058 136.128 145.177 136.085C145.297 136.042 145.405 135.971 145.494 135.878C145.582 135.785 145.648 135.673 145.686 135.55C145.768 135.295 145.75 134.988 145.633 134.627Z" fill="#FAEBE0"/>
<path d="M157.16 133.961L156.352 129.119C157.424 128.167 158.309 127.966 159.007 128.516C161.574 130.556 161.099 135.638 160.369 138.325C159.865 140.193 159.385 140.187 158.928 138.307C158.676 137.278 158.087 135.83 157.16 133.961Z" fill="#FAEBE0"/>
<path d="M95.4116 142.831C93.8994 143.407 92.563 142.414 91.974 141.03C90.7607 138.228 90.5379 135.251 91.3058 132.099C91.3761 131.816 91.5402 131.609 91.7981 131.478C98.1459 128.321 104.461 127.688 110.745 129.581C114.226 130.627 114.728 134.37 114.095 137.447C114.024 137.773 113.825 137.959 113.497 138.006C107.717 138.816 101.689 140.424 95.4116 142.831ZM100.502 132.179C97.1202 132.333 95.7926 133.356 96.5194 135.248C96.0388 136.099 96.0271 136.797 96.4842 137.341C96.5733 137.448 96.6999 137.516 96.8376 137.531C96.9752 137.546 97.1132 137.506 97.2228 137.421C99.9014 135.286 102.864 134.822 106.111 136.028C106.733 136.259 107.184 136.342 107.465 136.277C107.668 136.232 107.854 136.129 108.001 135.981C108.147 135.832 108.249 135.645 108.292 135.44C108.336 135.235 108.32 135.022 108.247 134.826C108.173 134.63 108.046 134.459 107.879 134.334C105.376 132.436 102.917 131.718 100.502 132.179Z" fill="#FAEBE0"/>
<path d="M156.35 129.119L157.159 133.962C157.264 135.363 157.874 137.583 158.987 140.622C159.304 141.48 159.084 142.349 158.328 143.23C157.789 143.862 157.566 143.765 157.66 142.937C157.8 141.749 157.73 140.738 157.449 139.904C156.974 138.485 156.529 138.038 156.112 138.565C155.755 137.518 155.377 137.157 154.978 137.483C154.791 136.371 154.796 135.254 154.996 134.13C155.119 133.427 155.224 132.572 155.312 131.567C155.418 130.432 155.764 129.616 156.35 129.119Z" fill="#665E5A"/>
<path d="M117.392 130.272C119.877 129.616 122.251 129.521 124.513 129.989C124.923 130.077 125.035 130.308 124.847 130.68L124.689 131.009C124.554 131.275 124.343 131.363 124.056 131.275C121.958 130.624 119.786 130.683 117.541 131.452C117.467 131.476 117.388 131.471 117.318 131.438C117.248 131.405 117.192 131.347 117.163 131.275L117.049 130.955C117.022 130.889 117.009 130.817 117.012 130.745C117.015 130.674 117.033 130.603 117.066 130.538C117.098 130.474 117.144 130.417 117.2 130.371C117.256 130.325 117.322 130.291 117.392 130.272Z" fill="#8C7970"/>
<path d="M84.8896 139.691L83.5181 144.117C80.5757 140.729 79.4708 137.069 80.2035 133.137C80.5258 131.404 81.5604 130.535 83.307 130.529C83.7056 130.529 84.11 130.585 84.5203 130.698C85.7571 131.041 86.2641 131.848 86.0414 133.119L84.8896 139.691Z" fill="#FCDDCF"/>
<path d="M141.982 131.301L145.631 134.626C145.748 134.987 145.765 135.294 145.683 135.549C145.646 135.672 145.58 135.784 145.492 135.877C145.403 135.97 145.295 136.041 145.175 136.084C145.056 136.128 144.928 136.142 144.802 136.126C144.677 136.11 144.557 136.064 144.453 135.992C142.052 134.378 138.659 133.784 136.03 135.221C135.467 135.528 134.881 135.714 134.271 135.779C134.096 135.799 133.919 135.764 133.763 135.679C133.608 135.594 133.482 135.464 133.401 135.305C133.321 135.146 133.291 134.966 133.314 134.79C133.338 134.613 133.414 134.448 133.533 134.316C135.959 131.626 138.776 130.621 141.982 131.301Z" fill="#030202"/>
<path d="M141.982 131.301C144.556 131.218 145.772 132.327 145.631 134.627L141.982 131.301Z" fill="#8C7970"/>
<path d="M96.5199 135.248L100.503 132.179C102.918 131.718 105.376 132.436 107.879 134.334C108.046 134.459 108.174 134.63 108.247 134.826C108.32 135.022 108.336 135.235 108.293 135.44C108.249 135.645 108.148 135.832 108.001 135.981C107.855 136.129 107.669 136.232 107.466 136.277C107.185 136.342 106.733 136.259 106.112 136.028C102.865 134.822 99.9019 135.286 97.2232 137.421C97.1137 137.506 96.9757 137.546 96.8381 137.531C96.7004 137.516 96.5738 137.448 96.4847 137.341C96.0275 136.797 96.0392 136.099 96.5199 135.248Z" fill="#030202"/>
<path d="M100.502 132.179L96.519 135.247C95.7922 133.355 97.1198 132.332 100.502 132.179Z" fill="#8C7970"/>
<path d="M124.087 132.309L118.005 132.459C117.874 132.462 117.77 132.572 117.773 132.704L117.876 136.942C117.879 137.074 117.988 137.179 118.119 137.175L124.201 137.025C124.332 137.022 124.436 136.912 124.433 136.78L124.33 132.542C124.327 132.41 124.218 132.305 124.087 132.309Z" fill="#FCDDCF"/>
<path d="M156.111 138.565L157.017 143.363C157.066 143.627 157.035 143.899 156.928 144.143C156.821 144.387 156.644 144.591 156.419 144.729L155.347 145.394C154.848 145.701 154.611 145.56 154.634 144.968L154.977 137.483C155.376 137.158 155.754 137.518 156.111 138.565Z" fill="#FCDDCF"/>
<path d="M83.5156 144.117L84.8872 139.691C84.8403 140.247 84.8755 140.69 84.9927 141.022C85.1099 141.347 85.2975 141.394 85.5554 141.163C86.1298 140.643 86.4463 139.978 86.5049 139.168C86.5117 139.053 86.5622 138.946 86.6458 138.868C86.7294 138.791 86.8396 138.749 86.9533 138.751H87.1731C87.2083 138.751 87.2288 138.781 87.2346 138.84L87.9468 145.784C88.1402 147.7 87.4837 148.072 85.9774 146.902C84.9399 146.098 84.1193 145.169 83.5156 144.117Z" fill="#665E5A"/>
<path d="M131.386 145.287C131.679 146.162 132.192 146.937 132.925 147.611C133.142 147.806 133.394 147.915 133.681 147.939C137.655 148.282 141.526 149.054 145.295 150.254C145.471 150.307 145.585 150.245 145.638 150.068L145.726 149.766C145.758 149.646 145.742 149.518 145.681 149.41C145.62 149.302 145.52 149.223 145.401 149.19L140.257 147.762C140.017 147.697 139.885 147.543 139.862 147.3C139.85 147.218 139.862 147.132 139.897 147.043C139.936 146.927 140.009 146.826 140.107 146.754C140.205 146.682 140.322 146.644 140.442 146.644C140.741 146.638 141.011 146.561 141.251 146.414C143.508 146.295 145.673 145.834 147.748 145.03C149.041 144.524 149.981 144.711 151.247 145.021C151.904 145.181 152.174 145.595 152.056 146.263C151.558 149.089 151.016 151.865 150.43 154.591C149.384 159.46 146.342 162.502 142.957 165.81C139.586 169.092 134.654 171.631 128.16 173.428C119.262 175.894 111.314 172.843 103.234 168.932C99.5594 167.158 94.6535 163.256 93.194 158.981C92.1096 155.818 91.2099 152.4 90.4948 148.728C90.4128 148.332 90.3981 147.942 90.4509 147.558C90.4836 147.32 90.5663 147.092 90.6933 146.89C90.8203 146.687 90.9887 146.514 91.1871 146.383C91.3854 146.252 91.6092 146.165 91.8431 146.129C92.0771 146.093 92.3159 146.109 92.5434 146.174L99.9638 148.303C99.489 149.509 98.0413 150.431 95.6206 151.07C95.3451 151.147 95.137 151.309 94.9963 151.558C94.8439 151.835 94.8732 152.087 95.0843 152.311C95.1487 152.379 95.2324 152.425 95.3238 152.442C95.4152 152.46 95.5097 152.448 95.5942 152.409C97.6222 151.493 99.8847 150.816 102.382 150.378C103.425 150.195 104.284 149.763 104.958 149.083C105.157 148.876 105.397 148.764 105.679 148.746C106.482 148.699 107.185 148.447 107.789 147.992C112.853 147.005 116.082 144.167 117.477 139.478C117.595 139.088 117.855 138.896 118.26 138.901L124.326 138.91C124.535 138.91 124.74 138.971 124.914 139.086C125.089 139.201 125.227 139.365 125.311 139.558C126.501 142.319 128.526 144.229 131.386 145.287ZM128.731 145.553C128.01 145.051 127.213 144.832 126.34 144.897C122.726 145.163 118.19 144.374 114.963 146.05C114.9 146.084 114.845 146.132 114.803 146.19C114.761 146.249 114.733 146.316 114.721 146.387C114.709 146.458 114.714 146.531 114.734 146.601C114.755 146.67 114.791 146.733 114.84 146.786C115.15 147.111 115.529 147.227 115.974 147.132C120.335 146.239 124.532 146.017 128.564 146.467C128.822 146.496 128.998 146.39 129.092 146.147C129.144 145.994 129.112 145.864 128.995 145.757C128.913 145.686 128.825 145.618 128.731 145.553ZM145.093 154.378C140.826 155.194 136.793 155.767 132.995 156.098C129.473 156.406 125.581 156.498 121.32 156.373C113.571 156.149 105.717 155.965 97.757 155.824C97.5226 155.818 97.4288 155.933 97.4757 156.169L97.5284 156.462C97.6046 156.817 97.8244 156.997 98.1878 157.003C103.316 157.068 110.35 157.278 119.289 157.633C127.225 157.946 135.29 157.319 143.484 155.753C144.381 155.581 145.02 155.348 145.401 155.052C146.21 154.407 146.107 154.183 145.093 154.378ZM98.8736 161.908C100.175 162.747 101.47 163.436 102.76 163.974C109.096 166.623 116.132 167.986 123.869 168.063C123.942 168.063 124.012 168.036 124.066 167.987C124.119 167.937 124.153 167.87 124.159 167.797L124.203 167.451C124.215 167.309 124.151 167.229 124.01 167.211C122.005 166.951 119.851 166.741 117.548 166.582C114.33 166.363 109.837 165.343 104.07 163.522C102.259 162.945 100.913 161.89 99.1901 161.189C99.1608 161.177 99.1315 161.183 99.1022 161.207L98.8472 161.411C98.8087 161.441 98.778 161.48 98.7577 161.524C98.7374 161.569 98.7281 161.617 98.7307 161.666C98.7333 161.715 98.7477 161.763 98.7726 161.805C98.7975 161.847 98.8322 161.882 98.8736 161.908ZM125.856 167.584L125.874 167.832C125.88 167.909 125.924 167.947 126.006 167.947C129.276 167.782 132.002 167.312 134.182 166.537C136.181 165.822 138.15 165 140.09 164.072C140.131 164.054 140.152 164.024 140.152 163.983L140.161 163.717C140.161 163.644 140.142 163.572 140.107 163.508C140.072 163.443 140.021 163.39 139.96 163.351C139.899 163.313 139.83 163.291 139.759 163.289C139.688 163.286 139.617 163.302 139.554 163.336C135.094 165.665 130.689 166.901 126.34 167.043C125.994 167.049 125.833 167.229 125.856 167.584Z" fill="white"/>
<path d="M113.514 140.338C111.518 145.296 101.979 145.163 97.7935 144.391C96.674 144.184 96.6652 143.936 97.7672 143.646L112.925 139.673C113.014 139.651 113.108 139.654 113.196 139.681C113.284 139.708 113.363 139.759 113.424 139.828C113.485 139.896 113.525 139.981 113.541 140.071C113.557 140.161 113.547 140.253 113.514 140.338Z" fill="white"/>
<path d="M130.344 139.939L141.466 142.174C142.076 142.298 142.079 142.431 141.475 142.573C137.536 143.501 133.891 143.037 130.538 141.18C130.198 140.997 129.993 140.725 129.922 140.364C129.846 140.01 129.987 139.868 130.344 139.939Z" fill="white"/>
<path d="M152.999 143.195C152.853 143.703 152.533 143.863 152.041 143.673C151.754 143.561 151.505 143.393 151.294 143.168C151.059 142.914 151.033 142.645 151.215 142.361C151.543 141.835 151.974 141.477 152.507 141.288C152.906 141.152 153.123 141.297 153.158 141.722C153.205 142.201 153.152 142.692 152.999 143.195Z" fill="#8C7970"/>
<path d="M90.7867 144.436C90.8405 144.553 90.8568 144.685 90.8332 144.813C90.8096 144.942 90.7474 145.061 90.6548 145.155L90.4526 145.359C90.3884 145.423 90.3107 145.472 90.2252 145.501C90.1396 145.531 90.0486 145.54 89.9589 145.529C89.8692 145.518 89.7832 145.487 89.7073 145.437C89.6314 145.388 89.5676 145.321 89.5207 145.244C89.21 144.735 89.0869 144.164 89.1514 143.532C89.1924 143.153 89.3771 143.056 89.7053 143.239C90.1801 143.505 90.5405 143.904 90.7867 144.436Z" fill="#FCDDCF"/>
<path d="M128.733 145.553C128.827 145.618 128.915 145.686 128.997 145.757C129.114 145.864 129.147 145.994 129.094 146.147C129 146.39 128.824 146.496 128.566 146.467C124.534 146.017 120.337 146.239 115.976 147.132C115.531 147.227 115.153 147.111 114.842 146.786C114.793 146.733 114.757 146.67 114.736 146.601C114.716 146.531 114.711 146.458 114.723 146.387C114.735 146.316 114.763 146.249 114.805 146.19C114.847 146.132 114.902 146.084 114.965 146.05C118.192 144.374 122.728 145.163 126.342 144.897C127.215 144.832 128.012 145.051 128.733 145.553Z" fill="#DAD9D8"/>
<path d="M131.389 145.287L141.253 146.413C141.013 146.561 140.743 146.638 140.444 146.644C140.324 146.644 140.207 146.682 140.109 146.754C140.011 146.825 139.938 146.927 139.899 147.043C139.864 147.132 139.852 147.218 139.864 147.3C139.888 147.543 140.019 147.697 140.26 147.762L145.403 149.189C145.522 149.223 145.623 149.302 145.684 149.41C145.745 149.518 145.761 149.646 145.728 149.766L145.64 150.067C145.588 150.245 145.473 150.307 145.298 150.254C141.529 149.053 137.657 148.282 133.683 147.939C133.396 147.915 133.144 147.806 132.927 147.611C132.195 146.937 131.682 146.162 131.389 145.287Z" fill="#DAD9D8"/>
<path d="M148.832 182.821C149.922 178.93 150.409 174.907 150.292 170.75C150.23 168.329 150.652 166.138 150.371 163.699C150.33 163.315 150.145 163.067 149.817 162.954C149.518 162.848 149.113 162.866 148.604 163.008C148.943 162.15 149.333 161.346 149.773 160.595C150.236 159.791 150.626 158.975 150.942 158.147C151.921 155.605 152.8 153.16 153.58 150.813C153.808 150.133 153.949 149.409 154.002 148.64C154.018 148.375 154.103 148.118 154.248 147.894C154.392 147.67 154.592 147.487 154.828 147.363L155.198 147.168C155.766 146.872 156.006 147.044 155.918 147.682C155.801 148.599 155.743 149.456 155.743 150.254C155.784 160.956 156.613 170.067 158.231 177.588C158.946 180.917 159.872 184.669 161.009 188.843C161.091 189.145 160.988 189.357 160.701 189.482L160.455 189.597C159.851 189.863 159.453 189.677 159.259 189.038C158.591 186.777 157.22 186.182 154.863 186.315C150.549 186.564 148.539 185.399 148.832 182.821ZM153.275 162.659C153.276 162.591 153.264 162.524 153.239 162.462C153.214 162.399 153.177 162.342 153.13 162.294C153.083 162.245 153.027 162.207 152.966 162.18C152.904 162.154 152.838 162.14 152.771 162.139L152.718 162.139C152.583 162.137 152.453 162.19 152.356 162.286C152.259 162.381 152.204 162.511 152.203 162.648L152.038 178.558C152.037 178.625 152.05 178.692 152.075 178.755C152.099 178.818 152.136 178.875 152.183 178.923C152.23 178.971 152.286 179.01 152.348 179.036C152.409 179.063 152.475 179.077 152.542 179.078L152.595 179.078C152.73 179.08 152.861 179.027 152.957 178.931C153.054 178.836 153.109 178.706 153.11 178.569L153.275 162.659Z" fill="#56473E"/>
<path d="M83.3145 147.602L86.3389 149.296C86.6027 149.437 86.6847 149.65 86.5851 149.934C86.2861 150.774 85.8172 151.593 85.1784 152.391L83.3145 147.602Z" fill="#8C7970"/>
<path d="M107.791 147.993C107.187 148.448 106.483 148.7 105.68 148.747C105.399 148.765 105.159 148.877 104.96 149.084C104.285 149.764 103.427 150.196 102.383 150.379C99.8865 150.816 97.6241 151.493 95.5961 152.41C95.5115 152.449 95.417 152.461 95.3257 152.443C95.2343 152.426 95.1506 152.38 95.0861 152.312C94.8751 152.088 94.8458 151.836 94.9982 151.558C95.1389 151.31 95.347 151.148 95.6224 151.071C98.0432 150.432 99.4909 149.51 99.9657 148.304L107.791 147.993Z" fill="#DAD9D8"/>
<path d="M94.1012 164.994C93.4564 164.923 92.9523 164.947 92.5889 165.065C92.249 165.177 92.0497 165.547 91.9911 166.174C91.9325 166.842 91.824 167.489 91.6658 168.116L91.1471 163.389C91.1388 163.321 91.1076 163.259 91.0592 163.214C91.0109 163.168 90.9484 163.142 90.8833 163.14L90.6195 163.132C90.4554 163.126 90.3734 163.208 90.3734 163.38C90.4554 168.205 90.177 172.861 89.5381 177.349C89.2568 179.273 89.3447 181.26 89.3887 183.229C89.3942 183.383 89.4568 183.531 89.5645 183.646C89.9865 184.095 90.2767 184.104 90.4349 183.672L91.024 186.049C91.0943 186.327 91.2731 186.457 91.5603 186.439L92.4922 186.377C90.6107 189.085 88.0494 190.995 84.808 192.107C84.7355 192.132 84.6574 192.137 84.5823 192.121C84.5072 192.105 84.4378 192.068 84.3818 192.015C84.3257 191.962 84.285 191.895 84.264 191.82C84.2431 191.746 84.2427 191.667 84.2629 191.592C85.8015 185.978 86.6807 181.127 87.006 175.025C87.3225 169.029 87.6244 163.037 87.9116 157.047C87.9351 156.557 88.1138 156.11 88.4479 155.708C88.6765 155.43 88.7088 155.129 88.5446 154.804C87.9995 153.727 87.8559 152.542 88.1138 151.247C88.3952 149.846 88.7117 149.837 89.0634 151.221C89.503 152.917 90.0246 154.786 90.6283 156.826C91.4606 159.622 92.6183 162.345 94.1012 164.994Z" fill="#56473E"/>
<path d="M145.096 154.379C146.11 154.183 146.212 154.408 145.404 155.053C145.023 155.348 144.384 155.582 143.487 155.753C135.293 157.32 127.228 157.947 119.291 157.633C110.353 157.279 103.319 157.069 98.1907 157.004C97.8273 156.998 97.6075 156.818 97.5313 156.463L97.4785 156.17C97.4316 155.934 97.5254 155.818 97.7599 155.824C105.72 155.966 113.574 156.149 121.322 156.374C125.584 156.498 129.475 156.407 132.998 156.099C136.796 155.768 140.829 155.195 145.096 154.379Z" fill="#DAD9D8"/>
<path d="M98.8757 161.908C98.8343 161.882 98.7996 161.847 98.7747 161.805C98.7498 161.763 98.7354 161.715 98.7329 161.667C98.7303 161.618 98.7395 161.569 98.7598 161.524C98.7801 161.48 98.8108 161.441 98.8493 161.411L99.1043 161.207C99.1336 161.184 99.1629 161.178 99.1922 161.19C100.915 161.89 102.261 162.946 104.072 163.522C109.839 165.343 114.332 166.363 117.55 166.582C119.853 166.741 122.007 166.951 124.012 167.212C124.153 167.229 124.217 167.309 124.205 167.451L124.161 167.797C124.155 167.87 124.121 167.938 124.068 167.987C124.014 168.036 123.944 168.063 123.871 168.063C116.134 167.986 109.098 166.623 102.762 163.974C101.472 163.436 100.177 162.747 98.8757 161.908Z" fill="#DAD9D8"/>
<path d="M152.77 162.139L152.717 162.138C152.435 162.135 152.205 162.363 152.202 162.647L152.037 178.557C152.034 178.841 152.259 179.074 152.541 179.077L152.594 179.078C152.875 179.081 153.106 178.853 153.109 178.569L153.274 162.659C153.277 162.374 153.051 162.142 152.77 162.139Z" fill="#030202"/>
<path d="M148.83 182.821C148.074 175.725 147.998 169.121 148.601 163.007C149.111 162.865 149.516 162.848 149.815 162.954C150.143 163.067 150.327 163.315 150.368 163.699C150.65 166.138 150.228 168.329 150.289 170.75C150.407 174.907 149.92 178.93 148.83 182.821Z" fill="#8C7970"/>
<path d="M91.6673 168.116L90.4364 183.672C90.2782 184.103 89.988 184.094 89.566 183.645C89.4583 183.531 89.3958 183.383 89.3902 183.228C89.3462 181.259 89.2583 179.273 89.5397 177.348C90.1785 172.86 90.457 168.204 90.3749 163.379C90.3749 163.208 90.457 163.125 90.6211 163.131L90.8848 163.14C90.95 163.142 91.0124 163.168 91.0608 163.213C91.1092 163.259 91.1403 163.321 91.1486 163.388L91.6673 168.116Z" fill="#030202"/>
<path d="M126.341 167.043C130.69 166.901 135.095 165.665 139.556 163.335C139.619 163.302 139.689 163.286 139.76 163.288C139.832 163.291 139.901 163.313 139.962 163.351C140.023 163.389 140.073 163.443 140.109 163.507C140.144 163.571 140.162 163.643 140.162 163.717L140.153 163.983C140.153 164.024 140.133 164.054 140.092 164.071C138.152 165 136.182 165.822 134.184 166.537C132.003 167.312 129.278 167.782 126.007 167.947C125.925 167.947 125.881 167.909 125.875 167.832L125.858 167.584C125.834 167.229 125.995 167.048 126.341 167.043Z" fill="#DAD9D8"/>
<path d="M94.1018 164.994C94.3949 172.308 93.8586 179.436 92.4929 186.377L91.5609 186.439C91.2737 186.457 91.0949 186.327 91.0246 186.049L90.4355 183.672L91.6664 168.116C91.8247 167.489 91.9331 166.842 91.9917 166.174C92.0503 165.547 92.2496 165.177 92.5896 165.065C92.953 164.947 93.4571 164.923 94.1018 164.994Z" fill="#8C7970"/>
<path d="M141.597 181.482C139.78 178 137.222 175.886 133.922 175.141C133.711 175.094 133.544 174.978 133.421 174.795C133.327 174.653 133.298 174.496 133.333 174.325C133.391 174.077 133.547 173.932 133.799 173.89C134.719 173.754 135.619 173.444 136.498 172.959C140.155 170.943 143.118 168.563 145.387 165.82C145.908 165.193 146.175 165.287 146.187 166.103C146.231 168.25 146.248 170.431 146.099 172.578C145.817 176.456 146.043 180.291 146.776 184.081C146.784 184.123 146.78 184.166 146.764 184.205C146.749 184.245 146.722 184.28 146.688 184.305C146.653 184.331 146.612 184.347 146.569 184.351C146.525 184.355 146.481 184.348 146.442 184.329C145.304 183.744 144.144 183.25 142.96 182.848C142.327 182.635 141.896 182.05 141.597 181.482ZM144.965 171.957C144.965 171.7 144.864 171.455 144.684 171.273C144.504 171.092 144.26 170.99 144.006 170.99H143.918C143.664 170.99 143.42 171.092 143.241 171.273C143.061 171.455 142.96 171.7 142.96 171.957V179.673C142.96 179.929 143.061 180.175 143.241 180.356C143.42 180.538 143.664 180.64 143.918 180.64H144.006C144.26 180.64 144.504 180.538 144.684 180.356C144.864 180.175 144.965 179.929 144.965 179.673V171.957Z" fill="#56473E"/>
<path d="M102.392 170.502C104.344 171.655 106.489 172.231 108.274 173.561C108.363 173.628 108.432 173.718 108.474 173.821C108.516 173.924 108.529 174.036 108.512 174.146C108.494 174.255 108.447 174.357 108.376 174.44C108.304 174.523 108.211 174.585 108.107 174.617C107.011 174.966 105.906 175.217 104.792 175.371C101.636 175.805 98.4797 178.129 96.3784 180.453C95.8275 181.062 95.5696 180.955 95.6047 180.133L96.2202 166.99C96.2221 166.924 96.2423 166.86 96.2784 166.805C96.3144 166.75 96.365 166.706 96.4243 166.678C96.4837 166.651 96.5495 166.64 96.6144 166.648C96.6793 166.656 96.7406 166.682 96.7916 166.723C98.5149 168.06 100.382 169.319 102.392 170.502Z" fill="#56473E"/>
<path d="M144.005 170.99H143.917C143.388 170.99 142.959 171.423 142.959 171.957V179.673C142.959 180.207 143.388 180.64 143.917 180.64H144.005C144.535 180.64 144.964 180.207 144.964 179.673V171.957C144.964 171.423 144.535 170.99 144.005 170.99Z" fill="#8C7970"/>
<path d="M132.233 181.597C132.86 181.52 133.317 180.976 133.604 179.965C133.612 179.94 133.626 179.917 133.644 179.898C133.662 179.879 133.685 179.864 133.71 179.856C133.735 179.847 133.761 179.845 133.787 179.848C133.813 179.852 133.838 179.862 133.859 179.877C135.436 180.941 135.597 182.437 134.343 184.364C134.15 184.654 133.886 184.84 133.552 184.923C131.623 185.408 129.953 186.366 128.54 187.797C127.685 188.666 126.676 188.979 125.516 188.737C122.949 188.205 120.273 188.388 117.489 189.287C115.941 189.783 114.35 189.429 113.708 187.779C112.817 185.485 111.29 183.862 109.128 182.91C108.953 182.833 108.787 182.732 108.635 182.608C107.932 182.035 107.709 181.467 107.967 180.906C108.137 180.533 108.363 180.495 108.644 180.79C108.978 181.127 109.35 181.405 109.761 181.624C109.84 181.664 109.928 181.684 110.017 181.681C110.106 181.677 110.193 181.652 110.269 181.606C110.345 181.56 110.409 181.495 110.454 181.417C110.498 181.34 110.523 181.252 110.526 181.163C110.578 178.963 110.358 176.776 109.866 174.6C109.844 174.503 109.848 174.402 109.879 174.308C109.909 174.213 109.964 174.129 110.038 174.063C110.112 173.998 110.202 173.954 110.298 173.936C110.395 173.918 110.495 173.927 110.587 173.961C114.28 175.339 117.835 176.09 121.252 176.214C124.672 176.338 128.03 175.3 131.336 174.467C131.376 174.455 131.418 174.454 131.459 174.462C131.499 174.47 131.538 174.488 131.57 174.514C131.603 174.54 131.629 174.573 131.646 174.611C131.663 174.649 131.672 174.691 131.67 174.733L131.494 180.914C131.491 181.01 131.509 181.106 131.545 181.194C131.582 181.283 131.638 181.362 131.708 181.427C131.778 181.492 131.861 181.541 131.952 181.57C132.043 181.6 132.138 181.609 132.233 181.597Z" fill="#FCDDCF"/>
<path d="M90.5585 193.925C93.7939 187.202 98.8142 175.824 107.773 176.79C108.453 176.861 108.491 177.062 107.887 177.393C101.548 180.897 99.0515 186.759 99.0164 193.792C98.9988 197.304 97.5305 199.788 96.836 203.167C96.4667 204.94 96.0974 208.55 93.328 208.053C90.1101 207.486 87.4491 206.09 85.3448 203.867C85.2429 203.757 85.1784 203.618 85.161 203.469C85.1436 203.321 85.1741 203.171 85.2481 203.042C87.0241 199.965 89.0551 197.056 90.5585 193.925Z" fill="#5588C3"/>
<path d="M134.844 189.055C137.35 185.889 138.572 180.257 134.616 177.721C134.434 177.603 134.396 177.452 134.501 177.269L134.624 177.065C134.689 176.946 134.783 176.917 134.906 176.976C138.393 178.696 140.275 181.242 140.55 184.612C140.843 188.254 140.79 192.736 140.392 198.057C140.357 198.542 140.125 198.669 139.697 198.439C138.836 197.978 138.194 197.49 137.2 197.321C134.381 196.819 131.823 196.804 129.525 197.277C128.482 197.49 128.297 197.182 128.971 196.355C130.905 193.99 132.863 191.556 134.844 189.055Z" fill="#5588C3"/>
<path d="M104.476 181.774C104.49 181.751 104.513 181.734 104.539 181.728C104.565 181.721 104.593 181.725 104.616 181.738L104.643 181.747C104.807 181.849 104.928 182.019 104.999 182.247C105.069 182.475 105.087 182.757 105.052 183.077C105.017 183.397 104.929 183.748 104.794 184.11C104.659 184.472 104.479 184.839 104.265 185.188L104.15 185.366C103.719 186.07 103.174 186.664 102.635 187.016C102.096 187.369 101.607 187.451 101.275 187.246L101.258 187.228C101.235 187.214 101.219 187.191 101.212 187.164C101.206 187.138 101.209 187.11 101.223 187.086L104.476 181.774Z" fill="#396299"/>
<path d="M124.655 198.564C122.627 198.717 121.03 198.762 119.863 198.697C117.419 198.549 117.357 198.871 119.678 199.663C120.669 200.006 122.208 199.844 124.294 199.175C124.412 199.749 124.382 200.272 124.206 200.745C123.116 203.648 122.712 206.525 122.993 209.375C123.526 214.803 124.142 220.222 124.839 225.632C124.851 225.703 125.045 228.177 125.42 233.055C125.619 235.668 126.191 241.7 127 244H107.5H103L100 243.5L101.365 239.529C102.543 239.5 103.082 238.634 102.983 236.931C102.543 229.327 102.156 222.06 101.822 215.131C101.746 213.446 100.875 211.311 99.2108 208.727C97.848 206.599 97.8568 203.92 98.8415 201.659C100.16 198.596 100.735 195.125 100.565 191.247C100.545 190.793 100.662 190.345 100.901 189.961C101.139 189.577 101.489 189.277 101.901 189.1C104.556 187.971 106.01 186.109 106.262 183.513C106.297 183.111 106.461 183.049 106.754 183.327C107.405 183.959 108.135 184.485 108.943 184.905C112.61 186.812 112.065 193.074 117.911 191.078C120.279 190.274 122.636 190.052 124.98 190.413C126.879 190.706 128.901 190.218 130.273 188.754C131.093 187.885 132.022 187.291 133.06 186.972C134.402 186.564 134.616 186.898 133.702 187.974L124.655 198.564ZM114.289 198.023C115.004 198.224 115.71 198.46 116.408 198.732C116.959 198.945 117.044 198.824 116.663 198.368C116.37 198.02 116.042 197.795 115.678 197.694C110.632 196.258 107.792 193.482 104.591 189.074C104.515 188.973 104.43 188.961 104.336 189.038L104.143 189.18C103.956 189.328 103.935 189.499 104.082 189.695C106.825 193.295 109.858 196.772 114.289 198.023Z" fill="white"/>
<path d="M142.956 184.967L153.067 188.062C153.135 188.081 153.193 188.123 153.232 188.182C153.271 188.241 153.287 188.312 153.278 188.382L152.716 192.967C152.71 193.01 152.695 193.052 152.672 193.089C152.648 193.126 152.617 193.158 152.579 193.181C152.542 193.204 152.5 193.218 152.457 193.222C152.414 193.227 152.37 193.221 152.329 193.206L142.956 189.747C142.901 189.728 142.854 189.692 142.819 189.644C142.785 189.597 142.765 189.54 142.763 189.481L142.578 185.26C142.576 185.212 142.585 185.165 142.605 185.123C142.625 185.08 142.654 185.042 142.692 185.014C142.729 184.985 142.772 184.966 142.818 184.957C142.865 184.949 142.912 184.953 142.956 184.967Z" fill="#5588C3"/>
<path d="M157.112 209.472C156.963 218.82 157.833 228.345 158.897 237.631C158.997 238.488 158.621 238.89 157.772 238.837L157.297 238.81C156.564 238.763 156.127 238.379 155.987 237.657C155.635 235.907 155.392 234.172 155.257 232.451C154.583 223.795 154.12 214.048 153.868 203.21C153.751 198.255 153.956 193.422 154.483 188.709C154.565 187.947 154.987 187.559 155.749 187.548C157.045 187.524 157.669 188.127 157.622 189.357C157.393 195.34 157.224 202.045 157.112 209.472Z" fill="#EFDAA0"/>
<path d="M114.288 198.023C109.857 196.772 106.824 193.295 104.081 189.695C103.934 189.499 103.955 189.328 104.142 189.18L104.336 189.038C104.43 188.961 104.515 188.973 104.591 189.074C107.791 193.482 110.631 196.258 115.677 197.694C116.041 197.795 116.369 198.02 116.662 198.368C117.043 198.824 116.958 198.945 116.407 198.732C115.71 198.46 115.003 198.224 114.288 198.023Z" fill="#030202"/>
<path d="M126.597 215.309C126.369 212.063 126.838 209.172 128.004 206.635C129.082 204.294 130.908 202.49 133.481 201.225C133.722 201.109 133.993 201.063 134.264 201.092L141.886 201.899L142.484 191.451C142.496 191.174 142.64 191.061 142.915 191.114C146.022 191.712 149.061 192.649 152.032 193.926C152.32 194.05 152.46 194.272 152.454 194.591C152.331 200.563 152.475 206.928 152.885 213.686C152.893 213.82 152.848 213.951 152.761 214.052C152.674 214.153 152.551 214.216 152.419 214.227C144.512 214.871 136.52 215.433 128.444 215.912C127.887 215.948 127.271 215.747 126.597 215.309Z" fill="#5588C3"/>
<path d="M159.998 197.188C159.424 196.857 159.134 196.354 159.128 195.68L159.102 191.636C159.096 190.838 159.433 190.643 160.113 191.051C162.885 192.724 165.479 195.03 167.894 197.969C168.304 198.465 168.389 199.015 168.149 199.618L167.199 202.048C166.888 202.852 166.463 202.92 165.924 202.252C164.318 200.254 162.343 198.566 159.998 197.188Z" fill="#5588C3"/>
<path d="M86.0923 207.325C87.4052 208.431 88.8823 209.439 90.5234 210.35C92.2584 211.313 93.4951 212.257 94.2337 213.179C96.08 215.476 98.1461 219.281 98.3659 222.438C98.4538 223.706 99.2627 224.425 98.8406 225.773C97.9087 226.264 97.0383 226.55 96.2294 226.633C90.7315 227.183 85.2981 228.076 79.9291 229.312C79.8763 229.323 79.85 229.356 79.85 229.409V229.649C79.85 229.743 79.8969 229.785 79.9906 229.773C82.2853 229.56 84.3251 228.664 86.6813 228.593C88.5189 228.54 90.1981 227.857 92.0972 227.671C94.3245 227.452 96.5196 227.056 98.6824 226.482C98.8289 226.447 99.0487 226.293 99.3418 226.021L100.133 225.737C100.954 230.071 101.168 234.391 100.775 238.695C100.746 239.026 100.942 239.304 101.364 239.529L100 243.5C94.0273 243.695 89.8229 242.654 88 242.5C81.1247 241.909 83 241.5 82.8304 241.781C81.8457 241.775 66.2077 238.878 64.0684 238.127C65.2934 231.44 67.0254 224.445 69.2644 217.143C69.4578 216.505 69.83 215.801 70.381 215.033C72.157 218.769 73.1827 221.241 73.4582 222.447C75.1873 229.997 76.5325 235.109 77.4937 237.781C77.7809 238.586 78.4169 238.79 79.4016 238.393C79.765 238.902 80.1782 239.035 80.6412 238.793C80.8178 238.699 80.9574 238.547 81.0373 238.362C81.1172 238.177 81.1325 237.969 81.0808 237.773L79.5598 232.008C79.5272 231.885 79.528 231.757 79.5621 231.635C79.5962 231.513 79.6625 231.402 79.754 231.315C79.8454 231.227 79.9588 231.165 80.0824 231.136C80.2059 231.106 80.3351 231.11 80.4566 231.147C82.1535 231.68 83.059 231.059 84.6152 230.775C88.4602 230.083 92.5485 229.397 96.88 228.717C97.0359 228.692 97.1952 228.7 97.3477 228.741C97.5003 228.782 97.6428 228.854 97.7661 228.953C97.8893 229.053 97.9907 229.177 98.0637 229.318C98.1368 229.459 98.1798 229.614 98.19 229.773C98.2955 231.239 98.4567 232.809 98.6736 234.482C98.8758 236.025 98.0845 237.187 97.2405 238.385C97.2041 238.435 97.1808 238.495 97.1725 238.557C97.1642 238.619 97.1712 238.682 97.1929 238.741C97.2147 238.8 97.2505 238.852 97.2971 238.894C97.3437 238.935 97.3998 238.964 97.4603 238.979L97.7504 239.05C97.9009 239.089 98.0596 239.085 98.2087 239.038C98.3578 238.991 98.4914 238.903 98.5945 238.784C99.5557 237.678 99.9719 236.407 99.8429 234.97C99.6671 232.983 99.5792 230.926 99.5792 228.797C99.5781 228.694 99.5565 228.592 99.5156 228.497C99.4748 228.403 99.4156 228.318 99.3416 228.247C99.2676 228.177 99.1804 228.122 99.0852 228.087C98.99 228.052 98.8889 228.037 98.7879 228.043C95.6931 228.25 92.5661 228.694 89.4068 229.374C87.9122 229.699 86.444 229.974 85.0021 230.198C83.5426 230.417 82.0538 230.683 80.5357 230.997C80.2031 231.064 79.858 231.002 79.5694 230.824C79.2809 230.647 79.0702 230.366 78.9796 230.039C77.567 224.889 76.0753 220.15 74.5044 215.822C74.2143 215.024 74.355 214.243 73.8187 213.534C72.3944 211.636 71.9899 208.948 73.2296 206.793C74.7946 204.062 76.3771 201.682 77.9773 199.654C80.7643 196.124 85.4505 193.729 89.3805 191.343C89.8377 191.066 89.9783 191.184 89.8025 191.698C88.7768 194.66 87.1561 196.907 84.9405 198.439C81.0017 201.153 77.7487 204.691 75.7969 208.957C75.3104 210.033 74.7565 211.062 74.1352 212.044C74.1065 212.092 74.0929 212.148 74.0961 212.205C74.0992 212.261 74.1189 212.316 74.1528 212.363L74.4253 212.727C74.6305 213.004 74.8063 212.987 74.9528 212.673C77.4673 207.246 79.9379 203.104 84.9141 199.326C85.3772 198.971 85.5237 199.074 85.3537 199.636C84.9141 201.028 83.9558 202.048 83.4723 203.37C83.3492 203.701 83.399 204.005 83.6217 204.283L86.0923 207.325ZM77.6053 219.145C77.6529 219.108 77.6878 219.056 77.708 218.991C77.7282 218.925 77.7334 218.849 77.7232 218.765C77.713 218.682 77.6876 218.593 77.6486 218.504C77.6095 218.414 77.5575 218.327 77.4955 218.245C77.3703 218.082 77.212 217.954 77.0556 217.891C76.8991 217.828 76.7573 217.834 76.6612 217.909C76.6136 217.946 76.5787 217.998 76.5585 218.063C76.5383 218.129 76.5331 218.205 76.5433 218.289C76.5535 218.372 76.5789 218.461 76.6179 218.55C76.657 218.639 76.709 218.727 76.771 218.808C76.8962 218.972 77.0545 219.1 77.2109 219.163C77.3674 219.226 77.5092 219.22 77.6053 219.145ZM78.496 221.826C78.4754 221.79 78.4475 221.758 78.4141 221.733C78.3807 221.708 78.3425 221.691 78.3019 221.682C78.2614 221.672 78.2194 221.672 78.1786 221.68C78.1379 221.688 78.0992 221.705 78.0652 221.729C77.8249 221.9 77.7487 222.137 77.8366 222.438C78.0066 223.006 78.2381 223.038 78.5312 222.536C78.6601 222.317 78.6484 222.08 78.496 221.826ZM79.1554 225.986L79.5422 226.952C79.7005 227.343 79.8763 227.352 80.0698 226.979C80.3863 226.382 80.2075 225.93 79.5335 225.622C79.4823 225.599 79.4254 225.591 79.3699 225.6C79.3145 225.61 79.2631 225.636 79.2225 225.675C79.1818 225.714 79.1536 225.765 79.1417 225.82C79.1297 225.875 79.1345 225.933 79.1554 225.986ZM82.4941 238.278C82.5356 238.279 82.5773 238.262 82.6167 238.227C82.656 238.192 82.6924 238.14 82.7236 238.074C82.7548 238.008 82.7803 237.93 82.7987 237.843C82.817 237.756 82.8277 237.663 82.8304 237.569C82.833 237.474 82.8274 237.381 82.8139 237.293C82.8004 237.206 82.7793 237.126 82.7517 237.058C82.7242 236.991 82.6908 236.937 82.6534 236.9C82.616 236.863 82.5754 236.843 82.5338 236.842C82.4923 236.84 82.4506 236.858 82.4112 236.893C82.3718 236.928 82.3355 236.98 82.3043 237.046C82.273 237.111 82.2475 237.19 82.2292 237.277C82.2109 237.363 82.2001 237.456 82.1975 237.551C82.1949 237.645 82.2005 237.739 82.214 237.826C82.2275 237.914 82.2486 237.994 82.2761 238.061C82.3037 238.129 82.3371 238.183 82.3745 238.22C82.4119 238.257 82.4525 238.277 82.4941 238.278Z" fill="#5588C3"/>
<path d="M159.197 216.23C160.059 216.46 160.707 216.457 161.14 216.221C161.375 216.091 161.369 215.97 161.123 215.857C160.654 215.638 160.036 215.659 159.268 215.919L159.022 215.733C158.822 215.585 158.723 215.387 158.723 215.139L158.793 198.35C158.793 197.983 158.963 197.874 159.303 198.022C161.879 199.166 163.84 201.303 166.011 203.059C166.252 203.254 166.316 203.5 166.205 203.795L162.723 212.886C162.623 213.14 162.439 213.288 162.169 213.33L160.657 213.542C160.593 213.552 160.534 213.582 160.489 213.626C160.443 213.671 160.413 213.728 160.402 213.791L160.349 214.101C160.339 214.161 160.352 214.222 160.387 214.273C160.421 214.324 160.473 214.361 160.534 214.376L161.703 214.607C162.102 214.689 162.237 214.926 162.108 215.316C161.659 216.655 161.228 218.092 161.088 219.511C160.765 222.84 160.414 226.06 160.033 229.17C159.98 229.595 159.91 229.598 159.822 229.178C158.948 225.016 158.74 220.7 159.197 216.23Z" fill="#5588C3"/>
<path d="M124.653 198.563C124.477 198.753 124.357 198.957 124.292 199.175C122.205 199.844 120.667 200.006 119.676 199.663C117.355 198.871 117.417 198.549 119.861 198.697C121.027 198.762 122.625 198.717 124.653 198.563Z" fill="#665E5A"/>
<path d="M141.886 201.898L134.263 201.091C133.993 201.062 133.722 201.108 133.481 201.224C130.908 202.489 129.082 204.292 128.003 206.634C126.837 209.17 126.368 212.062 126.597 215.308C126.585 215.337 126.556 215.396 126.509 215.485C126.462 215.562 126.438 215.63 126.438 215.689C126.444 215.801 126.497 215.878 126.597 215.92C125.899 216.056 125.65 216.449 125.849 217.099C125.234 213.782 124.407 208.079 126.35 205.162C127.663 203.193 129.269 201.295 131.169 199.468C131.448 199.197 131.805 199.02 132.188 198.962C135.049 198.566 137.695 199.095 140.128 200.55C140.267 200.632 140.389 200.743 140.488 200.878C140.763 201.274 141.229 201.614 141.886 201.898Z" fill="#396299"/>
<path d="M125.744 203.247C125.727 203.271 125.7 203.288 125.671 203.293C125.641 203.298 125.611 203.291 125.586 203.273L125.56 203.255C125.318 203.08 125.233 202.702 125.326 202.203C125.418 201.704 125.679 201.126 126.052 200.595L126.237 200.337C126.609 199.807 127.063 199.368 127.498 199.115C127.933 198.863 128.314 198.817 128.558 198.989L128.584 198.998C128.609 199.016 128.625 199.043 128.63 199.073C128.635 199.103 128.628 199.133 128.611 199.158L125.744 203.247Z" fill="#5588C3"/>
<path d="M170.89 202.289C168.71 207.143 167.412 210.312 166.995 211.796C166.028 215.267 165.114 220.677 164.252 228.027C163.772 232.142 163.233 234.837 162.5 239L160 239.5C160.85 229.579 161.961 223.296 162.898 218.679C163.953 213.499 166.061 207.587 169.22 200.941C169.349 200.669 169.528 200.63 169.756 200.825C170.413 201.405 170.791 201.893 170.89 202.289Z" fill="#396299"/>
<path d="M170.471 202.146C176.327 212.705 179.996 223.345 182.48 234.146C182.48 234.646 177.198 236.336 175.48 236.646C174.98 237.146 166.757 239.12 164.48 239.146C161.357 239.183 165.593 239.515 162.48 239.646C163.201 235.937 163.471 228.749 163.944 225.082C164.791 218.533 165.69 213.712 166.641 210.619C167.05 209.296 168.327 206.472 170.471 202.146Z" fill="#5588C3"/>
<path d="M86.0918 207.326L93.8815 209.783C94.1746 209.877 94.4119 210.046 94.5936 210.288C95.5842 211.595 96.7184 212.899 97.9961 214.2C98.9164 215.14 99.5435 216.364 99.8776 217.871C100.452 220.467 100.537 223.089 100.133 225.738L99.3413 226.022C99.3706 225.874 99.2036 225.791 98.8402 225.774C99.2622 224.426 98.4533 223.707 98.3654 222.439C98.1456 219.282 96.0795 215.477 94.2332 213.18C93.4946 212.257 92.2579 211.314 90.523 210.35C88.8818 209.44 87.4047 208.432 86.0918 207.326Z" fill="#396299"/>
<path d="M97.0303 208.266C97.8656 209.472 98.5865 210.882 99.158 212.204C99.4041 212.777 99.2811 212.875 98.7887 212.497C97.7278 211.681 96.8779 210.743 96.239 209.685C95.946 209.194 95.9782 208.715 96.3357 208.248C96.5761 207.935 96.8076 207.941 97.0303 208.266Z" fill="#5588C3"/>
<path d="M79.4007 238.394C78.416 238.79 77.78 238.586 77.4928 237.782C76.5316 235.109 75.1864 229.998 73.4573 222.448C73.1818 221.241 72.1561 218.77 70.3801 215.033C70.1984 214.347 70.216 213.688 70.4329 213.055C70.9135 211.672 71.4 211.672 71.8923 213.055C74.2251 219.642 76.3293 226.178 78.205 232.665C78.7501 234.539 79.1486 236.449 79.4007 238.394Z" fill="#396299"/>
<path d="M136 243L129 244L125.848 217.099C125.648 216.449 125.897 216.056 126.595 215.92C127.292 216.156 128.013 216.28 128.758 216.292C131.976 216.34 135.856 216.168 140.398 215.778C144.402 215.435 148.373 215.181 152.312 215.015C152.61 214.997 152.769 215.139 152.786 215.441L153.208 222.793C153.232 223.296 153.041 223.689 152.637 223.973C150.325 225.605 148.03 226.571 145.076 226.199C141.638 225.764 137.831 225.56 134.956 223.84C134.788 223.737 134.645 223.599 134.537 223.435C134.429 223.271 134.359 223.085 134.332 222.891L133.804 219.006C133.793 218.922 133.799 218.837 133.821 218.756C133.843 218.675 133.882 218.599 133.933 218.533C133.985 218.468 134.05 218.414 134.123 218.374C134.196 218.335 134.276 218.312 134.358 218.306C137.022 218.075 139.66 217.507 142.341 217.525C145.436 217.555 148.581 217.416 151.775 217.108C151.91 217.096 151.975 217.022 151.969 216.887L151.951 216.656C151.95 216.644 151.947 216.633 151.941 216.623C151.936 216.612 151.928 216.603 151.919 216.596C151.91 216.588 151.9 216.583 151.889 216.579C151.878 216.576 151.866 216.575 151.854 216.576C146.808 217.055 141.726 216.612 136.671 217.481C134.695 217.824 132.582 217.88 130.332 217.649C129.605 217.578 128.907 217.711 128.239 218.048C127.665 218.344 127.697 218.45 128.336 218.368L130.938 218.039C131.178 218.008 131.421 218.028 131.653 218.098C131.884 218.168 132.099 218.286 132.282 218.445C132.465 218.604 132.613 218.8 132.716 219.021C132.82 219.241 132.876 219.481 132.881 219.725C132.911 220.966 133.069 222.22 133.356 223.485C133.626 224.668 133.79 225.918 133.848 227.237C134.048 231.778 135.009 238.69 136 243ZM129.004 220.611C128.869 221.297 128.441 221.637 127.72 221.631C126.847 221.626 126.788 221.841 127.545 222.279C128.465 222.811 129.253 222.462 129.91 221.232C129.951 221.155 129.948 221.084 129.901 221.019L129.549 220.496C129.279 220.106 129.098 220.144 129.004 220.611ZM148.049 223.583C147.995 223.414 147.902 223.258 147.775 223.127C147.648 222.995 147.491 222.889 147.311 222.815C147.131 222.742 146.933 222.701 146.727 222.696C146.522 222.692 146.313 222.723 146.113 222.788C145.709 222.92 145.365 223.182 145.157 223.517C144.949 223.852 144.894 224.233 145.004 224.575C145.058 224.745 145.151 224.9 145.278 225.032C145.405 225.163 145.562 225.269 145.742 225.343C145.922 225.417 146.12 225.457 146.326 225.462C146.531 225.467 146.74 225.436 146.94 225.37C147.344 225.239 147.687 224.977 147.895 224.641C148.103 224.306 148.159 223.926 148.049 223.583ZM128.731 234.19C128.716 234.44 128.798 234.687 128.958 234.878C129.118 235.07 129.346 235.192 129.593 235.219C130.478 235.307 131.014 234.923 131.202 234.066C131.425 233.037 131.014 232.469 129.971 232.363C129.438 232.31 128.94 232.387 128.476 232.593C128.422 232.618 128.373 232.655 128.336 232.702C128.299 232.75 128.273 232.805 128.262 232.865C128.251 232.924 128.254 232.985 128.271 233.043C128.289 233.101 128.32 233.154 128.362 233.197C128.632 233.474 128.755 233.806 128.731 234.19Z" fill="#5588C3"/>
<path d="M159.27 215.92C160.037 215.66 160.656 215.639 161.125 215.858C161.371 215.97 161.377 216.091 161.142 216.222C160.709 216.458 160.061 216.461 159.199 216.23C159.404 216.366 159.428 216.263 159.27 215.92Z" fill="#56473E"/>
<path d="M76.7711 218.808C77.0318 219.15 77.4053 219.3 77.6053 219.145C77.8054 218.99 77.7562 218.587 77.4955 218.245C77.2348 217.904 76.8613 217.753 76.6612 217.908C76.4612 218.064 76.5103 218.467 76.7711 218.808Z" fill="#56473E"/>
<path d="M129.007 220.611C129.101 220.144 129.283 220.106 129.552 220.496L129.904 221.019C129.951 221.084 129.954 221.155 129.913 221.232C129.256 222.462 128.468 222.811 127.548 222.279C126.792 221.841 126.85 221.625 127.724 221.631C128.445 221.637 128.872 221.297 129.007 220.611Z" fill="#030202"/>
<path d="M78.4975 221.827C78.6499 222.081 78.6616 222.318 78.5326 222.536C78.2396 223.039 78.008 223.006 77.8381 222.439C77.7501 222.137 77.8263 221.901 78.0666 221.729C78.1007 221.705 78.1393 221.689 78.1801 221.68C78.2209 221.672 78.2628 221.673 78.3034 221.682C78.3439 221.691 78.3821 221.709 78.4155 221.734C78.4489 221.759 78.4768 221.79 78.4975 221.827Z" fill="#030202"/>
<path d="M148.05 223.583C148.159 223.926 148.104 224.307 147.896 224.642C147.688 224.977 147.344 225.239 146.941 225.371C146.741 225.436 146.532 225.467 146.326 225.462C146.121 225.458 145.923 225.417 145.743 225.343C145.563 225.27 145.405 225.164 145.278 225.032C145.152 224.9 145.059 224.745 145.004 224.576C144.895 224.233 144.95 223.853 145.158 223.517C145.366 223.182 145.71 222.92 146.114 222.788C146.314 222.723 146.522 222.692 146.728 222.697C146.933 222.701 147.132 222.742 147.311 222.816C147.491 222.89 147.649 222.995 147.776 223.127C147.902 223.259 147.995 223.414 148.05 223.583ZM147.485 223.965C147.478 223.782 147.378 223.61 147.206 223.487C147.035 223.363 146.806 223.299 146.571 223.308C146.455 223.313 146.34 223.335 146.233 223.374C146.127 223.413 146.031 223.468 145.951 223.535C145.871 223.603 145.809 223.681 145.767 223.767C145.726 223.853 145.707 223.943 145.71 224.034C145.717 224.217 145.817 224.39 145.989 224.513C146.16 224.636 146.388 224.7 146.624 224.691C146.74 224.686 146.855 224.664 146.961 224.625C147.068 224.586 147.163 224.532 147.243 224.464C147.323 224.397 147.386 224.318 147.427 224.233C147.469 224.147 147.488 224.056 147.485 223.965Z" fill="#030202"/>
<path d="M146.624 224.691C147.114 224.672 147.499 224.347 147.485 223.965C147.47 223.583 147.061 223.289 146.571 223.308C146.081 223.327 145.695 223.652 145.71 224.034C145.724 224.416 146.134 224.71 146.624 224.691Z" fill="#5588C3"/>
<path d="M79.1549 225.986C79.134 225.933 79.1292 225.876 79.1412 225.82C79.1531 225.765 79.1813 225.714 79.222 225.675C79.2626 225.636 79.314 225.61 79.3694 225.601C79.4249 225.591 79.4818 225.599 79.533 225.622C80.207 225.93 80.3858 226.382 80.0693 226.979C79.8759 227.352 79.7 227.343 79.5418 226.953L79.1549 225.986Z" fill="#56473E"/>
<path d="M137.71 226.66C140.061 228.339 142.584 229.368 145.28 229.746C147.241 230.03 149.166 229.001 150.977 228.292C152.097 227.854 152.372 227.092 151.804 226.004C152.144 225.732 152.443 225.596 152.701 225.596C152.999 225.596 153.164 225.746 153.193 226.048L154.362 238.225C154.397 238.562 154.251 238.778 153.923 238.873C148.343 240.445 142.941 240.623 137.719 239.405C136.752 239.174 136.183 238.556 136.013 237.551C135.374 233.802 134.982 229.956 134.835 226.013C134.818 225.628 134.982 225.51 135.328 225.658L137.71 226.66Z" fill="#5588C3"/>
<path d="M98.8403 225.773C99.2037 225.791 99.3707 225.874 99.3414 226.022C99.0484 226.294 98.8286 226.447 98.682 226.483C96.5192 227.056 94.3241 227.453 92.0968 227.671C90.1978 227.858 88.5185 228.541 86.681 228.594C84.3247 228.665 82.285 229.56 79.9903 229.773C79.8965 229.785 79.8496 229.744 79.8496 229.649V229.41C79.8496 229.356 79.876 229.324 79.9287 229.312C85.2977 228.076 90.7312 227.184 96.2291 226.634C97.0379 226.551 97.9083 226.264 98.8403 225.773Z" fill="#030202"/>
<path d="M151.803 226.004C152.371 227.092 152.096 227.855 150.976 228.292C149.165 229.002 147.239 230.03 145.279 229.747C142.583 229.368 140.059 228.339 137.709 226.66C140.903 227.027 144.074 227.382 147.222 227.724C148.171 227.825 149.698 227.251 151.803 226.004Z" fill="#396299"/>
<path d="M128.734 234.19C128.757 233.806 128.634 233.475 128.365 233.197C128.322 233.154 128.291 233.101 128.274 233.043C128.256 232.985 128.253 232.924 128.264 232.865C128.276 232.805 128.301 232.75 128.338 232.702C128.376 232.655 128.424 232.618 128.479 232.594C128.942 232.387 129.44 232.31 129.973 232.363C131.017 232.469 131.427 233.037 131.204 234.066C131.017 234.923 130.48 235.308 129.595 235.219C129.348 235.192 129.121 235.07 128.96 234.878C128.8 234.687 128.719 234.44 128.734 234.19ZM130.438 233.807C130.441 233.752 130.426 233.695 130.391 233.641C130.357 233.587 130.304 233.536 130.237 233.492C130.17 233.448 130.089 233.411 129.998 233.383C129.908 233.355 129.811 233.338 129.712 233.331C129.512 233.317 129.317 233.349 129.17 233.418C129.023 233.488 128.937 233.591 128.929 233.704C128.925 233.759 128.941 233.816 128.975 233.87C129.01 233.924 129.062 233.975 129.13 234.019C129.197 234.063 129.278 234.1 129.368 234.128C129.458 234.156 129.556 234.173 129.655 234.18C129.855 234.194 130.05 234.162 130.196 234.092C130.343 234.023 130.43 233.92 130.438 233.807Z" fill="#030202"/>
<path d="M129.654 234.181C130.071 234.209 130.421 234.042 130.437 233.808C130.453 233.573 130.128 233.36 129.711 233.331C129.295 233.303 128.944 233.469 128.928 233.704C128.912 233.939 129.237 234.152 129.654 234.181Z" fill="#5588C3"/>
<path d="M82.1969 237.552C82.186 237.948 82.3187 238.274 82.4935 238.279C82.6682 238.284 82.8187 237.966 82.8297 237.57C82.8407 237.173 82.708 236.848 82.5332 236.843C82.3585 236.838 82.2079 237.155 82.1969 237.552Z" fill="#56473E"/>
</g>
<defs>
<clipPath id="clip0_949_2983">
<rect width="121" height="175" fill="white" transform="translate(63 73)"/>
</clipPath>
</defs>
</svg>
