<svg width="700" height="700" viewBox="0 0 700 700" fill="none" xmlns="http://www.w3.org/2000/svg">
<path d="M518.77 479.903C521.56 486.147 526.146 491.031 532.529 494.555C538.522 504.169 545.011 512.932 550.295 523.184C566.205 554.237 579.846 591.333 591.217 634.472C593.297 642.371 594.266 649.053 594.125 654.516C594.006 658.939 592.789 661.091 590.472 660.973C580.283 612.489 563.179 564.549 539.16 517.153C538.758 515.569 537.233 513.617 534.586 511.3C533.664 510.519 532.943 510.673 532.422 511.761C519.68 538.344 511.181 561.995 506.926 582.713C503.144 601.184 499.538 630.262 496.11 669.948C482.564 669.853 463.616 670.882 439.266 673.034C427.683 674.051 413.581 673.058 396.961 670.054C392.966 652.813 390.567 635.111 389.763 616.947C389.526 611.673 388.865 606.671 387.777 601.941C386.619 596.879 385.98 591.866 385.862 586.899C385.84 585.924 385.614 584.965 385.197 584.083C384.781 583.202 384.184 582.418 383.445 581.782C382.706 581.147 381.841 580.673 380.908 580.394C379.974 580.114 378.992 580.034 378.025 580.158L367.529 581.471C364.952 581.802 364.822 581.376 367.139 580.194C369.834 578.846 372.647 578.314 375.578 578.598C384.656 579.52 393.179 579.295 401.146 577.923C421.536 574.447 442.032 576.221 462.387 574.305C462.434 574.3 462.481 574.304 462.526 574.318C462.571 574.331 462.612 574.353 462.649 574.383C462.685 574.413 462.715 574.449 462.737 574.491C462.759 574.532 462.773 574.578 462.777 574.624L462.848 575.547C462.872 576.091 462.612 576.386 462.068 576.433C449.184 577.663 436.5 578.219 424.018 578.101C413.203 578.03 402.564 580.3 391.82 581.223C391.488 581.248 391.164 581.342 390.87 581.499C390.575 581.655 390.315 581.871 390.106 582.134C389.897 582.396 389.743 582.699 389.653 583.024C389.564 583.35 389.541 583.69 389.586 584.025L391.713 599.564C391.823 600.34 392.106 601.083 392.542 601.739C392.977 602.396 393.554 602.949 394.231 603.36C405.827 610.242 421.181 611.058 435.047 612.796C446.961 614.286 456.217 610.419 465.543 603.892C467.174 602.757 467.943 601.184 467.848 599.174L466.146 569.764C466.075 568.558 465.437 567.99 464.231 568.061C448.344 568.723 432.328 569.74 416.181 571.112C397.86 572.673 382.21 573.359 369.231 573.17C366.229 573.122 363.321 572.626 360.508 571.68C360.106 571.514 359.893 571.207 359.869 570.757C359.869 570.521 359.964 570.249 360.153 569.941C360.342 569.587 360.46 569.35 360.508 569.232C363.226 570.982 365.709 571.786 367.954 571.644C400.531 569.729 432.765 567.482 464.657 564.904C465.19 564.858 465.684 564.607 466.035 564.203C466.386 563.799 466.566 563.274 466.536 562.74C464.881 535.707 464.302 510.247 464.798 486.36C464.822 485.083 464.255 484.196 463.096 483.699C451.11 478.591 438.853 474.842 426.323 472.454C425.212 472.241 424.633 472.69 424.586 473.802L422.174 515.592C419.526 514.457 417.647 513.097 416.536 511.513C416.139 510.974 415.644 510.527 415.082 510.2C405.271 504.382 394.597 502.265 383.061 503.85C381.513 504.081 380.076 504.788 378.947 505.872C371.288 513.18 364.81 520.772 359.515 528.647C351.678 540.319 355.011 563.13 357.493 576.398L368.522 669.451L361.855 669.7C358.593 660.5 356.56 650.673 355.756 640.219C354.243 620.707 353.463 610.81 353.415 610.526C350.602 588.886 348.12 567.21 345.969 545.498C344.834 534.099 346.465 522.593 350.862 510.98C351.571 509.088 351.69 506.995 351.217 504.701C351.477 503.826 351.961 503.01 352.671 502.253L389.16 459.895C392.848 455.591 391.985 454.254 386.571 455.886C382.387 457.163 378.64 459.54 375.33 463.017C369.798 468.87 361.642 470.822 353.983 469.651C344.526 468.208 335.023 469.095 325.472 472.312C301.891 480.294 304.089 455.248 289.302 447.62C286.039 445.941 283.096 443.836 280.472 441.306C279.29 440.194 278.628 440.442 278.486 442.051C277.47 452.433 271.607 459.883 260.898 464.4C259.234 465.108 257.826 466.309 256.862 467.843C255.899 469.378 255.426 471.172 255.508 472.986C256.193 488.5 253.876 502.383 248.557 514.634C244.586 523.681 244.55 534.395 250.047 542.909C256.761 553.244 260.271 561.782 260.578 568.522C261.926 596.241 263.486 625.308 265.259 655.722C265.661 662.534 263.486 665.998 258.735 666.117C257.032 665.218 256.24 664.106 256.359 662.782C257.943 645.564 257.08 628.287 253.77 610.952C255.401 600.356 255.058 589.867 252.742 579.484C251.394 573.454 248.865 568.558 245.153 564.797C239.999 559.594 235.425 554.379 231.43 549.152C230.697 548.183 229.739 547.509 228.557 547.13L197.139 537.304L187.174 525.135C186.276 524.024 186.075 522.806 186.571 521.481C188.522 516.195 192.387 512.116 194.16 506.546C194.846 504.299 194.255 503.885 192.387 505.304C172.316 520.417 162.352 536.984 152.21 558.696C151.619 559.949 150.909 560.02 150.082 558.908L148.983 557.454C148.846 557.268 148.767 557.047 148.754 556.82C148.741 556.593 148.796 556.369 148.912 556.177C151.418 552.251 153.652 548.136 155.614 543.831C163.486 526.767 176.607 512.612 192.493 501.757C201.43 495.631 207.966 486.644 212.103 474.795C212.813 472.737 212.245 472.264 210.401 473.376C194.55 482.919 175.649 492.497 164.408 506.617C157.954 514.729 151.571 524.248 145.259 535.175C140.259 543.796 141.891 554.545 147.635 562.137C149.798 564.975 149.231 568.097 150.401 571.289C156.737 588.602 162.753 607.558 168.451 628.157C168.816 629.467 169.666 630.589 170.83 631.3C171.994 632.01 173.386 632.256 174.727 631.989C180.85 630.735 186.855 629.671 192.742 628.796C198.557 627.897 204.479 626.797 210.508 625.497C223.25 622.777 235.862 621.003 248.344 620.175C248.752 620.151 249.16 620.211 249.544 620.352C249.928 620.492 250.279 620.71 250.578 620.992C250.876 621.274 251.115 621.614 251.28 621.992C251.444 622.37 251.532 622.778 251.536 623.191C251.536 631.705 251.891 639.935 252.6 647.882C253.12 653.629 251.441 658.714 247.564 663.137C247.149 663.614 246.61 663.967 246.008 664.155C245.407 664.343 244.767 664.359 244.16 664.201L242.99 663.917C242.746 663.86 242.52 663.743 242.332 663.577C242.143 663.411 241.999 663.201 241.911 662.966C241.824 662.731 241.795 662.478 241.829 662.229C241.862 661.98 241.957 661.744 242.103 661.54C245.508 656.751 248.699 652.104 247.883 645.931C247.009 639.238 246.359 632.958 245.933 627.093C245.892 626.458 245.718 625.838 245.424 625.274C245.129 624.709 244.72 624.212 244.223 623.815C243.726 623.418 243.151 623.129 242.536 622.966C241.92 622.804 241.278 622.771 240.649 622.871C223.179 625.591 206.69 628.335 191.181 631.102C184.905 632.237 181.252 634.72 174.408 632.592C173.918 632.443 173.397 632.427 172.899 632.544C172.401 632.662 171.943 632.909 171.574 633.26C171.205 633.611 170.938 634.053 170.8 634.541C170.663 635.029 170.66 635.544 170.791 636.033L176.926 659.092C177.134 659.877 177.073 660.709 176.75 661.45C176.428 662.191 175.865 662.798 175.153 663.172C173.285 664.142 171.619 663.61 170.153 661.576C169.136 653.795 167.529 646.156 165.33 638.658C157.765 612.714 149.278 586.568 139.869 560.221C137.883 554.687 135.921 554.687 133.983 560.221C133.108 562.752 133.037 565.389 133.77 568.132C131.548 571.207 130.047 574.021 129.266 576.575C120.236 605.784 113.25 633.763 108.309 660.511C104.172 658.619 102.588 655.296 103.557 650.543C108.782 624.811 116.087 597.719 125.472 569.267C136.11 537.126 151.288 508.284 177.422 487.247C180.366 484.87 183.664 480.116 184.373 476.356C187.245 461.882 190.578 447.195 191.997 432.401C194.928 401.868 197.103 371.264 198.522 340.589C198.995 330.372 197.304 322.698 193.451 317.566C196.028 314.373 197.919 311.097 199.125 307.739C199.526 306.603 199.196 305.752 198.132 305.184L185.933 298.409C182.552 292.425 179.113 286.252 175.614 279.89C166.713 263.82 164.621 250.8 169.798 233.133C170.72 229.975 169.55 226.321 167.813 223.661C163.309 216.707 159.727 208.725 159.196 200.459C156.382 154.459 168.25 112.751 194.798 75.3359C201.288 66.1476 209.905 57.8817 217.919 49.7577C231.43 35.993 247.174 28.614 264.657 21.1641C271.11 18.4206 277.883 16.2802 284.976 14.743C308.983 9.59894 328.77 6.93825 352.245 14.1753C363.628 17.6875 371.961 15.417 382.883 14.1399C389.172 13.4303 395.909 13.8442 403.096 15.3815C410.023 16.8715 416.524 19.2366 422.6 22.4767C444.349 34.1128 461.831 48.386 475.047 65.2962C491.902 86.8182 504.456 110.694 512.706 136.922C519.231 157.64 519.822 178.323 514.479 198.969C512.517 206.585 509.337 213.219 504.94 218.872C503.073 221.26 502.411 223.909 502.954 226.818C506.217 244.414 504.385 260.816 497.458 276.023C493.983 283.686 490.543 290.899 487.139 297.664C483.522 304.794 482.883 313.238 483.238 321.184C484.538 349.328 487.304 376.716 491.536 403.346C494.621 422.716 500.969 443.86 505.791 463.868C507.706 471.886 512.032 477.231 518.77 479.903ZM392.245 80.5153C393.38 84.2994 394.869 87.8825 396.713 91.2646C404.373 105.337 410.058 118.948 413.77 132.097C417.08 143.875 420.035 155.464 422.635 166.864C423.297 169.82 425.094 171.665 428.025 172.398C442.564 175.946 457.233 182.591 472.032 192.335C473.096 193.045 473.711 194.027 473.876 195.28L476.217 213.16C476.571 216.045 478.096 216.92 480.791 215.785C486.134 213.515 491.252 213.834 496.146 216.743C496.593 217.008 497.091 217.176 497.608 217.235C498.125 217.294 498.648 217.244 499.144 217.086C499.639 216.929 500.096 216.668 500.484 216.322C500.872 215.975 501.182 215.55 501.394 215.076C515.531 183.62 515.508 152.236 501.323 120.922C492.222 100.843 482.635 84.1812 472.564 70.9369C457.056 50.5737 436.335 34.9288 410.401 24.0022C397.742 18.6808 382.245 19.9579 368.912 21.3415C364.018 21.8618 358.782 21.4361 353.203 20.0643C328.404 13.9388 302.387 15.2869 275.153 24.1086C254.515 30.8135 235.472 39.6825 220.011 54.6534C204.077 70.0972 192.245 85.9313 184.515 102.156C169.172 134.368 162.541 166.864 164.621 199.644C165.118 207.685 167.883 214.898 172.919 221.284C173.428 221.937 174.074 222.467 174.811 222.836C175.547 223.204 176.355 223.401 177.174 223.412L193.132 223.554C195.141 223.578 196.039 222.585 195.827 220.574L193.876 202.162C193.735 200.696 194.054 199.324 194.834 198.047C196.678 195.067 199.456 192.915 203.167 191.59C204.633 191.094 205.638 190.112 206.181 188.646C210.98 175.449 217.068 165.457 224.444 158.669C234.136 149.729 237.257 151.621 233.805 164.345C232.151 170.447 230.732 177.554 229.55 185.666C229.507 185.957 229.538 186.254 229.641 186.53C229.744 186.805 229.915 187.05 230.138 187.241C230.361 187.433 230.629 187.564 230.917 187.624C231.205 187.683 231.503 187.669 231.784 187.582C255.33 180.274 279.444 174.929 304.125 171.547C304.621 171.476 305.07 171.214 305.375 170.816C305.68 170.418 305.817 169.916 305.756 169.418C302.824 145.2 306.654 121.348 317.245 97.8631C322.281 86.7236 330.614 77.8901 336.536 67.2119C338.593 63.5578 341.891 62.4936 344.479 59.4072C345.425 58.2956 346.654 57.6097 348.167 57.3496C349.302 57.1604 350.318 57.3614 351.217 57.9526C352.233 58.6385 352.671 59.5845 352.529 60.7907C349.006 90.827 348.971 123.619 352.422 159.165C352.824 163.517 353.77 167.668 355.259 171.618C355.992 173.557 357.387 174.562 359.444 174.633L370.224 175.094C372.115 175.189 372.777 174.337 372.21 172.54C361.784 138.885 359.893 105.207 366.536 71.5045C366.985 69.1867 367.86 66.9517 369.16 64.7995C369.729 63.8743 370.637 63.2096 371.687 62.9504C372.736 62.6912 373.842 62.8586 374.763 63.4159C378.545 65.6864 382.222 68.2998 385.791 71.2561C389.054 73.9286 391.205 77.0151 392.245 80.5153ZM375.011 81.2603C371.229 89.9165 369.55 98.8682 369.976 108.116C368.699 115.637 368.262 121.005 368.664 124.222C370.295 136.875 373.865 154.069 379.373 175.804C380.413 179.919 378.805 181.799 374.55 181.444L355.791 179.848C351.583 179.47 349.089 177.211 348.309 173.072C342.245 140.576 342.919 111.025 343.983 76.6485C344.054 73.9286 343.486 73.7867 342.281 76.2228L337.422 85.9432C337.258 86.2488 337.055 86.5238 336.82 86.7591C331.784 91.9386 327.139 95.4152 324.302 102.546C317.895 118.557 314.16 135.751 313.096 154.128C312.671 161.341 312.682 168.46 313.132 175.484C313.226 177.235 312.399 178.169 310.649 178.287C295.543 179.422 280.496 182.272 265.508 186.837C254.763 190.136 243.344 190.278 232.635 195.067C231.453 195.587 230.248 195.682 229.018 195.351C220.188 192.903 222.529 183.112 223.841 176.336C225.259 169.004 224.113 168.578 220.401 175.059C217.068 180.9 214.385 187.31 212.352 194.287C211.95 195.611 211.099 196.486 209.798 196.912L202.954 199.076C202.379 199.259 201.882 199.633 201.547 200.136C201.212 200.639 201.058 201.241 201.11 201.843L203.203 225.328C203.439 228.095 204.704 228.698 206.997 227.137C233.545 209.352 263.463 204.184 296.749 211.634C304.456 213.361 311.276 217.382 317.21 223.696C318.061 224.619 319.042 224.761 320.153 224.122C331.571 217.523 342.387 220.787 354.94 220.858C356.122 220.882 357.08 220.432 357.813 219.51C363.959 211.8 371.82 206.822 381.394 204.575C410.117 197.858 437.174 201.441 462.564 215.324C464.432 216.341 465.389 215.785 465.437 213.657L465.72 196.912C465.744 194.783 464.775 193.317 462.813 192.513C449.834 187.227 435.898 178.784 421.465 178.464C420.719 178.445 420.003 178.17 419.435 177.686C418.867 177.202 418.482 176.537 418.344 175.804C413.144 150.166 404.987 124.919 393.876 100.063C389.928 91.1463 384.266 82.5138 376.891 74.1652C375.969 73.1009 375.259 73.231 374.763 74.5554C373.865 76.8968 373.947 79.1318 375.011 81.2603ZM383.238 283.722C385.248 284.951 387.446 285.732 389.834 286.063C405.555 288.239 420.555 288.393 434.834 286.524C440.827 285.744 445.153 282.444 450.472 280.138C451.82 279.571 452.848 278.648 453.557 277.371C456.713 271.837 462.919 270.95 464.55 263.571C467.6 249.83 467.612 236.255 464.586 222.845C464.278 221.473 463.451 220.598 462.103 220.22C456.146 218.469 450.815 216.424 446.11 214.082C431.394 206.739 416.536 205.852 399.515 207.838C386.323 209.399 375.862 208.938 365.401 219.084C360.909 223.483 358.333 229.23 357.671 236.326C356.37 250.776 358.061 261.715 362.742 269.141C367.245 276.343 375.827 279.181 383.238 283.722ZM220.827 226.925C206.5 229.975 208.593 249.842 209.798 261.62C210.484 268.597 212.907 274.38 217.068 278.968C223.971 286.56 232.21 290.947 241.784 292.129C244.574 292.484 247.292 293.028 249.94 293.761C253.061 294.636 256.441 295.038 260.082 294.967C270.862 294.802 281.406 293.655 291.713 291.526C298.924 290.06 304.94 286.24 309.763 280.067C318.723 268.668 321.548 255.506 318.238 240.583C315.472 228.166 308.321 220.397 296.784 217.275C289.101 215.194 279.515 214.023 268.025 213.763C261.536 213.621 255.614 215.359 249.054 215.501C241.891 215.643 235.448 218.162 229.727 223.058C228.853 223.814 227.836 224.181 226.678 224.157C225.259 224.134 224.054 224.642 223.061 225.683C222.446 226.345 221.701 226.759 220.827 226.925ZM480.508 224.477C478.144 226.463 476.749 229.727 476.323 234.268C475.969 238.289 475.543 241.706 475.047 244.521C474.243 249.014 474.219 253.484 474.976 257.931L473.593 287.872C473.498 290.237 474.456 290.805 476.465 289.575L480.791 286.914C481.697 286.364 482.413 285.547 482.844 284.571C483.275 283.595 483.4 282.506 483.203 281.451L479.55 262.259C481.229 260.154 483.025 261.939 484.94 267.615C486.075 270.95 486.359 274.994 485.791 279.748C485.413 283.059 486.311 283.45 488.486 280.919C491.536 277.395 492.422 273.918 491.146 270.489C486.654 258.333 484.196 249.452 483.77 243.847C487.505 251.32 489.881 257.115 490.898 261.23C492.742 268.751 494.68 268.774 496.713 261.301C499.656 250.552 501.571 230.224 491.217 222.064C488.404 219.865 484.834 220.669 480.508 224.477ZM321.997 231.82L322.458 233.097C322.577 233.385 322.799 233.618 323.082 233.75C323.364 233.881 323.686 233.902 323.983 233.807C333.037 230.732 341.796 230.496 350.259 233.097C351.418 233.452 352.269 233.097 352.813 232.033L353.451 230.72C354.207 229.23 353.758 228.308 352.103 227.953C342.978 226.085 333.404 226.463 323.38 229.089C323.098 229.164 322.835 229.299 322.608 229.482C322.382 229.665 322.197 229.894 322.066 230.152C321.935 230.411 321.861 230.693 321.849 230.981C321.837 231.268 321.888 231.555 321.997 231.82ZM186.749 284.467C189.184 288.676 192.493 292.389 196.678 295.606C202.753 300.289 205.401 298.799 204.621 291.136L201.749 263.358C201.725 263.122 201.642 263.004 201.5 263.004H200.614C200.155 262.994 199.711 263.162 199.374 263.473C199.037 263.783 198.833 264.213 198.805 264.671C198.569 267.911 197.292 270.572 194.976 272.653C193.935 273.575 193.179 273.386 192.706 272.085C192.233 270.761 192.091 268.987 192.281 266.764L196.926 240.476C197.824 235.391 195.779 232.163 190.791 230.791C189.136 230.342 187.505 230.117 185.898 230.117C178.853 230.141 174.68 233.618 173.38 240.547C170.425 256.275 174.881 270.915 186.749 284.467ZM351.36 238.169C351.354 237.915 351.247 237.674 351.063 237.499C350.88 237.324 350.634 237.229 350.38 237.235L325.848 237.834C325.594 237.841 325.353 237.948 325.178 238.131C325.003 238.315 324.908 238.561 324.914 238.815L325.329 255.768C325.335 256.022 325.442 256.263 325.625 256.438C325.809 256.613 326.055 256.708 326.309 256.702L350.841 256.102C351.095 256.096 351.336 255.989 351.511 255.805C351.686 255.621 351.781 255.375 351.775 255.121L351.36 238.169ZM284.657 299.969L253.096 301.211L223.167 292.697C222.25 292.435 221.287 292.374 220.343 292.518C219.399 292.662 218.497 293.008 217.697 293.533C216.897 294.058 216.218 294.749 215.705 295.559C215.193 296.37 214.86 297.281 214.727 298.231C214.515 299.768 214.574 301.329 214.905 302.914C217.789 317.601 221.418 331.271 225.791 343.924C231.678 361.024 251.465 376.633 266.288 383.728C298.876 399.373 330.933 411.577 366.82 401.714C393.014 394.525 412.907 384.367 426.5 371.241C440.153 358.008 452.422 345.84 456.642 326.364C459.006 315.461 461.193 304.357 463.203 293.052C463.675 290.379 462.588 288.724 459.94 288.085C454.834 286.843 451.04 286.098 445.827 288.121C437.458 291.337 428.723 293.182 419.621 293.655L379.834 289.149C368.297 284.916 360.129 277.277 355.33 266.232C354.992 265.46 354.436 264.804 353.731 264.344C353.025 263.884 352.201 263.64 351.359 263.642L326.891 263.607C325.259 263.583 324.207 264.352 323.735 265.913C318.108 284.668 305.082 296.02 284.657 299.969ZM466.997 280.777C467.612 278.767 467.824 276.804 467.635 274.888C467.493 273.185 466.619 272.606 465.011 273.15C462.86 273.906 461.122 275.337 459.798 277.442C459.065 278.578 459.172 279.654 460.118 280.671C460.969 281.569 461.973 282.243 463.132 282.693C465.117 283.45 466.406 282.811 466.997 280.777ZM216.075 285.744C215.082 283.615 213.628 282.019 211.713 280.954C210.389 280.221 209.645 280.611 209.479 282.125C209.219 284.656 209.716 286.938 210.969 288.972C211.158 289.284 211.415 289.548 211.721 289.746C212.027 289.944 212.374 290.07 212.736 290.114C213.098 290.159 213.465 290.121 213.81 290.003C214.155 289.885 214.469 289.69 214.727 289.433L215.543 288.617C215.916 288.242 216.167 287.765 216.262 287.251C216.358 286.738 216.292 286.211 216.075 285.744ZM449.266 360.03C446.831 384.485 447.139 410.903 450.188 439.283C449.006 449.595 457.115 454.254 474.515 453.261C484.018 452.729 489.55 455.106 492.245 464.152C493.025 466.706 494.633 467.451 497.068 466.387L498.061 465.926C499.219 465.429 499.633 464.578 499.302 463.372C494.716 446.674 490.98 431.668 488.096 418.353C481.571 388.269 478.226 351.823 478.061 309.016C478.061 305.823 478.297 302.394 478.77 298.728C479.125 296.174 478.155 295.488 475.862 296.67L474.373 297.451C473.421 297.948 472.615 298.68 472.031 299.575C471.447 300.47 471.105 301.498 471.04 302.559C470.827 305.634 470.259 308.531 469.337 311.251C466.193 320.64 462.647 330.42 458.699 340.589C457.422 343.901 455.85 347.164 453.983 350.381C452.21 353.384 450.638 356.601 449.266 360.03ZM222.954 453.509C228.463 425.744 230.626 397.233 229.444 367.977C223.463 357.381 218.794 346.49 215.437 335.304C213.002 327.144 210.898 319.67 209.125 312.883C207.706 307.348 206.43 307.384 205.295 312.989C204.255 318.169 204.834 322.911 207.032 327.215C207.694 328.516 207.564 329.722 206.642 330.834C205.295 332.442 204.574 334.227 204.479 336.19C203.321 360.149 202.103 384.118 200.827 408.1C199.515 432.508 195.969 451.913 189.763 474.369C189.681 474.668 189.683 474.984 189.767 475.282C189.852 475.58 190.016 475.849 190.242 476.061C190.468 476.273 190.748 476.419 191.051 476.483C191.354 476.548 191.669 476.528 191.961 476.427C205.035 471.98 215.366 464.341 222.954 453.509ZM421.004 433.927C422.21 436.197 423.947 438.538 426.5 439.39C431.276 440.998 435.957 442.973 440.543 445.314C440.703 445.388 440.88 445.419 441.055 445.402C441.23 445.385 441.397 445.322 441.536 445.219C441.676 445.116 441.783 444.978 441.845 444.82C441.908 444.661 441.923 444.489 441.891 444.321C438.935 429.161 438.025 413.824 439.16 398.309C439.763 389.724 439.692 380.997 439.515 372.411C439.467 369.148 438.392 368.769 436.288 371.276C427.139 382.25 415.188 391.769 400.437 399.834C396.891 401.774 393.262 403.015 389.55 403.559C388.534 403.725 387.907 404.304 387.671 405.298C387.529 405.983 387.647 406.61 388.025 407.178C388.522 407.911 389.195 408.372 390.047 408.561C403.356 411.541 413.675 419.996 421.004 433.927ZM262.883 390.007C254.775 385.277 247.245 380.24 240.295 374.895C240.089 374.73 239.841 374.625 239.58 374.593C239.318 374.561 239.053 374.603 238.813 374.713C238.574 374.824 238.37 374.999 238.225 375.219C238.079 375.439 237.998 375.695 237.99 375.959L235.508 428.534C235.366 431.822 236.406 432.247 238.628 429.811C247.103 420.517 259.834 411.222 272.564 409.484C277.056 408.869 281.512 407.864 285.933 406.468C286.354 406.339 286.73 406.095 287.018 405.762C287.306 405.429 287.495 405.022 287.565 404.584C287.635 404.147 287.582 403.696 287.413 403.284C287.244 402.871 286.965 402.512 286.607 402.247C279.408 396.925 270.756 394.619 262.883 390.007ZM380.259 431.656L380.969 406.929C380.975 406.762 380.941 406.596 380.871 406.444C380.801 406.292 380.696 406.159 380.565 406.055C380.433 405.952 380.28 405.88 380.116 405.847C379.952 405.814 379.782 405.82 379.621 405.865C366.288 409.2 352.742 413.351 338.947 412.854C325.165 412.357 310.827 409.354 295.933 403.843C295.561 403.705 295.159 403.67 294.769 403.742C294.379 403.814 294.016 403.99 293.717 404.252C293.419 404.514 293.198 404.852 293.076 405.229C292.954 405.607 292.937 406.011 293.025 406.397C295.011 415.101 295.898 423.851 295.685 432.65C295.675 433.008 295.576 433.359 295.395 433.668C295.214 433.978 294.957 434.237 294.65 434.421C294.342 434.605 293.992 434.708 293.634 434.721C293.276 434.734 292.92 434.656 292.6 434.494C290.945 433.619 289.444 432.508 288.096 431.16C286.961 429.977 286.051 430.131 285.366 431.621C284.326 433.867 285.224 436.138 288.061 438.432C288.673 438.926 289.341 439.332 290.047 439.638C298.77 443.446 304.928 449.938 308.522 459.115C311.11 465.713 317.529 467.132 323.77 465.145C334.999 461.551 345.791 460.817 356.146 462.946C360.827 463.916 364.893 462.662 368.344 459.185C374.042 453.462 380.779 449.631 388.557 447.691C389.905 447.36 390.969 446.615 391.749 445.456C396.808 437.746 396.158 431.763 389.798 427.506C389.711 427.445 389.611 427.406 389.506 427.391C389.401 427.377 389.294 427.387 389.194 427.422C389.094 427.456 389.003 427.514 388.93 427.59C388.856 427.666 388.801 427.759 388.77 427.86C387.612 431.904 385.768 434.08 383.238 434.388C382.857 434.434 382.47 434.397 382.105 434.28C381.739 434.163 381.403 433.967 381.12 433.708C380.837 433.448 380.614 433.131 380.465 432.776C380.317 432.422 380.246 432.04 380.259 431.656ZM215.153 483.699C209.089 496.222 200.898 507.858 193.735 520.169C193.436 520.683 193.313 521.282 193.383 521.876C193.453 522.47 193.713 523.028 194.125 523.468C202.612 532.361 213.344 537.942 226.323 540.213C237.493 542.199 238.983 527.76 240.472 520.665C243.274 507.149 249.196 497.216 249.266 483.167C249.408 455.035 259.479 431.585 285.047 417.572C287.482 416.248 287.328 415.444 284.586 415.16C248.451 411.293 228.203 456.809 215.153 483.699ZM392.848 418.885C408.805 429.031 403.876 451.558 393.77 464.223C385.779 474.227 377.883 483.96 370.082 493.42C367.363 496.731 368.108 497.961 372.316 497.109C381.583 495.217 391.902 495.276 403.274 497.287C407.281 497.961 409.869 499.912 413.344 501.757C415.07 502.679 416.004 502.171 416.146 500.231C417.753 478.946 417.966 461.018 416.784 446.45C415.673 432.969 408.084 422.787 394.018 415.905C393.522 415.668 393.144 415.787 392.883 416.26L392.387 417.076C391.961 417.809 392.115 418.412 392.848 418.885ZM271.288 435.097L258.167 456.347C258.114 456.442 258.099 456.554 258.125 456.659C258.152 456.765 258.217 456.856 258.309 456.915L258.38 456.986C259.718 457.808 261.691 457.478 263.865 456.068C266.04 454.657 268.237 452.282 269.976 449.465L270.437 448.756C271.301 447.358 272.027 445.892 272.572 444.443C273.117 442.994 273.47 441.59 273.612 440.311C273.754 439.032 273.681 437.904 273.398 436.991C273.114 436.078 272.626 435.398 271.961 434.991L271.855 434.955C271.76 434.902 271.649 434.887 271.543 434.913C271.438 434.94 271.346 435.006 271.288 435.097ZM426.5 447.869C426.321 447.811 426.129 447.798 425.943 447.831C425.757 447.863 425.582 447.94 425.432 448.055C425.282 448.17 425.162 448.32 425.083 448.491C425.004 448.663 424.967 448.851 424.976 449.039L425.72 465.926C425.728 466.161 425.807 466.389 425.946 466.579C426.085 466.768 426.279 466.912 426.5 466.99L464.302 480.826C464.467 480.886 464.644 480.908 464.819 480.89C464.994 480.872 465.163 480.815 465.313 480.723C465.463 480.631 465.59 480.506 465.685 480.358C465.78 480.21 465.841 480.043 465.862 479.868L468.132 461.527C468.167 461.247 468.101 460.964 467.945 460.729C467.788 460.495 467.552 460.324 467.281 460.25L426.5 447.869ZM490.791 658.525C486.5 621.381 482.99 583.28 483.593 545.889C484.042 516.184 484.727 489.364 485.649 465.429C485.839 460.51 483.321 458.098 478.096 458.192C475.023 458.239 473.321 459.789 472.99 462.84C470.862 481.689 470.035 501.023 470.508 520.843C471.524 564.194 473.392 603.182 476.11 637.807C476.654 644.689 477.635 651.631 479.054 658.631C479.621 661.517 481.382 663.054 484.337 663.243L486.252 663.35C489.68 663.562 491.193 661.954 490.791 658.525ZM495.224 496.755C504.68 502.265 512.647 509.017 519.125 517.011C521.3 519.684 523.013 519.412 524.266 516.195L528.096 506.475C529.065 504.063 528.723 501.863 527.068 499.876C517.328 488.122 506.867 478.898 495.685 472.205C492.943 470.573 491.583 471.354 491.607 474.547L491.713 490.724C491.737 493.42 492.907 495.43 495.224 496.755ZM492.281 571.68C492.919 573.051 492.824 573.465 491.997 572.921C490.153 590.801 490.992 608.066 494.515 624.716C494.869 626.395 495.153 626.384 495.366 624.681C496.902 612.241 498.321 599.363 499.621 586.047C500.188 580.371 501.926 574.624 503.734 569.267C504.255 567.706 503.711 566.76 502.103 566.429L497.387 565.507C497.144 565.447 496.931 565.3 496.793 565.096C496.655 564.892 496.601 564.646 496.642 564.407L496.855 563.165C496.898 562.916 497.02 562.686 497.205 562.508C497.389 562.33 497.627 562.212 497.883 562.172L503.983 561.321C505.07 561.155 505.815 560.564 506.217 559.547L520.259 523.184C520.709 522.002 520.448 521.02 519.479 520.24C510.72 513.215 502.813 504.666 492.422 500.089C491.051 499.498 490.366 499.936 490.366 501.402L490.082 568.558C490.082 569.551 490.484 570.343 491.288 570.935L492.281 571.68ZM357.068 520.985L368.628 504.63C368.698 504.531 368.726 504.409 368.706 504.289C368.686 504.17 368.62 504.063 368.522 503.992L368.415 503.956C367.431 503.268 365.894 503.45 364.139 504.46C362.385 505.471 360.556 507.228 359.054 509.348L358.309 510.377C356.805 512.501 355.751 514.815 355.379 516.81C355.006 518.805 355.346 520.319 356.323 521.02L356.43 521.091C356.529 521.161 356.651 521.189 356.771 521.169C356.89 521.149 356.997 521.083 357.068 520.985ZM249.834 556.815C247.529 551.529 244.621 545.889 241.252 541.064C240.354 539.763 239.42 539.74 238.451 540.993C237.009 542.861 236.879 544.777 238.061 546.74C240.638 550.974 244.065 554.722 248.344 557.986C250.33 559.5 250.827 559.109 249.834 556.815ZM462.174 612.016C453.687 617.006 447.529 619.3 443.699 618.898C431.004 617.526 418.214 616.107 405.33 614.641L395.72 610.632C394.326 610.041 393.664 610.514 393.735 612.051C394.326 627.826 395.909 643.211 398.486 658.206C399.172 662.226 401.465 664.698 405.366 665.62C426.43 670.492 448.214 669.782 470.72 663.491C472.044 663.113 472.635 662.25 472.493 660.902L467.777 612.193C467.659 610.987 466.997 610.384 465.791 610.384C464.751 610.384 463.545 610.928 462.174 612.016Z" fill="#030202"/>
<path d="M385.791 71.2561C382.221 68.2997 378.545 65.6863 374.762 63.4159C373.841 62.8585 372.736 62.6912 371.686 62.9503C370.637 63.2095 369.728 63.8742 369.16 64.7994C367.859 66.9516 366.985 69.1866 366.536 71.5044C359.893 105.207 361.784 138.885 372.209 172.54C372.777 174.337 372.115 175.189 370.223 175.094L359.443 174.633C357.387 174.562 355.992 173.557 355.259 171.618C353.77 167.668 352.824 163.517 352.422 159.165C348.971 123.619 349.006 90.827 352.528 60.7907C352.67 59.5845 352.233 58.6385 351.216 57.9526C350.318 57.3613 349.301 57.1603 348.167 57.3495C346.654 57.6097 345.424 58.2955 344.479 59.4071C341.89 62.4935 338.592 63.5578 336.536 67.2118C330.614 77.8901 322.28 86.7236 317.245 97.863C306.654 121.348 302.824 145.2 305.755 169.418C305.816 169.916 305.679 170.418 305.374 170.816C305.069 171.213 304.62 171.476 304.124 171.547C279.443 174.929 255.33 180.274 231.784 187.582C231.503 187.669 231.205 187.683 230.917 187.624C230.629 187.564 230.361 187.433 230.138 187.241C229.914 187.05 229.743 186.805 229.641 186.53C229.538 186.254 229.506 185.957 229.55 185.666C230.732 177.554 232.15 170.447 233.805 164.345C237.257 151.621 234.136 149.729 224.443 158.669C217.067 165.457 210.98 175.449 206.181 188.646C205.637 190.112 204.632 191.094 203.167 191.59C199.455 192.915 196.677 195.067 194.833 198.047C194.053 199.324 193.734 200.696 193.876 202.162L195.826 220.574C196.039 222.585 195.141 223.578 193.131 223.554L177.174 223.412C176.355 223.401 175.547 223.204 174.81 222.836C174.074 222.467 173.427 221.937 172.919 221.284C167.883 214.898 165.117 207.685 164.621 199.644C162.54 166.864 169.171 134.368 184.514 102.156C192.245 85.9313 204.077 70.0972 220.011 54.6533C235.472 39.6825 254.514 30.8135 275.153 24.1085C302.387 15.2868 328.403 13.9388 353.202 20.0643C358.781 21.436 364.018 21.8617 368.911 21.3414C382.245 19.9578 397.741 18.6807 410.401 24.0021C436.335 34.9287 457.056 50.5736 472.564 70.9368C482.635 84.1811 492.221 100.843 501.323 120.922C515.507 152.236 515.531 183.62 501.394 215.076C501.181 215.55 500.871 215.975 500.483 216.322C500.095 216.668 499.639 216.929 499.143 217.086C498.648 217.244 498.124 217.294 497.608 217.235C497.091 217.176 496.593 217.008 496.145 216.743C491.252 213.834 486.134 213.515 480.791 215.785C478.096 216.92 476.571 216.045 476.216 213.16L473.876 195.28C473.71 194.026 473.096 193.045 472.032 192.335C457.233 182.591 442.564 175.946 428.025 172.398C425.093 171.665 423.297 169.82 422.635 166.864C420.034 155.464 417.079 143.875 413.77 132.097C410.058 118.948 404.372 105.337 396.713 91.2645C394.869 87.8825 393.38 84.2994 392.245 80.5153C391.205 77.015 389.053 73.9286 385.791 71.2561ZM216.713 86.6881C227.848 71.3861 240.495 59.1824 254.656 50.0769C262.978 44.7082 274.03 39.8125 287.812 35.3899C287.99 35.3328 288.139 35.2076 288.225 35.0414C288.312 34.8753 288.329 34.6818 288.273 34.503L287.954 33.5097C287.647 32.5636 287.02 32.2207 286.075 32.4809C271.394 36.5961 258.982 42.3077 248.841 49.6157C228.06 64.5156 212.257 83.0932 201.429 105.348C201.337 105.537 201.291 105.745 201.296 105.955C201.301 106.165 201.356 106.371 201.457 106.555C201.558 106.739 201.701 106.896 201.875 107.014C202.049 107.131 202.249 107.205 202.458 107.229L203.628 107.371C203.911 107.394 204.112 107.288 204.231 107.051C207.942 99.7906 212.103 93.0028 216.713 86.6881ZM431.996 101.269C423.699 76.5302 409.006 57.9644 387.919 45.5715C387.233 45.1458 386.796 45.335 386.606 46.1391L386.323 47.3807C385.921 49.1072 386.453 50.479 387.919 51.496C405.507 63.747 417.883 78.7415 425.046 96.4795C425.933 98.679 428.379 101.127 430.33 102.51C432.15 103.787 432.706 103.374 431.996 101.269ZM226.748 108.577C222.257 117.422 218.119 126.386 214.337 135.468C214.264 135.641 214.229 135.829 214.233 136.017C214.237 136.205 214.281 136.391 214.361 136.561C214.441 136.732 214.556 136.883 214.699 137.007C214.841 137.13 215.008 137.222 215.188 137.277L216.11 137.561C216.746 137.754 217.431 137.705 218.033 137.423C218.635 137.141 219.112 136.647 219.372 136.035C232.138 105.881 251.181 74.3425 276.536 55.7885C277.93 54.7716 278.108 53.5772 277.067 52.2055L276.536 51.4605C276.3 51.1494 275.949 50.9454 275.557 50.8923C275.166 50.8392 274.766 50.9413 274.443 51.1767C254.562 65.8637 238.663 84.9971 226.748 108.577ZM458.344 86.5817C452.741 75.6314 444.065 67.2946 432.316 61.5711C431.937 61.3819 431.725 61.5002 431.677 61.9259L431.571 63.4868C431.5 64.0544 431.701 64.5038 432.174 64.8349C441.37 71.7646 448.155 79.0726 452.528 86.7591C462.008 103.362 468.982 123.938 473.45 148.487C473.489 148.73 473.599 148.955 473.768 149.133C473.936 149.311 474.156 149.434 474.398 149.487C474.641 149.54 474.896 149.521 475.131 149.431C475.366 149.342 475.571 149.186 475.72 148.984L476.606 147.742C477.434 146.583 477.706 145.306 477.422 143.911C472.741 121.443 466.382 102.333 458.344 86.5817ZM224.069 96.2652C224.176 96.09 224.247 95.8956 224.278 95.693C224.309 95.4904 224.301 95.2836 224.252 95.0844C224.203 94.8853 224.116 94.6976 223.995 94.5322C223.874 94.3667 223.722 94.2268 223.547 94.1203L223.425 94.0469C223.072 93.8318 222.647 93.7661 222.245 93.8641C221.843 93.9621 221.497 94.2158 221.282 94.5694L210.633 112.09C210.527 112.265 210.456 112.46 210.424 112.662C210.393 112.865 210.402 113.072 210.45 113.271C210.499 113.47 210.586 113.658 210.707 113.823C210.828 113.989 210.981 114.129 211.156 114.235L211.277 114.309C211.631 114.524 212.055 114.589 212.457 114.491C212.859 114.393 213.206 114.14 213.421 113.786L224.069 96.2652ZM271.784 151.609C277.458 130.856 286.11 113.331 298.592 95.3087C298.794 95.0277 298.874 94.6763 298.814 94.3308C298.754 93.9854 298.56 93.6739 298.273 93.464L297.458 92.8964C297.032 92.5653 296.666 92.6126 296.358 93.0383C283.71 109.546 274.432 127.71 268.521 147.529C268.072 148.972 268.167 150.403 268.805 151.822C270.011 154.542 271.004 154.471 271.784 151.609ZM445.933 122.59L456.748 143.272C456.778 143.331 456.819 143.383 456.87 143.425C456.92 143.468 456.978 143.5 457.041 143.52C457.103 143.539 457.169 143.546 457.235 143.541C457.3 143.535 457.364 143.516 457.422 143.485L457.706 143.308C458.806 142.721 459.289 141.067 459.05 138.707C458.81 136.347 457.868 133.473 456.429 130.714L456.075 130.004C455.356 128.631 454.537 127.329 453.663 126.171C452.789 125.014 451.878 124.025 450.981 123.26C450.085 122.496 449.222 121.971 448.441 121.716C447.66 121.461 446.976 121.48 446.429 121.774L446.145 121.916C446.087 121.946 446.035 121.987 445.993 122.037C445.95 122.087 445.918 122.146 445.898 122.208C445.878 122.271 445.871 122.337 445.877 122.402C445.883 122.468 445.902 122.532 445.933 122.59ZM259.727 146.004L267.493 125.605C267.504 125.582 267.511 125.557 267.511 125.531C267.512 125.506 267.507 125.48 267.497 125.456C267.487 125.433 267.472 125.412 267.453 125.395C267.434 125.377 267.411 125.364 267.387 125.357L267.245 125.321C266.367 124.984 265.344 125.134 264.4 125.739C263.455 126.345 262.668 127.356 262.209 128.55L257.706 140.292C257.256 141.484 257.172 142.757 257.47 143.834C257.769 144.91 258.428 145.703 259.301 146.039L259.479 146.11C259.502 146.122 259.527 146.128 259.553 146.129C259.578 146.129 259.604 146.125 259.627 146.114C259.651 146.104 259.672 146.089 259.689 146.07C259.707 146.051 259.719 146.028 259.727 146.004ZM442.838 132.003C442.626 131.36 442.166 130.828 441.562 130.523C440.957 130.219 440.256 130.167 439.613 130.38L439.478 130.424C439.16 130.53 438.865 130.697 438.611 130.916C438.358 131.135 438.149 131.402 437.999 131.702C437.848 132.001 437.758 132.328 437.733 132.662C437.709 132.997 437.75 133.333 437.856 133.651L446.474 159.721C446.686 160.364 447.146 160.896 447.751 161.201C448.355 161.505 449.056 161.557 449.699 161.344L449.834 161.3C450.152 161.194 450.447 161.027 450.701 160.808C450.955 160.589 451.163 160.322 451.313 160.022C451.464 159.723 451.554 159.396 451.579 159.062C451.603 158.727 451.562 158.391 451.456 158.072L442.838 132.003ZM244.754 176.206C245.133 176.285 245.575 176.037 246.057 175.477C246.539 174.916 247.051 174.054 247.563 172.939C248.075 171.825 248.577 170.479 249.041 168.98C249.505 167.481 249.922 165.857 250.268 164.202C250.613 162.547 250.881 160.892 251.056 159.332C251.23 157.772 251.308 156.338 251.285 155.112C251.262 153.885 251.138 152.891 250.921 152.184C250.704 151.478 250.397 151.073 250.019 150.994C249.641 150.915 249.198 151.163 248.716 151.723C248.234 152.284 247.723 153.146 247.211 154.261C246.699 155.375 246.196 156.721 245.732 158.22C245.268 159.719 244.851 161.342 244.505 162.998C244.16 164.653 243.892 166.308 243.717 167.868C243.543 169.428 243.465 170.862 243.488 172.088C243.511 173.315 243.635 174.309 243.852 175.016C244.069 175.722 244.376 176.127 244.754 176.206Z" fill="#56473E"/>
<path d="M216.713 86.6879C212.103 93.0026 207.942 99.7903 204.231 107.051C204.112 107.288 203.911 107.394 203.628 107.37L202.457 107.228C202.249 107.204 202.049 107.131 201.875 107.013C201.701 106.896 201.558 106.739 201.457 106.555C201.356 106.37 201.301 106.165 201.296 105.955C201.291 105.745 201.337 105.537 201.429 105.348C212.257 83.093 228.06 64.5154 248.84 49.6155C258.982 42.3075 271.394 36.5959 286.075 32.4807C287.02 32.2205 287.647 32.5634 287.954 33.5095L288.273 34.5028C288.329 34.6816 288.312 34.8751 288.225 35.0412C288.139 35.2074 287.99 35.3326 287.812 35.3897C274.03 39.8123 262.978 44.708 254.656 50.0767C240.495 59.1822 227.848 71.3859 216.713 86.6879Z" fill="#030202"/>
<path d="M431.997 101.269C432.706 103.374 432.15 103.788 430.33 102.511C428.38 101.127 425.933 98.6791 425.046 96.4796C417.883 78.7416 405.507 63.7471 387.919 51.4961C386.453 50.4791 385.921 49.1074 386.323 47.3809L386.607 46.1392C386.796 45.3351 387.233 45.1459 387.919 45.5716C409.006 57.9646 423.699 76.5303 431.997 101.269Z" fill="#8C7970"/>
<path d="M226.748 108.577C238.663 84.9969 254.561 65.8636 274.443 51.1766C274.766 50.9412 275.166 50.8391 275.557 50.8921C275.948 50.9452 276.299 51.1492 276.535 51.4603L277.067 52.2053C278.107 53.5771 277.93 54.7714 276.535 55.7884C251.181 74.3423 232.138 105.88 219.372 136.035C219.112 136.647 218.635 137.141 218.033 137.423C217.431 137.704 216.746 137.753 216.11 137.56L215.188 137.277C215.007 137.222 214.841 137.13 214.698 137.006C214.556 136.883 214.441 136.731 214.361 136.561C214.281 136.39 214.237 136.205 214.233 136.017C214.229 135.828 214.264 135.641 214.337 135.467C218.119 126.386 222.256 117.422 226.748 108.577Z" fill="#8C7970"/>
<path d="M458.344 86.5818C466.381 102.333 472.741 121.443 477.422 143.911C477.705 145.306 477.433 146.583 476.606 147.742L475.719 148.984C475.571 149.186 475.366 149.342 475.131 149.431C474.896 149.521 474.641 149.541 474.398 149.487C474.155 149.434 473.936 149.311 473.767 149.133C473.598 148.955 473.488 148.73 473.45 148.487C468.982 123.938 462.008 103.362 452.528 86.7591C448.154 79.0727 441.37 71.7646 432.173 64.835C431.701 64.5039 431.5 64.0545 431.571 63.4869L431.677 61.926C431.724 61.5003 431.937 61.382 432.315 61.5712C444.065 67.2947 452.741 75.6315 458.344 86.5818Z" fill="#030202"/>
<path d="M369.975 108.115C371.724 113.082 372.634 118.427 372.705 124.151C372.8 131.08 373.344 136.378 374.337 140.044C376.582 148.156 379.467 156.907 382.989 166.296C384.739 170.955 387.162 174.101 390.259 175.733C393.19 177.317 393.876 176.631 392.315 173.675C385.743 161.258 381.322 149.126 379.053 137.277C377.682 130.04 376.807 120.709 376.429 109.286C376.121 100.086 375.649 90.744 375.01 81.2601C373.947 79.1315 373.864 76.8965 374.762 74.5551C375.259 73.2307 375.968 73.1006 376.89 74.1649C384.266 82.5136 389.928 91.146 393.876 100.062C404.987 124.919 413.143 150.166 418.344 175.803C418.481 176.537 418.866 177.201 419.434 177.686C420.002 178.17 420.718 178.445 421.464 178.464C435.897 178.783 449.833 187.227 462.812 192.513C464.774 193.317 465.743 194.783 465.72 196.912L465.436 213.656C465.389 215.785 464.431 216.341 462.564 215.324C437.174 201.441 410.117 197.858 381.393 204.574C371.819 206.821 363.958 211.8 357.812 219.51C357.079 220.432 356.122 220.882 354.939 220.858C342.386 220.787 331.571 217.523 320.152 224.122C319.041 224.76 318.06 224.618 317.209 223.696C311.275 217.381 304.455 213.361 296.748 211.634C263.462 204.184 233.545 209.352 206.996 227.137C204.703 228.698 203.438 228.095 203.202 225.328L201.11 201.843C201.057 201.241 201.211 200.638 201.546 200.136C201.881 199.633 202.378 199.259 202.954 199.076L209.798 196.912C211.098 196.486 211.949 195.611 212.351 194.286C214.384 187.31 217.067 180.9 220.4 175.058C224.112 168.578 225.259 169.004 223.84 176.336C222.528 183.112 220.188 192.903 229.017 195.351C230.247 195.682 231.452 195.587 232.635 195.067C243.344 190.278 254.762 190.136 265.507 186.836C280.495 182.272 295.542 179.422 310.649 178.287C312.398 178.169 313.225 177.234 313.131 175.484C312.682 168.46 312.67 161.341 313.095 154.128C314.159 135.751 317.895 118.557 324.301 102.546C327.138 95.415 331.783 91.9383 336.819 86.7589C337.054 86.5235 337.257 86.2486 337.422 85.9429L342.28 76.2225C343.486 73.7865 344.053 73.9284 343.982 76.6482C342.918 111.024 342.244 140.576 348.308 173.072C349.088 177.211 351.583 179.469 355.791 179.848L374.549 181.444C378.805 181.799 380.412 179.919 379.372 175.803C373.864 154.069 370.294 136.875 368.663 124.221C368.261 121.005 368.698 115.636 369.975 108.115ZM444.408 204.042C445.164 204.705 446.039 204.977 447.032 204.858C447.704 204.793 448.34 204.523 448.854 204.084C449.368 203.646 449.735 203.06 449.905 202.406C450.075 201.752 450.04 201.061 449.806 200.428C449.571 199.794 449.147 199.248 448.592 198.863C442.138 194.393 434.691 191.507 426.252 190.207C408.923 187.534 393.296 189.509 379.372 196.131C379.196 196.217 379.042 196.34 378.92 196.493C378.799 196.646 378.712 196.824 378.668 197.015C378.624 197.205 378.623 197.403 378.665 197.594C378.707 197.785 378.791 197.964 378.911 198.118L379.62 198.969C380.233 199.708 381.045 200.253 381.959 200.537C382.872 200.82 383.846 200.83 384.762 200.566C404.644 194.96 423.131 195.292 440.223 201.559C441.783 202.127 443.178 202.954 444.408 204.042ZM227.28 198.685C222.41 199.395 218.722 201.5 216.216 205C213.403 208.903 214.384 210.475 219.159 209.718C228.415 208.228 236.713 204.149 246.039 202.801C259.159 200.885 272.15 201.051 285.01 203.297C286.618 203.581 288.048 203.392 289.301 202.73C289.698 202.528 290.033 202.222 290.268 201.845C290.504 201.467 290.633 201.032 290.64 200.587C290.648 200.142 290.533 199.703 290.31 199.318C290.086 198.933 289.762 198.616 289.372 198.402C282.705 194.689 275.672 192.749 268.273 192.584C255.909 192.323 245.59 193.565 237.315 196.309C234.124 197.373 230.779 198.165 227.28 198.685Z" fill="#FCDDCF"/>
<path d="M375.01 81.2603C375.648 90.7442 376.121 100.086 376.429 109.286C376.807 120.71 377.682 130.04 379.053 137.277C381.322 149.126 385.743 161.259 392.315 173.675C393.875 176.631 393.19 177.317 390.258 175.733C387.161 174.101 384.738 170.955 382.989 166.296C379.466 156.907 376.582 148.156 374.336 140.044C373.343 136.378 372.8 131.08 372.705 124.151C372.634 118.427 371.724 113.082 369.975 108.116C369.549 98.8681 371.228 89.9164 375.01 81.2603Z" fill="#56473E"/>
<path d="M223.546 94.1205L223.425 94.0468C222.689 93.5989 221.729 93.833 221.281 94.5696L210.633 112.09C210.185 112.827 210.419 113.787 211.156 114.235L211.277 114.309C212.013 114.757 212.973 114.523 213.42 113.786L224.069 96.2652C224.516 95.5286 224.282 94.5684 223.546 94.1205Z" fill="#030202"/>
<path d="M298.592 95.3089C286.11 113.331 277.458 130.856 271.784 151.609C271.004 154.471 270.011 154.542 268.805 151.822C268.167 150.403 268.072 148.972 268.521 147.529C274.432 127.71 283.711 109.547 296.358 93.0384C296.666 92.6127 297.032 92.5654 297.458 92.8965L298.273 93.4641C298.56 93.674 298.754 93.9855 298.814 94.3309C298.874 94.6764 298.794 95.0278 298.592 95.3089Z" fill="#030202"/>
<path d="M445.932 122.59C445.902 122.532 445.883 122.468 445.877 122.403C445.871 122.337 445.878 122.271 445.898 122.208C445.918 122.146 445.95 122.087 445.992 122.037C446.035 121.987 446.087 121.946 446.145 121.916L446.429 121.774C446.976 121.48 447.659 121.461 448.441 121.716C449.222 121.971 450.085 122.496 450.981 123.26C451.877 124.025 452.788 125.014 453.662 126.171C454.536 127.329 455.356 128.631 456.074 130.004L456.429 130.714C457.868 133.474 458.81 136.347 459.049 138.707C459.289 141.067 458.805 142.721 457.705 143.308L457.422 143.485C457.364 143.516 457.3 143.535 457.235 143.541C457.169 143.547 457.103 143.539 457.04 143.52C456.978 143.5 456.92 143.468 456.869 143.425C456.819 143.383 456.778 143.331 456.748 143.272L445.932 122.59Z" fill="#030202"/>
<path d="M259.727 146.004C259.72 146.028 259.707 146.051 259.69 146.07C259.673 146.089 259.651 146.104 259.628 146.114C259.604 146.124 259.579 146.129 259.553 146.129C259.527 146.128 259.502 146.122 259.479 146.11L259.302 146.039C258.428 145.703 257.77 144.91 257.471 143.834C257.172 142.757 257.256 141.484 257.706 140.292L262.21 128.55C262.668 127.355 263.456 126.345 264.4 125.739C265.344 125.134 266.368 124.983 267.245 125.321L267.387 125.357C267.411 125.364 267.434 125.377 267.453 125.394C267.472 125.412 267.487 125.433 267.497 125.456C267.508 125.48 267.512 125.506 267.512 125.531C267.511 125.557 267.505 125.582 267.493 125.605L259.727 146.004Z" fill="#030202"/>
<path d="M439.612 130.38L439.478 130.425C438.139 130.867 437.413 132.312 437.855 133.652L446.473 159.721C446.916 161.061 448.36 161.787 449.699 161.344L449.834 161.3C451.173 160.857 451.899 159.412 451.456 158.073L442.838 132.003C442.395 130.664 440.951 129.937 439.612 130.38Z" fill="#8C7970"/>
<path d="M244.506 162.998C243.052 169.96 243.163 175.873 244.755 176.206C246.346 176.538 248.814 171.164 250.268 164.202C251.722 157.24 251.61 151.327 250.019 150.995C248.428 150.662 245.96 156.036 244.506 162.998Z" fill="#8C7970"/>
<path d="M440.224 201.559C423.131 195.292 404.644 194.961 384.763 200.566C383.847 200.831 382.873 200.821 381.959 200.537C381.046 200.253 380.233 199.709 379.621 198.969L378.912 198.118C378.792 197.964 378.707 197.785 378.665 197.594C378.623 197.403 378.625 197.205 378.669 197.015C378.713 196.824 378.799 196.646 378.921 196.493C379.043 196.341 379.197 196.217 379.373 196.131C393.297 189.509 408.923 187.534 426.252 190.207C434.692 191.508 442.139 194.393 448.592 198.863C449.148 199.248 449.571 199.794 449.806 200.428C450.041 201.061 450.075 201.752 449.905 202.406C449.735 203.06 449.368 203.646 448.854 204.084C448.341 204.523 447.704 204.793 447.032 204.858C446.039 204.977 445.165 204.705 444.408 204.042C443.179 202.955 441.784 202.127 440.224 201.559Z" fill="#030202"/>
<path d="M237.316 196.309C245.59 193.565 255.909 192.323 268.273 192.584C275.673 192.749 282.706 194.689 289.373 198.402C289.763 198.616 290.087 198.933 290.311 199.318C290.534 199.703 290.648 200.142 290.641 200.587C290.634 201.032 290.505 201.467 290.269 201.845C290.033 202.222 289.699 202.528 289.302 202.73C288.049 203.392 286.619 203.581 285.011 203.297C272.151 201.051 259.16 200.885 246.039 202.801C236.713 204.149 228.415 208.228 219.16 209.718C214.385 210.475 213.403 208.903 216.217 205C218.723 201.5 222.411 199.395 227.281 198.685C230.779 198.165 234.125 197.373 237.316 196.309Z" fill="#030202"/>
<path d="M383.237 283.721C375.826 279.181 367.245 276.342 362.741 269.141C358.06 261.715 356.37 250.776 357.67 236.326C358.332 229.23 360.909 223.483 365.401 219.084C375.862 208.938 386.323 209.399 399.514 207.838C416.535 205.852 431.393 206.739 446.11 214.082C450.814 216.424 456.145 218.469 462.103 220.22C463.45 220.598 464.278 221.473 464.585 222.845C467.611 236.255 467.599 249.83 464.55 263.571C462.918 270.95 456.713 271.837 453.557 277.371C452.847 278.648 451.819 279.571 450.471 280.138C445.152 282.444 440.826 285.744 434.833 286.524C420.554 288.392 405.554 288.239 389.833 286.063C387.445 285.732 385.247 284.951 383.237 283.721ZM436.179 214.296C436.185 214.045 436.013 213.792 435.674 213.553C435.335 213.313 434.835 213.091 434.203 212.9C433.572 212.709 432.82 212.552 431.992 212.438C431.164 212.325 430.275 212.257 429.377 212.238C428.478 212.219 427.587 212.25 426.755 212.329C425.923 212.408 425.166 212.533 424.527 212.697C423.887 212.862 423.379 213.063 423.03 213.288C422.682 213.513 422.499 213.758 422.494 214.01C422.489 214.261 422.661 214.514 423 214.754C423.339 214.993 423.838 215.215 424.47 215.406C425.102 215.597 425.853 215.754 426.681 215.868C427.509 215.981 428.398 216.05 429.297 216.068C430.195 216.087 431.086 216.056 431.918 215.978C432.751 215.899 433.508 215.773 434.147 215.609C434.786 215.444 435.294 215.244 435.643 215.019C435.992 214.793 436.174 214.548 436.179 214.296ZM452.315 225.541C444.691 219.226 436.393 216.53 425.826 216.246C416.488 216.01 407.375 215.939 398.486 216.033C372.103 216.246 361.441 229.597 366.5 256.086C366.831 257.907 367.906 258.959 369.727 259.243C390.743 262.53 412.954 267.379 436.358 273.788C445.613 276.307 453.982 268.467 456.252 260.52C459.136 250.469 459.372 240.595 456.961 230.898C456.583 229.384 455.755 228.166 454.479 227.244C453.746 226.7 453.025 226.132 452.315 225.541ZM420.471 276.697L375.613 267.757C374.171 267.474 373.604 268.041 373.911 269.46C374.195 270.903 375.022 271.991 376.393 272.724C389.916 280.15 404.62 282.007 420.507 278.294C422.942 277.726 422.93 277.194 420.471 276.697Z" fill="#665E5A"/>
<path d="M429.297 216.069C433.076 216.148 436.158 215.355 436.18 214.297C436.202 213.239 433.157 212.317 429.378 212.238C425.599 212.159 422.517 212.952 422.495 214.01C422.473 215.068 425.518 215.989 429.297 216.069Z" fill="#56473E"/>
<path d="M223.061 225.683C224.054 224.642 225.259 224.134 226.678 224.158C227.836 224.181 228.853 223.815 229.727 223.058C235.448 218.162 241.89 215.643 249.054 215.501C255.614 215.36 261.536 213.621 268.025 213.763C279.515 214.023 289.101 215.194 296.784 217.275C308.321 220.397 315.472 228.166 318.238 240.583C321.548 255.506 318.723 268.668 309.763 280.068C304.94 286.24 298.924 290.06 291.713 291.526C281.406 293.655 270.862 294.802 260.082 294.968C256.441 295.039 253.061 294.636 249.94 293.761C247.292 293.028 244.574 292.484 241.784 292.129C232.21 290.947 223.971 286.56 217.068 278.968C212.907 274.38 210.484 268.597 209.798 261.62C208.593 249.842 206.5 229.976 220.827 226.925C221.701 226.759 222.446 226.345 223.061 225.683ZM234.727 279.323C260.047 269.697 284.361 263.264 307.671 260.024C308.994 259.835 309.798 259.09 310.082 257.789C312.635 245.479 310.614 230.508 296.571 226.322C271.229 218.753 245.756 221.284 220.153 233.913C219.113 234.434 218.451 235.262 218.167 236.397C215.07 249.003 215.969 260.911 220.862 272.121C223.238 277.655 228.628 281.629 234.727 279.323ZM244.337 285.566C261.217 288.653 299.692 289.185 307.742 269.354C307.878 269.014 307.917 268.644 307.853 268.283C307.789 267.923 307.625 267.587 307.379 267.312C307.134 267.036 306.816 266.833 306.46 266.724C306.105 266.615 305.726 266.604 305.366 266.693L244.231 282.586C239.786 283.745 239.822 284.739 244.337 285.566Z" fill="#665E5A"/>
<path d="M452.316 225.541C453.025 226.132 453.746 226.7 454.479 227.244C455.756 228.166 456.583 229.384 456.961 230.898C459.373 240.594 459.136 250.469 456.252 260.52C453.983 268.467 445.614 276.307 436.358 273.788C412.954 267.379 390.744 262.53 369.727 259.243C367.907 258.959 366.831 257.907 366.5 256.086C361.441 229.597 372.103 216.246 398.486 216.033C407.375 215.939 416.489 216.01 425.827 216.246C436.394 216.53 444.692 219.226 452.316 225.541ZM437.28 246.507C437.848 237.307 432.942 232.872 422.564 233.204C409.633 230.484 398.273 234.504 388.486 245.265C388.007 245.793 387.699 246.454 387.605 247.16C387.51 247.867 387.632 248.586 387.956 249.221C388.279 249.856 388.788 250.378 389.415 250.717C390.041 251.056 390.757 251.196 391.465 251.119C393.924 250.859 396.288 250.114 398.557 248.884C409.16 243.137 422.848 245.514 432.529 251.97C432.95 252.257 433.434 252.44 433.94 252.504C434.446 252.568 434.961 252.512 435.444 252.339C435.927 252.167 436.364 251.883 436.719 251.511C437.075 251.139 437.34 250.689 437.493 250.197C437.824 249.18 437.753 247.95 437.28 246.507Z" fill="#FAEBE0"/>
<path d="M483.769 243.847L480.507 224.477C484.833 220.669 488.403 219.865 491.216 222.064C501.571 230.224 499.656 250.552 496.712 261.301C494.679 268.774 492.741 268.751 490.897 261.23C489.88 257.115 487.504 251.32 483.769 243.847Z" fill="#FAEBE0"/>
<path d="M234.727 279.322C228.628 281.628 223.238 277.655 220.862 272.121C215.968 260.91 215.07 249.002 218.167 236.396C218.45 235.261 219.112 234.433 220.152 233.913C245.755 221.284 271.228 218.753 296.571 226.321C310.613 230.507 312.635 245.478 310.082 257.788C309.798 259.089 308.994 259.834 307.67 260.023C284.36 263.263 260.046 269.696 234.727 279.322ZM255.259 236.716C241.618 237.331 236.264 241.422 239.195 248.99C237.256 252.396 237.209 255.187 239.053 257.363C239.413 257.79 239.923 258.062 240.478 258.122C241.034 258.181 241.59 258.024 242.032 257.682C252.836 249.144 264.786 247.287 277.883 252.112C280.389 253.035 282.209 253.366 283.344 253.106C284.162 252.927 284.912 252.516 285.503 251.922C286.095 251.329 286.503 250.577 286.679 249.758C286.854 248.939 286.791 248.086 286.495 247.302C286.199 246.518 285.684 245.835 285.011 245.336C274.916 237.744 264.999 234.871 255.259 236.716Z" fill="#FAEBE0"/>
<path d="M480.507 224.477L483.769 243.846C484.195 249.452 486.653 258.332 491.145 270.489C492.422 273.918 491.535 277.395 488.486 280.919C486.311 283.449 485.412 283.059 485.791 279.748C486.358 274.994 486.074 270.95 484.94 267.615C483.025 261.939 481.228 260.154 479.549 262.258C478.107 258.072 476.583 256.63 474.975 257.93C474.219 253.484 474.242 249.014 475.046 244.52C475.542 241.706 475.968 238.289 476.322 234.268C476.748 229.727 478.143 226.463 480.507 224.477Z" fill="#665E5A"/>
<path d="M323.38 229.089C333.404 226.463 342.978 226.085 352.103 227.953C353.758 228.308 354.207 229.231 353.451 230.72L352.812 232.033C352.269 233.097 351.418 233.452 350.259 233.097C341.796 230.496 333.037 230.732 323.983 233.807C323.686 233.902 323.364 233.881 323.082 233.75C322.799 233.618 322.577 233.386 322.458 233.097L321.997 231.82C321.888 231.555 321.837 231.268 321.849 230.981C321.861 230.693 321.935 230.411 322.066 230.153C322.197 229.894 322.382 229.666 322.608 229.482C322.835 229.299 323.098 229.165 323.38 229.089Z" fill="#8C7970"/>
<path d="M192.281 266.764L186.749 284.466C174.881 270.915 170.425 256.275 173.38 240.547C174.68 233.617 178.853 230.141 185.898 230.117C187.505 230.117 189.136 230.342 190.791 230.791C195.779 232.163 197.824 235.391 196.926 240.476L192.281 266.764Z" fill="#FCDDCF"/>
<path d="M422.564 233.203L437.28 246.507C437.753 247.95 437.824 249.179 437.493 250.196C437.34 250.689 437.075 251.139 436.719 251.511C436.363 251.883 435.926 252.167 435.444 252.339C434.961 252.512 434.446 252.568 433.94 252.504C433.433 252.44 432.95 252.257 432.528 251.97C422.848 245.514 409.16 243.137 398.557 248.884C396.287 250.114 393.923 250.859 391.465 251.119C390.756 251.196 390.041 251.056 389.414 250.717C388.788 250.378 388.279 249.856 387.955 249.221C387.632 248.586 387.51 247.867 387.604 247.16C387.699 246.454 388.007 245.793 388.486 245.265C398.273 234.504 409.632 230.484 422.564 233.203Z" fill="#030202"/>
<path d="M422.563 233.204C432.942 232.873 437.847 237.307 437.28 246.507L422.563 233.204Z" fill="#8C7970"/>
<path d="M239.195 248.99L255.259 236.716C264.999 234.871 274.916 237.745 285.011 245.336C285.684 245.835 286.199 246.518 286.495 247.302C286.791 248.086 286.855 248.939 286.679 249.758C286.503 250.577 286.095 251.329 285.504 251.923C284.912 252.516 284.163 252.927 283.344 253.106C282.21 253.366 280.389 253.035 277.883 252.112C264.786 247.288 252.836 249.144 242.032 257.682C241.59 258.024 241.034 258.181 240.479 258.122C239.923 258.062 239.413 257.79 239.053 257.363C237.21 255.187 237.257 252.396 239.195 248.99Z" fill="#030202"/>
<path d="M255.259 236.716L239.195 248.99C236.263 241.422 241.618 237.331 255.259 236.716Z" fill="#8C7970"/>
<path d="M350.379 237.235L325.848 237.835C325.319 237.847 324.901 238.287 324.914 238.815L325.328 255.768C325.341 256.297 325.78 256.715 326.309 256.702L350.84 256.102C351.369 256.089 351.787 255.65 351.774 255.121L351.36 238.169C351.347 237.64 350.908 237.222 350.379 237.235Z" fill="#FCDDCF"/>
<path d="M479.55 262.258L483.202 281.451C483.399 282.506 483.274 283.594 482.844 284.57C482.413 285.546 481.697 286.364 480.791 286.914L476.465 289.575C474.455 290.805 473.498 290.237 473.592 287.872L474.975 257.93C476.583 256.63 478.108 258.072 479.55 262.258Z" fill="#FCDDCF"/>
<path d="M186.748 284.466L192.28 266.764C192.091 268.987 192.233 270.761 192.705 272.085C193.178 273.386 193.935 273.575 194.975 272.653C197.292 270.572 198.568 267.911 198.805 264.671C198.832 264.213 199.036 263.783 199.373 263.472C199.71 263.161 200.155 262.993 200.613 263.003H201.5C201.642 263.003 201.724 263.122 201.748 263.358L204.62 291.136C205.401 298.799 202.753 300.289 196.677 295.606C192.493 292.389 189.183 288.676 186.748 284.466Z" fill="#665E5A"/>
<path d="M379.833 289.149C381.015 292.649 383.083 295.748 386.039 298.444C386.913 299.224 387.93 299.662 389.088 299.756C405.117 301.128 420.731 304.215 435.932 309.016C436.641 309.229 437.102 308.98 437.315 308.271L437.67 307.065C437.8 306.585 437.735 306.073 437.49 305.641C437.244 305.208 436.837 304.891 436.358 304.759L415.613 299.047C414.644 298.787 414.112 298.172 414.017 297.202C413.97 296.871 414.017 296.528 414.159 296.173C414.315 295.708 414.612 295.303 415.006 295.016C415.401 294.73 415.874 294.576 416.358 294.577C417.563 294.553 418.651 294.246 419.62 293.655C428.722 293.182 437.457 291.337 445.826 288.12C451.039 286.098 454.833 286.843 459.939 288.085C462.587 288.723 463.674 290.379 463.202 293.052C461.192 304.357 459.005 315.46 456.641 326.363C452.421 345.84 440.152 358.008 426.499 371.241C412.906 384.367 393.013 394.525 366.819 401.714C330.932 411.577 298.875 399.373 266.287 383.728C251.464 376.633 231.677 361.023 225.79 343.924C221.417 331.271 217.788 317.601 214.904 302.914C214.573 301.329 214.514 299.768 214.726 298.231C214.859 297.281 215.192 296.369 215.704 295.559C216.217 294.748 216.896 294.057 217.696 293.533C218.496 293.008 219.398 292.662 220.342 292.518C221.286 292.374 222.249 292.435 223.166 292.697L253.095 301.211C251.18 306.036 245.341 309.725 235.577 312.279C234.466 312.587 233.627 313.237 233.06 314.231C232.445 315.342 232.563 316.347 233.414 317.246C233.674 317.517 234.012 317.699 234.381 317.769C234.749 317.839 235.13 317.793 235.471 317.636C243.651 313.971 252.776 311.263 262.847 309.512C267.055 308.779 270.518 307.053 273.237 304.333C274.041 303.505 275.01 303.056 276.145 302.985C279.384 302.796 282.221 301.79 284.656 299.969C305.081 296.02 318.107 284.667 323.734 265.912C324.206 264.352 325.258 263.583 326.89 263.606L351.358 263.642C352.2 263.64 353.024 263.884 353.73 264.344C354.435 264.804 354.991 265.46 355.329 266.232C360.128 277.277 368.296 284.916 379.833 289.149ZM369.124 290.213C366.216 288.203 363.001 287.328 359.478 287.588C344.904 288.653 326.606 285.495 313.592 292.2C313.336 292.335 313.116 292.527 312.947 292.761C312.778 292.995 312.665 293.265 312.617 293.55C312.569 293.834 312.587 294.126 312.67 294.403C312.753 294.68 312.898 294.933 313.095 295.145C314.348 296.445 315.873 296.907 317.67 296.528C335.258 292.957 352.185 292.07 368.45 293.868C369.49 293.986 370.199 293.56 370.578 292.59C370.79 291.975 370.66 291.455 370.187 291.029C369.857 290.746 369.501 290.473 369.124 290.213ZM435.117 325.512C417.906 328.776 401.641 331.07 386.322 332.394C372.114 333.624 356.417 333.991 339.23 333.494C307.977 332.595 276.299 331.862 244.195 331.295C243.249 331.271 242.871 331.732 243.06 332.678L243.273 333.849C243.58 335.268 244.466 335.989 245.932 336.013C266.618 336.273 294.986 337.113 331.038 338.532C363.048 339.785 395.577 337.278 428.627 331.011C432.244 330.325 434.821 329.391 436.358 328.208C439.62 325.63 439.206 324.732 435.117 325.512ZM248.698 355.631C253.946 358.989 259.171 361.745 264.372 363.897C289.927 374.492 318.308 379.944 349.514 380.251C349.806 380.253 350.089 380.144 350.306 379.947C350.522 379.75 350.657 379.479 350.684 379.187L350.861 377.804C350.908 377.236 350.648 376.917 350.081 376.846C341.996 375.805 333.308 374.965 324.017 374.327C311.038 373.452 292.918 369.372 269.656 362.088C262.351 359.782 256.925 355.56 249.975 352.758C249.856 352.71 249.738 352.734 249.62 352.828L248.592 353.644C248.436 353.764 248.312 353.919 248.231 354.097C248.149 354.275 248.111 354.47 248.122 354.666C248.132 354.861 248.19 355.052 248.291 355.22C248.391 355.388 248.531 355.529 248.698 355.631ZM357.528 378.336L357.599 379.329C357.622 379.636 357.8 379.79 358.131 379.79C371.322 379.128 382.315 377.248 391.109 374.15C399.171 371.288 407.114 368 414.939 364.287C415.105 364.216 415.187 364.098 415.187 363.932L415.223 362.868C415.222 362.575 415.148 362.287 415.006 362.031C414.865 361.774 414.661 361.559 414.415 361.406C414.169 361.252 413.889 361.166 413.602 361.155C413.315 361.144 413.03 361.209 412.776 361.343C394.786 370.661 377.02 375.604 359.478 376.172C358.083 376.195 357.433 376.917 357.528 378.336Z" fill="#222222"/>
<path d="M307.741 269.354C299.692 289.185 261.217 288.653 244.337 285.566C239.822 284.738 239.786 283.745 244.231 282.586L305.366 266.693C305.726 266.604 306.105 266.615 306.46 266.724C306.815 266.833 307.133 267.036 307.379 267.311C307.625 267.586 307.789 267.923 307.853 268.283C307.916 268.643 307.878 269.014 307.741 269.354Z" fill="#222222"/>
<path d="M375.613 267.757L420.471 276.697C422.93 277.194 422.942 277.726 420.507 278.294C404.62 282.007 389.916 280.15 376.393 272.724C375.022 271.991 374.195 270.903 373.911 269.46C373.604 268.041 374.171 267.474 375.613 267.757Z" fill="#222222"/>
<path d="M466.997 280.777C466.406 282.811 465.117 283.45 463.132 282.693C461.973 282.243 460.969 281.569 460.118 280.671C459.172 279.654 459.065 278.578 459.798 277.442C461.122 275.337 462.86 273.907 465.011 273.15C466.619 272.606 467.493 273.185 467.635 274.888C467.824 276.804 467.612 278.767 466.997 280.777Z" fill="#8C7970"/>
<path d="M216.075 285.744C216.292 286.212 216.358 286.738 216.262 287.252C216.167 287.766 215.916 288.242 215.543 288.617L214.727 289.433C214.469 289.69 214.155 289.885 213.81 290.003C213.465 290.121 213.098 290.159 212.736 290.115C212.374 290.07 212.027 289.944 211.721 289.746C211.415 289.549 211.158 289.284 210.969 288.972C209.716 286.938 209.219 284.656 209.479 282.125C209.645 280.612 210.389 280.221 211.713 280.955C213.628 282.019 215.082 283.615 216.075 285.744Z" fill="#FCDDCF"/>
<path d="M369.124 290.213C369.502 290.473 369.857 290.746 370.188 291.029C370.661 291.455 370.791 291.975 370.578 292.59C370.2 293.56 369.49 293.986 368.45 293.867C352.185 292.07 335.259 292.957 317.67 296.528C315.873 296.907 314.349 296.445 313.096 295.145C312.899 294.933 312.753 294.68 312.67 294.403C312.587 294.126 312.569 293.834 312.617 293.55C312.665 293.265 312.778 292.995 312.947 292.761C313.116 292.527 313.337 292.335 313.592 292.2C326.606 285.495 344.904 288.652 359.479 287.588C363.001 287.328 366.216 288.203 369.124 290.213Z" fill="#8B8B8B"/>
<path d="M379.833 289.149L419.62 293.655C418.651 294.246 417.563 294.554 416.358 294.577C415.874 294.576 415.401 294.73 415.006 295.016C414.612 295.303 414.315 295.708 414.159 296.174C414.017 296.528 413.97 296.871 414.017 297.202C414.112 298.172 414.644 298.787 415.613 299.047L436.358 304.759C436.837 304.891 437.244 305.209 437.49 305.641C437.736 306.073 437.8 306.585 437.67 307.065L437.315 308.271C437.102 308.98 436.642 309.229 435.932 309.016C420.731 304.215 405.117 301.128 389.088 299.757C387.93 299.662 386.913 299.225 386.039 298.444C383.084 295.748 381.015 292.65 379.833 289.149Z" fill="#9D9D9D"/>
<path d="M450.188 439.283C454.585 423.721 456.547 407.627 456.074 391.001C455.826 381.316 457.528 372.553 456.393 362.797C456.228 361.26 455.483 360.267 454.159 359.817C452.954 359.392 451.322 359.463 449.266 360.03C450.637 356.601 452.209 353.384 453.982 350.381C455.85 347.164 457.422 343.901 458.698 340.589C462.646 330.42 466.192 320.64 469.337 311.251C470.258 308.531 470.826 305.634 471.039 302.559C471.105 301.498 471.446 300.47 472.03 299.575C472.614 298.68 473.421 297.948 474.372 297.451L475.861 296.67C478.155 295.488 479.124 296.174 478.769 298.728C478.296 302.394 478.06 305.823 478.06 309.016C478.225 351.823 481.571 388.269 488.095 418.353C490.98 431.668 494.715 446.674 499.301 463.372C499.632 464.578 499.218 465.429 498.06 465.926L497.067 466.387C494.632 467.451 493.024 466.706 492.244 464.152C489.549 455.106 484.017 452.729 474.514 453.261C457.114 454.254 449.006 449.595 450.188 439.283ZM468.109 358.636C468.112 358.365 468.062 358.097 467.961 357.847C467.86 357.596 467.711 357.367 467.522 357.174C467.333 356.981 467.108 356.827 466.86 356.721C466.611 356.615 466.344 356.559 466.074 356.556L465.861 356.554C465.316 356.549 464.791 356.76 464.401 357.142C464.011 357.524 463.789 358.045 463.783 358.59L463.117 422.231C463.114 422.501 463.165 422.769 463.265 423.02C463.366 423.27 463.515 423.499 463.704 423.692C463.893 423.885 464.118 424.039 464.367 424.145C464.615 424.251 464.882 424.307 465.152 424.31L465.365 424.312C465.91 424.318 466.436 424.106 466.825 423.724C467.215 423.343 467.437 422.822 467.443 422.276L468.109 358.636Z" fill="#56473E"/>
<path d="M185.933 298.409L198.131 305.185C199.195 305.752 199.526 306.604 199.124 307.739C197.918 311.097 196.027 314.373 193.45 317.566L185.933 298.409Z" fill="#8C7970"/>
<path d="M284.656 299.97C282.221 301.791 279.384 302.796 276.146 302.985C275.011 303.056 274.042 303.506 273.238 304.333C270.519 307.053 267.056 308.78 262.848 309.513C252.777 311.263 243.651 313.971 235.472 317.637C235.131 317.793 234.75 317.84 234.381 317.77C234.013 317.7 233.675 317.517 233.415 317.247C232.564 316.348 232.446 315.343 233.06 314.231C233.628 313.238 234.467 312.587 235.578 312.28C245.342 309.726 251.181 306.036 253.096 301.211L284.656 299.97Z" fill="#8B8B8B"/>
<path d="M229.443 367.977C226.843 367.693 224.809 367.787 223.344 368.26C221.973 368.71 221.169 370.188 220.932 372.695C220.696 375.367 220.259 377.957 219.62 380.464L217.528 361.556C217.495 361.286 217.369 361.038 217.174 360.856C216.979 360.674 216.727 360.569 216.464 360.562L215.401 360.527C214.739 360.503 214.408 360.834 214.408 361.52C214.739 380.819 213.616 399.444 211.039 417.395C209.904 425.093 210.259 433.04 210.436 440.915C210.458 441.533 210.711 442.126 211.145 442.583C212.847 444.38 214.018 444.416 214.656 442.689L217.032 452.197C217.315 453.308 218.036 453.828 219.195 453.758L222.954 453.509C215.365 464.341 205.034 471.98 191.961 476.427C191.668 476.528 191.353 476.547 191.05 476.483C190.747 476.419 190.468 476.273 190.241 476.061C190.015 475.849 189.851 475.58 189.767 475.282C189.682 474.984 189.681 474.668 189.762 474.369C195.968 451.913 199.514 432.507 200.826 408.1C202.103 384.118 203.32 360.148 204.479 336.19C204.573 334.227 205.294 332.442 206.642 330.833C207.564 329.722 207.694 328.516 207.032 327.215C204.833 322.91 204.254 318.168 205.294 312.989C206.429 307.384 207.705 307.348 209.124 312.883C210.897 319.67 213.001 327.144 215.436 335.303C218.793 346.49 223.462 357.381 229.443 367.977Z" fill="#56473E"/>
<path d="M435.117 325.512C439.207 324.732 439.62 325.631 436.358 328.208C434.821 329.391 432.244 330.325 428.627 331.011C395.578 337.278 363.048 339.785 331.039 338.532C294.987 337.113 266.618 336.273 245.932 336.013C244.467 335.99 243.58 335.268 243.273 333.849L243.06 332.678C242.871 331.732 243.249 331.271 244.195 331.295C276.299 331.862 307.977 332.596 339.23 333.494C356.417 333.991 372.114 333.624 386.322 332.395C401.642 331.07 417.906 328.776 435.117 325.512Z" fill="#8B8B8B"/>
<path d="M248.699 355.631C248.532 355.529 248.392 355.388 248.292 355.22C248.191 355.052 248.133 354.861 248.123 354.666C248.112 354.47 248.15 354.275 248.231 354.097C248.313 353.919 248.437 353.764 248.593 353.644L249.621 352.829C249.739 352.734 249.857 352.71 249.976 352.758C256.926 355.56 262.352 359.782 269.656 362.088C292.919 369.372 311.039 373.452 324.018 374.327C333.309 374.965 341.997 375.805 350.082 376.846C350.649 376.917 350.909 377.236 350.862 377.804L350.685 379.187C350.658 379.479 350.523 379.75 350.307 379.947C350.09 380.144 349.807 380.253 349.515 380.251C318.309 379.944 289.928 374.492 264.373 363.897C259.172 361.745 253.947 358.989 248.699 355.631Z" fill="#8B8B8B"/>
<path d="M466.074 356.556L465.861 356.554C464.725 356.542 463.795 357.454 463.783 358.59L463.117 422.231C463.105 423.367 464.016 424.298 465.152 424.31L465.365 424.312C466.501 424.324 467.431 423.412 467.443 422.276L468.109 358.636C468.121 357.499 467.21 356.568 466.074 356.556Z" fill="#030202"/>
<path d="M450.188 439.283C447.138 410.902 446.831 384.485 449.266 360.03C451.323 359.462 452.954 359.391 454.16 359.817C455.484 360.266 456.228 361.26 456.394 362.797C457.529 372.553 455.826 381.316 456.075 391C456.547 407.627 454.585 423.721 450.188 439.283Z" fill="#8C7970"/>
<path d="M219.621 380.464L214.656 442.689C214.018 444.415 212.848 444.38 211.146 442.582C210.711 442.126 210.459 441.533 210.436 440.915C210.259 433.039 209.904 425.093 211.039 417.395C213.616 399.444 214.739 380.819 214.408 361.52C214.408 360.834 214.739 360.503 215.401 360.527L216.465 360.562C216.728 360.569 216.979 360.673 217.174 360.856C217.37 361.038 217.495 361.286 217.529 361.555L219.621 380.464Z" fill="#030202"/>
<path d="M359.479 376.172C377.02 375.604 394.786 370.661 412.777 361.343C413.031 361.209 413.315 361.144 413.602 361.155C413.89 361.166 414.17 361.252 414.416 361.406C414.662 361.559 414.866 361.775 415.007 362.031C415.149 362.287 415.223 362.575 415.224 362.868L415.188 363.933C415.188 364.098 415.105 364.216 414.94 364.287C407.115 368 399.172 371.288 391.11 374.15C382.316 377.248 371.323 379.128 358.131 379.79C357.8 379.79 357.623 379.637 357.599 379.329L357.529 378.336C357.434 376.917 358.084 376.195 359.479 376.172Z" fill="#8B8B8B"/>
<path d="M229.443 367.977C230.626 397.233 228.462 425.744 222.954 453.51L219.195 453.758C218.037 453.829 217.316 453.308 217.032 452.197L214.656 442.689L219.621 380.465C220.259 377.958 220.696 375.368 220.933 372.695C221.169 370.188 221.973 368.71 223.344 368.261C224.81 367.788 226.843 367.693 229.443 367.977Z" fill="#8C7970"/>
<path d="M421.004 433.927C413.675 419.997 403.356 411.541 390.046 408.561C389.195 408.372 388.521 407.911 388.025 407.178C387.647 406.61 387.528 405.983 387.67 405.298C387.907 404.304 388.533 403.725 389.55 403.559C393.261 403.015 396.89 401.774 400.436 399.834C415.188 391.769 427.138 382.25 436.287 371.276C438.391 368.769 439.467 369.148 439.514 372.411C439.692 380.997 439.763 389.724 439.16 398.309C438.025 413.824 438.935 429.161 441.89 444.321C441.923 444.489 441.907 444.661 441.845 444.82C441.782 444.978 441.675 445.116 441.536 445.219C441.397 445.322 441.23 445.385 441.055 445.402C440.879 445.419 440.702 445.389 440.543 445.314C435.956 442.973 431.276 440.998 426.5 439.39C423.947 438.539 422.209 436.197 421.004 433.927ZM434.585 395.826C434.585 394.8 434.178 393.816 433.453 393.091C432.728 392.366 431.745 391.959 430.72 391.959H430.365C429.34 391.959 428.357 392.366 427.632 393.091C426.907 393.816 426.5 394.8 426.5 395.826V426.69C426.5 427.715 426.907 428.699 427.632 429.424C428.357 430.149 429.34 430.557 430.365 430.557H430.72C431.745 430.557 432.728 430.149 433.453 429.424C434.178 428.699 434.585 427.715 434.585 426.69V395.826Z" fill="#56473E"/>
<path d="M262.883 390.008C270.755 394.619 279.408 396.925 286.606 402.247C286.964 402.512 287.243 402.871 287.413 403.284C287.582 403.697 287.634 404.147 287.565 404.584C287.495 405.022 287.305 405.43 287.017 405.762C286.729 406.095 286.353 406.339 285.932 406.468C281.512 407.864 277.055 408.869 272.564 409.484C259.833 411.222 247.103 420.517 238.627 429.812C236.405 432.248 235.365 431.822 235.507 428.534L237.989 375.959C237.997 375.695 238.078 375.439 238.224 375.219C238.369 374.999 238.573 374.824 238.813 374.714C239.052 374.603 239.317 374.561 239.579 374.593C239.841 374.626 240.088 374.73 240.294 374.895C247.244 380.24 254.774 385.277 262.883 390.008Z" fill="#56473E"/>
<path d="M430.72 391.958H430.365C428.231 391.958 426.5 393.69 426.5 395.825V426.689C426.5 428.825 428.231 430.556 430.365 430.556H430.72C432.855 430.556 434.585 428.825 434.585 426.689V395.825C434.585 393.69 432.855 391.958 430.72 391.958Z" fill="#8C7970"/>
<path d="M383.237 434.388C385.767 434.08 387.611 431.904 388.769 427.86C388.8 427.759 388.855 427.666 388.929 427.59C389.003 427.514 389.093 427.456 389.193 427.422C389.294 427.387 389.4 427.377 389.505 427.391C389.61 427.406 389.711 427.445 389.798 427.505C396.157 431.763 396.807 437.746 391.748 445.456C390.968 446.615 389.904 447.36 388.556 447.691C380.779 449.631 374.041 453.462 368.344 459.185C364.892 462.662 360.826 463.916 356.145 462.946C345.79 460.817 334.998 461.551 323.769 465.145C317.528 467.132 311.11 465.713 308.521 459.114C304.928 449.938 298.769 443.446 290.046 439.638C289.34 439.332 288.672 438.926 288.06 438.432C285.223 436.138 284.325 433.867 285.365 431.621C286.05 430.131 286.961 429.977 288.095 431.159C289.443 432.508 290.944 433.619 292.599 434.494C292.919 434.656 293.275 434.734 293.633 434.721C293.992 434.708 294.341 434.605 294.649 434.421C294.957 434.237 295.213 433.978 295.394 433.668C295.575 433.359 295.675 433.008 295.684 432.649C295.897 423.851 295.01 415.101 293.024 406.397C292.936 406.01 292.953 405.607 293.075 405.229C293.197 404.852 293.419 404.514 293.717 404.252C294.015 403.99 294.378 403.814 294.768 403.742C295.158 403.67 295.56 403.705 295.932 403.843C310.826 409.354 325.164 412.357 338.946 412.854C352.741 413.351 366.287 409.2 379.62 405.865C379.781 405.82 379.951 405.814 380.115 405.847C380.279 405.88 380.433 405.952 380.564 406.055C380.695 406.159 380.8 406.292 380.87 406.444C380.94 406.596 380.974 406.762 380.968 406.929L380.259 431.656C380.245 432.04 380.316 432.422 380.464 432.776C380.613 433.131 380.836 433.448 381.119 433.708C381.402 433.967 381.738 434.163 382.104 434.28C382.469 434.397 382.856 434.434 383.237 434.388Z" fill="#FCDDCF"/>
<path d="M215.152 483.7C228.202 456.809 248.45 411.293 284.585 415.16C287.327 415.444 287.481 416.248 285.046 417.572C259.479 431.585 249.408 455.035 249.266 483.167C249.195 497.216 243.273 507.149 240.471 520.666C238.982 527.761 237.493 542.199 226.322 540.213C213.344 537.942 202.611 532.361 194.124 523.468C193.713 523.029 193.453 522.47 193.383 521.876C193.312 521.282 193.435 520.683 193.734 520.169C200.897 507.859 209.088 496.223 215.152 483.7Z" fill="#F99576"/>
<path d="M393.769 464.223C403.875 451.558 408.804 429.031 392.847 418.885C392.114 418.412 391.96 417.809 392.386 417.076L392.882 416.26C393.143 415.787 393.521 415.668 394.017 415.905C408.083 422.787 415.672 432.969 416.783 446.45C417.965 461.018 417.752 478.946 416.145 500.231C416.003 502.171 415.069 502.679 413.343 501.757C409.868 499.912 407.28 497.961 403.273 497.287C391.901 495.276 381.582 495.217 372.315 497.109C368.107 497.961 367.362 496.731 370.081 493.42C377.882 483.96 385.778 474.227 393.769 464.223Z" fill="#F99576"/>
<path d="M271.288 435.097C271.346 435.005 271.438 434.939 271.543 434.913C271.649 434.887 271.76 434.902 271.855 434.955L271.961 434.991C272.626 435.398 273.114 436.078 273.397 436.99C273.681 437.903 273.754 439.032 273.612 440.31C273.47 441.589 273.117 442.994 272.572 444.443C272.027 445.892 271.301 447.357 270.437 448.755L269.976 449.465C268.237 452.282 266.039 454.657 263.865 456.067C261.69 457.478 259.718 457.808 258.38 456.986L258.309 456.915C258.217 456.856 258.151 456.765 258.125 456.659C258.099 456.554 258.114 456.442 258.167 456.347L271.288 435.097Z" fill="#F99576"/>
<path d="M352.671 502.253C344.491 502.868 338.049 503.045 333.345 502.785C323.486 502.194 323.238 503.483 332.6 506.652C336.595 508.024 342.801 507.374 351.217 504.701C351.69 506.995 351.572 509.088 350.862 510.98C346.465 522.593 344.834 534.099 345.969 545.498C348.12 567.21 350.602 588.885 353.415 610.526C353.463 610.81 354.243 620.707 355.756 640.219C356.56 650.673 358.593 660.499 361.855 669.7L257.706 668.6L258.735 666.117C263.486 665.998 265.661 662.533 265.259 655.722C263.486 625.307 261.926 596.241 260.579 568.522C260.271 561.782 256.761 553.244 250.047 542.909C244.55 534.394 244.586 523.681 248.557 514.634C253.876 502.383 256.193 488.5 255.508 472.985C255.426 471.172 255.899 469.378 256.862 467.843C257.826 466.309 259.234 465.107 260.898 464.4C271.607 459.883 277.47 452.433 278.486 442.05C278.628 440.442 279.29 440.194 280.472 441.305C283.096 443.836 286.04 445.941 289.302 447.62C304.089 455.248 301.891 480.294 325.472 472.311C335.023 469.095 344.527 468.208 353.983 469.651C361.642 470.821 369.798 468.87 375.33 463.017C378.64 459.54 382.387 457.163 386.572 455.886C391.985 454.254 392.848 455.59 389.16 459.895L352.671 502.253ZM310.862 500.089C313.746 500.893 316.595 501.839 319.408 502.927C321.631 503.779 321.973 503.294 320.437 501.473C319.255 500.077 317.931 499.179 316.465 498.777C296.111 493.029 284.657 481.925 271.749 464.294C271.442 463.892 271.099 463.845 270.72 464.152L269.94 464.72C269.184 465.311 269.101 465.997 269.692 466.777C280.756 481.18 292.99 495.087 310.862 500.089Z" fill="#222222"/>
<path d="M426.5 447.868L467.28 460.25C467.552 460.324 467.788 460.494 467.944 460.729C468.1 460.964 468.167 461.247 468.131 461.527L465.861 479.868C465.84 480.042 465.779 480.21 465.684 480.358C465.589 480.506 465.462 480.631 465.312 480.723C465.162 480.815 464.993 480.872 464.818 480.89C464.643 480.907 464.467 480.886 464.301 480.826L426.5 466.99C426.278 466.912 426.085 466.768 425.946 466.578C425.806 466.388 425.728 466.161 425.72 465.926L424.975 449.039C424.966 448.85 425.003 448.662 425.082 448.491C425.162 448.32 425.282 448.17 425.431 448.055C425.581 447.94 425.757 447.863 425.943 447.83C426.129 447.798 426.32 447.811 426.5 447.868Z" fill="#F99576"/>
<path d="M483.592 545.889C482.989 583.28 486.5 621.381 490.791 658.525C491.192 661.954 489.679 663.562 486.252 663.35L484.337 663.243C481.382 663.054 479.62 661.517 479.053 658.631C477.635 651.631 476.653 644.689 476.11 637.807C473.391 603.182 471.523 564.194 470.507 520.843C470.034 501.023 470.861 481.689 472.989 462.839C473.32 459.789 475.022 458.239 478.096 458.192C483.32 458.098 485.838 460.51 485.649 465.429C484.727 489.364 484.041 516.183 483.592 545.889Z" fill="#E5E5E5"/>
<path d="M310.862 500.089C292.989 495.087 280.755 481.18 269.692 466.777C269.101 465.997 269.183 465.311 269.94 464.72L270.72 464.152C271.098 463.845 271.441 463.892 271.748 464.294C284.656 481.925 296.11 493.029 316.465 498.777C317.93 499.179 319.254 500.077 320.436 501.473C321.973 503.294 321.63 503.779 319.408 502.927C316.595 501.839 313.746 500.893 310.862 500.089Z" fill="#030202"/>
<path d="M360.507 569.232C359.585 556.248 361.476 544.683 366.181 534.537C370.531 525.171 377.895 517.957 388.273 512.896C389.245 512.433 390.337 512.248 391.429 512.364L422.174 515.592L424.585 473.802C424.632 472.69 425.211 472.241 426.323 472.454C438.852 474.842 451.11 478.591 463.096 483.7C464.254 484.196 464.821 485.083 464.798 486.36C464.301 510.247 464.88 535.707 466.535 562.74C466.565 563.274 466.385 563.799 466.034 564.203C465.683 564.607 465.189 564.859 464.656 564.904C432.765 567.482 400.531 569.729 367.954 571.644C365.708 571.786 363.226 570.982 360.507 569.232Z" fill="#F99576"/>
<path d="M495.224 496.754C492.907 495.43 491.737 493.42 491.713 490.723L491.607 474.546C491.583 471.353 492.942 470.573 495.685 472.205C506.867 478.898 517.328 488.122 527.068 499.876C528.723 501.863 529.065 504.062 528.096 506.475L524.266 516.195C523.013 519.412 521.299 519.684 519.125 517.011C512.647 509.017 504.68 502.265 495.224 496.754Z" fill="#F99576"/>
<path d="M197.138 537.303C202.434 541.726 208.391 545.759 215.011 549.401C222.008 553.256 226.997 557.028 229.975 560.718C237.422 569.906 245.755 585.125 246.642 597.754C246.997 602.828 250.259 605.701 248.557 611.093C244.798 613.056 241.287 614.204 238.025 614.535C215.85 616.734 193.935 620.305 172.28 625.248C172.067 625.296 171.961 625.426 171.961 625.639V626.596C171.961 626.975 172.15 627.14 172.528 627.093C181.784 626.242 190.011 622.659 199.514 622.375C206.926 622.162 213.699 619.43 221.358 618.685C230.342 617.81 239.195 616.226 247.919 613.931C248.51 613.79 249.396 613.175 250.578 612.087L253.77 610.952C257.079 628.287 257.942 645.564 256.358 662.782C256.24 664.106 257.032 665.218 258.734 666.117L257.706 668.6C233.616 669.38 217.895 669.463 210.543 668.848C182.812 666.483 155.034 665.218 127.209 665.052C123.238 665.029 116.937 663.515 108.309 660.511C113.249 633.763 120.235 605.784 129.266 576.575C130.046 574.021 131.547 571.207 133.77 568.132C140.933 583.079 145.07 592.965 146.181 597.79C153.155 627.992 158.58 648.438 162.458 659.128C163.616 662.344 166.181 663.16 170.153 661.576C171.618 663.61 173.285 664.142 175.153 663.172C175.865 662.798 176.428 662.191 176.75 661.45C177.072 660.709 177.134 659.877 176.926 659.092L170.791 636.033C170.659 635.544 170.662 635.029 170.8 634.541C170.938 634.053 171.205 633.611 171.574 633.26C171.943 632.909 172.4 632.662 172.898 632.544C173.397 632.427 173.918 632.443 174.408 632.592C181.252 634.72 184.904 632.237 191.181 631.102C206.689 628.335 223.179 625.591 240.649 622.871C241.278 622.771 241.92 622.804 242.535 622.966C243.151 623.129 243.725 623.418 244.223 623.815C244.72 624.212 245.129 624.709 245.423 625.274C245.718 625.838 245.891 626.458 245.933 627.093C246.358 632.958 247.008 639.238 247.883 645.931C248.699 652.104 245.507 656.751 242.103 661.54C241.956 661.744 241.862 661.98 241.829 662.229C241.795 662.478 241.823 662.731 241.911 662.966C241.999 663.201 242.143 663.411 242.331 663.577C242.519 663.742 242.745 663.859 242.989 663.917L244.16 664.201C244.767 664.359 245.407 664.343 246.008 664.155C246.609 663.967 247.148 663.614 247.564 663.137C251.441 658.714 253.119 653.629 252.599 647.882C251.89 639.935 251.536 631.705 251.536 623.191C251.531 622.778 251.444 622.37 251.279 621.992C251.115 621.614 250.876 621.273 250.577 620.992C250.279 620.71 249.927 620.492 249.543 620.352C249.159 620.211 248.751 620.151 248.344 620.175C235.862 621.003 223.249 622.777 210.507 625.497C204.479 626.797 198.557 627.897 192.741 628.796C186.855 629.671 180.85 630.735 174.727 631.989C173.386 632.256 171.993 632.01 170.83 631.3C169.666 630.589 168.816 629.467 168.45 628.157C162.753 607.558 156.736 588.602 150.401 571.289C149.231 568.097 149.798 564.975 147.635 562.137C141.89 554.545 140.259 543.796 145.259 535.175C151.571 524.248 157.954 514.729 164.408 506.617C175.649 492.497 194.55 482.919 210.401 473.376C212.245 472.264 212.812 472.737 212.103 474.795C207.966 486.644 201.429 495.631 192.493 501.757C176.606 512.612 163.486 526.767 155.614 543.831C153.651 548.135 151.417 552.251 148.911 556.177C148.796 556.369 148.741 556.593 148.754 556.82C148.766 557.047 148.846 557.268 148.982 557.454L150.082 558.908C150.909 560.02 151.618 559.949 152.209 558.695C162.351 536.984 172.316 520.417 192.387 505.304C194.254 503.885 194.845 504.299 194.16 506.546C192.387 512.116 188.521 516.195 186.571 521.481C186.075 522.806 186.276 524.024 187.174 525.135L197.138 537.303ZM162.908 584.583C163.099 584.435 163.24 584.225 163.322 583.964C163.403 583.703 163.424 583.397 163.383 583.063C163.342 582.728 163.24 582.373 163.082 582.016C162.924 581.66 162.715 581.309 162.465 580.984C161.96 580.328 161.321 579.817 160.69 579.565C160.059 579.312 159.487 579.338 159.1 579.636C158.908 579.784 158.767 579.994 158.686 580.255C158.604 580.516 158.583 580.822 158.624 581.157C158.665 581.491 158.768 581.846 158.925 582.203C159.083 582.56 159.293 582.91 159.543 583.235C160.048 583.891 160.686 584.402 161.317 584.654C161.948 584.907 162.52 584.881 162.908 584.583ZM166.5 595.307C166.417 595.161 166.304 595.034 166.17 594.935C166.035 594.835 165.881 594.765 165.717 594.728C165.554 594.691 165.384 594.689 165.22 594.722C165.056 594.754 164.9 594.82 164.762 594.916C163.793 595.602 163.486 596.548 163.841 597.754C164.526 600.025 165.46 600.155 166.642 598.145C167.162 597.27 167.115 596.324 166.5 595.307ZM169.16 611.945L170.72 615.812C171.358 617.373 172.067 617.408 172.848 615.918C174.124 613.529 173.403 611.72 170.684 610.49C170.478 610.396 170.249 610.366 170.025 610.403C169.801 610.441 169.594 610.545 169.43 610.701C169.266 610.858 169.153 611.06 169.104 611.282C169.056 611.503 169.075 611.734 169.16 611.945ZM182.626 661.113C182.793 661.118 182.961 661.049 183.12 660.909C183.279 660.769 183.426 660.561 183.551 660.297C183.677 660.034 183.78 659.72 183.854 659.373C183.928 659.027 183.971 658.654 183.982 658.277C183.993 657.9 183.97 657.525 183.916 657.175C183.861 656.824 183.776 656.505 183.665 656.235C183.554 655.965 183.419 655.749 183.268 655.601C183.117 655.452 182.954 655.373 182.786 655.368C182.618 655.364 182.45 655.433 182.291 655.573C182.133 655.713 181.986 655.921 181.86 656.184C181.734 656.448 181.631 656.762 181.557 657.109C181.484 657.455 181.44 657.828 181.43 658.205C181.419 658.582 181.442 658.957 181.496 659.307C181.55 659.658 181.636 659.977 181.747 660.247C181.858 660.517 181.992 660.733 182.143 660.881C182.294 661.03 182.458 661.109 182.626 661.113Z" fill="#F99576"/>
<path d="M543.84 491.362C543.936 491.304 544.042 491.265 544.152 491.248C544.263 491.23 544.376 491.235 544.484 491.261C544.593 491.288 544.695 491.335 544.786 491.401C544.876 491.467 544.952 491.55 545.011 491.646L549.798 499.38C549.97 499.652 550.083 499.958 550.13 500.281C550.177 500.603 550.157 500.936 550.072 501.259C549.986 501.582 549.836 501.889 549.631 502.163C549.426 502.438 549.169 502.673 548.876 502.856L548.734 502.927C548.142 503.29 547.44 503.419 546.782 503.286C546.124 503.153 545.563 502.769 545.223 502.218L540.436 494.448C540.378 494.353 540.339 494.247 540.322 494.136C540.304 494.026 540.309 493.913 540.335 493.804C540.362 493.696 540.409 493.593 540.475 493.503C540.541 493.412 540.624 493.336 540.72 493.278L543.84 491.362Z" fill="#030202"/>
<path d="M491.997 572.921C495.472 573.844 498.084 573.832 499.834 572.886C500.779 572.366 500.756 571.881 499.763 571.431C497.872 570.556 495.378 570.639 492.281 571.68L491.288 570.935C490.484 570.344 490.082 569.551 490.082 568.558L490.366 501.402C490.366 499.936 491.051 499.498 492.422 500.089C502.813 504.666 510.72 513.215 519.479 520.24C520.448 521.02 520.708 522.002 520.259 523.184L506.217 559.547C505.815 560.564 505.07 561.155 503.983 561.321L497.883 562.172C497.627 562.212 497.389 562.33 497.205 562.508C497.02 562.686 496.898 562.916 496.855 563.166L496.642 564.407C496.601 564.646 496.655 564.892 496.793 565.096C496.931 565.3 497.144 565.447 497.387 565.507L502.103 566.429C503.711 566.76 504.255 567.706 503.734 569.267C501.926 574.624 500.188 580.371 499.621 586.048C498.321 599.363 496.902 612.241 495.366 624.681C495.153 626.384 494.869 626.396 494.515 624.716C490.992 608.066 490.153 590.801 491.997 572.921Z" fill="#F99576"/>
<path d="M352.671 502.253C351.961 503.01 351.477 503.826 351.217 504.701C342.801 507.374 336.595 508.024 332.6 506.652C323.238 503.483 323.486 502.194 333.344 502.786C338.049 503.046 344.491 502.868 352.671 502.253Z" fill="#030202"/>
<path d="M422.174 515.592L391.43 512.364C390.338 512.248 389.246 512.432 388.274 512.896C377.895 517.957 370.531 525.171 366.181 534.536C361.477 544.682 359.586 556.248 360.508 569.232C360.46 569.35 360.342 569.587 360.153 569.941C359.964 570.249 359.869 570.521 359.869 570.757C359.893 571.207 360.106 571.514 360.508 571.68C357.694 572.224 356.69 573.796 357.493 576.398C355.011 563.13 351.678 540.319 359.515 528.647C364.81 520.772 371.288 513.18 378.947 505.872C380.076 504.788 381.513 504.081 383.061 503.85C394.597 502.265 405.271 504.382 415.082 510.2C415.644 510.527 416.139 510.974 416.536 511.512C417.647 513.097 419.527 514.457 422.174 515.592Z" fill="#F99576"/>
<path d="M357.067 520.985C356.996 521.083 356.889 521.149 356.77 521.169C356.65 521.189 356.528 521.161 356.429 521.091L356.322 521.02C355.345 520.319 355.006 518.805 355.378 516.81C355.75 514.815 356.804 512.501 358.308 510.377L359.053 509.348C360.555 507.228 362.384 505.471 364.138 504.46C365.893 503.45 367.43 503.268 368.415 503.956L368.521 503.992C368.619 504.063 368.685 504.17 368.705 504.289C368.725 504.409 368.697 504.531 368.627 504.63L357.067 520.985Z" fill="#F99576"/>
<path d="M539.159 517.153C530.365 536.57 525.128 549.247 523.45 555.183C519.549 569.066 515.861 590.707 512.386 620.104C510.447 636.565 508.001 653.121 505.046 669.771L496.109 669.948C499.537 630.262 503.142 601.184 506.925 582.713C511.18 561.995 519.679 538.344 532.421 511.761C532.942 510.673 533.663 510.519 534.585 511.3C537.232 513.617 538.757 515.568 539.159 517.153Z" fill="#F99576"/>
<path d="M539.159 517.153C563.178 564.549 580.282 612.489 590.471 660.973C582.008 663.267 574.254 665.112 567.209 666.507C560.684 667.808 552.753 668.517 543.415 668.636C530.601 668.801 517.812 669.18 505.046 669.771C508.001 653.121 510.448 636.565 512.386 620.104C515.861 590.707 519.549 569.066 523.45 555.184C525.129 549.247 530.365 536.57 539.159 517.153Z" fill="#F99576"/>
<path d="M197.139 537.304L228.557 547.131C229.739 547.509 230.697 548.183 231.429 549.153C235.425 554.379 239.999 559.594 245.153 564.798C248.864 568.558 251.394 573.454 252.742 579.485C255.058 589.867 255.401 600.356 253.77 610.952L250.578 612.087C250.697 611.496 250.023 611.165 248.557 611.094C250.259 605.701 246.997 602.828 246.642 597.755C245.756 585.125 237.422 569.906 229.976 560.718C226.997 557.028 222.009 553.256 215.011 549.401C208.392 545.759 202.434 541.726 197.139 537.304Z" fill="#F99576"/>
<path d="M568.796 539.548L568.666 539.603C567.584 540.063 567.079 541.312 567.538 542.394L578.789 568.911C579.248 569.993 580.497 570.498 581.579 570.039L581.71 569.983C582.791 569.524 583.296 568.274 582.837 567.192L571.586 540.676C571.127 539.593 569.878 539.089 568.796 539.548Z" fill="#030202"/>
<path d="M241.252 541.064C244.621 545.889 247.528 551.529 249.833 556.815C250.826 559.109 250.33 559.5 248.344 557.986C244.065 554.722 240.637 550.974 238.06 546.74C236.878 544.777 237.008 542.861 238.45 540.993C239.42 539.74 240.354 539.763 241.252 541.064Z" fill="#F99576"/>
<path d="M170.153 661.576C166.181 663.16 163.616 662.344 162.458 659.128C158.581 648.438 153.155 627.992 146.181 597.79C145.07 592.965 140.933 583.079 133.77 568.132C133.037 565.389 133.108 562.752 133.982 560.221C135.921 554.687 137.883 554.687 139.869 560.221C149.278 586.568 157.765 612.714 165.33 638.658C167.529 646.156 169.136 653.795 170.153 661.576Z" fill="#F99576"/>
<path d="M396.961 670.054L368.521 669.451L357.493 576.398C356.689 573.796 357.693 572.224 360.507 571.68C363.32 572.626 366.228 573.122 369.23 573.17C382.209 573.359 397.859 572.673 416.18 571.112C432.327 569.74 448.344 568.723 464.23 568.061C465.436 567.99 466.074 568.558 466.145 569.764L467.847 599.174C467.942 601.184 467.173 602.757 465.542 603.892C456.216 610.419 446.961 614.286 435.046 612.796C421.18 611.058 405.826 610.242 394.23 603.36C393.553 602.949 392.976 602.396 392.541 601.739C392.106 601.083 391.823 600.34 391.712 599.564L389.585 584.025C389.54 583.69 389.563 583.35 389.652 583.024C389.742 582.699 389.896 582.396 390.105 582.134C390.314 581.871 390.574 581.655 390.869 581.498C391.163 581.342 391.487 581.248 391.819 581.223C402.563 580.3 413.202 578.03 424.017 578.101C436.5 578.219 449.183 577.663 462.067 576.433C462.611 576.386 462.871 576.09 462.847 575.547L462.776 574.624C462.772 574.577 462.758 574.532 462.736 574.491C462.714 574.449 462.684 574.413 462.648 574.383C462.611 574.353 462.57 574.331 462.525 574.318C462.48 574.304 462.433 574.3 462.386 574.305C442.032 576.221 421.535 574.447 401.145 577.923C393.178 579.295 384.656 579.52 375.578 578.597C372.646 578.314 369.833 578.846 367.138 580.194C364.821 581.376 364.951 581.802 367.528 581.471L378.024 580.158C378.991 580.034 379.973 580.114 380.907 580.394C381.84 580.673 382.705 581.146 383.444 581.782C384.183 582.418 384.78 583.202 385.196 584.083C385.613 584.965 385.839 585.924 385.861 586.899C385.98 591.865 386.618 596.879 387.776 601.941C388.864 606.671 389.526 611.673 389.762 616.947C390.566 635.111 392.965 652.813 396.961 670.054ZM370.223 590.446C369.679 593.19 367.954 594.55 365.046 594.526C361.523 594.503 361.287 595.366 364.336 597.116C368.048 599.244 371.228 597.849 373.876 592.93C374.041 592.622 374.029 592.338 373.84 592.078L372.422 589.985C371.334 588.424 370.601 588.578 370.223 590.446ZM447.038 602.333C446.819 601.655 446.444 601.034 445.933 600.507C445.422 599.981 444.785 599.557 444.06 599.262C443.335 598.967 442.535 598.805 441.706 598.786C440.877 598.767 440.036 598.892 439.229 599.153C437.6 599.679 436.214 600.728 435.375 602.069C434.536 603.409 434.313 604.932 434.755 606.302C434.974 606.98 435.35 607.601 435.861 608.128C436.372 608.654 437.008 609.078 437.733 609.373C438.459 609.668 439.258 609.83 440.087 609.849C440.916 609.868 441.758 609.743 442.565 609.482C444.193 608.956 445.58 607.907 446.419 606.566C447.258 605.226 447.48 603.703 447.038 602.333ZM369.124 644.76C369.063 645.761 369.391 646.748 370.038 647.514C370.685 648.28 371.602 648.768 372.599 648.875C376.169 649.23 378.332 647.693 379.088 644.263C379.987 640.148 378.332 637.878 374.124 637.452C371.972 637.239 369.963 637.547 368.095 638.374C367.874 638.471 367.68 638.621 367.529 638.81C367.378 638.999 367.276 639.222 367.23 639.459C367.185 639.697 367.198 639.942 367.269 640.173C367.339 640.404 367.464 640.615 367.634 640.787C368.722 641.898 369.218 643.223 369.124 644.76Z" fill="#F99576"/>
<path d="M492.28 571.679C495.377 570.639 497.871 570.556 499.762 571.431C500.755 571.88 500.779 572.365 499.833 572.886C498.084 573.832 495.471 573.843 491.996 572.921C492.824 573.465 492.918 573.051 492.28 571.679Z" fill="#56473E"/>
<path d="M159.543 583.235C160.594 584.601 162.101 585.205 162.908 584.583C163.714 583.962 163.516 582.35 162.465 580.984C161.413 579.618 159.906 579.015 159.1 579.636C158.293 580.258 158.491 581.869 159.543 583.235Z" fill="#56473E"/>
<path d="M370.223 590.446C370.601 588.578 371.334 588.424 372.422 589.985L373.84 592.078C374.029 592.338 374.041 592.622 373.876 592.93C371.228 597.849 368.048 599.244 364.337 597.116C361.287 595.366 361.523 594.502 365.046 594.526C367.954 594.55 369.679 593.19 370.223 590.446Z" fill="#030202"/>
<path d="M166.5 595.307C167.115 596.323 167.162 597.27 166.642 598.145C165.46 600.155 164.526 600.025 163.841 597.754C163.486 596.548 163.793 595.602 164.763 594.916C164.9 594.82 165.056 594.754 165.22 594.722C165.385 594.689 165.554 594.691 165.718 594.728C165.881 594.765 166.035 594.835 166.17 594.935C166.305 595.034 166.417 595.161 166.5 595.307Z" fill="#030202"/>
<path d="M447.039 602.333C447.481 603.703 447.258 605.225 446.419 606.566C445.58 607.907 444.194 608.956 442.565 609.482C441.758 609.743 440.917 609.867 440.088 609.849C439.259 609.83 438.459 609.668 437.734 609.373C437.008 609.077 436.372 608.654 435.861 608.127C435.35 607.6 434.975 606.98 434.756 606.302C434.313 604.932 434.536 603.409 435.375 602.068C436.214 600.728 437.601 599.679 439.229 599.152C440.036 598.892 440.878 598.767 441.707 598.786C442.535 598.805 443.335 598.966 444.06 599.262C444.786 599.557 445.422 599.98 445.933 600.507C446.444 601.034 446.82 601.654 447.039 602.333ZM444.76 603.86C444.732 603.127 444.327 602.438 443.636 601.946C442.945 601.453 442.024 601.197 441.075 601.233C440.605 601.251 440.142 601.34 439.713 601.496C439.284 601.652 438.897 601.871 438.575 602.14C438.252 602.41 438 602.725 437.833 603.067C437.666 603.409 437.588 603.772 437.602 604.136C437.63 604.869 438.034 605.558 438.725 606.05C439.416 606.543 440.338 606.799 441.287 606.763C441.757 606.745 442.219 606.656 442.648 606.5C443.077 606.344 443.464 606.125 443.787 605.856C444.109 605.586 444.361 605.271 444.528 604.929C444.695 604.587 444.774 604.223 444.76 603.86Z" fill="#030202"/>
<path d="M441.287 606.763C443.264 606.687 444.819 605.388 444.76 603.861C444.701 602.333 443.052 601.157 441.075 601.233C439.098 601.309 437.544 602.609 437.602 604.136C437.661 605.663 439.311 606.839 441.287 606.763Z" fill="#F99576"/>
<path d="M169.159 611.945C169.075 611.734 169.056 611.503 169.104 611.282C169.152 611.06 169.266 610.858 169.43 610.701C169.594 610.545 169.801 610.441 170.025 610.403C170.248 610.366 170.478 610.396 170.684 610.49C173.403 611.72 174.124 613.529 172.847 615.918C172.067 617.408 171.358 617.373 170.72 615.812L169.159 611.945Z" fill="#56473E"/>
<path d="M405.329 614.641C414.809 621.358 424.987 625.473 435.861 626.987C443.769 628.122 451.535 624.007 458.84 621.169C463.355 619.418 464.467 616.367 462.173 612.016C463.545 610.928 464.75 610.384 465.79 610.384C466.996 610.384 467.658 610.987 467.776 612.193L472.492 660.902C472.634 662.25 472.043 663.113 470.719 663.491C448.214 669.782 426.429 670.492 405.365 665.62C401.464 664.697 399.171 662.226 398.485 658.205C395.909 643.211 394.325 627.826 393.734 612.051C393.663 610.514 394.325 610.041 395.719 610.632L405.329 614.641Z" fill="#F99576"/>
<path d="M248.557 611.094C250.022 611.165 250.696 611.496 250.578 612.087C249.396 613.175 248.509 613.79 247.918 613.932C239.195 616.226 230.342 617.811 221.358 618.686C213.699 619.431 206.925 622.162 199.514 622.375C190.011 622.659 181.784 626.242 172.528 627.093C172.15 627.141 171.961 626.975 171.961 626.597V625.639C171.961 625.426 172.067 625.296 172.28 625.249C193.935 620.306 215.85 616.734 238.025 614.535C241.287 614.204 244.798 613.057 248.557 611.094Z" fill="#030202"/>
<path d="M462.174 612.016C464.467 616.367 463.356 619.418 458.841 621.168C451.536 624.006 443.77 628.122 435.862 626.986C424.987 625.473 414.81 621.358 405.33 614.641C418.214 616.107 431.004 617.526 443.699 618.898C447.529 619.3 453.687 617.006 462.174 612.016Z" fill="#F99576"/>
<path d="M369.124 644.76C369.218 643.223 368.722 641.898 367.635 640.787C367.465 640.615 367.339 640.404 367.269 640.173C367.198 639.942 367.185 639.697 367.231 639.459C367.276 639.222 367.378 638.999 367.529 638.81C367.68 638.621 367.874 638.471 368.095 638.374C369.963 637.547 371.973 637.239 374.124 637.452C378.332 637.878 379.987 640.148 379.088 644.263C378.332 647.693 376.169 649.23 372.599 648.875C371.602 648.768 370.685 648.28 370.038 647.514C369.391 646.748 369.063 645.761 369.124 644.76ZM375.996 643.229C376.011 643.006 375.948 642.78 375.809 642.563C375.67 642.347 375.459 642.144 375.187 641.967C374.915 641.79 374.588 641.642 374.225 641.532C373.862 641.421 373.469 641.35 373.069 641.323C372.262 641.268 371.476 641.394 370.884 641.674C370.292 641.953 369.942 642.364 369.911 642.814C369.896 643.037 369.96 643.264 370.098 643.48C370.237 643.697 370.449 643.899 370.72 644.076C370.992 644.253 371.319 644.401 371.682 644.512C372.046 644.623 372.438 644.693 372.838 644.721C373.645 644.776 374.431 644.649 375.023 644.37C375.616 644.09 375.966 643.68 375.996 643.229Z" fill="#030202"/>
<path d="M372.838 644.721C374.519 644.835 375.933 644.167 375.997 643.229C376.061 642.291 374.75 641.437 373.07 641.323C371.39 641.208 369.976 641.876 369.912 642.814C369.848 643.752 371.158 644.606 372.838 644.721Z" fill="#F99576"/>
<path d="M181.43 658.205C181.386 659.792 181.921 661.094 182.626 661.113C183.331 661.133 183.938 659.863 183.982 658.277C184.027 656.69 183.491 655.388 182.786 655.369C182.082 655.349 181.474 656.619 181.43 658.205Z" fill="#56473E"/>
</svg>
