<!--?xml version="1.0" standalone="no"?-->
              <svg id="sw-js-blob-svg" viewBox="0 0 100 100" xmlns="http://www.w3.org/2000/svg" version="1.1">
                    <defs> 
                        <linearGradient id="sw-gradient" x1="0" x2="1" y1="1" y2="0">
                            <stop id="stop1" stop-color="rgba(248, 124, 86, 1)" offset="0%"></stop>
                            <stop id="stop2" stop-color="rgba(251, 168, 31, 1)" offset="100%"></stop>
                        </linearGradient>
                    </defs>
                <path fill="rgba(248, 124, 86, 1)" d="M20,-24.3C25.7,-19.1,29.8,-12.5,32.9,-4.4C35.9,3.7,37.9,13.3,34.9,21.7C31.9,30,24,37.1,14.7,40.5C5.5,43.9,-5.2,43.6,-14.8,40.3C-24.4,36.9,-33.1,30.5,-36.9,22.1C-40.7,13.8,-39.7,3.5,-36.7,-5.2C-33.7,-13.9,-28.6,-21,-22.1,-26C-15.7,-31.1,-7.8,-34.2,-0.3,-33.8C7.2,-33.4,14.3,-29.5,20,-24.3Z" width="100%" height="100%" transform="translate(50 50)" stroke-width="0" style="transition: all 0.3s ease 0s;"></path>
              </svg>