<svg width="257" height="248" viewBox="0 0 257 248" fill="none" xmlns="http://www.w3.org/2000/svg">
<g clip-path="url(#clip0_977_1798)">
<g clip-path="url(#clip1_977_1798)">
<path d="M166.836 194.976C167.528 196.537 168.665 197.758 170.247 198.639C171.733 201.042 173.342 203.233 174.652 205.796C178.597 213.56 181.979 222.834 184.798 233.618C185.314 235.593 185.035 233.634 185 235C184.971 236.106 184.074 236.03 183.5 236C180.974 223.879 177.846 216.137 171.891 204.289C171.792 203.892 171.414 203.405 170.757 202.825C170.529 202.63 170.35 202.668 170.221 202.94C167.062 209.586 164.955 215.499 163.899 220.678C162.962 225.296 161.85 232.079 161 242C157.641 241.976 153.037 243.462 147 244C144.128 244.254 141.121 245.751 137 245C136.009 240.69 135.05 233.778 134.851 229.237C134.792 227.918 134.628 226.668 134.358 225.485C134.071 224.22 133.913 222.967 133.884 221.725C133.878 221.481 133.822 221.241 133.719 221.021C133.616 220.801 133.468 220.605 133.284 220.446C133.101 220.287 132.887 220.169 132.655 220.099C132.424 220.029 132.18 220.009 131.941 220.04L129.338 220.368C128.699 220.451 128.667 220.344 129.241 220.049C129.91 219.712 130.607 219.579 131.334 219.65C133.585 219.88 135.698 219.824 137.673 219.481C142.728 218.612 147.81 219.055 152.857 218.576C152.868 218.575 152.88 218.576 152.891 218.58C152.902 218.583 152.913 218.589 152.922 218.596C152.931 218.603 152.938 218.613 152.944 218.623C152.949 218.633 152.952 218.645 152.953 218.656L152.971 218.887C152.977 219.023 152.912 219.097 152.778 219.109C149.583 219.416 146.439 219.555 143.344 219.525C140.662 219.508 138.025 220.075 135.361 220.306C135.278 220.312 135.198 220.336 135.125 220.375C135.052 220.414 134.988 220.468 134.936 220.534C134.884 220.599 134.846 220.675 134.824 220.756C134.801 220.838 134.796 220.923 134.807 221.007L135.334 224.891C135.362 225.085 135.432 225.271 135.54 225.435C135.648 225.599 135.791 225.738 135.959 225.84C138.834 227.561 142.64 227.765 146.078 228.199C149.032 228.572 151.327 227.605 153.639 225.973C154.044 225.689 154.234 225.296 154.211 224.794L153.789 217.441C153.771 217.14 153.613 216.998 153.314 217.016C149.375 217.181 145.404 217.435 141.401 217.778C136.858 218.168 132.978 218.34 129.76 218.293C129.016 218.281 128.295 218.157 127.597 217.92C127.498 217.879 127.445 217.802 127.439 217.69C127.439 217.63 127.463 217.562 127.509 217.486C127.556 217.397 127.586 217.338 127.597 217.308C128.271 217.746 128.887 217.947 129.444 217.911C137.521 217.432 145.513 216.871 153.419 216.226C153.552 216.215 153.674 216.152 153.761 216.051C153.848 215.95 153.893 215.819 153.885 215.685C153.475 208.927 153.332 202.562 153.455 196.59C153.46 196.271 153.32 196.049 153.033 195.925C150.061 194.648 147.022 193.711 143.915 193.114C143.64 193.06 143.496 193.173 143.485 193.451L142.887 203.898C142.23 203.614 141.764 203.275 141.489 202.878C141.39 202.744 141.268 202.632 141.128 202.55C138.696 201.096 136.049 200.567 133.189 200.963C132.805 201.021 132.449 201.197 132.169 201.468C130.27 203.295 128.664 205.193 127.351 207.162C125.408 210.08 126.235 215.783 126.85 219.1L130 246H128C127.191 243.7 126.619 237.668 126.419 235.055C126.044 230.177 125.851 227.703 125.839 227.632C125.141 222.222 124.526 216.803 123.993 211.375C123.711 208.525 124.116 205.648 125.206 202.745C125.382 202.272 125.411 201.749 125.294 201.176C125.358 200.957 125.479 200.753 125.654 200.564L134.701 189.974C135.616 188.898 135.402 188.564 134.059 188.972C133.022 189.291 132.093 189.885 131.272 190.754C129.901 192.218 127.879 192.706 125.98 192.413C123.635 192.052 121.279 192.274 118.911 193.078C113.064 195.074 113.609 188.812 109.943 186.905C109.134 186.486 108.404 185.959 107.754 185.327C107.461 185.049 107.297 185.111 107.262 185.513C107.009 188.109 105.556 189.971 102.901 191.1C102.488 191.277 102.139 191.577 101.9 191.961C101.661 192.345 101.544 192.793 101.564 193.247C101.734 197.125 101.16 200.596 99.8411 203.659C98.8564 205.92 98.8476 208.599 100.21 210.727C101.875 213.311 102.745 215.446 102.822 217.131C103.156 224.06 103.543 231.327 103.982 238.931C104.082 240.634 103.543 241.5 102.364 241.529C101.942 241.305 101.746 241.027 101.775 240.696C102.168 236.391 101.954 232.072 101.134 227.738C101.538 225.089 101.453 222.467 100.879 219.871C100.544 218.364 99.9173 217.14 98.9971 216.2C97.7193 214.899 96.5851 213.595 95.5946 212.288C95.4129 212.046 95.1755 211.877 94.8824 211.783L87.0927 209.326L84.6222 206.284C84.3995 206.006 84.3496 205.702 84.4727 205.371C84.9563 204.049 85.9146 203.029 86.3542 201.637C86.5242 201.075 86.3776 200.972 85.9146 201.326C80.9383 205.104 78.4678 209.246 75.9533 214.674C75.8068 214.987 75.6309 215.005 75.4258 214.727L75.1532 214.364C75.1194 214.317 75.0996 214.262 75.0965 214.205C75.0934 214.148 75.107 214.092 75.1356 214.044C75.7569 213.063 76.3108 212.034 76.7973 210.958C78.7491 206.692 82.0022 203.153 85.941 200.439C88.1566 198.908 89.7772 196.661 90.8029 193.699C90.9788 193.185 90.8381 193.066 90.3809 193.344C86.4509 195.73 81.7648 198.125 78.9777 201.654C77.3776 203.682 75.795 206.062 74.2301 208.794C72.9904 210.949 73.3948 213.636 74.8191 215.534C75.3554 216.244 75.2148 217.024 75.5049 217.823C77.0757 222.151 78.5674 226.89 79.98 232.04C80.0706 232.367 80.2813 232.648 80.5699 232.825C80.8585 233.003 81.2036 233.064 81.5362 232.997C83.0543 232.684 84.5431 232.418 86.0025 232.199C87.4444 231.975 88.9127 231.7 90.4073 231.374C93.5666 230.694 96.6936 230.251 99.7884 230.044C99.8893 230.038 99.9905 230.053 100.086 230.088C100.181 230.123 100.268 230.178 100.342 230.248C100.416 230.319 100.475 230.404 100.516 230.498C100.557 230.593 100.579 230.695 100.58 230.798C100.58 232.926 100.668 234.984 100.843 236.971C100.972 238.408 100.556 239.679 99.5949 240.784C99.4919 240.904 99.3583 240.992 99.2092 241.039C99.0601 241.086 98.9014 241.09 98.7509 241.05L98.4608 240.98C98.4002 240.965 98.3442 240.936 98.2975 240.894C98.2509 240.853 98.2151 240.8 98.1934 240.742C98.1717 240.683 98.1646 240.62 98.1729 240.557C98.1812 240.495 98.2046 240.436 98.241 240.385C99.085 239.188 99.8763 238.026 99.6741 236.483C99.4572 234.81 99.296 233.24 99.1905 231.773C99.1802 231.615 99.1372 231.46 99.0642 231.319C98.9912 231.178 98.8898 231.053 98.7665 230.954C98.6432 230.855 98.5007 230.782 98.3482 230.742C98.1956 230.701 98.0363 230.693 97.8805 230.718C93.549 231.398 89.4607 232.084 85.6157 232.776C84.0595 233.06 83.1539 233.68 81.4571 233.148C81.3356 233.111 81.2064 233.107 81.0828 233.136C80.9593 233.166 80.8459 233.227 80.7544 233.315C80.6629 233.403 80.5967 233.514 80.5625 233.635C80.5284 233.757 80.5276 233.886 80.5603 234.008L82.0813 239.773C82.133 239.97 82.1176 240.177 82.0378 240.363C81.9579 240.548 81.8182 240.7 81.6417 240.793C81.1787 241.036 80.7654 240.903 80.402 240.394C80.15 238.449 79.7514 236.539 79.2063 234.665C77.3307 228.179 75.2265 221.642 72.8937 215.055C72.4013 213.672 71.9148 213.672 71.4342 215.055C71.2173 215.688 71.1998 216.347 71.3815 217.033C70.8305 217.802 70.4583 218.506 70.2649 219.144C68.0259 226.446 66.2938 233.441 65.0688 240.128C64.0431 239.655 63.6504 238.824 63.8907 237.636C65.186 231.203 66.9972 224.43 69.3241 217.317C71.9617 209.282 75.7247 202.071 82.2044 196.812C82.9341 196.218 83.7518 195.029 83.9276 194.089C84.6398 190.471 85.4662 186.799 85.8179 183.101C86.5447 175.467 87.0839 167.816 87.4356 160.148C87.5528 157.593 87.1338 155.675 86.1784 154.392C86.8172 153.593 87.2861 152.775 87.5851 151.935C87.6847 151.651 87.6027 151.438 87.3389 151.296L84.3145 149.602C83.4763 148.106 82.6235 146.563 81.756 144.973C79.5492 140.955 79.0305 137.7 80.3141 133.283C80.5427 132.494 80.2526 131.581 79.8218 130.915C78.7052 129.177 77.8172 127.182 77.6853 125.115C76.9878 113.615 79.9302 103.188 86.5125 93.8342C88.1214 91.5371 90.2578 89.4707 92.2448 87.4397C95.5946 83.9985 99.4982 82.1538 103.833 80.2913C105.433 79.6054 107.112 79.0703 108.87 78.686C114.823 77.4 119.729 76.7348 125.549 78.5441C128.371 79.4221 130.437 78.8545 133.145 78.5352C134.704 78.3578 136.375 78.4613 138.157 78.8456C139.874 79.2181 141.486 79.8094 142.992 80.6194C148.385 83.5284 152.719 87.0967 155.995 91.3243C160.175 96.7048 163.287 102.674 165.333 109.231C166.95 114.41 167.097 119.581 165.772 124.743C165.286 126.646 164.497 128.305 163.407 129.718C162.944 130.315 162.78 130.978 162.915 131.705C163.724 136.104 163.269 140.204 161.552 144.006C160.69 145.922 159.838 147.725 158.994 149.416C158.097 151.199 157.939 153.31 158.026 155.296C158.349 162.332 159.035 169.179 160.084 175.837C160.849 180.679 162.422 185.965 163.618 190.967C164.093 192.972 165.166 194.308 166.836 194.976ZM135.466 95.1291C135.748 96.0751 136.117 96.9709 136.574 97.8164C138.473 101.334 139.883 104.737 140.803 108.025C141.624 110.969 142.356 113.866 143.001 116.716C143.165 117.455 143.611 117.916 144.337 118.1C147.942 118.987 151.579 120.648 155.248 123.084C155.512 123.261 155.664 123.507 155.705 123.82L156.286 128.29C156.374 129.012 156.752 129.23 157.42 128.947C158.744 128.379 160.013 128.459 161.227 129.186C161.338 129.252 161.461 129.294 161.589 129.309C161.717 129.324 161.847 129.311 161.97 129.272C162.093 129.232 162.206 129.167 162.302 129.081C162.398 128.994 162.475 128.888 162.528 128.769C166.033 120.905 166.027 113.059 162.51 105.231C160.254 100.211 157.877 96.0455 155.38 92.7345C151.535 87.6437 146.398 83.7324 139.968 81.0008C136.829 79.6704 132.987 79.9897 129.681 80.3356C128.468 80.4657 127.17 80.3593 125.786 80.0163C119.638 78.485 113.187 78.822 106.435 81.0274C101.318 82.7036 96.5969 84.9209 92.7636 88.6636C88.813 92.5246 85.8794 96.4831 83.9628 100.539C80.1588 108.592 78.5147 116.716 79.0305 124.911C79.1536 126.921 79.8393 128.725 81.0878 130.321C81.2139 130.484 81.3742 130.617 81.5568 130.709C81.7395 130.801 81.9397 130.851 82.1428 130.853L86.0992 130.889C86.5974 130.895 86.8202 130.646 86.7674 130.144L86.2839 125.541C86.2487 125.174 86.3278 124.831 86.5212 124.512C86.9784 123.767 87.6671 123.229 88.5874 122.898C88.9508 122.774 89.1999 122.528 89.3347 122.162C90.5245 118.862 92.0338 116.364 93.8626 114.667C96.2657 112.432 97.0394 112.905 96.1836 116.086C95.7733 117.612 95.4217 119.389 95.1286 121.417C95.1179 121.489 95.1256 121.564 95.1511 121.633C95.1766 121.702 95.219 121.763 95.2744 121.811C95.3297 121.858 95.3962 121.891 95.4675 121.906C95.5389 121.921 95.6129 121.917 95.6825 121.896C101.52 120.069 107.499 118.732 113.618 117.887C113.741 117.869 113.852 117.804 113.928 117.704C114.004 117.605 114.038 117.479 114.023 117.355C113.296 111.3 114.245 105.337 116.871 99.466C118.12 96.6812 120.186 94.4728 121.654 91.8032C122.164 90.8897 122.982 90.6236 123.623 89.852C123.858 89.5741 124.163 89.4027 124.538 89.3376C124.819 89.2903 125.071 89.3406 125.294 89.4884C125.546 89.6599 125.654 89.8964 125.619 90.1979C124.746 97.707 124.737 105.905 125.593 114.792C125.692 115.88 125.927 116.917 126.296 117.905C126.478 118.389 126.824 118.641 127.334 118.658L130.006 118.774C130.475 118.797 130.639 118.585 130.499 118.135C127.914 109.722 127.445 101.302 129.092 92.8764C129.203 92.2969 129.42 91.7382 129.743 91.2001C129.884 90.9688 130.109 90.8026 130.369 90.7378C130.629 90.6731 130.903 90.7149 131.132 90.8542C132.07 91.4218 132.981 92.0752 133.866 92.8143C134.675 93.4824 135.208 94.254 135.466 95.1291ZM131.193 95.3153C130.256 97.4794 129.839 99.7173 129.945 102.029C129.628 103.909 129.52 105.252 129.62 106.056C130.024 109.219 130.909 113.517 132.275 118.951C132.533 119.98 132.134 120.45 131.079 120.361L126.428 119.962C125.385 119.868 124.766 119.303 124.573 118.268C123.07 110.144 123.237 102.756 123.5 94.1624C123.518 93.4824 123.377 93.4469 123.078 94.0559L121.874 96.486C121.833 96.5624 121.783 96.6312 121.724 96.69C120.476 97.9849 119.324 98.8541 118.621 100.637C117.032 104.64 116.106 108.938 115.843 113.532C115.737 115.336 115.74 117.115 115.851 118.871C115.875 119.309 115.67 119.542 115.236 119.572C111.49 119.856 107.76 120.568 104.044 121.709C101.38 122.534 98.5487 122.57 95.8935 123.767C95.6004 123.897 95.3015 123.921 94.9967 123.838C92.8075 123.226 93.3878 120.778 93.7131 119.084C94.0648 117.251 93.7805 117.145 92.8603 118.765C92.0338 120.225 91.3686 121.828 90.8645 123.572C90.7648 123.903 90.5538 124.122 90.2315 124.228L88.5346 124.769C88.3918 124.815 88.2688 124.908 88.1857 125.034C88.1026 125.16 88.0644 125.31 88.0774 125.461L88.5962 131.332C88.6548 132.024 88.9683 132.175 89.5369 131.785C96.1192 127.338 103.537 126.046 111.789 127.909C113.7 128.34 115.391 129.346 116.862 130.924C117.073 131.155 117.317 131.19 117.592 131.031C120.423 129.381 123.105 130.197 126.217 130.215C126.51 130.221 126.747 130.108 126.929 129.878C128.453 127.95 130.402 126.706 132.776 126.144C139.897 124.465 146.606 125.36 152.901 128.831C153.364 129.085 153.601 128.947 153.613 128.414L153.683 124.228C153.689 123.696 153.449 123.329 152.962 123.128C149.744 121.807 146.289 119.696 142.711 119.616C142.526 119.611 142.348 119.543 142.207 119.422C142.067 119.301 141.971 119.135 141.937 118.951C140.648 112.542 138.625 106.23 135.871 100.016C134.892 97.7868 133.488 95.6287 131.659 93.5415C131.431 93.2755 131.255 93.308 131.132 93.6391C130.909 94.2244 130.93 94.7832 131.193 95.3153ZM133.233 145.931C133.731 146.238 134.276 146.433 134.868 146.516C138.766 147.06 142.485 147.098 146.025 146.631C147.511 146.436 148.584 145.611 149.903 145.035C150.237 144.893 150.492 144.662 150.668 144.343C151.45 142.96 152.989 142.738 153.393 140.893C154.149 137.458 154.152 134.064 153.402 130.711C153.326 130.369 153.121 130.15 152.786 130.055C151.309 129.618 149.988 129.106 148.821 128.521C145.173 126.685 141.489 126.463 137.269 126.96C133.998 127.35 131.404 127.235 128.811 129.771C127.697 130.871 127.058 132.308 126.894 134.082C126.572 137.694 126.991 140.429 128.151 142.285C129.268 144.086 131.396 144.795 133.233 145.931ZM92.9658 131.731C89.4138 132.494 89.9325 137.461 90.2315 140.405C90.4014 142.149 91.0022 143.595 92.0338 144.742C93.7453 146.64 95.788 147.737 98.1618 148.033C98.8535 148.121 99.5275 148.257 100.184 148.441C100.958 148.659 101.796 148.76 102.698 148.742C105.371 148.701 107.985 148.414 110.541 147.882C112.329 147.515 113.82 146.56 115.016 145.017C117.237 142.167 117.938 138.877 117.117 135.146C116.432 132.042 114.659 130.099 111.798 129.319C109.893 128.799 107.516 128.506 104.668 128.441C103.059 128.405 101.591 128.84 99.9642 128.876C98.1882 128.911 96.591 129.541 95.1726 130.765C94.9557 130.954 94.7037 131.046 94.4165 131.04C94.0648 131.034 93.7658 131.161 93.5197 131.421C93.3673 131.587 93.1826 131.69 92.9658 131.731ZM157.349 131.119C156.763 131.616 156.418 132.432 156.312 133.567C156.224 134.572 156.119 135.427 155.995 136.13C155.796 137.254 155.79 138.371 155.978 139.483L155.635 146.968C155.612 147.56 155.849 147.701 156.347 147.394L157.42 146.729C157.644 146.591 157.822 146.387 157.929 146.143C158.036 145.899 158.067 145.627 158.018 145.363L157.112 140.565C157.528 140.039 157.974 140.485 158.448 141.904C158.73 142.738 158.8 143.749 158.659 144.937C158.566 145.765 158.788 145.863 159.328 145.23C160.084 144.349 160.304 143.48 159.987 142.622C158.873 139.583 158.264 137.363 158.158 135.962C159.084 137.83 159.673 139.279 159.926 140.308C160.383 142.188 160.863 142.194 161.367 140.325C162.097 137.638 162.572 132.556 160.005 130.516C159.307 129.966 158.422 130.167 157.349 131.119ZM118.049 132.955L118.164 133.275C118.193 133.347 118.248 133.405 118.318 133.438C118.388 133.471 118.468 133.476 118.542 133.452C120.787 132.683 122.958 132.624 125.057 133.275C125.344 133.363 125.555 133.275 125.69 133.009L125.848 132.68C126.035 132.308 125.924 132.077 125.514 131.989C123.251 131.521 120.877 131.616 118.392 132.272C118.322 132.291 118.257 132.325 118.201 132.371C118.145 132.417 118.099 132.474 118.066 132.538C118.034 132.603 118.016 132.674 118.013 132.745C118.01 132.817 118.022 132.889 118.049 132.955ZM84.5167 146.117C85.1204 147.169 85.941 148.098 86.9784 148.902C88.4848 150.072 89.1413 149.7 88.9478 147.784L88.2357 140.84C88.2298 140.781 88.2093 140.751 88.1741 140.751H87.9543C87.8407 140.749 87.7305 140.791 87.6469 140.868C87.5632 140.946 87.5127 141.053 87.506 141.168C87.4473 141.978 87.1308 142.643 86.5564 143.163C86.2985 143.394 86.111 143.347 85.9937 143.022C85.8765 142.69 85.8413 142.247 85.8882 141.691L87.04 135.119C87.2627 133.848 86.7557 133.041 85.519 132.698C85.1087 132.586 84.7042 132.53 84.3057 132.53C82.559 132.535 81.5245 133.405 81.2021 135.137C80.4694 139.069 81.5743 142.729 84.5167 146.117ZM125.329 134.542C125.328 134.479 125.301 134.419 125.256 134.375C125.21 134.331 125.149 134.307 125.086 134.309L119.004 134.459C118.941 134.46 118.881 134.487 118.838 134.533C118.795 134.579 118.771 134.641 118.773 134.704L118.875 138.942C118.877 139.006 118.903 139.066 118.949 139.11C118.995 139.154 119.055 139.177 119.118 139.176L125.201 139.026C125.264 139.024 125.323 138.998 125.367 138.952C125.41 138.906 125.434 138.844 125.432 138.781L125.329 134.542ZM108.791 149.993L100.966 150.303L93.546 148.174C93.3186 148.109 93.0798 148.094 92.8458 148.13C92.6118 148.166 92.3881 148.252 92.1897 148.383C91.9914 148.515 91.823 148.687 91.696 148.89C91.569 149.093 91.4863 149.32 91.4536 149.558C91.4008 149.942 91.4155 150.333 91.4975 150.729C92.2126 154.4 93.1123 157.818 94.1967 160.981C95.6561 165.256 100.562 169.158 104.237 170.932C112.317 174.843 120.265 177.894 129.162 175.429C135.657 173.631 140.589 171.092 143.959 167.81C147.344 164.502 150.386 161.46 151.432 156.591C152.019 153.865 152.561 151.089 153.059 148.263C153.176 147.595 152.907 147.181 152.25 147.021C150.984 146.711 150.043 146.525 148.751 147.03C146.676 147.834 144.51 148.296 142.254 148.414L132.389 147.288C129.529 146.229 127.504 144.319 126.314 141.558C126.23 141.365 126.092 141.201 125.917 141.086C125.742 140.971 125.538 140.91 125.329 140.911L119.263 140.902C118.858 140.896 118.597 141.088 118.48 141.478C117.085 146.167 113.856 149.005 108.791 149.993ZM154 145.194C154.152 144.692 154.205 144.201 154.158 143.722C154.123 143.297 153.906 143.152 153.507 143.288C152.974 143.477 152.543 143.835 152.215 144.361C152.033 144.645 152.06 144.914 152.294 145.168C152.505 145.393 152.754 145.561 153.041 145.673C153.534 145.863 153.853 145.703 154 145.194ZM91.7876 146.436C91.5415 145.904 91.181 145.505 90.7062 145.239C90.378 145.056 90.1934 145.153 90.1523 145.532C90.0879 146.164 90.211 146.735 90.5216 147.243C90.5685 147.321 90.6323 147.387 90.7082 147.437C90.7841 147.486 90.8702 147.518 90.9599 147.529C91.0496 147.54 91.1406 147.53 91.2261 147.501C91.3116 147.471 91.3894 147.423 91.4536 147.359L91.6558 147.155C91.7483 147.061 91.8106 146.942 91.8341 146.813C91.8577 146.685 91.8415 146.553 91.7876 146.436ZM149.604 165.008C149 171.121 149.076 177.726 149.832 184.821C149.539 187.399 151.55 188.564 155.864 188.315C158.22 188.182 159.591 188.777 160.26 191.038C160.453 191.677 160.852 191.863 161.455 191.597L161.701 191.482C161.989 191.358 162.091 191.145 162.009 190.843C160.872 186.669 159.946 182.917 159.231 179.588C157.613 172.068 156.784 162.956 156.743 152.254C156.743 151.456 156.801 150.599 156.919 149.682C157.007 149.044 156.766 148.872 156.198 149.168L155.828 149.363C155.593 149.487 155.393 149.67 155.248 149.894C155.103 150.118 155.018 150.375 155.002 150.64C154.949 151.409 154.809 152.133 154.58 152.813C153.8 155.16 152.921 157.605 151.942 160.148C151.626 160.975 151.236 161.791 150.773 162.595C150.333 163.346 149.944 164.15 149.604 165.008ZM93.4933 188.378C94.859 181.436 95.3953 174.308 95.1022 166.994C93.6193 164.346 92.4617 161.623 91.6294 158.826C91.0257 156.786 90.504 154.918 90.0644 153.221C89.7127 151.837 89.3962 151.846 89.1149 153.248C88.857 154.542 89.0006 155.728 89.5457 156.804C89.7098 157.129 89.6776 157.431 89.449 157.709C89.1149 158.111 88.9361 158.557 88.9127 159.048C88.6255 165.037 88.3236 171.03 88.0071 177.025C87.6818 183.127 86.8026 187.978 85.264 193.593C85.2438 193.667 85.2442 193.746 85.2651 193.821C85.286 193.895 85.3267 193.963 85.3828 194.016C85.4389 194.068 85.5082 194.105 85.5833 194.121C85.6585 194.137 85.7365 194.132 85.8091 194.107C89.0504 192.995 91.6118 191.086 93.4933 188.378ZM142.597 183.482C142.895 184.05 143.326 184.635 143.959 184.848C145.143 185.25 146.304 185.743 147.441 186.329C147.48 186.347 147.524 186.355 147.568 186.351C147.611 186.347 147.653 186.331 147.687 186.305C147.722 186.279 147.748 186.245 147.764 186.205C147.779 186.166 147.783 186.122 147.775 186.08C147.042 182.29 146.817 178.456 147.098 174.577C147.247 172.431 147.23 170.249 147.186 168.103C147.174 167.287 146.908 167.193 146.386 167.819C144.118 170.563 141.155 172.943 137.497 174.959C136.618 175.444 135.718 175.754 134.798 175.89C134.546 175.931 134.391 176.076 134.332 176.325C134.297 176.496 134.326 176.653 134.42 176.795C134.543 176.978 134.71 177.093 134.921 177.141C138.221 177.886 140.78 179.999 142.597 183.482ZM103.393 172.502C101.383 171.32 99.5158 170.06 97.7926 168.724C97.7416 168.683 97.6802 168.657 97.6153 168.649C97.5504 168.641 97.4846 168.651 97.4252 168.679C97.3659 168.706 97.3153 168.75 97.2793 168.805C97.2432 168.86 97.2231 168.924 97.2211 168.99L96.6057 182.134C96.5705 182.956 96.8284 183.062 97.3793 182.453C99.4806 180.129 102.637 177.806 105.793 177.371C106.907 177.217 108.012 176.966 109.108 176.617C109.212 176.585 109.305 176.524 109.377 176.441C109.448 176.358 109.495 176.256 109.513 176.146C109.53 176.037 109.517 175.924 109.475 175.821C109.433 175.718 109.364 175.628 109.275 175.562C107.49 174.232 105.345 173.655 103.393 172.502ZM132.495 182.914L132.67 176.733C132.672 176.691 132.664 176.649 132.646 176.611C132.629 176.573 132.603 176.54 132.57 176.514C132.538 176.488 132.5 176.47 132.459 176.462C132.418 176.454 132.376 176.455 132.336 176.467C129.03 177.3 125.672 178.338 122.252 178.214C118.835 178.09 115.28 177.339 111.587 175.961C111.495 175.926 111.395 175.918 111.299 175.936C111.202 175.954 111.112 175.998 111.038 176.063C110.964 176.129 110.909 176.213 110.879 176.308C110.849 176.402 110.844 176.503 110.866 176.6C111.359 178.775 111.578 180.963 111.526 183.163C111.523 183.252 111.499 183.34 111.454 183.417C111.409 183.495 111.345 183.559 111.269 183.605C111.193 183.651 111.106 183.677 111.017 183.68C110.928 183.684 110.84 183.664 110.761 183.624C110.35 183.405 109.978 183.127 109.644 182.79C109.363 182.494 109.137 182.533 108.967 182.905C108.709 183.467 108.932 184.035 109.635 184.608C109.787 184.732 109.953 184.833 110.128 184.91C112.291 185.862 113.817 187.485 114.708 189.779C115.35 191.428 116.941 191.783 118.489 191.287C121.273 190.388 123.949 190.205 126.516 190.737C127.677 190.979 128.685 190.666 129.54 189.797C130.953 188.366 132.623 187.408 134.552 186.923C134.886 186.84 135.15 186.654 135.343 186.364C136.597 184.437 136.436 182.941 134.86 181.877C134.838 181.861 134.813 181.852 134.787 181.848C134.761 181.844 134.735 181.847 134.71 181.856C134.685 181.864 134.662 181.879 134.644 181.898C134.626 181.917 134.612 181.94 134.605 181.965C134.317 182.976 133.86 183.52 133.233 183.597C133.139 183.609 133.043 183.6 132.952 183.57C132.861 183.541 132.778 183.492 132.708 183.427C132.638 183.362 132.582 183.283 132.546 183.194C132.509 183.106 132.491 183.01 132.495 182.914ZM91.5591 195.925C90.0556 199.056 88.0247 201.965 86.2487 205.042C86.1747 205.171 86.1442 205.321 86.1616 205.469C86.179 205.618 86.2435 205.757 86.3454 205.867C88.4496 208.09 91.1107 209.486 94.3285 210.053C97.098 210.55 97.4673 206.94 97.8365 205.167C98.5311 201.787 99.9994 199.304 100.017 195.792C100.052 188.759 102.549 182.897 108.888 179.393C109.492 179.062 109.454 178.861 108.774 178.79C99.8147 177.823 94.7945 189.202 91.5591 195.925ZM135.616 179.721C139.572 182.258 138.35 187.89 135.844 191.056C133.863 193.557 131.905 195.99 129.971 198.355C129.297 199.183 129.482 199.49 130.525 199.278C132.823 198.805 135.381 198.819 138.201 199.322C139.194 199.49 139.836 199.978 140.697 200.439C141.125 200.67 141.357 200.543 141.392 200.058C141.791 194.737 141.843 190.255 141.55 186.613C141.275 183.242 139.393 180.697 135.906 178.976C135.783 178.917 135.689 178.947 135.624 179.065L135.501 179.269C135.396 179.452 135.434 179.603 135.616 179.721ZM105.477 183.775L102.224 189.087C102.211 189.111 102.207 189.139 102.213 189.165C102.22 189.191 102.236 189.214 102.259 189.229L102.276 189.247C102.608 189.452 103.097 189.37 103.636 189.017C104.176 188.665 104.72 188.071 105.151 187.367L105.266 187.189C105.48 186.84 105.66 186.473 105.795 186.111C105.93 185.749 106.018 185.398 106.053 185.078C106.088 184.758 106.07 184.476 106 184.248C105.93 184.02 105.809 183.85 105.644 183.748L105.617 183.739C105.594 183.726 105.566 183.722 105.54 183.729C105.514 183.735 105.491 183.752 105.477 183.775ZM143.959 186.967C143.915 186.953 143.867 186.95 143.821 186.958C143.775 186.966 143.732 186.985 143.694 187.014C143.657 187.043 143.628 187.08 143.608 187.123C143.588 187.166 143.579 187.213 143.581 187.26L143.766 191.482C143.768 191.541 143.787 191.597 143.822 191.645C143.856 191.692 143.904 191.728 143.959 191.748L153.332 195.207C153.373 195.222 153.416 195.227 153.46 195.223C153.503 195.218 153.545 195.204 153.582 195.181C153.619 195.158 153.651 195.127 153.674 195.09C153.698 195.053 153.713 195.011 153.718 194.967L154.281 190.382C154.29 190.312 154.273 190.241 154.235 190.183C154.196 190.124 154.137 190.081 154.07 190.063L143.959 186.967ZM159.899 239.631C158.835 230.346 157.965 220.82 158.114 211.472C158.226 204.046 158.396 197.341 158.624 191.358C158.671 190.128 158.047 189.525 156.752 189.548C155.99 189.56 155.568 189.947 155.486 190.71C154.958 195.422 154.753 200.256 154.87 205.211C155.122 216.049 155.585 225.796 156.259 234.452C156.394 236.173 156.637 237.908 156.989 239.658C157.13 240.379 157.566 240.764 158.299 240.811L158.774 240.838C159.624 240.891 159.999 240.489 159.899 239.631ZM160.998 199.189C163.343 200.566 165.318 202.255 166.924 204.253C167.463 204.921 167.888 204.853 168.199 204.049L169.148 201.619C169.389 201.016 169.304 200.466 168.893 199.969C166.478 197.031 163.885 194.725 161.112 193.052C160.433 192.644 160.095 192.839 160.101 193.637L160.128 197.681C160.134 198.355 160.424 198.858 160.998 199.189ZM160.268 217.92C160.427 218.263 160.403 218.367 160.198 218.231C159.741 222.701 159.949 227.017 160.822 231.179C160.91 231.599 160.981 231.596 161.033 231.17C161.414 228.06 161.766 224.841 162.088 221.512C162.229 220.093 162.66 218.656 163.108 217.317C163.237 216.927 163.102 216.69 162.704 216.608L161.534 216.377C161.474 216.362 161.421 216.325 161.387 216.274C161.353 216.223 161.34 216.162 161.35 216.102L161.403 215.792C161.413 215.729 161.443 215.672 161.489 215.627C161.535 215.583 161.594 215.553 161.658 215.543L163.17 215.33C163.439 215.289 163.624 215.141 163.724 214.887L167.205 205.796C167.317 205.501 167.252 205.255 167.012 205.06C164.84 203.304 162.88 201.167 160.304 200.023C159.964 199.875 159.794 199.984 159.794 200.351L159.723 217.14C159.723 217.388 159.823 217.586 160.022 217.734L160.268 217.92ZM126.745 205.246L129.611 201.158C129.628 201.133 129.635 201.102 129.63 201.072C129.625 201.043 129.609 201.016 129.584 200.998L129.558 200.989C129.314 200.817 128.933 200.863 128.498 201.115C128.063 201.368 127.609 201.807 127.237 202.337L127.052 202.595C126.679 203.126 126.418 203.704 126.326 204.203C126.233 204.702 126.318 205.08 126.56 205.255L126.586 205.273C126.611 205.29 126.641 205.297 126.671 205.292C126.7 205.287 126.727 205.271 126.745 205.246ZM100.158 214.204C99.5861 212.883 98.8652 211.472 98.03 210.266C97.8072 209.941 97.5757 209.935 97.3354 210.248C96.9778 210.716 96.9456 211.195 97.2387 211.685C97.8776 212.744 98.7275 213.681 99.7884 214.497C100.281 214.875 100.404 214.778 100.158 214.204ZM152.804 228.004C150.7 229.252 149.173 229.825 148.223 229.725C145.076 229.382 141.905 229.027 138.71 228.66L136.328 227.658C135.982 227.51 135.818 227.629 135.835 228.013C135.982 231.957 136.375 235.803 137.014 239.552C137.184 240.557 137.752 241.175 138.719 241.405C143.942 242.623 149.343 242.446 154.923 240.873C155.251 240.778 155.398 240.563 155.362 240.226L154.193 228.049C154.164 227.747 154 227.596 153.701 227.596C153.443 227.596 153.144 227.732 152.804 228.004Z" fill="#030202"/>
<path d="M133.865 92.814C132.98 92.0749 132.069 91.4216 131.131 90.854C130.903 90.7146 130.629 90.6728 130.368 90.7376C130.108 90.8024 129.883 90.9685 129.742 91.1999C129.42 91.7379 129.203 92.2967 129.091 92.8761C127.444 101.302 127.913 109.721 130.498 118.135C130.639 118.584 130.475 118.797 130.006 118.774L127.333 118.658C126.823 118.641 126.477 118.389 126.296 117.904C125.926 116.917 125.692 115.879 125.592 114.791C124.736 105.905 124.745 97.7067 125.619 90.1977C125.654 89.8961 125.545 89.6596 125.293 89.4881C125.071 89.3403 124.819 89.2901 124.537 89.3374C124.162 89.4024 123.857 89.5739 123.623 89.8518C122.981 90.6234 122.163 90.8894 121.653 91.803C120.185 94.4725 118.119 96.6809 116.871 99.4658C114.245 105.337 113.295 111.3 114.022 117.354C114.037 117.479 114.003 117.604 113.927 117.704C113.852 117.803 113.741 117.869 113.618 117.887C107.498 118.732 101.52 120.068 95.6819 121.895C95.6123 121.917 95.5383 121.921 95.4669 121.906C95.3956 121.891 95.3291 121.858 95.2738 121.81C95.2184 121.763 95.176 121.701 95.1505 121.632C95.125 121.564 95.1173 121.489 95.128 121.416C95.4211 119.388 95.7727 117.612 96.183 116.086C97.0388 112.905 96.2651 112.432 93.8619 114.667C92.0332 116.364 90.5239 118.862 89.3341 122.161C89.1993 122.528 88.9502 122.773 88.5868 122.898C87.6665 123.229 86.9778 123.767 86.5206 124.512C86.3272 124.831 86.2481 125.174 86.2833 125.541L86.7668 130.144C86.8196 130.646 86.5968 130.894 86.0986 130.889L82.1422 130.853C81.9391 130.85 81.7389 130.801 81.5562 130.709C81.3736 130.617 81.2133 130.484 81.0872 130.321C79.8387 128.725 79.153 126.921 79.0299 124.911C78.5141 116.716 80.1582 108.592 83.9622 100.539C85.8788 96.4828 88.8124 92.5243 92.763 88.6633C96.5963 84.9206 101.318 82.7034 106.434 81.0271C113.187 78.8217 119.637 78.4847 125.786 80.0161C127.169 80.359 128.467 80.4654 129.68 80.3354C132.986 79.9895 136.828 79.6702 139.967 81.0005C146.397 83.7322 151.534 87.6434 155.379 92.7342C157.876 96.0453 160.253 100.211 162.51 105.231C166.027 113.059 166.032 120.905 162.527 128.769C162.475 128.888 162.398 128.994 162.302 129.08C162.205 129.167 162.092 129.232 161.969 129.272C161.846 129.311 161.717 129.324 161.589 129.309C161.461 129.294 161.337 129.252 161.226 129.186C160.013 128.458 158.744 128.379 157.419 128.946C156.751 129.23 156.373 129.011 156.285 128.29L155.705 123.82C155.664 123.507 155.511 123.261 155.248 123.084C151.578 120.648 147.941 118.986 144.337 118.099C143.61 117.916 143.164 117.455 143 116.716C142.356 113.866 141.623 110.969 140.802 108.024C139.882 104.737 138.472 101.334 136.573 97.8161C136.116 96.9706 135.747 96.0748 135.466 95.1288C135.208 94.2537 134.674 93.4821 133.865 92.814ZM91.9453 96.672C94.706 92.8465 97.8418 89.7956 101.353 87.5192C103.416 86.1771 106.156 84.9531 109.573 83.8475C109.617 83.8332 109.654 83.8019 109.676 83.7604C109.697 83.7188 109.701 83.6704 109.688 83.6257L109.608 83.3774C109.532 83.1409 109.377 83.0552 109.142 83.1202C105.503 84.149 102.425 85.5769 99.9108 87.4039C94.7587 91.1289 90.8404 95.7733 88.156 101.337C88.1331 101.384 88.1218 101.436 88.123 101.489C88.1242 101.541 88.1379 101.593 88.1629 101.639C88.1878 101.685 88.2234 101.724 88.2666 101.753C88.3097 101.783 88.3592 101.801 88.4109 101.807L88.7011 101.843C88.7714 101.849 88.8212 101.822 88.8505 101.763C89.7708 99.9476 90.8023 98.2507 91.9453 96.672ZM145.321 100.317C143.264 94.1325 139.621 89.4911 134.393 86.3929C134.223 86.2864 134.115 86.3337 134.068 86.5348L133.997 86.8452C133.898 87.2768 134.03 87.6197 134.393 87.874C138.754 90.9367 141.822 94.6854 143.598 99.1199C143.818 99.6697 144.425 100.282 144.908 100.628C145.36 100.947 145.497 100.843 145.321 100.317ZM94.4334 102.144C93.3198 104.356 92.294 106.596 91.3562 108.867C91.3382 108.91 91.3295 108.957 91.3305 109.004C91.3315 109.051 91.3423 109.098 91.3622 109.14C91.3821 109.183 91.4106 109.221 91.4459 109.252C91.4812 109.282 91.5226 109.305 91.5672 109.319L91.7958 109.39C91.9535 109.438 92.1234 109.426 92.2727 109.356C92.422 109.285 92.5402 109.162 92.6047 109.009C95.7698 101.47 100.491 93.5856 106.777 88.9471C107.123 88.6929 107.167 88.3943 106.909 88.0514L106.777 87.8651C106.719 87.7873 106.632 87.7363 106.535 87.7231C106.438 87.7098 106.339 87.7353 106.259 87.7942C101.329 91.4659 97.3875 96.2493 94.4334 102.144ZM151.854 96.6454C150.465 93.9079 148.314 91.8236 145.401 90.3928C145.307 90.3455 145.254 90.375 145.242 90.4815L145.216 90.8717C145.198 91.0136 145.248 91.126 145.365 91.2087C147.645 92.9411 149.328 94.7682 150.412 96.6898C152.762 100.84 154.491 105.984 155.599 112.122C155.609 112.183 155.636 112.239 155.678 112.283C155.72 112.328 155.774 112.359 155.834 112.372C155.894 112.385 155.958 112.38 156.016 112.358C156.074 112.335 156.125 112.297 156.162 112.246L156.382 111.936C156.587 111.646 156.654 111.327 156.584 110.978C155.423 105.361 153.847 100.583 151.854 96.6454ZM93.7692 99.0663C93.7956 99.0225 93.8132 98.9739 93.821 98.9233C93.8287 98.8726 93.8265 98.8209 93.8145 98.7711C93.8025 98.7213 93.7808 98.6744 93.7508 98.633C93.7208 98.5917 93.683 98.5567 93.6396 98.5301L93.6095 98.5117C93.5219 98.458 93.4166 98.4415 93.317 98.466C93.2173 98.4905 93.1314 98.5539 93.0781 98.6424L90.4379 103.023C90.4115 103.066 90.3939 103.115 90.3862 103.166C90.3784 103.216 90.3806 103.268 90.3926 103.318C90.4046 103.368 90.4263 103.414 90.4563 103.456C90.4863 103.497 90.5241 103.532 90.5675 103.559L90.5976 103.577C90.6852 103.631 90.7905 103.647 90.8901 103.623C90.9898 103.598 91.0757 103.535 91.1291 103.447L93.7692 99.0663ZM105.599 112.902C107.006 107.714 109.151 103.333 112.246 98.8272C112.296 98.7569 112.316 98.6691 112.301 98.5827C112.286 98.4963 112.238 98.4185 112.167 98.366L111.965 98.2241C111.859 98.1413 111.768 98.1531 111.692 98.2596C108.556 102.387 106.256 106.928 104.79 111.882C104.679 112.243 104.702 112.601 104.861 112.955C105.16 113.635 105.406 113.618 105.599 112.902ZM148.777 105.647L151.458 110.818C151.466 110.833 151.476 110.846 151.488 110.856C151.501 110.867 151.515 110.875 151.531 110.88C151.546 110.885 151.563 110.887 151.579 110.885C151.595 110.884 151.611 110.879 151.625 110.871L151.696 110.827C151.968 110.68 152.088 110.267 152.029 109.677C151.969 109.087 151.736 108.368 151.379 107.678L151.291 107.501C151.113 107.158 150.91 106.832 150.693 106.543C150.476 106.254 150.251 106.006 150.028 105.815C149.806 105.624 149.592 105.493 149.399 105.429C149.205 105.365 149.035 105.37 148.9 105.443L148.829 105.479C148.815 105.486 148.802 105.497 148.792 105.509C148.781 105.522 148.773 105.536 148.768 105.552C148.763 105.568 148.761 105.584 148.763 105.601C148.764 105.617 148.769 105.633 148.777 105.647ZM102.61 111.501L104.535 106.401C104.538 106.396 104.54 106.389 104.54 106.383C104.54 106.376 104.539 106.37 104.536 106.364C104.534 106.358 104.53 106.353 104.525 106.349C104.521 106.344 104.515 106.341 104.509 106.339L104.474 106.33C104.256 106.246 104.003 106.283 103.768 106.435C103.534 106.586 103.339 106.839 103.225 107.137L102.109 110.073C101.997 110.371 101.976 110.689 102.05 110.958C102.125 111.228 102.288 111.426 102.504 111.51L102.548 111.528C102.554 111.53 102.56 111.532 102.567 111.532C102.573 111.532 102.579 111.531 102.585 111.529C102.591 111.526 102.596 111.522 102.601 111.518C102.605 111.513 102.608 111.507 102.61 111.501ZM148.009 108.001C147.957 107.84 147.843 107.707 147.693 107.631C147.543 107.555 147.369 107.542 147.21 107.595L147.176 107.606C147.097 107.632 147.024 107.674 146.961 107.729C146.899 107.784 146.847 107.851 146.81 107.925C146.772 108 146.75 108.082 146.744 108.166C146.738 108.249 146.748 108.333 146.774 108.413L148.911 114.93C148.964 115.091 149.077 115.224 149.227 115.3C149.377 115.376 149.551 115.389 149.711 115.336L149.744 115.325C149.823 115.299 149.896 115.257 149.959 115.202C150.022 115.147 150.073 115.08 150.111 115.006C150.148 114.931 150.17 114.849 150.177 114.765C150.183 114.682 150.172 114.598 150.146 114.518L148.009 108.001ZM98.8977 119.051C98.9915 119.071 99.1013 119.009 99.2208 118.869C99.3402 118.729 99.4671 118.513 99.594 118.235C99.7209 117.956 99.8455 117.62 99.9606 117.245C100.076 116.87 100.179 116.464 100.265 116.05C100.35 115.637 100.417 115.223 100.46 114.833C100.503 114.443 100.523 114.085 100.517 113.778C100.511 113.471 100.481 113.223 100.427 113.046C100.373 112.869 100.297 112.768 100.203 112.749C100.109 112.729 99.9994 112.791 99.88 112.931C99.7605 113.071 99.6337 113.286 99.5067 113.565C99.3798 113.844 99.2552 114.18 99.1401 114.555C99.0251 114.93 98.9217 115.336 98.836 115.749C98.7503 116.163 98.6839 116.577 98.6406 116.967C98.5973 117.357 98.578 117.715 98.5837 118.022C98.5895 118.329 98.6202 118.577 98.674 118.754C98.7279 118.931 98.8039 119.032 98.8977 119.051Z" fill="#56473E"/>
<path d="M91.9454 96.672C90.8025 98.2506 89.7709 99.9476 88.8506 101.763C88.8213 101.822 88.7715 101.849 88.7012 101.843L88.411 101.807C88.3594 101.801 88.3098 101.783 88.2667 101.753C88.2235 101.724 88.188 101.685 88.163 101.639C88.138 101.593 88.1243 101.541 88.1231 101.489C88.1219 101.436 88.1332 101.384 88.1561 101.337C90.8406 95.7732 94.7589 91.1289 99.911 87.4039C102.425 85.5769 105.503 84.149 109.143 83.1202C109.377 83.0551 109.532 83.1409 109.609 83.3774L109.688 83.6257C109.701 83.6704 109.697 83.7188 109.676 83.7603C109.654 83.8018 109.618 83.8332 109.573 83.8474C106.156 84.9531 103.416 86.177 101.353 87.5192C97.8419 89.7956 94.7061 92.8465 91.9454 96.672Z" fill="#030202"/>
<path d="M145.321 100.317C145.497 100.843 145.359 100.947 144.908 100.627C144.424 100.281 143.818 99.6695 143.598 99.1197C141.822 94.6852 138.753 90.9365 134.393 87.8738C134.029 87.6195 133.897 87.2766 133.997 86.845L134.067 86.5346C134.114 86.3335 134.223 86.2862 134.393 86.3927C139.621 89.4909 143.264 94.1323 145.321 100.317Z" fill="#8C7970"/>
<path d="M94.4331 102.144C97.3872 96.2494 101.329 91.466 106.258 87.7943C106.338 87.7354 106.438 87.7099 106.535 87.7232C106.632 87.7364 106.719 87.7874 106.777 87.8652L106.909 88.0515C107.167 88.3944 107.123 88.693 106.777 88.9472C100.491 93.5857 95.7695 101.47 92.6044 109.009C92.5399 109.162 92.4216 109.285 92.2723 109.356C92.123 109.426 91.9532 109.438 91.7955 109.39L91.5669 109.319C91.5222 109.306 91.4809 109.283 91.4456 109.252C91.4103 109.221 91.3818 109.183 91.3619 109.14C91.342 109.098 91.3312 109.051 91.3302 109.004C91.3291 108.957 91.3379 108.91 91.3559 108.867C92.2937 106.597 93.3194 104.356 94.4331 102.144Z" fill="#8C7970"/>
<path d="M151.852 96.6456C153.845 100.583 155.422 105.361 156.582 110.978C156.653 111.327 156.585 111.646 156.38 111.936L156.16 112.246C156.124 112.297 156.073 112.336 156.014 112.358C155.956 112.38 155.893 112.385 155.833 112.372C155.773 112.359 155.718 112.328 155.676 112.283C155.635 112.239 155.607 112.183 155.598 112.122C154.49 105.985 152.761 100.841 150.41 96.6899C149.326 94.7683 147.644 92.9413 145.364 91.2089C145.247 91.1261 145.197 91.0138 145.214 90.8718L145.241 90.4816C145.252 90.3752 145.305 90.3456 145.399 90.3929C148.312 91.8238 150.463 93.908 151.852 96.6456Z" fill="#030202"/>
<path d="M129.944 102.029C130.378 103.27 130.604 104.607 130.621 106.038C130.645 107.77 130.779 109.094 131.026 110.011C131.582 112.039 132.297 114.227 133.171 116.574C133.605 117.739 134.205 118.525 134.973 118.933C135.7 119.329 135.87 119.158 135.483 118.419C133.854 115.314 132.758 112.281 132.195 109.319C131.855 107.51 131.638 105.177 131.544 102.321C131.468 100.021 131.351 97.6859 131.193 95.3149C130.929 94.7828 130.908 94.224 131.131 93.6387C131.254 93.3076 131.43 93.275 131.659 93.5411C133.487 95.6283 134.891 97.7864 135.87 100.015C138.625 106.23 140.647 112.541 141.936 118.951C141.971 119.134 142.066 119.3 142.207 119.421C142.347 119.542 142.525 119.611 142.71 119.616C146.288 119.696 149.744 121.807 152.962 123.128C153.448 123.329 153.688 123.696 153.682 124.228L153.612 128.414C153.6 128.946 153.363 129.085 152.9 128.831C146.605 125.36 139.897 124.464 132.775 126.143C130.401 126.705 128.452 127.95 126.928 129.877C126.747 130.108 126.509 130.22 126.216 130.214C123.104 130.197 120.422 129.381 117.591 131.03C117.316 131.19 117.073 131.154 116.862 130.924C115.39 129.345 113.699 128.34 111.789 127.908C103.536 126.046 96.1185 127.338 89.5362 131.784C88.9676 132.174 88.6541 132.024 88.5954 131.332L88.0767 125.461C88.0637 125.31 88.1019 125.16 88.185 125.034C88.2681 124.908 88.3911 124.815 88.5339 124.769L90.2308 124.228C90.5531 124.121 90.7641 123.903 90.8638 123.571C91.3679 121.827 92.0331 120.225 92.8596 118.764C93.7798 117.144 94.0641 117.251 93.7124 119.084C93.3871 120.778 92.8068 123.226 94.996 123.838C95.3008 123.92 95.5997 123.897 95.8928 123.767C98.548 122.569 101.379 122.534 104.043 121.709C107.759 120.568 111.49 119.855 115.235 119.572C115.669 119.542 115.874 119.308 115.851 118.871C115.739 117.115 115.736 115.335 115.842 113.532C116.106 108.938 117.032 104.639 118.62 100.636C119.323 98.8536 120.475 97.9845 121.724 96.6896C121.782 96.6308 121.832 96.562 121.873 96.4856L123.078 94.0555C123.377 93.4465 123.517 93.482 123.5 94.1619C123.236 102.756 123.069 110.144 124.572 118.268C124.766 119.303 125.384 119.867 126.427 119.962L131.078 120.361C132.133 120.45 132.532 119.98 132.274 118.951C130.908 113.517 130.023 109.219 129.619 106.055C129.519 105.251 129.628 103.909 129.944 102.029ZM148.398 126.01C148.586 126.176 148.803 126.244 149.049 126.214C149.216 126.198 149.374 126.131 149.501 126.021C149.628 125.911 149.719 125.765 149.761 125.601C149.804 125.438 149.795 125.265 149.737 125.107C149.679 124.948 149.574 124.812 149.436 124.716C147.836 123.598 145.989 122.877 143.897 122.552C139.601 121.883 135.726 122.377 132.274 124.033C132.23 124.054 132.192 124.085 132.162 124.123C132.132 124.161 132.11 124.206 132.099 124.254C132.089 124.301 132.088 124.351 132.099 124.398C132.109 124.446 132.13 124.491 132.16 124.529L132.336 124.742C132.487 124.927 132.689 125.063 132.915 125.134C133.142 125.205 133.383 125.207 133.61 125.141C138.54 123.74 143.123 123.823 147.361 125.39C147.748 125.532 148.094 125.738 148.398 126.01ZM94.5652 124.671C93.3578 124.849 92.4434 125.375 91.8221 126.25C91.1246 127.226 91.3679 127.619 92.5518 127.429C94.8465 127.057 96.9039 126.037 99.2162 125.7C102.469 125.221 105.69 125.263 108.879 125.824C109.277 125.895 109.632 125.848 109.942 125.682C110.041 125.632 110.124 125.555 110.182 125.461C110.241 125.367 110.273 125.258 110.274 125.147C110.276 125.035 110.248 124.926 110.192 124.829C110.137 124.733 110.057 124.654 109.96 124.6C108.307 123.672 106.563 123.187 104.729 123.146C101.663 123.081 99.1048 123.391 97.0533 124.077C96.2621 124.343 95.4327 124.541 94.5652 124.671Z" fill="#FCDDCF"/>
<path d="M131.192 95.3149C131.35 97.6859 131.468 100.021 131.544 102.321C131.638 105.177 131.855 107.51 132.194 109.319C132.757 112.281 133.853 115.315 135.483 118.419C135.87 119.158 135.7 119.329 134.973 118.933C134.205 118.525 133.604 117.739 133.17 116.574C132.297 114.227 131.582 112.039 131.025 110.011C130.779 109.094 130.644 107.77 130.621 106.038C130.603 104.607 130.377 103.27 129.944 102.029C129.838 99.7169 130.254 97.479 131.192 95.3149Z" fill="#56473E"/>
<path d="M93.6379 98.5298L93.6079 98.5113C93.4253 98.3994 93.1874 98.4579 93.0764 98.642L90.4363 103.022C90.3253 103.206 90.3833 103.446 90.5659 103.558L90.5959 103.577C90.7785 103.689 91.0164 103.63 91.1274 103.446L93.7675 99.0659C93.8785 98.8818 93.8205 98.6417 93.6379 98.5298Z" fill="#030202"/>
<path d="M112.245 98.8273C109.151 103.333 107.005 107.714 105.599 112.902C105.405 113.618 105.159 113.636 104.86 112.956C104.702 112.601 104.678 112.243 104.79 111.882C106.255 106.928 108.556 102.387 111.691 98.2597C111.768 98.1533 111.858 98.1415 111.964 98.2242L112.166 98.3662C112.237 98.4186 112.285 98.4965 112.3 98.5829C112.315 98.6692 112.295 98.7571 112.245 98.8273Z" fill="#030202"/>
<path d="M148.776 105.647C148.768 105.633 148.764 105.617 148.762 105.6C148.761 105.584 148.763 105.568 148.767 105.552C148.772 105.536 148.78 105.522 148.791 105.509C148.801 105.497 148.814 105.486 148.829 105.479L148.899 105.443C149.035 105.37 149.204 105.365 149.398 105.429C149.592 105.492 149.806 105.624 150.028 105.815C150.25 106.006 150.476 106.253 150.692 106.543C150.909 106.832 151.112 107.158 151.29 107.501L151.378 107.678C151.735 108.368 151.969 109.087 152.028 109.677C152.087 110.267 151.968 110.68 151.695 110.827L151.625 110.871C151.61 110.879 151.594 110.883 151.578 110.885C151.562 110.886 151.546 110.885 151.53 110.88C151.514 110.875 151.5 110.867 151.488 110.856C151.475 110.845 151.465 110.832 151.458 110.818L148.776 105.647Z" fill="#030202"/>
<path d="M102.611 111.501C102.609 111.507 102.606 111.513 102.602 111.518C102.597 111.522 102.592 111.526 102.586 111.529C102.58 111.531 102.574 111.532 102.568 111.532C102.561 111.532 102.555 111.53 102.549 111.528L102.505 111.51C102.289 111.426 102.126 111.228 102.051 110.958C101.977 110.689 101.998 110.371 102.11 110.073L103.226 107.137C103.34 106.839 103.535 106.586 103.769 106.435C104.004 106.283 104.257 106.246 104.475 106.33L104.51 106.339C104.516 106.341 104.522 106.344 104.526 106.349C104.531 106.353 104.535 106.358 104.537 106.364C104.54 106.37 104.541 106.376 104.541 106.383C104.541 106.389 104.539 106.396 104.536 106.401L102.611 111.501Z" fill="#030202"/>
<path d="M147.211 107.595L147.177 107.606C146.845 107.717 146.665 108.078 146.775 108.413L148.912 114.93C149.021 115.265 149.379 115.447 149.711 115.336L149.745 115.325C150.077 115.214 150.257 114.853 150.147 114.518L148.01 108.001C147.901 107.666 147.542 107.484 147.211 107.595Z" fill="#8C7970"/>
<path d="M98.8347 115.749C98.4743 117.49 98.5019 118.968 98.8964 119.051C99.2909 119.134 99.9029 117.791 100.263 116.05C100.624 114.31 100.596 112.832 100.202 112.748C99.8072 112.665 99.1952 114.009 98.8347 115.749Z" fill="#8C7970"/>
<path d="M147.36 125.39C143.122 123.823 138.539 123.74 133.609 125.142C133.382 125.208 133.141 125.205 132.914 125.134C132.688 125.063 132.486 124.927 132.334 124.742L132.158 124.53C132.129 124.491 132.108 124.446 132.097 124.399C132.087 124.351 132.087 124.301 132.098 124.254C132.109 124.206 132.131 124.162 132.161 124.123C132.191 124.085 132.229 124.054 132.273 124.033C135.725 122.377 139.599 121.884 143.896 122.552C145.988 122.877 147.835 123.598 149.435 124.716C149.572 124.812 149.677 124.949 149.736 125.107C149.794 125.265 149.802 125.438 149.76 125.602C149.718 125.765 149.627 125.912 149.5 126.021C149.372 126.131 149.215 126.198 149.048 126.215C148.802 126.244 148.585 126.176 148.397 126.011C148.092 125.739 147.747 125.532 147.36 125.39Z" fill="#030202"/>
<path d="M97.0527 124.077C99.1042 123.391 101.663 123.081 104.728 123.146C106.563 123.187 108.306 123.672 109.959 124.6C110.056 124.654 110.136 124.733 110.192 124.829C110.247 124.926 110.276 125.035 110.274 125.147C110.272 125.258 110.24 125.367 110.182 125.461C110.123 125.555 110.04 125.632 109.942 125.682C109.631 125.848 109.276 125.895 108.878 125.824C105.689 125.262 102.469 125.221 99.2155 125.7C96.9032 126.037 94.8459 127.057 92.5512 127.429C91.3672 127.619 91.124 127.225 91.8215 126.25C92.4428 125.375 93.3571 124.849 94.5646 124.671C95.432 124.541 96.2614 124.343 97.0527 124.077Z" fill="#030202"/>
<path d="M133.233 145.93C131.396 144.795 129.268 144.086 128.151 142.285C126.991 140.429 126.572 137.694 126.894 134.081C127.058 132.307 127.697 130.871 128.811 129.771C131.404 127.234 133.998 127.35 137.269 126.959C141.489 126.463 145.173 126.685 148.821 128.52C149.988 129.106 151.31 129.617 152.787 130.055C153.121 130.149 153.326 130.368 153.402 130.711C154.152 134.064 154.149 137.457 153.393 140.893C152.989 142.737 151.45 142.959 150.668 144.343C150.492 144.662 150.237 144.893 149.903 145.034C148.584 145.611 147.511 146.436 146.026 146.631C142.485 147.098 138.766 147.06 134.869 146.516C134.277 146.433 133.731 146.238 133.233 145.93ZM146.359 128.574C146.361 128.511 146.318 128.448 146.234 128.388C146.15 128.328 146.026 128.273 145.869 128.225C145.713 128.177 145.527 128.138 145.321 128.109C145.116 128.081 144.895 128.064 144.673 128.059C144.45 128.055 144.229 128.062 144.023 128.082C143.816 128.102 143.629 128.133 143.47 128.174C143.312 128.215 143.186 128.266 143.099 128.322C143.013 128.378 142.968 128.439 142.966 128.502C142.965 128.565 143.008 128.628 143.092 128.688C143.176 128.748 143.3 128.804 143.456 128.851C143.613 128.899 143.799 128.938 144.004 128.967C144.21 128.995 144.43 129.012 144.653 129.017C144.876 129.022 145.097 129.014 145.303 128.994C145.509 128.975 145.697 128.943 145.855 128.902C146.014 128.861 146.14 128.811 146.226 128.755C146.313 128.698 146.358 128.637 146.359 128.574ZM150.36 131.385C148.47 129.806 146.412 129.132 143.792 129.061C141.477 129.002 139.218 128.985 137.014 129.008C130.473 129.061 127.829 132.399 129.083 139.021C129.165 139.477 129.432 139.74 129.883 139.811C135.094 140.633 140.601 141.845 146.404 143.447C148.698 144.077 150.773 142.117 151.336 140.13C152.051 137.617 152.11 135.149 151.512 132.724C151.418 132.346 151.213 132.041 150.896 131.811C150.715 131.675 150.536 131.533 150.36 131.385ZM142.465 144.174L131.343 141.939C130.985 141.868 130.845 142.01 130.921 142.365C130.991 142.726 131.196 142.998 131.536 143.181C134.889 145.037 138.535 145.502 142.474 144.573C143.077 144.431 143.074 144.298 142.465 144.174Z" fill="#665E5A"/>
<path d="M144.653 129.017C145.59 129.037 146.354 128.839 146.36 128.574C146.365 128.31 145.61 128.08 144.673 128.06C143.736 128.04 142.972 128.238 142.967 128.503C142.961 128.767 143.716 128.998 144.653 129.017Z" fill="#56473E"/>
<path d="M93.5197 131.421C93.7659 131.16 94.0648 131.033 94.4165 131.039C94.7037 131.045 94.9557 130.953 95.1726 130.764C96.591 129.54 98.1882 128.911 99.9642 128.875C101.591 128.84 103.059 128.405 104.668 128.441C107.517 128.506 109.893 128.798 111.798 129.319C114.659 130.099 116.432 132.041 117.117 135.145C117.938 138.876 117.238 142.167 115.016 145.017C113.82 146.56 112.329 147.515 110.541 147.881C107.985 148.413 105.371 148.7 102.699 148.742C101.796 148.759 100.958 148.659 100.184 148.44C99.5275 148.257 98.8535 148.121 98.1618 148.032C95.788 147.736 93.7453 146.64 92.0338 144.742C91.0022 143.595 90.4015 142.149 90.2315 140.405C89.9326 137.46 89.4138 132.494 92.9658 131.731C93.1827 131.69 93.3673 131.586 93.5197 131.421ZM96.4122 144.83C102.69 142.424 108.718 140.816 114.497 140.006C114.826 139.958 115.025 139.772 115.095 139.447C115.728 136.369 115.227 132.627 111.745 131.58C105.462 129.688 99.1465 130.321 92.7987 133.478C92.5408 133.608 92.3767 133.815 92.3064 134.099C91.5386 137.25 91.7613 140.227 92.9746 143.03C93.5636 144.414 94.9 145.407 96.4122 144.83ZM98.7949 146.391C102.98 147.163 112.519 147.296 114.515 142.338C114.549 142.253 114.558 142.161 114.542 142.071C114.527 141.98 114.486 141.896 114.425 141.828C114.364 141.759 114.285 141.708 114.197 141.681C114.109 141.654 114.015 141.651 113.926 141.673L98.7685 145.646C97.6666 145.936 97.6754 146.184 98.7949 146.391Z" fill="#665E5A"/>
<path d="M150.361 131.386C150.536 131.533 150.715 131.675 150.897 131.811C151.213 132.042 151.419 132.346 151.512 132.725C152.11 135.149 152.052 137.618 151.336 140.13C150.774 142.117 148.699 144.077 146.404 143.447C140.601 141.845 135.095 140.633 129.884 139.811C129.433 139.74 129.166 139.477 129.084 139.022C127.83 132.4 130.473 129.062 137.014 129.009C139.218 128.985 141.478 129.003 143.793 129.062C146.413 129.133 148.47 129.807 150.361 131.386ZM146.633 136.627C146.773 134.327 145.557 133.218 142.984 133.301C139.778 132.621 136.962 133.626 134.535 136.317C134.416 136.449 134.34 136.614 134.316 136.79C134.293 136.967 134.323 137.147 134.403 137.306C134.484 137.464 134.61 137.595 134.765 137.68C134.921 137.764 135.098 137.799 135.274 137.78C135.883 137.715 136.469 137.529 137.032 137.221C139.661 135.785 143.054 136.379 145.455 137.993C145.559 138.065 145.679 138.11 145.805 138.126C145.93 138.142 146.058 138.128 146.177 138.085C146.297 138.042 146.405 137.971 146.494 137.878C146.582 137.785 146.648 137.673 146.686 137.55C146.768 137.295 146.75 136.988 146.633 136.627Z" fill="#FAEBE0"/>
<path d="M158.16 135.961L157.352 131.119C158.424 130.167 159.309 129.966 160.007 130.516C162.574 132.556 162.099 137.638 161.369 140.325C160.865 142.193 160.385 142.187 159.928 140.307C159.676 139.278 159.087 137.83 158.16 135.961Z" fill="#FAEBE0"/>
<path d="M96.4116 144.831C94.8994 145.407 93.563 144.414 92.974 143.03C91.7607 140.228 91.5379 137.251 92.3058 134.099C92.3761 133.816 92.5402 133.609 92.7981 133.478C99.1459 130.321 105.461 129.688 111.745 131.581C115.226 132.627 115.728 136.37 115.095 139.447C115.024 139.773 114.825 139.959 114.497 140.006C108.717 140.816 102.689 142.424 96.4116 144.831ZM101.502 134.179C98.1202 134.333 96.7926 135.356 97.5194 137.248C97.0388 138.099 97.0271 138.797 97.4842 139.341C97.5733 139.448 97.6999 139.516 97.8376 139.531C97.9752 139.546 98.1132 139.506 98.2228 139.421C100.901 137.286 103.864 136.822 107.111 138.028C107.733 138.259 108.184 138.342 108.465 138.277C108.668 138.232 108.854 138.129 109.001 137.981C109.147 137.832 109.249 137.645 109.292 137.44C109.336 137.235 109.32 137.022 109.247 136.826C109.173 136.63 109.046 136.459 108.879 136.334C106.376 134.436 103.917 133.718 101.502 134.179Z" fill="#FAEBE0"/>
<path d="M157.35 131.119L158.159 135.962C158.264 137.363 158.874 139.583 159.987 142.622C160.304 143.48 160.084 144.349 159.328 145.23C158.789 145.862 158.566 145.765 158.66 144.937C158.8 143.749 158.73 142.738 158.449 141.904C157.974 140.485 157.529 140.038 157.112 140.565C156.755 139.518 156.377 139.157 155.978 139.483C155.791 138.371 155.796 137.254 155.996 136.13C156.119 135.427 156.224 134.572 156.312 133.567C156.418 132.432 156.764 131.616 157.35 131.119Z" fill="#665E5A"/>
<path d="M118.392 132.272C120.877 131.616 123.251 131.521 125.513 131.989C125.923 132.077 126.035 132.308 125.847 132.68L125.689 133.009C125.554 133.275 125.343 133.363 125.056 133.275C122.958 132.624 120.786 132.683 118.541 133.452C118.467 133.476 118.388 133.471 118.318 133.438C118.248 133.405 118.192 133.347 118.163 133.275L118.049 132.955C118.022 132.889 118.009 132.817 118.012 132.745C118.015 132.674 118.033 132.603 118.066 132.538C118.098 132.474 118.144 132.417 118.2 132.371C118.256 132.325 118.322 132.291 118.392 132.272Z" fill="#8C7970"/>
<path d="M85.8896 141.691L84.5181 146.117C81.5757 142.729 80.4708 139.069 81.2035 135.137C81.5258 133.404 82.5604 132.535 84.307 132.529C84.7056 132.529 85.11 132.585 85.5203 132.698C86.7571 133.041 87.2641 133.848 87.0414 135.119L85.8896 141.691Z" fill="#FCDDCF"/>
<path d="M142.982 133.301L146.631 136.626C146.748 136.987 146.765 137.294 146.683 137.549C146.646 137.672 146.58 137.784 146.492 137.877C146.403 137.97 146.295 138.041 146.175 138.084C146.056 138.128 145.928 138.142 145.802 138.126C145.677 138.11 145.557 138.064 145.453 137.992C143.052 136.378 139.659 135.784 137.03 137.221C136.467 137.528 135.881 137.714 135.271 137.779C135.096 137.799 134.919 137.764 134.763 137.679C134.608 137.594 134.482 137.464 134.401 137.305C134.321 137.146 134.291 136.966 134.314 136.79C134.338 136.613 134.414 136.448 134.533 136.316C136.959 133.626 139.776 132.621 142.982 133.301Z" fill="#030202"/>
<path d="M142.982 133.301C145.556 133.218 146.772 134.327 146.631 136.627L142.982 133.301Z" fill="#8C7970"/>
<path d="M97.5199 137.248L101.503 134.179C103.918 133.718 106.376 134.436 108.879 136.334C109.046 136.459 109.174 136.63 109.247 136.826C109.32 137.022 109.336 137.235 109.293 137.44C109.249 137.645 109.148 137.832 109.001 137.981C108.855 138.129 108.669 138.232 108.466 138.277C108.185 138.342 107.733 138.259 107.112 138.028C103.865 136.822 100.902 137.286 98.2232 139.421C98.1137 139.506 97.9757 139.546 97.8381 139.531C97.7004 139.516 97.5738 139.448 97.4847 139.341C97.0275 138.797 97.0392 138.099 97.5199 137.248Z" fill="#030202"/>
<path d="M101.502 134.179L97.519 137.247C96.7922 135.355 98.1198 134.332 101.502 134.179Z" fill="#8C7970"/>
<path d="M125.087 134.309L119.005 134.459C118.874 134.462 118.77 134.572 118.773 134.704L118.876 138.942C118.879 139.074 118.988 139.179 119.119 139.175L125.201 139.025C125.332 139.022 125.436 138.912 125.433 138.78L125.33 134.542C125.327 134.41 125.218 134.305 125.087 134.309Z" fill="#FCDDCF"/>
<path d="M157.111 140.565L158.017 145.363C158.066 145.627 158.035 145.899 157.928 146.143C157.821 146.387 157.644 146.591 157.419 146.729L156.347 147.394C155.848 147.701 155.611 147.56 155.634 146.968L155.977 139.483C156.376 139.158 156.754 139.518 157.111 140.565Z" fill="#FCDDCF"/>
<path d="M84.5156 146.117L85.8872 141.691C85.8403 142.247 85.8755 142.69 85.9927 143.022C86.1099 143.347 86.2975 143.394 86.5554 143.163C87.1298 142.643 87.4463 141.978 87.5049 141.168C87.5117 141.053 87.5622 140.946 87.6458 140.868C87.7294 140.791 87.8396 140.749 87.9533 140.751H88.1731C88.2083 140.751 88.2288 140.781 88.2346 140.84L88.9468 147.784C89.1402 149.7 88.4837 150.072 86.9774 148.902C85.9399 148.098 85.1193 147.169 84.5156 146.117Z" fill="#665E5A"/>
<path d="M132.386 147.287C132.679 148.162 133.192 148.937 133.925 149.611C134.142 149.806 134.394 149.915 134.681 149.939C138.655 150.282 142.526 151.054 146.295 152.254C146.471 152.307 146.585 152.245 146.638 152.068L146.726 151.766C146.758 151.646 146.742 151.518 146.681 151.41C146.62 151.302 146.52 151.223 146.401 151.19L141.257 149.762C141.017 149.697 140.885 149.543 140.862 149.3C140.85 149.218 140.862 149.132 140.897 149.043C140.936 148.927 141.009 148.826 141.107 148.754C141.205 148.682 141.322 148.644 141.442 148.644C141.741 148.638 142.011 148.561 142.251 148.414C144.508 148.295 146.673 147.834 148.748 147.03C150.041 146.524 150.981 146.711 152.247 147.021C152.904 147.181 153.174 147.595 153.056 148.263C152.558 151.089 152.016 153.865 151.43 156.591C150.384 161.46 147.342 164.502 143.957 167.81C140.586 171.092 135.654 173.631 129.16 175.428C120.262 177.894 112.314 174.843 104.234 170.932C100.559 169.158 95.6535 165.256 94.194 160.981C93.1096 157.818 92.2099 154.4 91.4948 150.728C91.4128 150.332 91.3981 149.942 91.4509 149.558C91.4836 149.32 91.5663 149.092 91.6933 148.89C91.8203 148.687 91.9887 148.514 92.1871 148.383C92.3854 148.252 92.6092 148.165 92.8431 148.129C93.0771 148.093 93.3159 148.109 93.5434 148.174L100.964 150.303C100.489 151.509 99.0413 152.431 96.6206 153.07C96.3451 153.147 96.137 153.309 95.9963 153.558C95.8439 153.835 95.8732 154.087 96.0843 154.311C96.1487 154.379 96.2324 154.425 96.3238 154.442C96.4152 154.46 96.5097 154.448 96.5942 154.409C98.6222 153.493 100.885 152.816 103.382 152.378C104.425 152.195 105.284 151.763 105.958 151.083C106.157 150.876 106.397 150.764 106.679 150.746C107.482 150.699 108.185 150.447 108.789 149.992C113.853 149.005 117.082 146.167 118.477 141.478C118.595 141.088 118.855 140.896 119.26 140.901L125.326 140.91C125.535 140.91 125.74 140.971 125.914 141.086C126.089 141.201 126.227 141.365 126.311 141.558C127.501 144.319 129.526 146.229 132.386 147.287ZM129.731 147.553C129.01 147.051 128.213 146.832 127.34 146.897C123.726 147.163 119.19 146.374 115.963 148.05C115.9 148.084 115.845 148.132 115.803 148.19C115.761 148.249 115.733 148.316 115.721 148.387C115.709 148.458 115.714 148.531 115.734 148.601C115.755 148.67 115.791 148.733 115.84 148.786C116.15 149.111 116.529 149.227 116.974 149.132C121.335 148.239 125.532 148.017 129.564 148.467C129.822 148.496 129.998 148.39 130.092 148.147C130.144 147.994 130.112 147.864 129.995 147.757C129.913 147.686 129.825 147.618 129.731 147.553ZM146.093 156.378C141.826 157.194 137.793 157.767 133.995 158.098C130.473 158.406 126.581 158.498 122.32 158.373C114.571 158.149 106.717 157.965 98.757 157.824C98.5226 157.818 98.4288 157.933 98.4757 158.169L98.5284 158.462C98.6046 158.817 98.8244 158.997 99.1878 159.003C104.316 159.068 111.35 159.278 120.289 159.633C128.225 159.946 136.29 159.319 144.484 157.753C145.381 157.581 146.02 157.348 146.401 157.052C147.21 156.407 147.107 156.183 146.093 156.378ZM99.8736 163.908C101.175 164.747 102.47 165.436 103.76 165.974C110.096 168.623 117.132 169.986 124.869 170.063C124.942 170.063 125.012 170.036 125.066 169.987C125.119 169.937 125.153 169.87 125.159 169.797L125.203 169.451C125.215 169.309 125.151 169.229 125.01 169.211C123.005 168.951 120.851 168.741 118.548 168.582C115.33 168.363 110.837 167.343 105.07 165.522C103.259 164.945 101.913 163.89 100.19 163.189C100.161 163.177 100.131 163.183 100.102 163.207L99.8472 163.411C99.8087 163.441 99.778 163.48 99.7577 163.524C99.7374 163.569 99.7281 163.617 99.7307 163.666C99.7333 163.715 99.7477 163.763 99.7726 163.805C99.7975 163.847 99.8322 163.882 99.8736 163.908ZM126.856 169.584L126.874 169.832C126.88 169.909 126.924 169.947 127.006 169.947C130.276 169.782 133.002 169.312 135.182 168.537C137.181 167.822 139.15 167 141.09 166.072C141.131 166.054 141.152 166.024 141.152 165.983L141.161 165.717C141.161 165.644 141.142 165.572 141.107 165.508C141.072 165.443 141.021 165.39 140.96 165.351C140.899 165.313 140.83 165.291 140.759 165.289C140.688 165.286 140.617 165.302 140.554 165.336C136.094 167.665 131.689 168.901 127.34 169.043C126.994 169.049 126.833 169.229 126.856 169.584Z" fill="white"/>
<path d="M114.514 142.338C112.518 147.296 102.979 147.163 98.7935 146.391C97.674 146.184 97.6652 145.936 98.7672 145.646L113.925 141.673C114.014 141.651 114.108 141.654 114.196 141.681C114.284 141.708 114.363 141.759 114.424 141.828C114.485 141.896 114.525 141.981 114.541 142.071C114.557 142.161 114.547 142.253 114.514 142.338Z" fill="white"/>
<path d="M131.344 141.939L142.466 144.174C143.076 144.298 143.079 144.431 142.475 144.573C138.536 145.501 134.891 145.037 131.538 143.18C131.198 142.997 130.993 142.725 130.922 142.364C130.846 142.01 130.987 141.868 131.344 141.939Z" fill="white"/>
<path d="M153.999 145.195C153.853 145.703 153.533 145.863 153.041 145.673C152.754 145.561 152.505 145.393 152.294 145.168C152.059 144.914 152.033 144.645 152.215 144.361C152.543 143.835 152.974 143.477 153.507 143.288C153.906 143.152 154.123 143.297 154.158 143.722C154.205 144.201 154.152 144.692 153.999 145.195Z" fill="#8C7970"/>
<path d="M91.7867 146.436C91.8405 146.553 91.8568 146.685 91.8332 146.813C91.8096 146.942 91.7474 147.061 91.6548 147.155L91.4526 147.359C91.3884 147.423 91.3107 147.472 91.2252 147.501C91.1396 147.531 91.0486 147.54 90.9589 147.529C90.8692 147.518 90.7832 147.487 90.7073 147.437C90.6314 147.388 90.5676 147.321 90.5207 147.244C90.21 146.735 90.0869 146.164 90.1514 145.532C90.1924 145.153 90.3771 145.056 90.7053 145.239C91.1801 145.505 91.5405 145.904 91.7867 146.436Z" fill="#FCDDCF"/>
<path d="M129.733 147.553C129.827 147.618 129.915 147.686 129.997 147.757C130.114 147.864 130.147 147.994 130.094 148.147C130 148.39 129.824 148.496 129.566 148.467C125.534 148.017 121.337 148.239 116.976 149.132C116.531 149.227 116.153 149.111 115.842 148.786C115.793 148.733 115.757 148.67 115.736 148.601C115.716 148.531 115.711 148.458 115.723 148.387C115.735 148.316 115.763 148.249 115.805 148.19C115.847 148.132 115.902 148.084 115.965 148.05C119.192 146.374 123.728 147.163 127.342 146.897C128.215 146.832 129.012 147.051 129.733 147.553Z" fill="#DAD9D8"/>
<path d="M132.389 147.287L142.253 148.413C142.013 148.561 141.743 148.638 141.444 148.644C141.324 148.644 141.207 148.682 141.109 148.754C141.011 148.825 140.938 148.927 140.899 149.043C140.864 149.132 140.852 149.218 140.864 149.3C140.888 149.543 141.019 149.697 141.26 149.762L146.403 151.189C146.522 151.223 146.623 151.302 146.684 151.41C146.745 151.518 146.761 151.646 146.728 151.766L146.64 152.067C146.588 152.245 146.473 152.307 146.298 152.254C142.529 151.053 138.657 150.282 134.683 149.939C134.396 149.915 134.144 149.806 133.927 149.611C133.195 148.937 132.682 148.162 132.389 147.287Z" fill="#DAD9D8"/>
<path d="M149.832 184.821C150.922 180.93 151.409 176.907 151.292 172.75C151.23 170.329 151.652 168.138 151.371 165.699C151.33 165.315 151.145 165.067 150.817 164.954C150.518 164.848 150.113 164.866 149.604 165.008C149.943 164.15 150.333 163.346 150.773 162.595C151.236 161.791 151.626 160.975 151.942 160.147C152.921 157.605 153.8 155.16 154.58 152.813C154.808 152.133 154.949 151.409 155.002 150.64C155.018 150.375 155.103 150.118 155.248 149.894C155.392 149.67 155.592 149.487 155.828 149.363L156.198 149.168C156.766 148.872 157.006 149.044 156.918 149.682C156.801 150.599 156.743 151.456 156.743 152.254C156.784 162.956 157.613 172.067 159.231 179.588C159.946 182.917 160.872 186.669 162.009 190.843C162.091 191.145 161.988 191.357 161.701 191.482L161.455 191.597C160.851 191.863 160.453 191.677 160.259 191.038C159.591 188.777 158.22 188.182 155.863 188.315C151.549 188.564 149.539 187.399 149.832 184.821ZM154.275 164.659C154.276 164.591 154.264 164.524 154.239 164.462C154.214 164.399 154.177 164.342 154.13 164.294C154.083 164.245 154.027 164.207 153.966 164.18C153.904 164.154 153.838 164.14 153.771 164.139L153.718 164.139C153.583 164.137 153.453 164.19 153.356 164.286C153.259 164.381 153.204 164.511 153.203 164.648L153.038 180.558C153.037 180.625 153.05 180.692 153.075 180.755C153.099 180.818 153.136 180.875 153.183 180.923C153.23 180.971 153.286 181.01 153.348 181.036C153.409 181.063 153.475 181.077 153.542 181.078L153.595 181.078C153.73 181.08 153.861 181.027 153.957 180.931C154.054 180.836 154.109 180.706 154.11 180.569L154.275 164.659Z" fill="#56473E"/>
<path d="M84.3145 149.602L87.3389 151.296C87.6027 151.437 87.6847 151.65 87.5851 151.934C87.2861 152.774 86.8172 153.593 86.1784 154.391L84.3145 149.602Z" fill="#8C7970"/>
<path d="M108.791 149.993C108.187 150.448 107.483 150.7 106.68 150.747C106.399 150.765 106.159 150.877 105.96 151.084C105.285 151.764 104.427 152.196 103.383 152.379C100.887 152.816 98.6241 153.493 96.5961 154.41C96.5115 154.449 96.417 154.461 96.3257 154.443C96.2343 154.426 96.1506 154.38 96.0861 154.312C95.8751 154.088 95.8458 153.836 95.9982 153.558C96.1389 153.31 96.347 153.148 96.6224 153.071C99.0432 152.432 100.491 151.51 100.966 150.304L108.791 149.993Z" fill="#DAD9D8"/>
<path d="M95.1012 166.994C94.4564 166.923 93.9523 166.947 93.5889 167.065C93.249 167.177 93.0497 167.547 92.9911 168.174C92.9325 168.842 92.824 169.489 92.6658 170.116L92.1471 165.389C92.1388 165.321 92.1076 165.259 92.0592 165.214C92.0109 165.168 91.9484 165.142 91.8833 165.14L91.6195 165.132C91.4554 165.126 91.3734 165.208 91.3734 165.38C91.4554 170.205 91.177 174.861 90.5381 179.349C90.2568 181.273 90.3447 183.26 90.3887 185.229C90.3942 185.383 90.4568 185.531 90.5645 185.646C90.9865 186.095 91.2767 186.104 91.4349 185.672L92.024 188.049C92.0943 188.327 92.2731 188.457 92.5603 188.439L93.4922 188.377C91.6107 191.085 89.0494 192.995 85.808 194.107C85.7355 194.132 85.6574 194.137 85.5823 194.121C85.5072 194.105 85.4378 194.068 85.3818 194.015C85.3257 193.962 85.285 193.895 85.264 193.82C85.2431 193.746 85.2427 193.667 85.2629 193.592C86.8015 187.978 87.6807 183.127 88.006 177.025C88.3225 171.029 88.6244 165.037 88.9116 159.047C88.9351 158.557 89.1138 158.11 89.4479 157.708C89.6765 157.43 89.7088 157.129 89.5446 156.804C88.9995 155.727 88.8559 154.542 89.1138 153.247C89.3952 151.846 89.7117 151.837 90.0634 153.221C90.503 154.917 91.0246 156.786 91.6283 158.826C92.4606 161.622 93.6183 164.345 95.1012 166.994Z" fill="#56473E"/>
<path d="M146.096 156.379C147.11 156.183 147.212 156.408 146.404 157.053C146.023 157.348 145.384 157.582 144.487 157.753C136.293 159.32 128.228 159.947 120.291 159.633C111.353 159.279 104.319 159.069 99.1907 159.004C98.8273 158.998 98.6075 158.818 98.5313 158.463L98.4785 158.17C98.4316 157.934 98.5254 157.818 98.7599 157.824C106.72 157.966 114.574 158.149 122.322 158.374C126.584 158.498 130.475 158.407 133.998 158.099C137.796 157.768 141.829 157.195 146.096 156.379Z" fill="#DAD9D8"/>
<path d="M99.8757 163.908C99.8343 163.882 99.7996 163.847 99.7747 163.805C99.7498 163.763 99.7354 163.715 99.7329 163.667C99.7303 163.618 99.7395 163.569 99.7598 163.524C99.7801 163.48 99.8108 163.441 99.8493 163.411L100.104 163.207C100.134 163.184 100.163 163.178 100.192 163.19C101.915 163.89 103.261 164.946 105.072 165.522C110.839 167.343 115.332 168.363 118.55 168.582C120.853 168.741 123.007 168.951 125.012 169.212C125.153 169.229 125.217 169.309 125.205 169.451L125.161 169.797C125.155 169.87 125.121 169.938 125.068 169.987C125.014 170.036 124.944 170.063 124.871 170.063C117.134 169.986 110.098 168.623 103.762 165.974C102.472 165.436 101.177 164.747 99.8757 163.908Z" fill="#DAD9D8"/>
<path d="M153.77 164.139L153.717 164.138C153.435 164.135 153.205 164.363 153.202 164.647L153.037 180.557C153.034 180.841 153.259 181.074 153.541 181.077L153.594 181.078C153.875 181.081 154.106 180.853 154.109 180.569L154.274 164.659C154.277 164.374 154.051 164.142 153.77 164.139Z" fill="#030202"/>
<path d="M149.83 184.821C149.074 177.725 148.998 171.121 149.601 165.007C150.111 164.865 150.516 164.848 150.815 164.954C151.143 165.067 151.327 165.315 151.368 165.699C151.65 168.138 151.228 170.329 151.289 172.75C151.407 176.907 150.92 180.93 149.83 184.821Z" fill="#8C7970"/>
<path d="M92.6673 170.116L91.4364 185.672C91.2782 186.103 90.988 186.094 90.566 185.645C90.4583 185.531 90.3958 185.383 90.3902 185.228C90.3462 183.259 90.2583 181.273 90.5397 179.348C91.1785 174.86 91.457 170.204 91.3749 165.379C91.3749 165.208 91.457 165.125 91.6211 165.131L91.8848 165.14C91.95 165.142 92.0124 165.168 92.0608 165.213C92.1092 165.259 92.1403 165.321 92.1486 165.388L92.6673 170.116Z" fill="#030202"/>
<path d="M127.341 169.043C131.69 168.901 136.095 167.665 140.556 165.335C140.619 165.302 140.689 165.286 140.76 165.288C140.832 165.291 140.901 165.313 140.962 165.351C141.023 165.389 141.073 165.443 141.109 165.507C141.144 165.571 141.162 165.643 141.162 165.717L141.153 165.983C141.153 166.024 141.133 166.054 141.092 166.071C139.152 167 137.182 167.822 135.184 168.537C133.003 169.312 130.278 169.782 127.007 169.947C126.925 169.947 126.881 169.909 126.875 169.832L126.858 169.584C126.834 169.229 126.995 169.048 127.341 169.043Z" fill="#DAD9D8"/>
<path d="M95.1018 166.994C95.3949 174.308 94.8586 181.436 93.4929 188.377L92.5609 188.439C92.2737 188.457 92.0949 188.327 92.0246 188.049L91.4355 185.672L92.6664 170.116C92.8247 169.489 92.9331 168.842 92.9917 168.174C93.0503 167.547 93.2496 167.177 93.5896 167.065C93.953 166.947 94.4571 166.923 95.1018 166.994Z" fill="#8C7970"/>
<path d="M142.597 183.482C140.78 180 138.222 177.886 134.922 177.141C134.711 177.094 134.544 176.978 134.421 176.795C134.327 176.653 134.298 176.496 134.333 176.325C134.391 176.077 134.547 175.932 134.799 175.89C135.719 175.754 136.619 175.444 137.498 174.959C141.155 172.943 144.118 170.563 146.387 167.82C146.908 167.193 147.175 167.287 147.187 168.103C147.231 170.25 147.248 172.431 147.099 174.578C146.817 178.456 147.043 182.291 147.776 186.081C147.784 186.123 147.78 186.166 147.764 186.205C147.749 186.245 147.722 186.28 147.688 186.305C147.653 186.331 147.612 186.347 147.569 186.351C147.525 186.355 147.481 186.348 147.442 186.329C146.304 185.744 145.144 185.25 143.96 184.848C143.327 184.635 142.896 184.05 142.597 183.482ZM145.965 173.957C145.965 173.7 145.864 173.455 145.684 173.273C145.504 173.092 145.26 172.99 145.006 172.99H144.918C144.664 172.99 144.42 173.092 144.241 173.273C144.061 173.455 143.96 173.7 143.96 173.957V181.673C143.96 181.929 144.061 182.175 144.241 182.356C144.42 182.538 144.664 182.64 144.918 182.64H145.006C145.26 182.64 145.504 182.538 145.684 182.356C145.864 182.175 145.965 181.929 145.965 181.673V173.957Z" fill="#56473E"/>
<path d="M103.392 172.502C105.344 173.655 107.489 174.231 109.274 175.561C109.363 175.628 109.432 175.718 109.474 175.821C109.516 175.924 109.529 176.036 109.512 176.146C109.494 176.255 109.447 176.357 109.376 176.44C109.304 176.523 109.211 176.585 109.107 176.617C108.011 176.966 106.906 177.217 105.792 177.371C102.636 177.805 99.4797 180.129 97.3784 182.453C96.8275 183.062 96.5696 182.955 96.6047 182.133L97.2202 168.99C97.2221 168.924 97.2423 168.86 97.2784 168.805C97.3144 168.75 97.365 168.706 97.4243 168.678C97.4837 168.651 97.5495 168.64 97.6144 168.648C97.6793 168.656 97.7406 168.682 97.7916 168.723C99.5149 170.06 101.382 171.319 103.392 172.502Z" fill="#56473E"/>
<path d="M145.005 172.99H144.917C144.388 172.99 143.959 173.423 143.959 173.957V181.673C143.959 182.207 144.388 182.64 144.917 182.64H145.005C145.535 182.64 145.964 182.207 145.964 181.673V173.957C145.964 173.423 145.535 172.99 145.005 172.99Z" fill="#8C7970"/>
<path d="M133.233 183.597C133.86 183.52 134.317 182.976 134.604 181.965C134.612 181.94 134.626 181.917 134.644 181.898C134.662 181.879 134.685 181.864 134.71 181.856C134.735 181.847 134.761 181.845 134.787 181.848C134.813 181.852 134.838 181.862 134.859 181.877C136.436 182.941 136.597 184.437 135.343 186.364C135.15 186.654 134.886 186.84 134.552 186.923C132.623 187.408 130.953 188.366 129.54 189.797C128.685 190.666 127.676 190.979 126.516 190.737C123.949 190.205 121.273 190.388 118.489 191.287C116.941 191.783 115.35 191.429 114.708 189.779C113.817 187.485 112.29 185.862 110.128 184.91C109.953 184.833 109.787 184.732 109.635 184.608C108.932 184.035 108.709 183.467 108.967 182.906C109.137 182.533 109.363 182.495 109.644 182.79C109.978 183.127 110.35 183.405 110.761 183.624C110.84 183.664 110.928 183.684 111.017 183.681C111.106 183.677 111.193 183.652 111.269 183.606C111.345 183.56 111.409 183.495 111.454 183.417C111.498 183.34 111.523 183.252 111.526 183.163C111.578 180.963 111.358 178.776 110.866 176.6C110.844 176.503 110.848 176.402 110.879 176.308C110.909 176.213 110.964 176.129 111.038 176.063C111.112 175.998 111.202 175.954 111.298 175.936C111.395 175.918 111.495 175.927 111.587 175.961C115.28 177.339 118.835 178.09 122.252 178.214C125.672 178.338 129.03 177.3 132.336 176.467C132.376 176.455 132.418 176.454 132.459 176.462C132.499 176.47 132.538 176.488 132.57 176.514C132.603 176.54 132.629 176.573 132.646 176.611C132.663 176.649 132.672 176.691 132.67 176.733L132.494 182.914C132.491 183.01 132.509 183.106 132.545 183.194C132.582 183.283 132.638 183.362 132.708 183.427C132.778 183.492 132.861 183.541 132.952 183.57C133.043 183.6 133.138 183.609 133.233 183.597Z" fill="#FCDDCF"/>
<path d="M91.5585 195.925C94.7939 189.202 99.8142 177.824 108.773 178.79C109.453 178.861 109.491 179.062 108.887 179.393C102.548 182.897 100.052 188.759 100.016 195.792C99.9988 199.304 98.5305 201.788 97.836 205.167C97.4667 206.94 97.0974 210.55 94.328 210.053C91.1101 209.486 88.4491 208.09 86.3448 205.867C86.2429 205.757 86.1784 205.618 86.161 205.469C86.1436 205.321 86.1741 205.171 86.2481 205.042C88.0241 201.965 90.0551 199.056 91.5585 195.925Z" fill="#5588C3"/>
<path d="M135.844 191.055C138.35 187.889 139.572 182.257 135.616 179.721C135.434 179.603 135.396 179.452 135.501 179.269L135.624 179.065C135.689 178.946 135.783 178.917 135.906 178.976C139.393 180.696 141.275 183.242 141.55 186.612C141.843 190.254 141.79 194.736 141.392 200.057C141.357 200.542 141.125 200.669 140.697 200.439C139.836 199.978 139.194 199.49 138.2 199.321C135.381 198.819 132.823 198.804 130.525 199.277C129.482 199.49 129.297 199.182 129.971 198.355C131.905 195.99 133.863 193.556 135.844 191.055Z" fill="#5588C3"/>
<path d="M105.476 183.774C105.49 183.751 105.513 183.734 105.539 183.728C105.565 183.721 105.593 183.725 105.616 183.738L105.643 183.747C105.807 183.849 105.928 184.019 105.999 184.247C106.069 184.475 106.087 184.757 106.052 185.077C106.017 185.397 105.929 185.748 105.794 186.11C105.659 186.472 105.479 186.839 105.265 187.188L105.15 187.366C104.719 188.07 104.174 188.664 103.635 189.016C103.096 189.369 102.607 189.451 102.275 189.246L102.258 189.228C102.235 189.214 102.219 189.191 102.212 189.164C102.206 189.138 102.209 189.11 102.223 189.086L105.476 183.774Z" fill="#396299"/>
<path d="M125.655 200.564C123.627 200.717 122.03 200.762 120.863 200.697C118.419 200.549 118.357 200.871 120.678 201.663C121.669 202.006 123.208 201.844 125.294 201.175C125.412 201.749 125.382 202.272 125.206 202.745C124.116 205.648 123.712 208.525 123.993 211.375C124.526 216.803 125.142 222.222 125.839 227.632C125.851 227.703 126.045 230.177 126.42 235.055C126.619 237.668 127.191 243.7 128 246H108.5H104L101 245.5L102.365 241.529C103.543 241.5 104.082 240.634 103.983 238.931C103.543 231.327 103.156 224.06 102.822 217.131C102.746 215.446 101.875 213.311 100.211 210.727C98.848 208.599 98.8568 205.92 99.8415 203.659C101.16 200.596 101.735 197.125 101.565 193.247C101.545 192.793 101.662 192.345 101.901 191.961C102.139 191.577 102.489 191.277 102.901 191.1C105.556 189.971 107.01 188.109 107.262 185.513C107.297 185.111 107.461 185.049 107.754 185.327C108.405 185.959 109.135 186.485 109.943 186.905C113.61 188.812 113.065 195.074 118.911 193.078C121.279 192.274 123.636 192.052 125.98 192.413C127.879 192.706 129.901 192.218 131.273 190.754C132.093 189.885 133.022 189.291 134.06 188.972C135.402 188.564 135.616 188.898 134.702 189.974L125.655 200.564ZM115.289 200.023C116.004 200.224 116.71 200.46 117.408 200.732C117.959 200.945 118.044 200.824 117.663 200.368C117.37 200.02 117.042 199.795 116.678 199.694C111.632 198.258 108.792 195.482 105.591 191.074C105.515 190.973 105.43 190.961 105.336 191.038L105.143 191.18C104.956 191.328 104.935 191.499 105.082 191.695C107.825 195.295 110.858 198.772 115.289 200.023Z" fill="white"/>
<path d="M143.956 186.967L154.067 190.062C154.135 190.081 154.193 190.123 154.232 190.182C154.271 190.241 154.287 190.312 154.278 190.382L153.716 194.967C153.71 195.01 153.695 195.052 153.672 195.089C153.648 195.126 153.617 195.158 153.579 195.181C153.542 195.204 153.5 195.218 153.457 195.222C153.414 195.227 153.37 195.221 153.329 195.206L143.956 191.747C143.901 191.728 143.854 191.692 143.819 191.644C143.785 191.597 143.765 191.54 143.763 191.481L143.578 187.26C143.576 187.212 143.585 187.165 143.605 187.123C143.625 187.08 143.654 187.042 143.692 187.014C143.729 186.985 143.772 186.966 143.818 186.957C143.865 186.949 143.912 186.953 143.956 186.967Z" fill="#5588C3"/>
<path d="M158.112 211.472C157.963 220.82 158.833 230.345 159.897 239.631C159.997 240.488 159.621 240.89 158.772 240.837L158.297 240.81C157.564 240.763 157.127 240.379 156.987 239.657C156.635 237.907 156.392 236.172 156.257 234.451C155.583 225.795 155.12 216.048 154.868 205.21C154.751 200.255 154.956 195.422 155.483 190.709C155.565 189.947 155.987 189.559 156.749 189.548C158.045 189.524 158.669 190.127 158.622 191.357C158.393 197.34 158.224 204.045 158.112 211.472Z" fill="#EFDAA0"/>
<path d="M115.288 200.023C110.857 198.772 107.824 195.295 105.081 191.695C104.934 191.499 104.955 191.328 105.142 191.18L105.336 191.038C105.43 190.961 105.515 190.973 105.591 191.074C108.791 195.482 111.631 198.258 116.677 199.694C117.041 199.795 117.369 200.02 117.662 200.368C118.043 200.824 117.958 200.945 117.407 200.732C116.71 200.46 116.003 200.224 115.288 200.023Z" fill="#030202"/>
<path d="M127.597 217.309C127.369 214.063 127.838 211.172 129.004 208.635C130.082 206.294 131.908 204.49 134.481 203.225C134.722 203.109 134.993 203.063 135.264 203.092L142.886 203.899L143.484 193.451C143.496 193.174 143.64 193.061 143.915 193.114C147.022 193.712 150.061 194.649 153.032 195.926C153.32 196.05 153.46 196.272 153.454 196.591C153.331 202.563 153.475 208.928 153.885 215.686C153.893 215.82 153.848 215.951 153.761 216.052C153.674 216.153 153.551 216.216 153.419 216.227C145.512 216.871 137.52 217.433 129.444 217.912C128.887 217.948 128.271 217.747 127.597 217.309Z" fill="#5588C3"/>
<path d="M160.998 199.188C160.424 198.857 160.134 198.354 160.128 197.68L160.102 193.636C160.096 192.838 160.433 192.643 161.113 193.051C163.885 194.724 166.479 197.03 168.894 199.969C169.304 200.465 169.389 201.015 169.149 201.618L168.199 204.048C167.888 204.852 167.463 204.92 166.924 204.252C165.318 202.254 163.343 200.566 160.998 199.188Z" fill="#5588C3"/>
<path d="M87.0923 209.325C88.4052 210.431 89.8823 211.439 91.5234 212.35C93.2584 213.313 94.4951 214.257 95.2337 215.179C97.08 217.476 99.1461 221.281 99.3659 224.438C99.4538 225.706 100.263 226.425 99.8406 227.773C98.9087 228.264 98.0383 228.55 97.2294 228.633C91.7315 229.183 86.2981 230.076 80.9291 231.312C80.8763 231.323 80.85 231.356 80.85 231.409V231.649C80.85 231.743 80.8969 231.785 80.9906 231.773C83.2853 231.56 85.3251 230.664 87.6813 230.593C89.5189 230.54 91.1981 229.857 93.0972 229.671C95.3245 229.452 97.5196 229.056 99.6824 228.482C99.8289 228.447 100.049 228.293 100.342 228.021L101.133 227.737C101.954 232.071 102.168 236.391 101.775 240.695C101.746 241.026 101.942 241.304 102.364 241.529L101 245.5C95.0273 245.695 90.8229 244.654 89 244.5C82.1247 243.909 84 243.5 83.8304 243.781C82.8457 243.775 67.2077 240.878 65.0684 240.127C66.2934 233.44 68.0254 226.445 70.2644 219.143C70.4578 218.505 70.83 217.801 71.381 217.033C73.157 220.769 74.1827 223.241 74.4582 224.447C76.1873 231.997 77.5325 237.109 78.4937 239.781C78.7809 240.586 79.4169 240.79 80.4016 240.393C80.765 240.902 81.1782 241.035 81.6412 240.793C81.8178 240.699 81.9574 240.547 82.0373 240.362C82.1172 240.177 82.1325 239.969 82.0808 239.773L80.5598 234.008C80.5272 233.885 80.528 233.757 80.5621 233.635C80.5962 233.513 80.6625 233.402 80.754 233.315C80.8454 233.227 80.9588 233.165 81.0824 233.136C81.2059 233.106 81.3351 233.11 81.4566 233.147C83.1535 233.68 84.059 233.059 85.6152 232.775C89.4602 232.083 93.5485 231.397 97.88 230.717C98.0359 230.692 98.1952 230.7 98.3477 230.741C98.5003 230.782 98.6428 230.854 98.7661 230.953C98.8893 231.053 98.9907 231.177 99.0637 231.318C99.1368 231.459 99.1798 231.614 99.19 231.773C99.2955 233.239 99.4567 234.809 99.6736 236.482C99.8758 238.025 99.0845 239.187 98.2405 240.385C98.2041 240.435 98.1808 240.495 98.1725 240.557C98.1642 240.619 98.1712 240.682 98.1929 240.741C98.2147 240.8 98.2505 240.852 98.2971 240.894C98.3437 240.935 98.3998 240.964 98.4603 240.979L98.7504 241.05C98.9009 241.089 99.0596 241.085 99.2087 241.038C99.3578 240.991 99.4914 240.903 99.5945 240.784C100.556 239.678 100.972 238.407 100.843 236.97C100.667 234.983 100.579 232.926 100.579 230.797C100.578 230.694 100.556 230.592 100.516 230.497C100.475 230.403 100.416 230.318 100.342 230.247C100.268 230.177 100.18 230.122 100.085 230.087C99.99 230.052 99.8889 230.037 99.7879 230.043C96.6931 230.25 93.5661 230.694 90.4068 231.374C88.9122 231.699 87.444 231.974 86.0021 232.198C84.5426 232.417 83.0538 232.683 81.5357 232.997C81.2031 233.064 80.858 233.002 80.5694 232.824C80.2809 232.647 80.0702 232.366 79.9796 232.039C78.567 226.889 77.0753 222.15 75.5044 217.822C75.2143 217.024 75.355 216.243 74.8187 215.534C73.3944 213.636 72.9899 210.948 74.2296 208.793C75.7946 206.062 77.3771 203.682 78.9773 201.654C81.7643 198.124 86.4505 195.729 90.3805 193.343C90.8377 193.066 90.9783 193.184 90.8025 193.698C89.7768 196.66 88.1561 198.907 85.9405 200.439C82.0017 203.153 78.7487 206.691 76.7969 210.957C76.3104 212.033 75.7565 213.062 75.1352 214.044C75.1065 214.092 75.0929 214.148 75.0961 214.205C75.0992 214.261 75.1189 214.316 75.1528 214.363L75.4253 214.727C75.6305 215.004 75.8063 214.987 75.9528 214.673C78.4673 209.246 80.9379 205.104 85.9141 201.326C86.3772 200.971 86.5237 201.074 86.3537 201.636C85.9141 203.028 84.9558 204.048 84.4723 205.37C84.3492 205.701 84.399 206.005 84.6217 206.283L87.0923 209.325ZM78.6053 221.145C78.6529 221.108 78.6878 221.056 78.708 220.991C78.7282 220.925 78.7334 220.849 78.7232 220.765C78.713 220.682 78.6876 220.593 78.6486 220.504C78.6095 220.414 78.5575 220.327 78.4955 220.245C78.3703 220.082 78.212 219.954 78.0556 219.891C77.8991 219.828 77.7573 219.834 77.6612 219.909C77.6136 219.946 77.5787 219.998 77.5585 220.063C77.5383 220.129 77.5331 220.205 77.5433 220.289C77.5535 220.372 77.5789 220.461 77.6179 220.55C77.657 220.639 77.709 220.727 77.771 220.808C77.8962 220.972 78.0545 221.1 78.2109 221.163C78.3674 221.226 78.5092 221.22 78.6053 221.145ZM79.496 223.826C79.4754 223.79 79.4475 223.758 79.4141 223.733C79.3807 223.708 79.3425 223.691 79.3019 223.682C79.2614 223.672 79.2194 223.672 79.1786 223.68C79.1379 223.688 79.0992 223.705 79.0652 223.729C78.8249 223.9 78.7487 224.137 78.8366 224.438C79.0066 225.006 79.2381 225.038 79.5312 224.536C79.6601 224.317 79.6484 224.08 79.496 223.826ZM80.1554 227.986L80.5422 228.952C80.7005 229.343 80.8763 229.352 81.0698 228.979C81.3863 228.382 81.2075 227.93 80.5335 227.622C80.4823 227.599 80.4254 227.591 80.3699 227.6C80.3145 227.61 80.2631 227.636 80.2225 227.675C80.1818 227.714 80.1536 227.765 80.1417 227.82C80.1297 227.875 80.1345 227.933 80.1554 227.986ZM83.4941 240.278C83.5356 240.279 83.5773 240.262 83.6167 240.227C83.656 240.192 83.6924 240.14 83.7236 240.074C83.7548 240.008 83.7803 239.93 83.7987 239.843C83.817 239.756 83.8277 239.663 83.8304 239.569C83.833 239.474 83.8274 239.381 83.8139 239.293C83.8004 239.206 83.7793 239.126 83.7517 239.058C83.7242 238.991 83.6908 238.937 83.6534 238.9C83.616 238.863 83.5754 238.843 83.5338 238.842C83.4923 238.84 83.4506 238.858 83.4112 238.893C83.3718 238.928 83.3355 238.98 83.3043 239.046C83.273 239.111 83.2475 239.19 83.2292 239.277C83.2109 239.363 83.2001 239.456 83.1975 239.551C83.1949 239.645 83.2005 239.739 83.214 239.826C83.2275 239.914 83.2486 239.994 83.2761 240.061C83.3037 240.129 83.3371 240.183 83.3745 240.22C83.4119 240.257 83.4525 240.277 83.4941 240.278Z" fill="#5588C3"/>
<path d="M160.197 218.23C161.059 218.46 161.707 218.457 162.14 218.221C162.375 218.091 162.369 217.97 162.123 217.857C161.654 217.638 161.036 217.659 160.268 217.919L160.022 217.733C159.822 217.585 159.723 217.387 159.723 217.139L159.793 200.35C159.793 199.983 159.963 199.874 160.303 200.022C162.879 201.166 164.84 203.303 167.011 205.059C167.252 205.254 167.316 205.5 167.205 205.795L163.723 214.886C163.623 215.14 163.439 215.288 163.169 215.33L161.657 215.542C161.593 215.552 161.534 215.582 161.489 215.626C161.443 215.671 161.413 215.728 161.402 215.791L161.349 216.101C161.339 216.161 161.352 216.222 161.387 216.273C161.421 216.324 161.473 216.361 161.534 216.376L162.703 216.607C163.102 216.689 163.237 216.926 163.108 217.316C162.659 218.655 162.228 220.092 162.088 221.511C161.765 224.84 161.414 228.06 161.033 231.17C160.98 231.595 160.91 231.598 160.822 231.178C159.948 227.016 159.74 222.7 160.197 218.23Z" fill="#5588C3"/>
<path d="M125.653 200.563C125.477 200.753 125.357 200.957 125.292 201.175C123.205 201.844 121.667 202.006 120.676 201.663C118.355 200.871 118.417 200.549 120.861 200.697C122.027 200.762 123.625 200.717 125.653 200.563Z" fill="#665E5A"/>
<path d="M142.886 203.898L135.263 203.091C134.993 203.062 134.722 203.108 134.481 203.224C131.908 204.489 130.082 206.292 129.003 208.634C127.837 211.17 127.368 214.062 127.597 217.308C127.585 217.337 127.556 217.396 127.509 217.485C127.462 217.562 127.438 217.63 127.438 217.689C127.444 217.801 127.497 217.878 127.597 217.92C126.899 218.056 126.65 218.449 126.849 219.099C126.234 215.782 125.407 210.079 127.35 207.162C128.663 205.193 130.269 203.295 132.169 201.468C132.448 201.197 132.805 201.02 133.188 200.962C136.049 200.566 138.695 201.095 141.128 202.55C141.267 202.632 141.389 202.743 141.488 202.878C141.763 203.274 142.229 203.614 142.886 203.898Z" fill="#396299"/>
<path d="M126.744 205.247C126.727 205.271 126.7 205.288 126.671 205.293C126.641 205.298 126.611 205.291 126.586 205.273L126.56 205.255C126.318 205.08 126.233 204.702 126.326 204.203C126.418 203.704 126.679 203.126 127.052 202.595L127.237 202.337C127.609 201.807 128.063 201.368 128.498 201.115C128.933 200.863 129.314 200.817 129.558 200.989L129.584 200.998C129.609 201.016 129.625 201.043 129.63 201.073C129.635 201.103 129.628 201.133 129.611 201.158L126.744 205.247Z" fill="#5588C3"/>
<path d="M171.89 204.289C169.71 209.143 168.412 212.312 167.995 213.796C167.028 217.267 166.114 222.677 165.252 230.027C164.772 234.142 164.233 236.837 163.5 241L161 241.5C161.85 231.579 162.961 225.296 163.898 220.679C164.953 215.499 167.061 209.587 170.22 202.941C170.349 202.669 170.528 202.63 170.756 202.825C171.413 203.405 171.791 203.893 171.89 204.289Z" fill="#396299"/>
<path d="M171.471 204.146C177.327 214.705 180.996 225.345 183.48 236.146C183.48 236.646 178.198 238.336 176.48 238.646C175.98 239.146 167.757 241.12 165.48 241.146C162.357 241.183 166.593 241.515 163.48 241.646C164.201 237.937 164.471 230.749 164.944 227.082C165.791 220.533 166.69 215.712 167.641 212.619C168.05 211.296 169.327 208.472 171.471 204.146Z" fill="#5588C3"/>
<path d="M87.0918 209.326L94.8815 211.783C95.1746 211.877 95.4119 212.046 95.5936 212.288C96.5842 213.595 97.7184 214.899 98.9961 216.2C99.9164 217.14 100.544 218.364 100.878 219.871C101.452 222.467 101.537 225.089 101.133 227.738L100.341 228.022C100.371 227.874 100.204 227.791 99.8402 227.774C100.262 226.426 99.4533 225.707 99.3654 224.439C99.1456 221.282 97.0795 217.477 95.2332 215.18C94.4946 214.257 93.2579 213.314 91.523 212.35C89.8818 211.44 88.4047 210.432 87.0918 209.326Z" fill="#396299"/>
<path d="M98.0303 210.266C98.8656 211.472 99.5865 212.882 100.158 214.204C100.404 214.777 100.281 214.875 99.7887 214.497C98.7278 213.681 97.8779 212.743 97.239 211.685C96.946 211.194 96.9782 210.715 97.3357 210.248C97.5761 209.935 97.8076 209.941 98.0303 210.266Z" fill="#5588C3"/>
<path d="M80.4007 240.394C79.416 240.79 78.78 240.586 78.4928 239.782C77.5316 237.109 76.1864 231.998 74.4573 224.448C74.1818 223.241 73.1561 220.77 71.3801 217.033C71.1984 216.347 71.216 215.688 71.4329 215.055C71.9135 213.672 72.4 213.672 72.8923 215.055C75.2251 221.642 77.3293 228.178 79.205 234.665C79.7501 236.539 80.1486 238.449 80.4007 240.394Z" fill="#396299"/>
<path d="M137 245L130 246L126.848 219.099C126.648 218.449 126.897 218.056 127.595 217.92C128.292 218.156 129.013 218.28 129.758 218.292C132.976 218.34 136.856 218.168 141.398 217.778C145.402 217.435 149.373 217.181 153.312 217.015C153.61 216.997 153.769 217.139 153.786 217.441L154.208 224.793C154.232 225.296 154.041 225.689 153.637 225.973C151.325 227.605 149.03 228.571 146.076 228.199C142.638 227.764 138.831 227.56 135.956 225.84C135.788 225.737 135.645 225.599 135.537 225.435C135.429 225.271 135.359 225.085 135.332 224.891L134.804 221.006C134.793 220.922 134.799 220.837 134.821 220.756C134.843 220.675 134.882 220.599 134.933 220.533C134.985 220.468 135.05 220.414 135.123 220.374C135.196 220.335 135.276 220.312 135.358 220.306C138.022 220.075 140.66 219.507 143.341 219.525C146.436 219.555 149.581 219.416 152.775 219.108C152.91 219.096 152.975 219.022 152.969 218.887L152.951 218.656C152.95 218.644 152.947 218.633 152.941 218.623C152.936 218.612 152.928 218.603 152.919 218.596C152.91 218.588 152.9 218.583 152.889 218.579C152.878 218.576 152.866 218.575 152.854 218.576C147.808 219.055 142.726 218.612 137.671 219.481C135.695 219.824 133.582 219.88 131.332 219.649C130.605 219.578 129.907 219.711 129.239 220.048C128.665 220.344 128.697 220.45 129.336 220.368L131.938 220.039C132.178 220.008 132.421 220.028 132.653 220.098C132.884 220.168 133.099 220.286 133.282 220.445C133.465 220.604 133.613 220.8 133.716 221.021C133.82 221.241 133.876 221.481 133.881 221.725C133.911 222.966 134.069 224.22 134.356 225.485C134.626 226.668 134.79 227.918 134.848 229.237C135.048 233.778 136.009 240.69 137 245ZM130.004 222.611C129.869 223.297 129.441 223.637 128.72 223.631C127.847 223.626 127.788 223.841 128.545 224.279C129.465 224.811 130.253 224.462 130.91 223.232C130.951 223.155 130.948 223.084 130.901 223.019L130.549 222.496C130.279 222.106 130.098 222.144 130.004 222.611ZM149.049 225.583C148.995 225.414 148.902 225.258 148.775 225.127C148.648 224.995 148.491 224.889 148.311 224.815C148.131 224.742 147.933 224.701 147.727 224.696C147.522 224.692 147.313 224.723 147.113 224.788C146.709 224.92 146.365 225.182 146.157 225.517C145.949 225.852 145.894 226.233 146.004 226.575C146.058 226.745 146.151 226.9 146.278 227.032C146.405 227.163 146.562 227.269 146.742 227.343C146.922 227.417 147.12 227.457 147.326 227.462C147.531 227.467 147.74 227.436 147.94 227.37C148.344 227.239 148.687 226.977 148.895 226.641C149.103 226.306 149.159 225.926 149.049 225.583ZM129.731 236.19C129.716 236.44 129.798 236.687 129.958 236.878C130.118 237.07 130.346 237.192 130.593 237.219C131.478 237.307 132.014 236.923 132.202 236.066C132.425 235.037 132.014 234.469 130.971 234.363C130.438 234.31 129.94 234.387 129.476 234.593C129.422 234.618 129.373 234.655 129.336 234.702C129.299 234.75 129.273 234.805 129.262 234.865C129.251 234.924 129.254 234.985 129.271 235.043C129.289 235.101 129.32 235.154 129.362 235.197C129.632 235.474 129.755 235.806 129.731 236.19Z" fill="#5588C3"/>
<path d="M160.27 217.92C161.037 217.66 161.656 217.639 162.125 217.858C162.371 217.97 162.377 218.091 162.142 218.222C161.709 218.458 161.061 218.461 160.199 218.23C160.404 218.366 160.428 218.263 160.27 217.92Z" fill="#56473E"/>
<path d="M77.7711 220.808C78.0318 221.15 78.4053 221.3 78.6053 221.145C78.8054 220.99 78.7562 220.587 78.4955 220.245C78.2348 219.904 77.8613 219.753 77.6612 219.908C77.4612 220.064 77.5103 220.467 77.7711 220.808Z" fill="#56473E"/>
<path d="M130.007 222.611C130.101 222.144 130.283 222.106 130.552 222.496L130.904 223.019C130.951 223.084 130.954 223.155 130.913 223.232C130.256 224.462 129.468 224.811 128.548 224.279C127.792 223.841 127.85 223.625 128.724 223.631C129.445 223.637 129.872 223.297 130.007 222.611Z" fill="#030202"/>
<path d="M79.4975 223.827C79.6499 224.081 79.6616 224.318 79.5326 224.536C79.2396 225.039 79.008 225.006 78.8381 224.439C78.7501 224.137 78.8263 223.901 79.0666 223.729C79.1007 223.705 79.1393 223.689 79.1801 223.68C79.2209 223.672 79.2628 223.673 79.3034 223.682C79.3439 223.691 79.3821 223.709 79.4155 223.734C79.4489 223.759 79.4768 223.79 79.4975 223.827Z" fill="#030202"/>
<path d="M149.05 225.583C149.159 225.926 149.104 226.307 148.896 226.642C148.688 226.977 148.344 227.239 147.941 227.371C147.741 227.436 147.532 227.467 147.326 227.462C147.121 227.458 146.923 227.417 146.743 227.343C146.563 227.27 146.405 227.164 146.278 227.032C146.152 226.9 146.059 226.745 146.004 226.576C145.895 226.233 145.95 225.853 146.158 225.517C146.366 225.182 146.71 224.92 147.114 224.788C147.314 224.723 147.522 224.692 147.728 224.697C147.933 224.701 148.132 224.742 148.311 224.816C148.491 224.89 148.649 224.995 148.776 225.127C148.902 225.259 148.995 225.414 149.05 225.583ZM148.485 225.965C148.478 225.782 148.378 225.61 148.206 225.487C148.035 225.363 147.806 225.299 147.571 225.308C147.455 225.313 147.34 225.335 147.233 225.374C147.127 225.413 147.031 225.468 146.951 225.535C146.871 225.603 146.809 225.681 146.767 225.767C146.726 225.853 146.707 225.943 146.71 226.034C146.717 226.217 146.817 226.39 146.989 226.513C147.16 226.636 147.388 226.7 147.624 226.691C147.74 226.686 147.855 226.664 147.961 226.625C148.068 226.586 148.163 226.532 148.243 226.464C148.323 226.397 148.386 226.318 148.427 226.233C148.469 226.147 148.488 226.056 148.485 225.965Z" fill="#030202"/>
<path d="M147.624 226.691C148.114 226.672 148.499 226.347 148.485 225.965C148.47 225.583 148.061 225.289 147.571 225.308C147.081 225.327 146.695 225.652 146.71 226.034C146.724 226.416 147.134 226.71 147.624 226.691Z" fill="#5588C3"/>
<path d="M80.1549 227.986C80.134 227.933 80.1292 227.876 80.1412 227.82C80.1531 227.765 80.1813 227.714 80.222 227.675C80.2626 227.636 80.314 227.61 80.3694 227.601C80.4249 227.591 80.4818 227.599 80.533 227.622C81.207 227.93 81.3858 228.382 81.0693 228.979C80.8759 229.352 80.7 229.343 80.5418 228.953L80.1549 227.986Z" fill="#56473E"/>
<path d="M138.71 228.66C141.061 230.339 143.584 231.368 146.28 231.746C148.241 232.03 150.166 231.001 151.977 230.292C153.097 229.854 153.372 229.092 152.804 228.004C153.144 227.732 153.443 227.596 153.701 227.596C153.999 227.596 154.164 227.746 154.193 228.048L155.362 240.225C155.397 240.562 155.251 240.778 154.923 240.873C149.343 242.445 143.941 242.623 138.719 241.405C137.752 241.174 137.183 240.556 137.013 239.551C136.374 235.802 135.982 231.956 135.835 228.013C135.818 227.628 135.982 227.51 136.328 227.658L138.71 228.66Z" fill="#5588C3"/>
<path d="M99.8403 227.773C100.204 227.791 100.371 227.874 100.341 228.022C100.048 228.294 99.8286 228.447 99.682 228.483C97.5192 229.056 95.3241 229.453 93.0968 229.671C91.1978 229.858 89.5185 230.541 87.681 230.594C85.3247 230.665 83.285 231.56 80.9903 231.773C80.8965 231.785 80.8496 231.744 80.8496 231.649V231.41C80.8496 231.356 80.876 231.324 80.9287 231.312C86.2977 230.076 91.7312 229.184 97.2291 228.634C98.0379 228.551 98.9083 228.264 99.8403 227.773Z" fill="#030202"/>
<path d="M152.803 228.004C153.371 229.092 153.096 229.855 151.976 230.292C150.165 231.002 148.239 232.03 146.279 231.747C143.583 231.368 141.059 230.339 138.709 228.66C141.903 229.027 145.074 229.382 148.222 229.724C149.171 229.825 150.698 229.251 152.803 228.004Z" fill="#396299"/>
<path d="M129.734 236.19C129.757 235.806 129.634 235.475 129.365 235.197C129.322 235.154 129.291 235.101 129.274 235.043C129.256 234.985 129.253 234.924 129.264 234.865C129.276 234.805 129.301 234.75 129.338 234.702C129.376 234.655 129.424 234.618 129.479 234.594C129.942 234.387 130.44 234.31 130.973 234.363C132.017 234.469 132.427 235.037 132.204 236.066C132.017 236.923 131.48 237.308 130.595 237.219C130.348 237.192 130.121 237.07 129.96 236.878C129.8 236.687 129.719 236.44 129.734 236.19ZM131.438 235.807C131.441 235.752 131.426 235.695 131.391 235.641C131.357 235.587 131.304 235.536 131.237 235.492C131.17 235.448 131.089 235.411 130.998 235.383C130.908 235.355 130.811 235.338 130.712 235.331C130.512 235.317 130.317 235.349 130.17 235.418C130.023 235.488 129.937 235.591 129.929 235.704C129.925 235.759 129.941 235.816 129.975 235.87C130.01 235.924 130.062 235.975 130.13 236.019C130.197 236.063 130.278 236.1 130.368 236.128C130.458 236.156 130.556 236.173 130.655 236.18C130.855 236.194 131.05 236.162 131.196 236.092C131.343 236.023 131.43 235.92 131.438 235.807Z" fill="#030202"/>
<path d="M130.654 236.181C131.071 236.209 131.421 236.042 131.437 235.808C131.453 235.573 131.128 235.36 130.711 235.331C130.295 235.303 129.944 235.469 129.928 235.704C129.912 235.939 130.237 236.152 130.654 236.181Z" fill="#5588C3"/>
<path d="M83.1969 239.552C83.186 239.948 83.3187 240.274 83.4935 240.279C83.6682 240.284 83.8187 239.966 83.8297 239.57C83.8407 239.173 83.708 238.848 83.5332 238.843C83.3585 238.838 83.2079 239.155 83.1969 239.552Z" fill="#56473E"/>
</g>
</g>
<defs>
<clipPath id="clip0_977_1798">
<rect width="257" height="248" fill="white"/>
</clipPath>
<clipPath id="clip1_977_1798">
<rect width="121" height="175" fill="white" transform="translate(64 75)"/>
</clipPath>
</defs>
</svg>
