<?xml version="1.0" standalone="no"?>
<!DOCTYPE svg PUBLIC "-//W3C//DTD SVG 20010904//EN"
 "http://www.w3.org/TR/2001/REC-SVG-20010904/DTD/svg10.dtd">
<svg version="1.0" xmlns="http://www.w3.org/2000/svg"
 width="89.000000pt" height="89.000000pt" viewBox="0 0 89.000000 89.000000"
 preserveAspectRatio="xMidYMid meet">
<metadata>
Created by potrace 1.14, written by Peter Selinger 2001-2017
</metadata>
<g transform="translate(0.000000,89.000000) scale(0.100000,-0.100000)"
fill="#000000" stroke="none">
<path d="M330 850 c-44 -23 -75 -55 -98 -104 -20 -41 -29 -131 -13 -140 5 -3
7 -14 4 -25 -2 -10 5 -40 17 -66 18 -40 20 -58 15 -123 -6 -79 -20 -120 -56
-163 -21 -27 -62 -155 -54 -169 8 -13 166 -32 265 -32 99 0 271 24 313 43 23
10 24 14 15 46 -16 59 -48 127 -72 153 -40 43 -65 196 -42 257 13 36 23 82 30
145 5 38 -42 126 -86 161 -33 27 -45 30 -120 32 -65 3 -91 -1 -118 -15z"/>
</g>
</svg>
