<svg width="24" height="24" viewBox="0 0 24 24" fill="none" xmlns="http://www.w3.org/2000/svg">
<path d="M20.5 11.9998V12C20.5 15.4894 19.9905 17.5509 18.7691 18.7715C17.5477 19.9922 15.4862 20.5 12 20.5C8.51383 20.5 6.45231 19.9922 5.23087 18.7715C4.00951 17.5509 3.5 15.4894 3.5 12C3.5 8.51024 4.0079 6.44892 5.22841 5.22841C6.44892 4.0079 8.51024 3.5 12 3.5C15.488 3.5 17.5503 4.00787 18.7717 5.22852C19.993 6.44901 20.5017 8.51031 20.5 11.9998Z" stroke="black"/>
<mask id="path-2-inside-1_1054_208" fill="white">
<path fill-rule="evenodd" clip-rule="evenodd" d="M5.32889 5.32889C4.15244 6.50534 3.64139 8.51181 3.64139 12C3.64139 15.4882 4.15244 17.4947 5.32889 18.6711C6.50533 19.8476 8.51524 20.3586 11.9966 20.3586C15.4779 20.3586 17.4878 19.8476 18.6643 18.6711C19.8407 17.4947 20.3518 15.4882 20.3518 12C20.3518 8.51181 19.8407 6.50534 18.6643 5.32889C17.4947 4.15244 15.4848 3.64139 12 3.64139C8.51524 3.64139 6.50533 4.15244 5.32889 5.32889ZM3 12C3 4.99962 4.99962 3 12 3C18.9969 3 21 4.99962 21 12C21 19.0004 18.9935 21 12 21C5.00648 21 3 19.0004 3 12Z"/>
</mask>
<path d="M18.6643 5.32889L17.9551 6.03393L17.9571 6.03599L18.6643 5.32889ZM4.62178 4.62178C3.13648 6.10708 2.64139 8.49084 2.64139 12H4.64139C4.64139 8.53279 5.16839 6.90359 6.03599 6.03599L4.62178 4.62178ZM2.64139 12C2.64139 15.5092 3.13648 17.8929 4.62178 19.3782L6.03599 17.964C5.16839 17.0964 4.64139 15.4672 4.64139 12H2.64139ZM4.62178 19.3782C6.10708 20.8635 8.49427 21.3586 11.9966 21.3586V19.3586C8.53621 19.3586 6.90359 18.8316 6.03599 17.964L4.62178 19.3782ZM11.9966 21.3586C15.4989 21.3586 17.8861 20.8635 19.3714 19.3782L17.9571 17.964C17.0895 18.8316 15.4569 19.3586 11.9966 19.3586V21.3586ZM19.3714 19.3782C20.8567 17.8929 21.3518 15.5092 21.3518 12H19.3518C19.3518 15.4672 18.8247 17.0964 17.9571 17.964L19.3714 19.3782ZM21.3518 12C21.3518 8.49084 20.8567 6.10708 19.3714 4.62178L17.9571 6.03599C18.8247 6.90359 19.3518 8.53279 19.3518 12H21.3518ZM19.3734 4.62385C17.8941 3.13586 15.5041 2.64139 12 2.64139V4.64139C15.4654 4.64139 17.0952 5.16902 17.9551 6.03392L19.3734 4.62385ZM12 2.64139C8.49445 2.64139 6.10714 3.13642 4.62178 4.62178L6.03599 6.03599C6.90353 5.16846 8.53603 4.64139 12 4.64139V2.64139ZM4 12C4 8.52068 4.51589 6.64803 5.58196 5.58196C6.64803 4.51589 8.52068 4 12 4V2C8.47894 2 5.85158 2.48392 4.16775 4.16775C2.48392 5.85158 2 8.47894 2 12H4ZM12 4C15.4774 4 17.3503 4.51584 18.4169 5.58207C19.4833 6.64823 20 8.521 20 12H22C22 8.47862 21.5151 5.85138 19.8308 4.16764C18.1467 2.48397 15.5195 2 12 2V4ZM20 12C20 15.4787 19.4826 17.3516 18.4157 18.4178C17.3486 19.4842 15.4756 20 12 20V22C15.5179 22 18.1449 21.516 19.8295 19.8325C21.5142 18.1488 22 15.5217 22 12H20ZM12 20C8.52443 20 6.65139 19.4842 5.58432 18.4178C4.5174 17.3516 4 15.4787 4 12H2C2 15.5217 2.48584 18.1488 4.17054 19.8325C5.85509 21.516 8.48205 22 12 22V20Z" fill="black" mask="url(#path-2-inside-1_1054_208)"/>
<path fill-rule="evenodd" clip-rule="evenodd" d="M11.7049 7.17773H7.82227V18.1088H10.8406V15.8245H11.7049C14.1641 15.8245 16.1809 13.9003 16.1809 11.5028C16.1809 9.10533 14.1641 7.17773 11.7049 7.17773ZM10.8406 12.8919V10.1069H11.7049C12.5212 10.1069 13.1626 10.7414 13.1626 11.4994C13.1626 12.2574 12.5212 12.8919 11.7049 12.8919H10.8406Z" fill="black"/>
<path fill-rule="evenodd" clip-rule="evenodd" d="M8.78516 6.85498H12.3454C14.64 6.85498 16.4989 8.64538 16.4989 10.8542C16.4989 13.0631 14.64 14.8535 12.3454 14.8535H11.1586V17.1378H8.78516V6.85498ZM11.1586 12.5692H12.3454C13.3297 12.5692 14.1255 11.8009 14.1255 10.8542C14.1255 9.90757 13.3297 9.13928 12.3454 9.13928H11.1586V12.5692Z" fill="#D9D9D9"/>
<path fill-rule="evenodd" clip-rule="evenodd" d="M8.46484 6.53613H12.3475C14.8101 6.53613 16.8235 8.45686 16.8235 10.8578C16.8235 13.2587 14.8067 15.1794 12.3475 15.1794H11.4831V17.4637H8.46484V6.53613ZM9.10966 7.17752V16.8223H10.8417V14.538H12.3509C14.4808 14.538 16.1821 12.878 16.1821 10.8578C16.1821 8.83758 14.4774 7.17752 12.3509 7.17752H9.10966ZM10.8417 8.82043H12.3509C13.4999 8.82043 14.4534 9.71906 14.4534 10.8578C14.4534 11.9931 13.4999 12.8951 12.3509 12.8951H10.8417V8.82043ZM11.4831 9.46182V12.2469H12.3475C13.1638 12.2469 13.8052 11.6124 13.8052 10.8543C13.8052 10.0963 13.1638 9.46182 12.3475 9.46182H11.4831Z" fill="black"/>
</svg>
