<svg width="24" height="24" viewBox="0 0 24 24" fill="none" xmlns="http://www.w3.org/2000/svg">
<path d="M17.0902 2.6665H6.90845C6.35132 2.6665 5.79966 2.77624 5.28494 2.98944C4.77023 3.20264 4.30254 3.51514 3.9086 3.90908C3.11299 4.70469 2.66602 5.78377 2.66602 6.90893V17.0907C2.66602 17.6479 2.77576 18.1995 2.98896 18.7143C3.20216 19.229 3.51465 19.6966 3.9086 20.0906C4.70421 20.8862 5.78329 21.3332 6.90845 21.3332H17.0902C17.6474 21.3332 18.199 21.2234 18.7137 21.0102C19.2285 20.797 19.6961 20.4845 20.0901 20.0906C20.484 19.6966 20.7965 19.229 21.0097 18.7143C21.2229 18.1995 21.3327 17.6479 21.3327 17.0907V6.90893C21.3327 6.3518 21.2229 5.80014 21.0097 5.28542C20.7965 4.77071 20.484 4.30303 20.0901 3.90908C19.6961 3.51514 19.2285 3.20264 18.7137 2.98944C18.199 2.77624 17.6474 2.6665 17.0902 2.6665ZM6.05996 6.90893C5.89215 6.90893 5.7281 6.85917 5.58857 6.76593C5.44904 6.6727 5.34028 6.54018 5.27606 6.38514C5.21184 6.2301 5.19504 6.0595 5.22778 5.89491C5.26052 5.73032 5.34133 5.57914 5.45999 5.46047C5.57865 5.34181 5.72984 5.261 5.89443 5.22826C6.05902 5.19552 6.22962 5.21233 6.38466 5.27655C6.5397 5.34076 6.67222 5.44952 6.76545 5.58905C6.85868 5.72858 6.90845 5.89263 6.90845 6.06044C6.90845 6.28548 6.81905 6.50129 6.65993 6.66041C6.50081 6.81953 6.28499 6.90893 6.05996 6.90893ZM11.9993 17.0907C10.9924 17.0907 10.0082 16.7922 9.171 16.2328C8.3338 15.6734 7.68129 14.8783 7.29597 13.948C6.91065 13.0178 6.80983 11.9942 7.00627 11.0066C7.2027 10.0191 7.68756 9.112 8.39954 8.40002C9.11152 7.68804 10.0186 7.20318 11.0061 7.00675C11.9937 6.81031 13.0173 6.91113 13.9475 7.29645C14.8778 7.68177 15.6729 8.33428 16.2323 9.17148C16.7917 10.0087 17.0902 10.993 17.0902 11.9998C17.0902 13.35 16.5539 14.6449 15.5991 15.5997C14.6444 16.5544 13.3495 17.0907 11.9993 17.0907Z" fill="#5D6673"/>
</svg>
